<?xml version="1.0" encoding="utf-8"?>
<!-- Generator: Adobe Illustrator 27.1.0, SVG Export Plug-In . SVG Version: 6.00 Build 0)  -->
<svg version="1.1" id="Layer_1" xmlns="http://www.w3.org/2000/svg" xmlns:xlink="http://www.w3.org/1999/xlink" x="0px" y="0px"
	 viewBox="0 0 200 200" style="enable-background:new 0 0 200 200;" xml:space="preserve">
<style type="text/css">
	.st0{fill:#96C43D;}
</style>
<path class="st0" d="M36.1,129.7c-10.7-2.2-15.4-14.2-7.3-22.9C23,100,23.6,92.9,28.9,87c-2.8-2.9-4.3-6.3-4.2-10.4
	c0.2-6.5,5.9-12.2,12.4-12.4c2.4-0.1,4.7,0,7.7,0c-1.2-0.6-1.8-0.9-2.4-1.3C21.1,51.9,18.6,22,37.8,7.7c3.3-2.5,5.5-1.7,6.5,2.3
	c1.5,5.8,3.1,11.6,4.6,17.3c0.2,0.6,0.4,1.1,0.6,1.9c4.1-1.1,8.2-2.2,12.5-3.3c-1.2-4.4-2.3-8.7-3.5-13c-0.6-2.1-1.1-4.2-1.7-6.3
	c-1-3.8,0.6-5.6,4.5-5.2c13.5,1.6,25,11.9,28,25.1c1.4,6,1.1,12-0.9,18.2c2.9,0,5.6,0,8.3,0c18,0,33,13,35.6,30.9
	c0.1,0.5,0.2,1.1,0.4,1.7c3.2,0,6.4,0,9.8,0c0-1.1,0-2.2,0-3.4c0.1-5.3,4.3-9.6,9.7-9.6c6.4,0,12.8,0,19.2,0c2.7,0,3.8,1.2,3.8,3.9
	c0,23.6,0,47.2,0,70.7c0,2.7-1.1,3.9-3.8,3.9c-6.3,0-12.5,0-18.8,0c-5.9,0-10-4.2-10.1-10c0-0.9,0-1.9,0-3c-2,0-3.9-0.1-5.8,0.1
	c-0.4,0-1,0.7-1.1,1.2c-2.4,10-9.6,16.8-19.7,18.1c-3.3,0.4-6.8,0.1-10.5,0.1c1,3.9,2,7.6,3,11.2c1.6,6,3.3,11.9,4.8,17.9
	c2.2,8.9-2.8,17.6-11.4,20c-8.7,2.4-17.6-2.5-20.1-11.5c-3.3-11.8-6.5-23.7-9.6-35.6c-0.4-1.6-1.1-2-2.6-1.9
	c-6.7,0.1-13.4-0.3-20,0.1C39.6,150,31,140.4,36.1,129.7z M142.5,83.8c-4.1,0-8,0-12,0c-3.3,0-4.2-0.9-4.3-4.2
	c-0.6-13.1-9.2-24-21.9-27.4c-6-1.7-12.2-0.9-18.3-1c-1.7,2.2-4.1,4.2-5,6.7c-0.6,1.7,1,4.2,1.6,6.4c1,0,1.8,0,2.6,0
	c4.9,0,9.8,0,14.7,0c2,0,3.3,1.3,3.3,3.2c0,1.9-1.3,3.3-3.3,3.4c-0.5,0-1.1,0-1.6,0c-19.5,0-39,0-58.5,0c-0.5,0-1.1,0-1.6,0
	c-4,0.1-6.9,2.9-6.9,6.6c0,3.6,2.9,6.4,6.8,6.5c6.2,0.1,12.4,0,18.6,0c2.6,0,4,1.1,4,3.3c0,2.1-1.4,3.3-4,3.3c-6.1,0-12.1,0-18.2,0
	c-2.3,0-4.3,0.7-5.8,2.5c-1.6,2-1.9,4.3-0.8,6.7c1.2,2.6,3.4,3.8,6.2,3.8c6.3,0,12.7,0,19,0c2.4,0,4,1.8,3.5,3.9
	c-0.5,1.8-1.8,2.6-3.6,2.6c-6.3,0-12.5,0-18.8,0c-2.8,0-5,1.2-6.2,3.8c-1.2,2.5-0.8,4.8,1,6.8c1.5,1.8,3.5,2.4,5.8,2.4
	c9.3,0,18.5,0,27.8,0c2.6,0,4,1.2,4,3.3c0,2.1-1.4,3.2-4.1,3.2c-6,0-12,0-18,0c-4.3,0-7.4,2.7-7.4,6.5c0,3.7,3.1,6.6,7.4,6.6
	c21.4,0,42.8,0,64.2,0c9.3,0,16.1-6.6,16.7-15.9c0.2-2.8,1.2-3.7,4-3.7c3,0,6,0,9,0C142.5,109.9,142.5,97,142.5,83.8z M38.9,15.3
	c-6.3,6.9-8.9,14.7-7,23.5c2.3,10.8,9,17.6,19.7,20.4c1.8,0.5,3.1,1.3,3.4,3.3c0.1,0.6,0.4,1.1,0.5,1.5c6.8,0,13.3,0,20.1,0
	c-0.5-2-0.8-3.9-1.5-5.7c-0.9-2.5-0.2-4.2,1.6-6c13.5-13.3,8.8-36-8.8-42.9c-0.8-0.3-1.6-0.5-2.6-0.8c1.7,6.2,3.3,12,4.8,17.9
	c0.7,2.7-0.1,4.2-2.8,4.9c-5.6,1.5-11.3,3-16.9,4.5c-3.7,1-4.8,0.3-5.8-3.5C42.1,26.9,40.5,21.3,38.9,15.3z M168.6,136.1
	c0-21.9,0-43.6,0-65.4c-5,0-9.9,0-14.8,0c-3.6,0-4.6,1.1-4.7,4.6c0,11,0,22.1,0,33.1c0,7.9,0,15.8,0,23.7c0,2.5,1.2,3.9,3.4,4
	C157.8,136.2,163.1,136.1,168.6,136.1z M78.3,149.2c1.1,4.2,2.2,8.2,3.3,12.2c2.1,7.7,4.1,15.5,6.2,23.2c1.5,5.6,6.7,8.6,12.1,7.1
	c4.9-1.3,8.2-6.6,6.9-11.6c-2.6-9.9-5.3-19.8-8-29.7c-0.1-0.5-0.9-1.2-1.4-1.2C91.1,149.2,84.9,149.2,78.3,149.2z"/>
</svg>
