<?xml version="1.0" encoding="utf-8"?>
<!-- Generator: Adobe Illustrator 27.1.0, SVG Export Plug-In . SVG Version: 6.00 Build 0)  -->
<svg version="1.1" id="Layer_1" xmlns="http://www.w3.org/2000/svg" xmlns:xlink="http://www.w3.org/1999/xlink" x="0px" y="0px"
	 viewBox="0 0 200 200" style="enable-background:new 0 0 200 200;" xml:space="preserve">
<style type="text/css">
	.st0{fill:#96C43D;}
</style>
<g>
	<path class="st0" d="M3.3,68.3C3.2,57.9,6.7,47,14.4,37.5c5.7-7.1,13.2-11.3,22.3-12.5c4.1-0.6,8.1-0.4,12.2,0.4
		c1.3,0.3,2.4,0.8,3.2,1.9c2.4,3.2,4.8,6.5,7,9.8c4.1,6.1,7.8,12.4,10.7,19.2c1.6,3.6,2.9,7.3,3.4,11.2c0.3,2.2,0.3,4.3-0.2,6.5
		c-0.8,3-2.5,5.4-5.2,6.9c-3.8,2.1-7.6,4.2-11.4,6.3c-0.6,0.3-1.2,0.8-1.7,1.2c-1,0.7-1.1,0.8-0.4,1.8c1.6,2.3,3.1,4.6,4.8,6.7
		c6.1,7.4,12.8,14.3,19.6,21.1c6.2,6.2,12.5,12.3,18.8,18.3c3.6,3.4,7.5,6.5,11.4,9.7c0.9,0.8,2.1,1.3,3.1,1.9
		c0.5,0.3,0.8,0.1,1-0.3c0.8-1.2,1.7-2.4,2.4-3.7c1.8-3.2,3.5-6.4,5.3-9.6c2-3.6,5.1-5.4,9.2-5.7c4.2-0.3,8.1,0.8,12,2.2
		c6.4,2.4,12.3,5.5,18.1,9.2c4.4,2.8,8.6,5.8,12.9,8.7c2.3,1.5,3.4,3.5,3.8,6.3c0.8,7.2,0.1,14.2-3.1,20.8
		c-2.6,5.4-6.4,9.8-11.2,13.3c-7,5-14.7,8.1-23.2,9.2c-8.1,1-16,0-23.8-2.2c-10-2.8-19.2-7.2-28.1-12.6c-11.6-7-22.3-15.4-32.3-24.6
		c-2.7-2.5-5.4-4.9-7.9-7.5c-3.1-3.2-6-6.6-8.9-10c-6.9-8-13.2-16.4-18.7-25.4c-5.5-8.9-10.1-18.2-13-28.3C4.5,81.8,3.5,76,3.3,68.3
		z M13.1,68.5c0.1,5.1,0.7,9.6,1.9,14.1c2.1,8.2,5.6,15.9,9.7,23.3c8.2,14.6,18.6,27.6,30.3,39.5c10.9,11.1,22.9,20.8,36.1,29
		c7.7,4.8,15.7,8.8,24.4,11.5c6.7,2.1,13.5,3.2,20.5,2.7c7.2-0.5,13.8-2.9,19.6-7c8.5-5.9,12.2-14.2,11.2-24.5
		c0-0.4-0.3-0.9-0.6-1.1c-4.7-3.5-9.6-6.7-14.7-9.7c-4.6-2.6-9.2-5.1-14.2-6.8c-2.1-0.7-4.3-1.3-6.6-1.3c-0.8,0-1.3,0.3-1.7,1.1
		c-1.4,2.6-2.9,5.3-4.3,7.9c-1.5,2.7-2.9,5.4-5.1,7.6c-3.1,3.1-6.9,3.9-10.9,2.2c-1.8-0.8-3.7-1.8-5.2-3c-3.7-2.9-7.5-5.9-10.9-9.2
		c-7.3-6.9-14.5-13.9-21.7-20.9c-6.7-6.6-13.1-13.4-19.1-20.6c-2.5-2.9-4.8-5.9-6.5-9.4c-2.2-4.5-1.4-8.8,2.3-12.1
		c1-1,2.2-1.8,3.4-2.6c3.8-2.2,7.7-4.3,11.5-6.4c0.9-0.5,1.3-1.2,1.3-2.1c0-0.3,0-0.6-0.1-1c-0.3-2.7-1.1-5.3-2.1-7.8
		c-4-9.7-9.6-18.4-15.7-26.8c-0.2-0.2-0.5-0.4-0.8-0.4c-2.3-0.4-4.6-0.3-6.9,0c-6.2,0.8-11.4,3.5-15.5,8.2
		C16.2,50.3,13.2,59.1,13.1,68.5z"/>
	<path class="st0" d="M196.7,94.8c0,1.6,0,3.2,0,4.8c-0.1,2.4-2.1,4.4-4.5,4.6c-2.6,0.2-4.9-1.5-5.4-3.9c-0.1-0.6-0.1-1.1-0.1-1.7
		c0.5-19.2-4.9-36.6-16.2-52c-9.7-13.2-22.3-22.9-37.6-29c-6.2-2.5-12.7-4.1-19.4-5c-5.2-0.7-10.4-1-15.7-0.7
		c-2.8,0.2-5.1-2-5.3-4.9c-0.2-2.7,1.8-5.1,4.6-5.3c4.7-0.3,9.4-0.2,14.2,0.3c6.9,0.7,13.6,2.1,20.2,4.2c8.4,2.7,16.3,6.6,23.7,11.6
		c11.6,7.9,21.1,17.8,28.3,29.8c6,9.8,9.9,20.4,11.9,31.8C196.3,84.6,196.7,89.7,196.7,94.8z"/>
	<path class="st0" d="M169.3,94.2c0,1.2,0.1,2.4,0,3.6c-0.1,2.5-2.4,4.6-5,4.6c-2.7,0-5-2.2-5.1-4.8c-0.1-2.5,0-5-0.2-7.4
		c-0.6-8.4-3-16.2-7.4-23.4c-7.8-13-18.8-21.9-33.3-26.5c-5.9-1.9-12.1-2.6-18.3-2.4c-1,0-2-0.1-2.9-0.5c-2.1-0.9-3.2-3.2-2.8-5.4
		c0.5-2.4,2.4-4,4.9-4.1c7.4-0.3,14.7,0.6,21.8,2.7c21.9,6.4,39.3,23.9,45.6,45.7C168.4,82.1,169.3,88.1,169.3,94.2z"/>
	<path class="st0" d="M144.4,95.3c-0.1,1.4-0.1,2.5-0.3,3.5c-0.5,2.6-2.9,4.1-5.7,3.8c-2.4-0.2-4.4-2.4-4.3-4.9
		c0.1-4.3-0.3-8.6-1.9-12.6c-4.2-10.8-12-17.5-23.3-20c-2.3-0.5-4.7-0.6-7.1-0.7c-3-0.1-5.2-2.2-5.2-5.1c0-2.9,2.1-5.1,5.1-5.1
		c12.5-0.1,23.1,4.4,31.7,13.6c5.7,6.1,9.2,13.5,10.4,21.8C144.1,91.5,144.2,93.6,144.4,95.3z"/>
</g>
</svg>
