<?xml version="1.0" encoding="utf-8"?>
<!-- Generator: Adobe Illustrator 27.1.0, SVG Export Plug-In . SVG Version: 6.00 Build 0)  -->
<svg version="1.1" id="Layer_1" xmlns="http://www.w3.org/2000/svg" xmlns:xlink="http://www.w3.org/1999/xlink" x="0px" y="0px"
	 viewBox="0 0 200 200" style="enable-background:new 0 0 200 200;" xml:space="preserve">
<style type="text/css">
	.st0{fill:#96C43D;stroke:#96C43D;stroke-width:2;stroke-miterlimit:10;}
</style>
<g>
	<path class="st0" d="M112.1,153.2c1.2,0,2.1,0,3.1,0c1.8,0.1,2.9,1.2,3.1,2.9c0.6,8.6-6,16-14.6,16c-28.7,0.1-57.5,0.1-86.2,0
		c-8.7,0-15.2-7.2-14.7-15.9c0.1-1.9,1.2-3,3.1-3c0.9,0,1.9,0,3,0c0-0.7,0-1.2,0-1.7c0-18,0-36,0-54c0-6.1,3.4-10.6,8.9-11.7
		c0.9-0.2,1.8-0.2,2.7-0.2c26.7,0,53.3,0,80,0c7.1,0,11.7,4.6,11.7,11.7c0,18,0,36.1,0,54.1C112.1,152,112.1,152.5,112.1,153.2z
		 M14.8,153.1c30.6,0,60.9,0,91.3,0c0-0.7,0-1.3,0-1.9c0-17.9,0-35.9,0-53.8c0-3.9-1.9-5.8-5.9-5.8c-26.4,0-52.8,0-79.2,0
		c-4.4,0-6.2,1.8-6.2,6.2c0,17.9,0,35.9,0,53.8C14.8,152,14.8,152.5,14.8,153.1z M8.8,159.2c0.1,0.3,0.1,0.5,0.2,0.7
		c1.1,3.9,4.6,6.4,9.1,6.4c28.1,0,56.1,0,84.2,0c0.6,0,1.1,0,1.7,0c4-0.2,7.6-3.4,8-7.1C77.6,159.2,43.3,159.2,8.8,159.2z"/>
	<path class="st0" d="M153.6,83.8c-8,0-16,0.1-24,0c-6.3-0.1-11.1-3.1-13.9-8.8c-2.8-5.7-2.2-11.2,1.6-16.3c2.1-2.8,4.9-4.7,8.3-5.6
		c1.1-0.3,1.5-0.8,1.8-1.8c2-6.3,6.2-10.1,12.8-11.3c0.9-0.1,1.4-0.5,1.8-1.3c4.2-7.6,12.3-12,21-10.7c8.8,1.2,14.7,6.3,17.4,14.9
		c0.3,0.9,0.7,1.3,1.7,1.6c9.8,2.4,16.3,11.6,15.2,21.3c-1.2,10.4-9.6,18-19.9,18.1C169.4,83.9,161.5,83.9,153.6,83.8z M153.7,77.9
		c8,0,16,0.1,24,0c7.6-0.1,13.5-6.1,13.8-13.8c0.3-7.2-5.5-13.6-12.9-14.2c-2.3-0.2-3.1-1-3.4-3.3c-1-7.2-7.2-12.8-14.5-12.8
		c-6.4-0.1-11.9,3.6-14.3,9.8c-0.6,1.5-1.5,2.3-3.1,2.4c-6.2,0-9.9,3.4-10.5,9.6c-0.2,2-1,2.8-3.1,3c-1.1,0.1-2.3,0.3-3.4,0.7
		c-4.3,1.7-6.8,6.1-6,10.8c0.8,4.5,4.7,7.9,9.4,8C137.5,77.9,145.6,77.9,153.7,77.9z"/>
	<path class="st0" d="M138.8,129.8c4.3,0,8.5,0,12.8,0c1,0,1.6-0.2,2-1.3c1.1-2.9,3.2-4.9,6-6c1-0.4,1.2-0.9,1.2-1.9
		c0-8.5,0-17,0-25.5c0-2.8,2.3-4.3,4.5-3c1.3,0.7,1.5,1.9,1.5,3.3c0,7.2,0,14.4,0,21.6c0,1.3,0.1,2.5,0,3.8c-0.1,1,0.3,1.4,1.2,1.8
		c4.8,2,7.4,6.6,6.8,11.8c-0.5,4.6-4.3,8.4-9.1,9.3c-5,0.9-10.1-1.8-12-6.7c-0.4-1.1-1-1.4-2.1-1.4c-8.6,0-17.1,0-25.7,0
		c-2.1,0-3.3-1.1-3.4-2.9c0-1.7,1.2-3,3.1-3C130,129.7,134.4,129.8,138.8,129.8z M163.9,137.8c2.8,0,5.1-2.3,5.1-5.1
		c0-2.9-2.4-5.3-5.3-5.3c-2.8,0-5,2.4-5,5.2C158.7,135.6,161,137.8,163.9,137.8z"/>
	<path class="st0" d="M39.8,119.5c1,0,1.9-0.1,2.9,0c1.6,0.1,2.7,1.4,2.7,2.9s-1.1,2.8-2.6,2.8c-2,0.1-4,0.1-6.1,0
		c-1.5-0.1-2.5-1.4-2.5-2.9s1.1-2.7,2.6-2.9C37.8,119.4,38.8,119.5,39.8,119.5z"/>
	<path class="st0" d="M81.2,119.5c1,0,1.9-0.1,2.9,0c1.5,0.1,2.6,1.3,2.6,2.8s-1,2.8-2.5,2.9c-2,0.1-4,0.1-6.1,0
		c-1.6-0.1-2.6-1.4-2.6-3c0-1.5,1.1-2.7,2.6-2.8c0.1,0,0.2,0,0.3,0C79.4,119.4,80.3,119.4,81.2,119.5L81.2,119.5z"/>
	<path class="st0" d="M60.4,119.4c0.9,0,1.8,0,2.7,0c1.7,0.1,2.8,1.2,2.9,2.9c0,1.7-1.1,2.9-2.8,2.9c-1.8,0.1-3.6,0.1-5.5,0
		c-1.7-0.1-2.9-1.2-2.9-2.9c0-1.7,1.2-2.9,3-2.9C58.7,119.4,59.5,119.4,60.4,119.4z"/>
</g>
</svg>
