<?xml version="1.0" encoding="utf-8"?>
<!-- Generator: Adobe Illustrator 27.1.0, SVG Export Plug-In . SVG Version: 6.00 Build 0)  -->
<svg version="1.1" id="Layer_1" xmlns="http://www.w3.org/2000/svg" xmlns:xlink="http://www.w3.org/1999/xlink" x="0px" y="0px"
	 viewBox="0 0 200 200" style="enable-background:new 0 0 200 200;" xml:space="preserve">
<style type="text/css">
	.st0{fill:#96C43D;}
</style>
<g>
	<path class="st0" d="M110.6,166.6c-2.9-0.3-3.4,1.7-4.1,3.5c-1.4,3.6-2.9,7.2-4.3,10.9c-0.3,0.7-0.6,0.9-1.4,0.9
		c-5.8,0-11.6,0-17.5,0c-0.9,0-1.2-0.3-1.5-1.1c-1.7-4.3-3.4-8.5-5.1-12.8c-0.3-0.7-0.7-1-1.4-1.2c-8.8-1.9-16.9-5.3-24.5-10.1
		c-0.6-0.4-1.1-0.4-1.7-0.1c-4.2,1.8-8.5,3.6-12.7,5.5c-0.9,0.4-1.3,0.3-2-0.4c-4-4.1-8.1-8.2-12.2-12.2c-0.6-0.6-0.6-1-0.3-1.7
		c1.8-4.2,3.6-8.5,5.5-12.7c0.3-0.8,0.3-1.3-0.2-2c-4.8-7.5-8.2-15.6-10-24.3c-0.2-0.7-0.5-1.2-1.2-1.5c-4.3-1.7-8.5-3.4-12.8-5.1
		c-0.8-0.3-1-0.7-1-1.5c0-5.8,0-11.6,0-17.5c0-0.8,0.3-1.1,1-1.3c4.3-1.7,8.6-3.4,12.9-5.1c0.7-0.3,1-0.6,1.1-1.3
		c1.9-8.8,5.3-17,10.2-24.6c0.4-0.6,0.4-1.1,0.1-1.7c-1.9-4.3-3.7-8.6-5.5-12.9c-0.3-0.7-0.2-1.1,0.3-1.6c4.1-4.1,8.3-8.2,12.3-12.3
		c0.5-0.5,0.9-0.6,1.6-0.3c4.2,1.9,8.5,3.7,12.8,5.5c0.7,0.3,1.2,0.3,1.9-0.2c7.5-4.8,15.5-8.1,24.2-10c0.9-0.2,1.4-0.5,1.7-1.4
		c1.6-4.3,3.4-8.5,5.1-12.8c0.2-0.6,0.5-0.9,1.3-0.9c5.9,0,11.8,0,17.7,0c0.7,0,1,0.3,1.3,0.9c1.7,4.3,3.5,8.6,5.1,12.9
		c0.3,0.8,0.7,1.1,1.5,1.2c8.8,1.9,16.9,5.3,24.5,10.2c0.6,0.4,1.1,0.4,1.7,0.1c4.3-1.9,8.6-3.7,12.9-5.6c0.7-0.3,1.1-0.2,1.6,0.3
		c4.1,4.1,8.2,8.3,12.3,12.3c0.5,0.5,0.6,0.9,0.3,1.6c-1.8,4.2-3.6,8.5-5.5,12.7c-0.4,0.8-0.3,1.4,0.2,2.1c4.8,7.5,8.1,15.5,10,24.2
		c0.2,0.8,0.5,1.3,1.3,1.6c4.3,1.7,8.6,3.4,12.9,5.1c0.7,0.3,0.9,0.6,0.9,1.3c0,5.8,0,11.6,0,17.5c0,0.8-0.2,1.2-1,1.5
		c-4.1,1.6-8.1,3.3-12.2,4.8c-1.2,0.4-1.9,1-2,2.3c0,0.3-0.1,0.6-0.2,1c-1.5-1.2-3-2.2-4.3-3.5c-0.3-0.2,0-1.1,0-1.6
		c0-1,0.6-1.6,1.6-2c4-1.5,8-3.2,12.1-4.8c0.7-0.3,0.9-0.6,0.9-1.3c0-3.4,0-6.9,0-10.3c0-0.8-0.3-1.2-1-1.4
		c-4.1-1.6-8.2-3.3-12.3-4.9c-0.7-0.3-1-0.7-1.2-1.4c-1.8-10.2-5.7-19.5-11.6-28c-0.2-0.3-0.3-1-0.1-1.4c1.7-4.1,3.5-8.2,5.3-12.2
		c0.3-0.7,0.3-1.2-0.3-1.7c-2.4-2.4-4.9-4.8-7.2-7.2c-0.6-0.7-1.1-0.6-1.8-0.3c-4,1.8-8.1,3.5-12.1,5.2c-0.6,0.3-1,0.3-1.6-0.1
		c-8.4-5.8-17.6-9.7-27.6-11.5c-0.9-0.2-1.4-0.6-1.8-1.5c-1.5-4-3.2-8-4.8-12.1c-0.3-0.8-0.7-0.9-1.5-0.9c-3.4,0-6.7,0-10.1,0
		c-0.8,0-1.2,0.3-1.5,1c-1.6,4.1-3.2,8.1-4.8,12.2c-0.3,0.7-0.7,1.1-1.5,1.2c-10.2,1.9-19.5,5.7-28,11.6c-0.3,0.2-1,0.3-1.3,0.1
		c-4.1-1.7-8.3-3.5-12.4-5.3c-0.7-0.3-1.1-0.3-1.6,0.3c-2.4,2.4-4.8,4.8-7.2,7.2c-0.7,0.6-0.7,1.1-0.3,1.9c1.8,4,3.5,8.1,5.2,12.1
		c0.3,0.6,0.2,1-0.2,1.6C27.6,59.7,23.8,69,22,79c-0.1,0.8-0.5,1.2-1.3,1.6c-4.1,1.6-8.1,3.2-12.2,4.8c-0.7,0.3-1,0.6-1,1.4
		c0.1,3.4,0.1,6.8,0,10.2c0,0.8,0.3,1.2,1,1.4c4.1,1.6,8.2,3.3,12.4,4.9c0.6,0.2,0.9,0.5,1,1.2c1.9,10.2,5.8,19.6,11.7,28.2
		c0.2,0.3,0.2,1,0,1.3c-1.7,4-3.4,8-5.2,12c-0.4,0.9-0.4,1.4,0.4,2.1c2.4,2.3,4.7,4.6,7,7c0.6,0.6,1.1,0.6,1.8,0.3
		c4-1.8,8.1-3.5,12.1-5.2c0.6-0.3,1-0.3,1.6,0.1c8.4,5.8,17.7,9.7,27.7,11.6c0.9,0.2,1.3,0.6,1.6,1.4c1.6,4,3.2,8,4.8,12.1
		c0.3,0.8,0.7,1.1,1.5,1c3.4-0.1,6.7-0.1,10.1,0c0.9,0,1.2-0.3,1.5-1.1c1.6-4.1,3.3-8.2,4.9-12.4c0.5-1.4,1.8-0.9,2.7-1.2
		c0.3-0.1,0.9,0.4,1.2,0.7C108.4,163.9,109.3,165.1,110.6,166.6z"/>
	<path class="st0" d="M163.9,160.1c2.5,2.5,5,5,7.4,7.4c0.9-0.4,1.8-1,2.7-1.2c1.8-0.4,3.4,0,4.7,1.4c5.9,5.8,11.7,11.7,17.6,17.6
		c2,2,2,4.9,0.1,7c-1.3,1.5-2.8,2.9-4.2,4.2c-2.2,2-5.1,1.9-7.1-0.2c-5.6-5.6-11.2-11.2-16.8-16.8c-2.7-2.7-2.9-4.9-0.7-8
		c-2.5-2.4-5-4.9-7.6-7.4c-8.1,6.5-17.4,8.8-27.7,6.4c-7.6-1.8-13.8-5.9-18.3-12.3c-9.4-13.2-7.6-31,4.1-41.7
		c11.8-10.8,29.8-11.3,41.9-1.2C172.4,125.6,176,145.5,163.9,160.1z M113.2,139.5c0.1,14.7,11.9,26.7,26.5,26.5
		c14.9-0.2,26.3-11.8,26.4-26.2c0.1-15-11.9-26.8-26.7-26.7C125,113.3,113.1,125.3,113.2,139.5z M192,189.1
		c-5.8-6-11.4-11.9-17-17.8c-1.3,1.4-2.4,2.6-3.4,3.7c5.8,5.9,11.6,11.6,17.4,17.4C190.1,191.2,191.3,189.9,192,189.1z"/>
	<path class="st0" d="M70.9,92c0-11.7,9.5-21.1,21.2-21.1s21.1,9.4,21.1,21.2c0,11.6-9.5,21.1-21.1,21
		C80.4,113.2,70.9,103.7,70.9,92z M92.1,76.2c-8.7,0-15.9,7.2-15.9,15.9S83.4,108,92.1,108s15.9-7.2,15.9-15.9
		C107.9,83.3,100.8,76.2,92.1,76.2z"/>
	<path class="st0" d="M61.1,58.5c0,1.4-1.3,2.6-2.7,2.6s-2.7-1.3-2.7-2.7s1.3-2.6,2.7-2.6S61.1,57.1,61.1,58.5z"/>
	<path class="st0" d="M135.4,79.7c0-1.5,1.2-2.7,2.7-2.6c1.4,0,2.5,1.2,2.5,2.7c0,1.4-1.2,2.6-2.6,2.6
		C136.6,82.4,135.4,81.2,135.4,79.7z"/>
	<path class="st0" d="M61.1,125.7c0,1.4-1.3,2.6-2.6,2.6c-1.4,0-2.7-1.3-2.7-2.7c0-1.4,1.2-2.6,2.6-2.6
		C59.8,123,61.1,124.3,61.1,125.7z"/>
	<path class="st0" d="M79.7,48.7c-1.5,0-2.7-1.2-2.6-2.7c0-1.4,1.2-2.5,2.7-2.5s2.7,1.2,2.7,2.7C82.4,47.6,81.2,48.7,79.7,48.7z"/>
	<path class="st0" d="M115.8,48.2c1.5,0,2.7,1.3,2.7,2.7s-1.2,2.6-2.7,2.6c-1.4,0-2.7-1.3-2.7-2.7C113.2,49.4,114.4,48.2,115.8,48.2
		z"/>
	<path class="st0" d="M125.7,55.8c1.4,0,2.6,1.2,2.7,2.6c0,1.4-1.3,2.7-2.7,2.7c-1.4,0-2.6-1.2-2.7-2.6
		C123,57,124.3,55.8,125.7,55.8z"/>
	<path class="st0" d="M133.2,65.6c1.4,0,2.7,1.3,2.7,2.7c0,1.4-1.2,2.6-2.6,2.6c-1.4,0-2.7-1.3-2.7-2.7
		C130.6,66.8,131.9,65.6,133.2,65.6z"/>
	<path class="st0" d="M48.7,79.7c0,1.4-1.1,2.6-2.6,2.7c-1.4,0.1-2.7-1.2-2.7-2.7c0-1.4,1.1-2.6,2.6-2.7
		C47.5,77,48.7,78.2,48.7,79.7z"/>
	<path class="st0" d="M79.7,140.6c-1.5,0-2.6-1.2-2.6-2.6c0-1.5,1.2-2.6,2.7-2.6c1.4,0,2.6,1.2,2.6,2.6
		C82.4,139.5,81.2,140.6,79.7,140.6z"/>
	<path class="st0" d="M53.4,68.2c0,1.5-1.2,2.7-2.6,2.7c-1.4,0-2.6-1.2-2.6-2.6c0-1.5,1.2-2.7,2.6-2.7
		C52.3,65.6,53.4,66.8,53.4,68.2z"/>
	<path class="st0" d="M53.4,115.8c0,1.5-1.1,2.7-2.6,2.7c-1.4,0-2.6-1.2-2.6-2.6c0-1.5,1.2-2.7,2.6-2.7
		C52.2,113.2,53.4,114.4,53.4,115.8z"/>
	<path class="st0" d="M68.3,130.7c1.5,0,2.6,1.1,2.7,2.5c0,1.4-1.2,2.7-2.7,2.7c-1.4,0-2.7-1.3-2.7-2.7
		C65.6,131.8,66.8,130.7,68.3,130.7z"/>
	<path class="st0" d="M104.3,43.5c1.5,0,2.6,1.1,2.7,2.5c0,1.5-1.2,2.7-2.6,2.7c-1.5,0-2.7-1.2-2.7-2.6
		C101.7,44.6,102.9,43.5,104.3,43.5z"/>
	<path class="st0" d="M68.2,53.4c-1.5,0-2.7-1.2-2.6-2.7c0.1-1.4,1.3-2.5,2.7-2.5c1.5,0,2.7,1.3,2.6,2.7
		C70.9,52.3,69.7,53.5,68.2,53.4z"/>
	<path class="st0" d="M48.7,104.4c0,1.5-1.2,2.6-2.6,2.6c-1.5,0-2.6-1.2-2.6-2.7c0-1.4,1.2-2.6,2.6-2.6
		C47.5,101.7,48.7,102.9,48.7,104.4z"/>
	<path class="st0" d="M92.1,47.1c-1.5,0-2.7-1.1-2.7-2.6s1.1-2.6,2.6-2.6s2.7,1.1,2.7,2.6C94.7,45.9,93.6,47.1,92.1,47.1z"/>
	<path class="st0" d="M47.1,92c0,1.5-1.1,2.6-2.5,2.7c-1.5,0-2.7-1.1-2.7-2.6s1.1-2.7,2.6-2.6C46,89.5,47.1,90.6,47.1,92z"/>
	<path class="st0" d="M139.7,89.4c1.4,0,2.6,1.1,2.6,2.6s-1.1,2.7-2.6,2.6c-1.5,0-2.6-1.2-2.6-2.7C137.1,90.5,138.2,89.4,139.7,89.4
		z"/>
	<path class="st0" d="M94.7,139.7c0,1.5-1.1,2.6-2.6,2.6s-2.7-1.1-2.7-2.6s1.1-2.6,2.6-2.6C93.5,137,94.7,138.1,94.7,139.7z"/>
</g>
</svg>
