<?xml version="1.0" encoding="utf-8"?>
<!-- Generator: Adobe Illustrator 27.1.0, SVG Export Plug-In . SVG Version: 6.00 Build 0)  -->
<svg version="1.1" id="Layer_1" xmlns="http://www.w3.org/2000/svg" xmlns:xlink="http://www.w3.org/1999/xlink" x="0px" y="0px"
	 viewBox="0 0 200 200" style="enable-background:new 0 0 200 200;" xml:space="preserve">
<style type="text/css">
	.st0{fill:#EC3783;}
</style>
<g>
	<path class="st0" d="M147.4,1.4c1.3,0,2.6,0,3.9,0c0.2,0.1,0.4,0.3,0.7,0.4c4.3,1.3,6.7,4.3,7.2,8.7c0.2,1.3,0.2,2.6,0.2,4
		c7.5,0,14.9,0,22.3,0c5.7,0,10.5,2.1,13.7,6.8c1.5,2.2,2.2,4.9,3.3,7.4c0,52,0,104,0,156c-0.1,0.2-0.3,0.3-0.3,0.5
		c-1.6,8.2-8.9,13.5-17.4,13.5c-54-0.1-108.1-0.1-162.1-0.1c-10.4,0-17.4-7-17.4-17.4c0-49.8,0-99.6,0-149.4
		c0-10.3,7-17.3,17.3-17.3c5.6,0,11.3,0,16.9,0c1.7,0,3.3,0,5.1,0c0-1,0-1.8,0-2.7c0.1-2.9,0.7-5.6,3-7.5c1.5-1.3,3.4-2,5.1-3
		c1.3,0,2.6,0,3.9,0c0.2,0.1,0.4,0.3,0.7,0.4c4.3,1.3,6.7,4.3,7.2,8.7c0.2,1.3,0.1,2.5,0.2,3.9c26.2,0,52.3,0,78.6,0
		c0-0.9,0-1.6,0-2.4c0-2.8,0.6-5.5,2.7-7.4C143.6,3.3,145.6,2.4,147.4,1.4z M8,73.8c0,0.9,0,1.5,0,2.1c0,34.9,0,69.8,0,104.8
		C8,188,12,192,19.3,192c53.8,0,107.6,0,161.4,0c7.3,0,11.3-4,11.3-11.3c0-34.9,0-69.8,0-104.8c0-0.7,0-1.4,0-2.1
		C130.6,73.8,69.4,73.8,8,73.8z M60.6,21.2c0,2.4,0.1,4.8,0,7.1c-0.1,1.9,0.1,3.2,2.4,3.3c0.7,0,1.4,0.5,2.1,0.8
		c6.1,2.7,9.3,9,8.2,16c-0.9,5.7-6.3,11.4-11.9,11.7c-6.4,0.4-12.8,0.3-19.2,0.3c-1.1,0-2.3-0.2-3.4-0.5
		c-6.8-1.9-11.4-7.9-11.2-14.6c0.2-6.9,4.8-12.4,11.8-14.1c0.5-0.1,1.3-0.7,1.3-1.1c0.1-3,0.1-6,0.1-9.1c-0.8,0-1.4-0.1-2.1-0.1
		c-6.5,0-13,0-19.5,0c-7.3,0-11.3,4-11.3,11.4c0,10.8,0,21.6,0,32.4c0,0.7,0,1.4,0,2.1c61.5,0,122.7,0,184.1,0
		c0-12.2,0.2-24.2-0.1-36.2c-0.1-5.5-3.7-9.1-9.2-9.5c-5.9-0.4-11.9-0.1-17.9-0.2c-1.8,0-3.6,0-5.6,0c0,2.6,0.1,4.9,0,7.3
		c-0.1,1.9,0.1,3.2,2.4,3.3c0.7,0,1.4,0.5,2.1,0.8c6,2.7,9.3,9,8.2,16c-0.9,5.7-6.3,11.4-11.9,11.7c-6.4,0.4-12.8,0.3-19.2,0.3
		c-1.1,0-2.3-0.2-3.4-0.5c-6.8-1.9-11.4-7.9-11.2-14.6c0.2-6.9,4.8-12.4,11.8-14.1c0.5-0.1,1.2-0.7,1.3-1.1c0.1-3,0.1-6,0.1-9.1
		C113.1,21.2,87,21.2,60.6,21.2z M40.7,37.6c-1.1,0.5-2,0.9-2.9,1.4c-2.9,2-4.1,5.6-3.1,9c1,3.3,3.8,5.7,7.4,5.7
		c5.8,0.1,11.5,0,17.3,0c0.8,0,1.7-0.2,2.4-0.5c3.6-1.3,5.6-4.9,5.1-8.9c-0.4-3.2-3.1-6-6.3-6.4c-0.9,5.6-4.1,9.3-9.9,9.3
		C44.9,47.4,41.7,43.7,40.7,37.6z M159.3,38c-1.6,6.1-4.1,8.9-8.9,9.2c-6.6,0.5-9.9-3.3-11.1-9.3c-4.1,1-6.5,4.3-6.2,8.3
		c0.2,4,3.1,7.4,6.9,7.6c6.3,0.2,12.6,0.2,18.9,0c3.9-0.1,6.9-3.8,6.9-7.9C165.7,41.9,163,38.6,159.3,38z M53.9,24.3
		C53.9,24.3,53.9,24.3,53.9,24.3c0-4.2,0.1-8.5,0-12.7c0-2.2-1.3-3.6-3.2-3.6c-1.8,0-3.2,1.4-3.2,3.6c0,8.5,0,17.1,0,25.6
		c0,0.7,0.2,1.4,0.5,2c0.7,1.3,2,1.8,3.5,1.4c1.5-0.4,2.4-1.4,2.4-3.1C53.9,33.1,53.9,28.7,53.9,24.3z M152.5,24.5
		C152.5,24.5,152.5,24.5,152.5,24.5c0-4.3,0.1-8.6,0-12.9c0-2.2-1.3-3.6-3.2-3.6c-1.8,0-3.2,1.4-3.2,3.6c0,8.5,0,17.1,0,25.6
		c0,0.7,0.2,1.4,0.5,2c0.7,1.3,2,1.8,3.5,1.5c1.5-0.4,2.4-1.4,2.4-3.1C152.5,33.2,152.5,28.8,152.5,24.5z"/>
	<path class="st0" d="M146.9,113.1c2.3,3.1,4.5,6.1,6.9,9.1c0.4,0.5,1.3,0.7,2,0.7c6,0.1,12.1,0,18.1,0c0.6,0,1.2,0,1.7,0
		c2.9,0.3,4.3,2.9,2.6,5.2c-4.3,5.5-8.6,11-13.1,16.4c-0.7,0.9-2.3,1.4-3.6,1.4c-6,0.1-11.9,0.1-17.9,0.1c-1.6,0-2.9-0.7-4.1-1.8
		c-5.5-5.5-11-11-16.4-16.5c-1-1-2-1.5-3.5-1.5c-30.1,0-60.2,0-90.3,0.1c-4.8,0-9-1.3-12-5.2c-3-4-3.6-8.5-1.7-13.1
		c2-4.7,5.8-7.4,10.9-8c0.9-0.1,1.8-0.1,2.7-0.1c30.1,0,60.2,0,90.3,0c1.5,0,2.5-0.4,3.5-1.4c5.4-5.5,10.9-10.9,16.3-16.4
		c1.4-1.4,2.8-2,4.8-2c5.8,0.1,11.6,0.1,17.3,0c1.8,0,3.2,0.6,4.3,2.1c4,5,8,10,12,15c1,1.2,1.6,2.5,0.8,4.1c-0.8,1.5-2.1,1.9-3.7,2
		c-6.4,0-12.7,0-19.1,0c-1.1,0-1.9,0.3-2.6,1.3C151.2,107.4,149.1,110.2,146.9,113.1z M168.6,96.6c-2.6-3.3-4.9-6.2-7.2-8.9
		c-0.4-0.5-1.3-0.8-2-0.8c-4.6-0.1-9.1-0.1-13.7,0c-1,0-2.1,0.5-2.8,1.2c-5.5,5.4-11,10.8-16.3,16.3c-1.5,1.5-3.1,2.2-5.3,2.2
		c-30.6-0.1-61.2,0-91.8,0c-0.8,0-1.7,0-2.5,0.1c-4,0.6-6.4,3.9-5.7,7.7c0.6,3.4,3.2,5.4,7.1,5.4c31,0,62,0,93,0
		c2.1,0,3.7,0.6,5.1,2.1c5.4,5.5,10.9,11,16.5,16.5c0.6,0.6,1.5,1.1,2.3,1.1c4.8,0.1,9.6,0.1,14.4,0c0.5,0,1.2-0.1,1.5-0.5
		c2.4-2.9,4.8-5.9,7.4-9.2c-5.3,0-10.2,0-15,0c-1.8,0-3.2-0.6-4.3-2.1c-2.9-3.9-5.9-7.8-8.8-11.7c-1.6-2.2-1.6-3.2,0.1-5.5
		c2.7-3.6,5.5-7.1,8-10.8c1.5-2.2,3.4-3,6-2.9C159.2,96.7,163.7,96.6,168.6,96.6z"/>
	<path class="st0" d="M109.9,175.6c0,2.1,0,3.9,0,5.8c-0.1,2.8-1.3,4.1-4.2,4.1c-3.5,0-7.1-0.1-10.6,0c-2.2,0.1-3.9-0.5-5.3-2.2
		c-0.9-1-1.8-2-3.2-3.5c-1.3,1.5-2.2,2.9-3.4,3.9c-1.1,0.8-2.6,1.6-3.9,1.7c-19.1,0.1-38.3,0.1-57.4,0.1c-3,0-4.2-1.2-4.2-4.2
		c0-10.4,0-20.8,0-31.2c0-3,1.3-4.2,4.3-4.2c18.9,0,37.9,0,56.8,0.1c1.3,0,2.8,0.8,3.9,1.6c1.4,1,2.6,2.3,3.9,3.6
		c1.1-1.2,2.2-2.3,3.2-3.4c1.1-1.2,2.4-1.8,4.1-1.8c3.9,0,7.8,0,11.7,0c2.9,0,4.2,1.3,4.2,4.3c0,1.8,0,3.6,0,5.5
		c0.7,0,1.4,0.1,2,0.1c13.6,0,27.2,0,40.8,0c1.3,0,2.2-0.2,3-1.3c1.4-1.8,3.2-2.2,5.3-1.8c6,1,12,2,18,3.1c2.1,0.4,3.1,1.4,3.1,3.5
		c0.1,4.3,0.1,8.6,0,12.9c0,1.7-0.9,3-2.7,3.3c-6.6,1.2-13.2,2.4-19.9,3.3c-1.1,0.2-2.6-0.9-3.6-1.8c-1.1-1-2.1-1.4-3.6-1.4
		c-13.4,0-26.8,0-40.2,0C111.5,175.6,110.8,175.6,109.9,175.6z M24.6,152.6c0,8.9,0,17.5,0,26.2c0.9,0,1.6,0,2.4,0
		c15.1,0,30.2-0.2,45.2,0.1c4.8,0.1,8.6-0.8,11.4-4.8c0.2-0.3,0.4-0.5,0.7-0.7c1.8-1.6,3.5-1.6,5.3,0.1c1.5,1.4,2.9,2.9,4.4,4.3
		c0.4,0.3,0.8,0.9,1.2,0.9c2.7,0.1,5.3,0,8,0c0-8.8,0-17.4,0-26c-5-0.6-9.8-1-12.8,4.2c-0.2,0.3-0.5,0.6-0.8,0.8
		c-1.7,1.6-3.4,1.6-5.1,0.1c-1.5-1.3-3-2.6-4.3-4.1c-1-1-2-1.3-3.4-1.3c-16.6,0-33.2,0-49.8,0C26.1,152.6,25.4,152.6,24.6,152.6z
		 M175.5,161.9c-4.9-0.8-9.7-1.6-14.5-2.3c-0.5-0.1-1.3,0.3-1.6,0.7c-1.4,1.7-3.2,2.1-5.3,2.1c-13.9-0.1-27.9,0-41.8,0
		c-0.7,0-1.5,0-2.3,0c0,2.3,0,4.3,0,6.5c0.9,0,1.6,0,2.4,0c13.9,0,27.7,0,41.6,0c2.2,0,4,0.5,5.5,2.2c0.4,0.5,1.4,0.7,2.1,0.6
		c4.2-0.6,8.3-1.4,12.5-2c1-0.1,1.5-0.4,1.5-1.5C175.5,166.2,175.5,164.2,175.5,161.9z"/>
	<path class="st0" d="M40.8,86.7c0-2.2,0-4.2,0-6.3c2.2,0,4.2,0,6.5,0c0,2.1,0,4.1,0,6.3C45.2,86.7,43.1,86.7,40.8,86.7z"/>
	<path class="st0" d="M14.6,80.4c2.1,0,4.1,0,6.3,0c0,2.1,0,4.1,0,6.3c-2,0-4.1,0-6.3,0C14.6,84.6,14.6,82.6,14.6,80.4z"/>
	<path class="st0" d="M27.8,80.4c2.1,0,4.2,0,6.4,0c0,2.1,0,4.1,0,6.3c-2.1,0-4.1,0-6.4,0C27.8,84.7,27.8,82.7,27.8,80.4z"/>
	<path class="st0" d="M31.1,165.6c0-2.2,0-4.3,0-6.5c7.6,0,15.2,0,22.8,0c0,2.2,0,4.3,0,6.5C46.3,165.6,38.8,165.6,31.1,165.6z"/>
	<path class="st0" d="M67.1,159.1c0,2.4,0,4.4,0,6.6c-2.2,0-4.2,0-6.6,0c0-1.9,0-3.8,0-5.7c0-0.3,0.6-0.8,0.9-0.8
		C63.3,159,65.2,159.1,67.1,159.1z"/>
</g>
</svg>
