<?xml version="1.0" encoding="utf-8"?>
<!-- Generator: Adobe Illustrator 27.1.0, SVG Export Plug-In . SVG Version: 6.00 Build 0)  -->
<svg version="1.1" id="Layer_1" xmlns="http://www.w3.org/2000/svg" xmlns:xlink="http://www.w3.org/1999/xlink" x="0px" y="0px"
	 viewBox="0 0 200 200" style="enable-background:new 0 0 200 200;" xml:space="preserve">
<style type="text/css">
	.st0{fill:#EC3783;stroke:#EC3783;stroke-width:2;stroke-miterlimit:10;}
</style>
<path class="st0" d="M94.9,133.8c-5.1-2.1-9.8-4.1-14.1-5.8c-8.2,8.3-16.5,16.5-24.9,25.1c2.8,0,5.8-0.1,8.8,0
	c3.3,0.2,5.7,1.7,5.4,5.4c-0.2,3.5-2.6,4.5-5.7,4.5c-7.2,0-14.4,0-21.6,0c-3.7,0-5.8-1.7-5.9-5.5c0-7.4,0-14.8,0-22.2
	c0-3.2,1.3-5.4,4.7-5.5c3.7-0.1,5.1,2.4,5.2,5.7c0.1,2.9,0,5.8,0,8.2c8.2-8.3,16.3-16.6,24.8-25.2c-1.3-3.2-3.3-7.9-5.6-13.3
	c-6.1,0-12.9-0.2-19.7,0.2c-1.3,0.1-2.8,2.4-3.6,4c-3.9,7.8-11.9,12.6-20.5,12.2c-8.7-0.4-16.4-6.3-19.2-14.8
	C0.4,98.7,3,89.6,9.5,84c10.4-9,27.3-5.7,33.4,6.7c0.7,1.4,1.2,2.8,1.9,4.2c7.3,0,14.5,0,21.6,0c2.1-5,4.1-9.9,5.8-14
	C63.8,72.5,55.6,64.3,47,55.6c0,3.1,0.1,6.1,0,9.1c-0.2,3.3-1.6,5.7-5.3,5.6c-3.4-0.1-4.6-2.5-4.7-5.6c0-7.4,0-14.8,0-22.2
	c0-3.5,1.9-5.4,5.4-5.4c7.6,0,15.1-0.3,22.7,0.2c1.8,0.1,4.5,2.6,5,4.4c0.9,3.2-1.7,5-4.8,5.2c-3.2,0.2-6.4,0-10.3,0
	c9.2,8.8,17.6,16.8,26.4,25.1c2.7-1,7.1-2.4,11.2-4.3c1.1-0.5,2.2-2.4,2.3-3.7c0.2-6.3,0.1-12.7,0.1-18.9
	C81.6,38.4,76.4,29.7,79.1,19C81.6,8.7,90,2.1,100.3,2.2c10.1,0.1,18.5,7.1,20.8,17.4c2.3,10.4-3.2,19.3-15.8,25.2
	c0,7.1,0,14.3,0,21.7c4.8,2,9.6,4,14.1,5.8c8.2-8.2,16.4-16.4,25.3-25.3c-3.1,0-6.1,0.1-9,0c-3.3-0.1-5.8-1.4-5.8-5.1
	c0-3.7,2.5-4.9,5.9-4.9c7.2,0,14.4,0,21.6,0c3.8,0,5.7,1.9,5.7,5.7c0,7.4,0,14.8,0,22.2c0,3.2-1.5,5.3-4.9,5.4
	c-3.4,0-4.9-2.2-5.1-5.3c-0.2-3,0-6.1,0-8.6c-8.2,8.2-16.4,16.3-25,24.9c1.5,3.5,3.5,8.4,5.7,13.8c6,0,12.5,0.2,19-0.1
	c1.4-0.1,3.2-1.6,3.8-2.9c5-10.2,14.5-14.9,25.5-12.3c9.6,2.2,16.1,11.1,15.7,21.4c-0.4,10-8.1,18.3-18.7,20.2
	c-8.8,1.6-18.5-3.5-22.2-12.3c-1.3-3.2-2.9-3.9-6.1-3.8c-5.8,0.2-11.6,0.1-17.2,0.1c-2.1,5.1-4.1,9.8-5.8,14.1
	c8.3,8.2,16.5,16.4,25.1,24.9c0-2.8-0.1-5.8,0-8.8c0.2-3.3,1.7-5.7,5.4-5.4c3.4,0.2,4.5,2.6,4.5,5.7c0,7.2,0,14.4,0,21.6
	c0,3.7-1.7,5.8-5.5,5.9c-7.4,0-14.8,0-22.2,0c-3.2,0-5.4-1.3-5.5-4.7c-0.1-3.7,2.3-5.1,5.6-5.3c2.9-0.1,5.8,0,7.8,0
	c-8-8-16.2-16.3-24.8-24.8c-3.3,1.4-8,3.3-13.4,5.6c0,6.1-0.1,12.7,0.1,19.4c0,1.2,1.6,2.8,2.8,3.4c10.4,4.9,15.2,14.1,12.6,24.7
	c-2.3,9.7-11.2,16.6-21,16.4c-10.5-0.2-19-7.8-20.8-18.6c-1.5-8.9,3.6-18.3,12.5-22c2.9-1.2,3.8-2.7,3.7-5.6
	C94.8,145.5,94.9,139.5,94.9,133.8z M99.3,123.2c13.3,0.4,23.8-9.4,24.2-22.8c0.3-12.7-9.8-23.2-22.8-23.8
	C87.9,76,77,86.4,76.5,99.6C76.1,112.4,86.1,122.8,99.3,123.2z M111.5,23.5c0-6.4-4.8-11.2-11.4-11.3c-6.6,0-11.4,4.7-11.4,11.2
	c0,6.2,5.3,11.5,11.4,11.6C106.3,35,111.4,29.9,111.5,23.5z M111.4,176.8c0.1-6.4-4.7-11.5-11.1-11.7c-6.1-0.2-11.4,4.9-11.7,11.2
	c-0.2,6.3,4.8,11.4,11.2,11.5C106.4,187.9,111.3,183.3,111.4,176.8z M23.6,111.5c6.3-0.1,11.4-5.2,11.4-11.5
	c0-6.1-5.3-11.3-11.6-11.3c-6.3,0-11.3,5.1-11.3,11.5C12.2,106.6,17.2,111.6,23.6,111.5z M187.9,99.8c-0.1-6.3-5.4-11.3-11.6-11.1
	c-6.2,0.2-11.4,5.7-11.2,11.7c0.3,6.3,5.5,11.1,11.8,11C183.2,111.4,188,106.3,187.9,99.8z"/>
</svg>
