<?xml version="1.0" encoding="utf-8"?>
<!-- Generator: Adobe Illustrator 27.1.0, SVG Export Plug-In . SVG Version: 6.00 Build 0)  -->
<svg version="1.1" id="Layer_1" xmlns="http://www.w3.org/2000/svg" xmlns:xlink="http://www.w3.org/1999/xlink" x="0px" y="0px"
	 viewBox="0 0 200 200" style="enable-background:new 0 0 200 200;" xml:space="preserve">
<style type="text/css">
	.st0{fill:#EC3783;}
</style>
<g>
	<g>
		<path class="st0" d="M29.2,59.4c0-11.1,0.1-22.2-0.1-33.3c-0.1-4.1,1.6-5.9,5.5-7C55.1,13.6,75.6,7.8,96.1,2.2
			c2.6-0.7,5.6-0.6,8.2,0c20.5,5.5,40.9,11.4,61.4,17c3,0.8,5.2,1.9,5.2,5.5c-0.5,25.5,1.2,51.3-2,76.5
			c-5.3,42.1-28.5,73.8-64.8,95.7c-3.2,1.9-5.8,1.4-8.8-0.4c-42.9-26.8-65-65.5-66.1-116.1C29.1,73.5,29.2,66.5,29.2,59.4z
			 M162.9,58.7c0-9.2-0.1-18.3,0.1-27.5c0.1-3.2-1-4.6-4.1-5.4c-18.8-5-37.6-10.3-56.4-15.4c-1.6-0.4-3.5-0.4-5.1,0.1
			c-18.6,5.1-37.2,10.3-55.9,15.3c-3.2,0.9-4.5,2.2-4.4,5.7c0.2,17.1-0.4,34.2,0.2,51.3c1.6,45,21.4,80.1,59.1,105
			c2.5,1.7,4.4,1.9,7.1,0.2c26.7-17.1,44.7-40.8,54.1-71.1C163.5,97.8,163.2,78.2,162.9,58.7z"/>
		<path class="st0" d="M93.6,106.3c11.3-11.6,21.3-21.8,31.3-32c3.2-3.2,6.6-7.5,11.2-2.6c4.2,4.3,0.4,7.7-2.7,10.8
			c-11,11-22.2,21.8-33,33c-4.7,4.9-8.6,5-13.2,0c-5.6-6.1-11.9-11.5-17.3-17.8c-0.3-0.3-0.5-0.7-0.7-1.2c-1.5-3.9,1.7-7.9,5.9-7.6
			c1,0.1,1.8,0.3,2.4,0.8C83.2,94.4,87.8,100.1,93.6,106.3z"/>
	</g>
</g>
</svg>
