<?xml version="1.0" encoding="utf-8"?>
<!-- Generator: Adobe Illustrator 27.1.0, SVG Export Plug-In . SVG Version: 6.00 Build 0)  -->
<svg version="1.1" id="Layer_1" xmlns="http://www.w3.org/2000/svg" xmlns:xlink="http://www.w3.org/1999/xlink" x="0px" y="0px"
	 viewBox="0 0 200 200" style="enable-background:new 0 0 200 200;" xml:space="preserve">
<style type="text/css">
	.st0{fill:#EC3783;stroke:#EC3783;stroke-width:2;stroke-miterlimit:10;}
</style>
<g>
	<path class="st0" d="M24.7,149.3c16.8,13.1,33.3,26,50.1,39.2c0-1,0.1-1.6,0.1-2.3c0-12.1,0-24.1,0-36.2c0-1.5,0.4-2.8,1.8-3.5
		c2.1-1.1,4.4,0.5,4.4,3.1c0,4.9,0,9.9,0,14.8c0,1.2,0.2,1.7,1.6,1.7c9.2-0.1,18.5,0.3,27.7-0.2c23.6-1.2,42.1-11.8,55.3-31.3
		c7.5-11,11.1-23.3,11.5-36.5c0-0.5,0-1,0-1.5c0.1-1.9,1.4-3.2,3.2-3.1c1.8,0,3.2,1.4,3,3.3c-0.4,5.3-0.4,10.7-1.7,15.8
		c-7.7,30.8-27,50.3-57.9,58.1c-5.3,1.3-10.9,1.6-16.4,1.8c-8,0.3-16,0.1-24,0.1c-0.6,0-1.3,0-2.1,0c0,0.8-0.1,1.5-0.1,2.1
		c0,6.5,0,13,0,19.4c0,1.6-0.1,3.1-1.8,3.9c-1.6,0.8-2.8,0-4-1c-19-14.9-38.1-29.7-57.1-44.6c-2.4-1.8-2.5-4-0.2-5.7
		c19.1-15,38.3-29.9,57.4-44.9c0.1,0,0.1-0.1,0.2-0.1c1.1-0.9,2.3-1.5,3.7-0.8c1.5,0.7,1.9,1.9,1.9,3.5c0,6.5,0,13,0,19.4
		c0,0.8,0,1.5,0,2.5c0.9,0,1.7,0.1,2.4,0.1c7.6,0,15.3-0.1,22.9,0c7.1,0.1,13.5-1.9,19.2-6.1c1.9-1.4,3.9-1.2,5,0.6
		c0.9,1.5,0.6,3-1.1,4.3c-4.6,3.6-9.7,5.9-15.5,6.9c-2.5,0.4-5.1,0.5-7.7,0.6c-9.1,0.1-18.2,0-27.3,0c-3.2,0-4.2-0.9-4.2-4.1
		c0-5.3,0-10.6,0-16c0-0.6-0.1-1.2-0.1-2.3C58,123.2,41.5,136.2,24.7,149.3z"/>
	<path class="st0" d="M118.8,73.8c-0.9,0-1.6,0-2.3,0c-7.8,0-15.6,0-23.5,0c-6.8,0-13,1.9-18.5,6c-1.2,0.9-2.5,1.4-3.9,0.7
		c-2.2-1-2.4-3.8-0.4-5.4c4.6-3.7,9.9-6.1,15.8-7c2.6-0.4,5.2-0.5,7.8-0.6c9.1-0.1,18.2,0,27.3,0c2.8,0,3.8,1.1,3.9,3.8
		c0,6,0,12,0,18.6c16.9-13.2,33.4-26.1,50.2-39.2c-16.7-13-33.3-26-50.1-39.2c0,1.1-0.1,1.8-0.1,2.4c0,11.6,0,23.2,0,34.8
		c0,0.5,0,1,0,1.5c-0.1,2.1-1.2,3.4-3,3.5c-2,0-3.2-1.2-3.2-3.5c0-4.7,0-9.4,0-14c0-0.7,0-1.4,0-2.1c-0.6-0.1-1.1-0.2-1.5-0.2
		c-9.6,0-19.3-0.2-28.9,0.2C71,35,56,41.8,43.6,54C30,67.4,23.2,83.9,22.7,102.9c-0.1,2.4-1.2,3.8-3.1,3.7c-1.9,0-3.1-1.4-3.1-3.8
		c0-35.5,26.1-67,61.1-73.7c5-1,10.2-1.3,15.3-1.5c8-0.2,16-0.1,24-0.1c0.6,0,1.1-0.1,1.9-0.1c0-0.9,0-1.6,0-2.4c0-6.5,0-13,0-19.4
		c0-1.5,0.3-2.8,1.8-3.5c1.5-0.7,2.7-0.1,3.9,0.8c19.1,14.9,38.2,29.8,57.3,44.8c2.5,2,2.5,4,0,6c-19.1,14.9-38.2,29.8-57.3,44.7
		c-1.2,0.9-2.4,1.5-3.9,0.8c-1.5-0.7-1.8-2-1.7-3.5c0-6.5,0-13,0-19.4C118.8,75.5,118.8,74.8,118.8,73.8z"/>
</g>
</svg>
