<?xml version="1.0" encoding="utf-8"?>
<!-- Generator: Adobe Illustrator 27.1.0, SVG Export Plug-In . SVG Version: 6.00 Build 0)  -->
<svg version="1.1" id="Layer_1" xmlns="http://www.w3.org/2000/svg" xmlns:xlink="http://www.w3.org/1999/xlink" x="0px" y="0px"
	 viewBox="0 0 200 200" style="enable-background:new 0 0 200 200;" xml:space="preserve">
<style type="text/css">
	.st0{fill:#96C43D;}
</style>
<g>
	<path class="st0" d="M166.5,164.9c2.4-2.9,4.9-5.6,7.2-8.6c9.2-12,15.3-25.5,17.7-40.5c4.5-28.3-2.3-53.8-20.7-75.8
		c-13.1-15.7-29.9-25.7-49.8-30.4c-10.4-2.4-20.9-3-31.6-1.8c-35.8,4.2-65.6,28.2-77.2,62.3c-4.6,13.4-5.9,27.2-4.2,41.2
		c3.9,32.4,24.9,60.6,54.8,73.6c11.6,5.1,23.7,7.6,36.4,7.8c0.3,0,0.6,0,0.9,0c1.4,0.1,2.3,1,2.3,2.2c0,1.3-0.9,2.3-2.3,2.2
		c-3.3-0.1-6.7-0.2-10-0.5c-8.8-0.9-17.3-2.9-25.5-6.2c-22.8-9.2-39.9-24.8-51.3-46.7c-5.2-10.1-8.5-20.8-9.7-32
		C0.3,84,7.6,59,25.6,37.4C37.8,22.8,53.1,12.7,71.2,7.1c12.7-4,25.7-5.3,38.9-3.8c25.8,2.9,47.2,14.3,64.1,33.9
		c11.4,13.3,18.8,28.7,21.6,46.1c5,31.2-3.1,58.7-24,82.4c-0.2,0.3-0.5,0.5-0.9,1c0.5-0.1,0.7-0.1,0.9-0.2c4.8-1.4,9.6-2.8,14.4-4.2
		c1.5-0.4,2.8,0.1,3.2,1.4c0.4,1.3-0.4,2.5-1.9,2.9c-7.6,2.2-15.1,4.4-22.7,6.6c-2.4,0.7-3.6-0.3-3.5-2.8c0.4-7,0.7-14.1,1.1-21.1
		c0.1-1.5,0.8-2.4,2-2.5c1.5-0.2,2.6,0.9,2.5,2.5c-0.2,4-0.4,7.9-0.6,11.9c-0.1,1.2,0,2.4,0,3.6
		C166.4,164.8,166.5,164.8,166.5,164.9z"/>
	<path class="st0" d="M123.7,53.2c2.4-2.4,4.9-5,7.4-7.5c1.6-1.6,2.7-1.6,4.3,0c6.4,6.4,12.9,12.8,19.3,19.3c1.5,1.5,1.6,2.6,0,4.2
		c-2.3,2.3-4.6,4.6-7,6.9c-0.5,0.5-0.5,0.8-0.2,1.4c0.8,1.7,1.5,3.4,2.2,5.2c0.2,0.6,0.5,0.9,1.2,0.9c3.3,0,6.6,0,9.9,0
		c2.1,0,2.9,0.8,2.9,2.9c0,9.2,0,18.3,0,27.5c0,2-0.8,2.9-2.9,2.9c-3.6,0-7.2,0-10.8,0c-1,2.3-1.9,4.5-2.8,6.6
		c1.4,1.5,2.9,3,4.3,4.5c1.1,1.2,2.3,2.3,3.4,3.4c1.2,1.2,1.2,2.4,0,3.6c-6.6,6.6-13.3,13.2-19.9,19.8c-1.3,1.3-2.5,1.2-3.7,0
		c-2.4-2.4-4.8-4.8-7.2-7.1c-0.2-0.2-0.7-0.4-1-0.3c-2.1,0.8-4.2,1.7-6.4,2.6c0,3.4,0,6.9,0,10.4c0,2.4-0.7,3.1-3,3.1
		c-9.1,0-18.2,0-27.3,0c-2.4,0-3.1-0.6-3.1-3.1c0-3.2,0-6.4,0-9.6c0-0.7-0.2-1-0.9-1.2c-1.8-0.7-3.5-1.4-5.3-2.2
		c-0.5-0.2-0.8-0.2-1.2,0.2c-2.4,2.4-4.7,4.7-7.1,7.1c-1.5,1.4-2.6,1.4-4,0c-6.5-6.5-13-12.9-19.5-19.4c-1.5-1.5-1.5-2.6,0-4.1
		c2.3-2.3,4.6-4.6,6.9-6.8c0.5-0.5,0.6-0.8,0.3-1.5c-0.8-1.7-1.5-3.4-2.1-5.1c-0.2-0.6-0.6-0.8-1.2-0.8c-3.3,0-6.7,0-10,0
		c-1.9,0-2.8-0.8-2.8-2.7c0-9.3,0-18.5,0-27.8c0-1.9,0.8-2.7,2.8-2.7c3.3,0,6.7,0,10,0c0.7,0,1-0.2,1.2-0.8c0.6-1.7,1.3-3.4,2.1-5
		c0.3-0.7,0.3-1.1-0.3-1.6c-2.3-2.3-4.6-4.6-7-6.9c-1.5-1.5-1.5-2.6,0-4c6.5-6.5,13-13,19.5-19.5c1.4-1.4,2.5-1.4,4,0
		c2.4,2.3,4.8,4.7,7.1,7.1c0.4,0.4,0.7,0.5,1.3,0.2c1.7-0.8,3.5-1.5,5.3-2.1c0.6-0.2,0.8-0.5,0.8-1.1c0-3.3,0-6.6,0-9.9
		c0-2.1,0.7-2.9,2.8-2.9c9.2,0,18.4,0,27.6,0c2.3,0,3,0.7,3,3c0,3.3,0,6.6,0,9.8c0,0.3,0.2,0.8,0.5,0.9
		C119.2,51.4,121.4,52.2,123.7,53.2z M150.3,132.9c-2.4-2.4-4.7-4.6-7-6.9c-1-1-1.2-2.4-0.6-3.7c1.1-2.6,2.2-5.3,3.3-8
		c0.7-1.7,1.1-2.2,3-2.2c3,0,6,0,8.9,0c0.4,0,0.7,0,1.1-0.1c0-8.1,0-16,0-24.1c-0.4,0-0.7,0-1,0c-3,0-6,0-9,0
		c-1.8,0-2.3-0.5-2.9-2.1c-1-2.6-2.1-5.3-3.2-7.9c-0.7-1.7-0.7-2.7,0.6-4c1-1.1,2.1-2.1,3.1-3.1c1.2-1.2,2.5-2.4,3.7-3.7
		c-5.8-5.7-11.5-11.4-17.4-17.2c-2.2,2.3-4.5,4.6-6.7,7c-1,1.1-2.4,1.2-3.8,0.6c-2.7-1.1-5.3-2.2-8.1-3.3c-1.6-0.6-2.1-1.2-2.1-2.9
		c0-3,0-6,0-8.9c0-0.4,0-0.7,0-1.1c-8.2,0-16.2,0-24.3,0c0,0.4,0,0.8,0,1.1c0,3,0,6,0,9c0,1.6-0.5,2.1-2,2.7
		c-2.8,1.1-5.6,2.2-8.4,3.5c-1.5,0.6-2.2,0.6-3.3-0.5c-2.2-2.1-4.3-4.3-6.4-6.5c-0.2-0.3-0.4-0.6-0.5-0.8c-6,6-11.6,11.6-17.3,17.3
		c2.3,2.3,4.7,4.7,7.1,7.1c1,1,1.1,1.8,0.6,3.1c-1.2,2.9-2.4,5.8-3.6,8.8c-0.5,1.3-1.2,1.8-2.6,1.9c-1.9,0-3.7,0-5.6,0
		c-1.5,0-3.1,0-4.6,0c0,0.3-0.1,0.5-0.1,0.7c0,7.6,0,15.1,0,22.7c0,0.7,0.2,0.9,0.9,0.9c3.1,0,6.2,0,9.3,0c1.7,0,2.3,0.5,2.9,2.1
		c1.1,2.8,2.2,5.6,3.4,8.3c0.6,1.5,0.6,2.2-0.6,3.3c-2.1,2.2-4.3,4.3-6.4,6.5c-0.2,0.2-0.4,0.5-0.5,0.5c5.7,5.8,11.3,11.5,17,17.2
		c0.3-0.3,0.6-0.5,0.8-0.8c2.1-2.1,4.3-4.3,6.4-6.4c1.1-1.1,1.9-1.2,3.3-0.5c2.8,1.2,5.5,2.3,8.3,3.4c1.5,0.6,2,1.1,2,2.8
		c0,3,0,6,0,9c0,0.4,0,0.7,0,1.1c8.2,0,16.2,0,24.3,0c0-0.4,0-0.8,0-1.2c0-3,0-6,0-8.9c0-1.7,0.5-2.2,2-2.8c2.9-1.1,5.7-2.3,8.5-3.5
		c1.2-0.5,2.1-0.4,3,0.4c0.3,0.3,0.7,0.7,1,1c2.1,2.2,4.2,4.3,6.2,6.4C138.8,144.3,144.5,138.6,150.3,132.9z"/>
	<path class="st0" d="M100,127.4c-15.1,0-27.5-12.2-27.5-27.3c0-15.1,12.3-27.5,27.5-27.5c15.1,0,27.5,12.3,27.5,27.4
		C127.5,115.1,115.2,127.4,100,127.4z M123,100c0-12.7-10.2-22.9-23-22.9c-12.7,0-23,10.3-23,22.9c0,12.6,10.3,22.8,22.9,22.8
		C112.7,122.9,123,112.7,123,100z"/>
</g>
</svg>
