<?xml version="1.0" encoding="utf-8"?>
<!-- Generator: Adobe Illustrator 27.1.0, SVG Export Plug-In . SVG Version: 6.00 Build 0)  -->
<svg version="1.1" id="Layer_1" xmlns="http://www.w3.org/2000/svg" xmlns:xlink="http://www.w3.org/1999/xlink" x="0px" y="0px"
	 viewBox="0 0 200 200" style="enable-background:new 0 0 200 200;" xml:space="preserve">
<style type="text/css">
	.st0{fill:#96C43D;}
</style>
<g>
	<path class="st0" d="M1.4,93.4c0.1-0.7,0.3-1.3,0.4-2c0.3-4.6,3.6-8.1,8-8.7c3-0.5,5.9-0.9,8.9-1.5c0.6-0.1,1.4-0.9,1.5-1.4
		c2-7.7,5-14.9,9-21.7c0.3-0.5,0.2-1.6-0.1-2.1c-1.7-2.5-3.5-4.9-5.2-7.4c-2.7-3.9-2.8-8.2,0.4-11.7c4-4.3,8.2-8.5,12.5-12.5
		c3.3-3,7.7-3,11.4-0.5c2.6,1.8,5.1,3.7,7.7,5.4c0.5,0.3,1.5,0.4,2,0.1c6.8-4,14.1-7.1,21.8-9c1-0.3,1.4-0.7,1.6-1.8
		c0.4-3,1-5.9,1.5-8.9c0.7-4.4,4-7.5,8.4-7.9c1.7-0.1,3.5-0.3,5.2-0.4c4-0.1,7,2.5,7,6.6c0.1,8.8,0.1,17.6,0,26.4
		c-0.1,3.9-2.8,6.4-6.9,6.6c-16.2,1.1-29.8,7.7-40.6,19.7C45.8,72,40.8,85.3,41,100.4c0.3,28.4,19.8,51.9,47.6,57.6
		c2.4,0.5,4.9,0.7,7.4,0.9c5,0.4,7.4,2.9,7.4,7.9c0,7.6-0.1,15.3,0.1,22.9c0.1,4.1-1.1,7.1-5,8.8c-1.9,0-3.9,0-5.8,0
		c-0.4-0.1-0.8-0.3-1.3-0.4c-4.9-0.5-8-3.4-8.8-8.2c-0.5-2.8-1.1-5.7-1.4-8.5c-0.1-1.2-0.7-1.6-1.7-1.8c-7.6-1.9-14.7-4.9-21.4-8.9
		c-1-0.6-1.7-0.5-2.5,0.2c-2.5,1.8-5,3.6-7.5,5.4c-3.5,2.4-8,2.4-11-0.4c-4.4-4-8.6-8.2-12.7-12.6c-3.2-3.4-3.1-7.8-0.4-11.7
		c1.7-2.5,3.6-4.9,5.2-7.4c0.3-0.5,0.4-1.6,0.1-2.1c-4-6.8-7-14.1-9.1-21.7c-0.2-0.6-0.9-1.3-1.5-1.5c-3-0.6-6.1-1.1-9.1-1.6
		c-4.3-0.7-7.5-4.2-7.8-8.5c-0.1-0.7-0.3-1.5-0.4-2.2C1.4,102.2,1.4,97.8,1.4,93.4z M96.5,8C95.7,8,95,8.1,94.4,8.2
		c-0.6,0.1-1.3,0.1-1.9,0.1c-2.2,0.1-2.9,0.8-3.3,3c-0.6,3.7-1.3,7.3-1.8,11c-0.3,2.4-1.5,3.5-3.7,4c-8.8,1.9-17,5.3-24.5,10.2
		c-1.7,1.1-3.3,1-5-0.2c-3.1-2.3-6.4-4.6-9.5-6.9c-1.3-1-2.6-1-3.8,0.1c-3.7,3.7-7.5,7.4-11.2,11.1c-1.3,1.3-1.2,2.7-0.1,4.1
		c2.3,3.2,4.6,6.4,6.9,9.5c1.1,1.5,1.2,3,0.2,4.6c-5,7.8-8.5,16.2-10.5,25.2c-0.4,1.9-1.5,2.8-3.4,3.1c-3.8,0.6-7.6,1.3-11.4,1.9
		c-1.8,0.3-2.9,1.2-2.9,3c-0.1,5.3-0.1,10.5,0,15.8c0,1.8,1.1,2.7,2.9,3c3.7,0.5,7.3,1.3,11,1.8c2.3,0.3,3.5,1.5,4,3.7
		c1.9,8.8,5.3,17,10.2,24.5c1.1,1.7,1.1,3.3-0.2,5c-2.2,3-4.4,6.1-6.6,9.2c-1.4,2-1.4,2.8,0.3,4.6c3.4,3.5,6.9,7,10.5,10.5
		c1.7,1.7,2.6,1.7,4.6,0.3c3.1-2.2,6.3-4.5,9.4-6.7c1.5-1.1,3-1.2,4.6-0.2c7.8,5,16.2,8.5,25.2,10.5c1.9,0.4,2.8,1.5,3.1,3.4
		c0.6,3.9,1.3,7.7,1.9,11.6c0.2,1.3,0.8,2.4,2.2,2.6c1.7,0.3,3.4,0.3,5.1,0.4c0-8.9,0-17.5,0-26.2c-16.8-1.2-31.3-7.5-43.1-19.4
		c-11.8-11.9-18.2-26.4-19.1-43.1C33.5,89.2,37,76,44.8,64.2C57.1,45.8,74.5,36,96.5,34.2C96.5,25.4,96.5,16.8,96.5,8z"/>
	<path class="st0" d="M103.5,86.9c0,3.3,0,6.4,0,9.7c0.8,0,1.5,0,2.2,0c23.9,0,47.9,0,71.8,0c1.4,0,2.1-0.3,2.8-1.6
		c2.1-3.9,6.8-5.7,11.1-4.6c4.2,1.1,7.3,5.1,7.3,9.5c0,4.5-3,8.4-7.2,9.5c-4.3,1.1-8.9-0.7-11.1-4.6c-0.6-1-1.1-1.6-2.4-1.6
		c-24.3,0.1-48.7,0-73,0c-0.4,0-0.8,0-1.3,0.1c0,3.2,0,6.3,0,9.7c0.8,0,1.5,0,2.3,0c16.3,0,32.6,0,48.9,0c7,0,11.1,4,11.1,11.1
		c0,4.7,0,9.4,0,14.1c0,1.1,0.3,1.8,1.3,2.4c4.4,2.4,6.2,7.2,4.7,11.8c-1.5,4.3-6,7.2-10.3,6.7c-5-0.6-8.8-4.5-8.9-9.5
		c-0.1-3.9,1.6-7,5-8.9c1.2-0.7,1.5-1.4,1.5-2.7c-0.1-4.8,0-9.6,0-14.4c0-2.7-1.2-3.9-3.9-3.9c-16.9,0-33.9,0-50.8,0
		c-0.2,0-0.5,0.1-0.9,0.1c0,3.2,0,6.4,0,9.7c0.9,0,1.6,0,2.4,0c10.6,0,21.2,0,31.8,0c0.7,0,1.4,0,2.1,0.1c1.8,0.2,2.9,1.5,3,3.2
		c0,1.7-1.2,3.1-2.9,3.3c-0.6,0.1-1.2,0-1.7,0c-10.8,0-21.6,0-32.4,0c-0.7,0-1.4,0-2.2,0c0,2.2,0,4.3,0,6.6c2.2,0,4.4,0,6.5,0
		c4.4,0,8.7,0,13.1,0c5.2,0.1,9.4,3.8,9.6,9.1c0.3,6.3,0.1,12.7,0.1,19.1c0,1.4,0.4,2.1,1.6,2.8c3.9,2.1,5.8,6.8,4.6,11
		c-1.2,4.4-5.1,7.3-9.7,7.3c-4.4,0-8.3-3-9.4-7.2c-1.2-4.4,0.6-9.1,4.6-11.2c1.3-0.7,1.6-1.5,1.6-2.8c-0.1-5.8,0-11.7,0-17.5
		c0-2.8-1.2-4-3.9-4c-6.2,0-12.3,0-18.5,0c-0.5,0-1.3,0.1-1.5,0.4c-2.2,3.2-5.3,3-8.5,2.5c-23.4-3.1-41.3-19.8-45.6-43
		c-5.1-27.6,12.5-54.1,39.7-60.5c2.8-0.7,5.7-0.9,8.5-1.3c2.2-0.3,4,0.6,5.5,2.2c0.4,0.5,1.2,0.9,1.9,0.9c6.2,0.1,12.3,0.1,18.5,0
		c2.8,0,3.9-1.2,3.9-4c0-6,0-11.9,0-17.9c0-1.2-0.4-1.8-1.4-2.4c-4.1-2.2-5.9-6.7-4.8-11.1c1.1-4.4,5-7.4,9.6-7.4
		c4.5,0,8.4,3,9.5,7.3c1.2,4.4-0.8,9-4.8,11.1c-1.1,0.6-1.5,1.3-1.5,2.5c0.1,5.8-0.1,11.7,0.1,17.5c0.2,6.9-5.1,11.1-10.9,10.9
		c-6.1-0.3-12.2-0.1-18.4-0.1c0,2.2,0,4.2,0,6.6c0.7,0,1.3,0,2,0c10.8,0,21.7,0,32.5,0c0.6,0,1.3,0,1.9,0.1c1.7,0.3,2.8,1.8,2.7,3.5
		c-0.1,1.6-1.3,2.8-3,3c-0.6,0.1-1.3,0-1.9,0c-10.7,0-21.3,0-32,0c-0.8,0-1.5,0-2.4,0c0,3.3,0,6.4,0,9.9c0.7,0,1.4,0,2,0
		c16.3,0,32.6,0,48.9,0c3.7,0,4.6-0.9,4.6-4.7c0-4.6,0-9.2,0-13.9c0-1.1-0.3-1.8-1.4-2.4c-4.3-2.3-6.2-7.1-4.7-11.6
		c1.4-4.4,5.8-7.4,10.2-6.9c4.8,0.5,8.7,4.1,9.1,9c0.3,4.1-1.4,7.4-5,9.5c-1.2,0.7-1.5,1.4-1.5,2.7c0.1,4.7,0,9.4,0,14.1
		c0,6.8-4.1,10.9-10.9,10.9c-16.4,0-32.7,0-49.1,0C105.1,86.9,104.3,86.9,103.5,86.9z M96.5,145.7c0-30.6,0-61,0-91.5
		c-22.2,1.2-42.3,20.4-42.5,45.5C53.9,124.8,73.8,144.4,96.5,145.7z M129.5,185.4c1.7,0,3.2-1.4,3.2-3.1c0.1-1.9-1.3-3.3-3.1-3.4
		c-1.7,0-3.2,1.3-3.3,3.1C126.3,183.8,127.7,185.4,129.5,185.4z M129.7,14.6c-1.7,0-3.2,1.3-3.3,3.1c-0.1,1.8,1.3,3.4,3.1,3.4
		c1.8,0,3.2-1.3,3.3-3C132.9,16.2,131.5,14.6,129.7,14.6z M192,100.1c0.1-1.7-1.3-3.2-3.1-3.3c-1.9-0.1-3.4,1.2-3.4,3.1
		c0,1.8,1.3,3.2,3.1,3.3C190.4,103.2,192,101.9,192,100.1z M165.6,50.8c0.1-1.8-1.2-3.2-2.9-3.3c-1.9-0.1-3.4,1.1-3.4,3
		c-0.1,1.8,1.2,3.2,2.9,3.3C164.1,54,165.6,52.7,165.6,50.8z M162.4,146.1c-1.8,0-3.1,1.3-3.1,3.2c0,1.9,1.4,3.2,3.3,3.2
		c1.8,0,3.1-1.4,3.1-3.2C165.6,147.4,164.2,146.1,162.4,146.1z"/>
</g>
</svg>
