<?xml version="1.0" encoding="utf-8"?>
<!-- Generator: Adobe Illustrator 27.1.0, SVG Export Plug-In . SVG Version: 6.00 Build 0)  -->
<svg version="1.1" id="Layer_1" xmlns="http://www.w3.org/2000/svg" xmlns:xlink="http://www.w3.org/1999/xlink" x="0px" y="0px"
	 viewBox="0 0 200 200" style="enable-background:new 0 0 200 200;" xml:space="preserve">
<style type="text/css">
	.st0{fill:#EC3783;}
</style>
<g>
	<path class="st0" d="M48.7,149.4c-0.5,0-0.9,0-1.3,0c-13.6,0-27.1,0-40.7,0c-2.8,0-4.1-1.3-4-4.1c0-4.1-0.2-8.2,0.2-12.2
		c1.1-13.3,7.3-23.8,18.6-31.1c15-9.6,33.7-8.3,47.5,2.9c0.2,0.1,0.4,0.3,0.5,0.4c20.4-13.3,40.7-13.3,61.1-0.1
		c1.6-1.1,3.4-2.5,5.2-3.6c14.6-9.2,34.3-7.6,47.3,3.7c7.6,6.6,12.3,14.9,13.8,24.8c0.5,3.2,0.4,6.4,0.5,9.6c0.1,1.9,0,3.8,0,5.8
		c0,2.6-1.3,3.9-3.8,3.9c-13.6,0-27.2,0-40.9,0c-0.4,0-0.8,0-1.3,0c0,0.4,0,0.8,0,1.2c0,2.9,0,5.7,0,8.6c0,2.4-1.3,3.7-3.7,3.7
		c-31.7,0-63.5,0-95.2,0c-2.4,0-3.7-1.3-3.7-3.7c0-2.8,0-5.6,0-8.5C48.7,150.3,48.7,149.9,48.7,149.4z M144.5,156c0-3.2,0-6.2,0-9.2
		c-0.2-14-5.6-25.7-16.5-34.4c-13.6-10.9-29-13.2-45.1-6.6c-14.9,6.1-23.7,17.5-26.9,33.3c-1.1,5.5-0.7,11.2-0.7,16.8
		c0,0.1,0.1,0.1,0.1,0.2C85.2,156,114.8,156,144.5,156z M64.2,109.7c-0.3-0.2-0.5-0.4-0.8-0.7c-16.9-12.7-41.4-6.7-50.6,12.4
		c-3.3,6.7-3.6,13.8-3.3,21.1c0,0.1,0.1,0.1,0.2,0.2c0.4,0,0.8,0,1.1,0c12.1,0,24.1,0,36.2,0c2,0,2,0,2.2-2c1-8.9,4.1-16.9,9.4-24
		C60.3,114.3,62.3,112.1,64.2,109.7z M135.8,110c9.2,9,14,20,15.4,32.6c13.1,0,26.2,0,39.2,0c1.3-15.2-4-28.6-18.2-36.1
		C159.8,99.7,145,102.3,135.8,110z"/>
	<path class="st0" d="M100,92.8c-15.4-0.1-27.8-12.5-27.7-27.9c0-15.4,12.5-27.8,27.9-27.8c15.4,0.1,27.8,12.5,27.7,27.9
		C127.7,80.5,115.3,92.9,100,92.8z M100,43.8c-11.6,0-21.1,9.4-21.1,21.1c0,11.6,9.4,21.1,21.1,21.2c11.6,0,21.1-9.5,21.2-21.1
		C121.1,53.4,111.7,43.9,100,43.8z"/>
	<path class="st0" d="M156.8,49.1c12.5,0.1,22.4,10.1,22.3,22.6C179,84,168.9,93.9,156.6,93.8c-12.3-0.1-22.2-10.1-22.2-22.5
		C134.5,59,144.5,49,156.8,49.1z M172.4,71.4c0-8.6-7-15.6-15.6-15.7c-8.6,0-15.7,7-15.7,15.7c0,8.6,7,15.6,15.6,15.6
		C165.4,87.1,172.4,80,172.4,71.4z"/>
	<path class="st0" d="M65.5,71.4c0,12.3-9.9,22.3-22.3,22.4c-12.3,0-22.3-10-22.3-22.3c0-12.3,9.9-22.3,22.3-22.3
		C55.5,49,65.5,59,65.5,71.4z M58.8,71.4c0-8.6-7-15.6-15.6-15.6c-8.6,0-15.6,7-15.6,15.7c0,8.7,7,15.6,15.7,15.5
		C51.9,87,58.8,80,58.8,71.4z"/>
</g>
</svg>
