<?xml version="1.0" encoding="utf-8"?>
<!-- Generator: Adobe Illustrator 27.2.0, SVG Export Plug-In . SVG Version: 6.00 Build 0)  -->
<svg version="1.1" id="Layer_1" xmlns="http://www.w3.org/2000/svg" xmlns:xlink="http://www.w3.org/1999/xlink" x="0px" y="0px"
	 viewBox="0 0 200 200" style="enable-background:new 0 0 200 200;" xml:space="preserve">
<style type="text/css">
	.st0{fill:#96C43D;}
	.st1{fill:none;stroke:#96C43D;stroke-width:14;stroke-miterlimit:10;}
</style>
<g>
	<path class="st0" d="M57,74.6h42.8v0.1c-2.5,4.4-4,6.8-4.3,7.1H84.1c1.6,2.1,2.6,4.6,3.2,7.6h12.2c0.1,0,0.2,0.1,0.2,0.2
		c-2.7,4.6-4.1,6.9-4.2,7h-7.9c-0.2,2.3-1.2,5.2-3,8.6c-2.5,3.4-4.8,5.6-7,6.6c-4.1,2.2-8.1,3.4-11.9,3.4v0.1c0,0.3,0.9,1.7,2.8,4.1
		l21.1,28.9v1.4c0,0.1-0.1,0.2-0.2,0.2h-9.3C63.4,127.8,55,116.7,55,116.6v-6.7l0.1-0.3c1.5,0.2,3.2,0.4,5.2,0.4
		c9.3,0,15.2-3.4,17.5-10.3c0.3-1,0.5-2,0.5-3.1H53c-0.1,0-0.2-0.1-0.2-0.3c2.8-4.6,4.2-6.9,4.3-6.9h20.2v-0.1
		c-1.2-2.7-3.4-4.7-6.7-6.2c-2.4-0.9-4.5-1.3-6.4-1.3H52.9v-0.3C55.6,76.9,57,74.6,57,74.6z"/>
</g>
<g>
	<path class="st0" d="M138,48.6h27.6v0.1c-1.6,2.8-2.6,4.4-2.8,4.6h-7.4c1,1.4,1.7,3,2.1,4.9h7.9c0.1,0,0.1,0.1,0.1,0.1
		c-1.8,3-2.7,4.5-2.7,4.5h-5.1c-0.1,1.5-0.8,3.4-1.9,5.6c-1.6,2.2-3.1,3.6-4.5,4.3c-2.7,1.4-5.2,2.2-7.7,2.2V75
		c0,0.2,0.6,1.1,1.8,2.7L159,96.2v0.9c0,0.1,0,0.1-0.1,0.1h-6c-10.8-14.3-16.2-21.4-16.2-21.5v-4.3l0.1-0.2c0.9,0.2,2.1,0.2,3.4,0.2
		c6,0,9.8-2.2,11.3-6.7c0.2-0.7,0.3-1.3,0.3-2h-16.4c-0.1,0-0.1-0.1-0.1-0.2c1.8-3,2.7-4.5,2.8-4.5H151v-0.1c-0.8-1.7-2.2-3.1-4.3-4
		c-1.5-0.6-2.9-0.8-4.1-0.8h-7.3v-0.2C137,50.1,137.9,48.6,138,48.6z"/>
</g>
<g>
	<path class="st1" d="M136.3,108.2c0,35.3-28.6,63.9-63.9,63.9S8.6,143.5,8.6,108.2s28.6-63.9,63.9-63.9c14.1,0,27.1,4.6,37.7,12.3"
		/>
	<circle class="st1" cx="150.2" cy="69.2" r="41.3"/>
</g>
</svg>
