<?xml version="1.0" encoding="utf-8"?>
<!-- Generator: Adobe Illustrator 27.2.0, SVG Export Plug-In . SVG Version: 6.00 Build 0)  -->
<svg version="1.1" id="Layer_1" xmlns="http://www.w3.org/2000/svg" xmlns:xlink="http://www.w3.org/1999/xlink" x="0px" y="0px"
	 viewBox="0 0 200 200" style="enable-background:new 0 0 200 200;" xml:space="preserve">
<style type="text/css">
	.st0{fill:#EC3783;}
</style>
<g>
	<path class="st0" d="M181.3,39.2c0.2-1.4-0.6-2.8-2-3.3C153.5,24.6,127.7,13.1,102,1.5c-1.2-0.6-2.6-0.6-3.7,0
		C72.4,13,46.5,24.5,20.7,35.9c-1.3,0.3-2.1,1.6-2,2.9c0.2,17.6,0,35.2,0.2,52.9c0.1,24.3,8,47.9,22.6,67.3
		c14.1,18.9,32,32.5,54.8,39.3l0,0c2.5,0.8,5.1,0.8,7.5,0c21-6.3,39.5-19.1,52.7-36.6c16.1-20.2,24.8-45.4,24.7-71.2V67.7
		C181.2,58.2,181.2,48.7,181.3,39.2L181.3,39.2z M167.3,73.2v18.9v0c0.1,21.4-7.1,42.3-20.5,59.1c-11,14.5-26.3,25.1-43.7,30.4
		c-2,0.6-4.2,0.6-6.3,0c-18.3-5.6-34.3-17-45.4-32.6c-12.1-16.1-18.6-35.7-18.7-55.8c-0.2-14.6,0-29.2,0-43.8v0
		c-0.1-1.1,0.5-2.1,1.6-2.4c21.4-9.5,42.7-19,64.2-28.6c1-0.5,2.1-0.5,3.1,0c21.4,9.6,42.7,19.1,64.1,28.5c1.1,0.4,1.8,1.5,1.6,2.7
		L167.3,73.2L167.3,73.2z"/>
	<path class="st0" d="M123.4,100h-5.1V85.8c0-6.5-3.5-12.6-9.1-15.8c-5.7-3.3-12.6-3.3-18.3,0c-5.7,3.3-9.1,9.3-9.1,15.8V100h-5.1
		c-1.1,0-2,0.9-2,2v28.4c0,0.5,0.2,1,0.6,1.4c0.4,0.4,0.9,0.6,1.4,0.6h46.7c0.5,0,1-0.2,1.4-0.6c0.4-0.4,0.6-0.9,0.6-1.4V102
		c0-0.5-0.2-1-0.6-1.4C124.4,100.2,123.9,100,123.4,100L123.4,100z M103.8,121.4h-7.6l2.5-7.2v0c-1.8-0.7-2.9-2.5-2.5-4.4
		c0.3-1.9,2-3.3,3.9-3.3s3.6,1.4,3.9,3.3c0.3,1.9-0.7,3.7-2.5,4.4L103.8,121.4z M111.2,100H88.8V85.8c0-4,2.1-7.7,5.6-9.7
		c3.5-2,7.7-2,11.2,0c3.5,2,5.6,5.7,5.6,9.7L111.2,100L111.2,100z"/>
</g>
</svg>
