<?xml version="1.0" encoding="utf-8"?>
<!-- Generator: Adobe Illustrator 27.2.0, SVG Export Plug-In . SVG Version: 6.00 Build 0)  -->
<svg version="1.1" id="Layer_1" xmlns="http://www.w3.org/2000/svg" xmlns:xlink="http://www.w3.org/1999/xlink" x="0px" y="0px"
	 viewBox="0 0 200 200" style="enable-background:new 0 0 200 200;" xml:space="preserve">
<style type="text/css">
	.st0{fill:#96C43D;}
</style>
<g>
	<path class="st0" d="M123.8,176.2c-10.5,8.5-23.9,12.8-39.9,12.8l0,0c-20.2,0-36.2-6.8-47.5-20.1c-9.4-11.1-14.8-26.4-14.8-42.1
		c0-10.6,5.1-23.5,15.1-38.4c7.3-10.8,16.3-21.6,25-32c1.9-2.3,3.9-4.6,5.7-6.9l0,0l0,0c0.3-0.3,0.6-0.8,0.8-1.2
		c0.1-0.2,0.2-0.4,0.4-0.6l1.8-2.7l1,1.8h27.1l0.6,1l0.1,0.2c0.3,0.5,0.5,0.9,0.8,1.3l1.1,1.4l-0.1,0.1c3.8,5.1,7.8,10.2,12.1,15.6
		c5.9,7.1,11.9,14.6,17.1,22c8.6,12.4,13.6,22.9,15.3,31.9c1.2-0.3,2.5-0.5,3.7-0.5c2.1,0,4.1,0.4,5.9,1.1
		C153.3,107,145.5,94,137.8,83c-5.6-8.1-11.8-15.9-17.8-23.4c-4.5-5.6-8.7-10.9-12.4-16l-0.2-0.2l-0.1-0.3c-0.7-2-0.5-3.1-0.2-4.6
		v-0.1l0,0l0,0c0.8-3.5,2.1-6.9,3.3-10.1c1.6-4.3,3.1-8.3,3.5-12.3c0.3-5.2-1.8-9.6-5.8-11.7c-0.6-0.3-1.4-0.5-2.1-0.5
		c-0.5,0-1.1,0.1-1.5,0.3h-0.1h-0.1c-1.6,0.4-3.2,0.6-5,0.6c-3.7,0-7.2-1-10.6-1.9c-1.8-0.5-3.5-1-5.2-1.3c-0.4,0.1-0.7,0.2-1.1,0.3
		c-4.9,1.4-9.5,2.7-14.5,2.7c-1.7,0-3.2-0.1-4.9-0.4h-0.2h-0.1c-0.5-0.2-1-0.2-1.5-0.2c-0.7,0-1.4,0.2-2,0.5
		C55.1,6.9,53.1,11,53.5,16c0.4,4.5,2,8.3,3.6,12.5c1.2,3.1,2.5,6.4,3.3,10c0.5,2.5,0.4,4.2-0.3,5l0,0l0,0c-2,2.4-4,4.8-6.1,7.3
		c-8.7,10.3-17.6,21-25.2,32.4C23.5,91,19.6,98,17,104.6c-3.2,7.8-4.8,15.1-4.8,22.2c0,8.7,1.4,17.1,4.1,25.2
		c2.9,8.6,7.2,16.4,12.9,23c6.1,7.2,13.7,12.9,22.5,16.9c9.6,4.3,20.4,6.5,32.2,6.6H84c11.7,0,22.5-2.2,32.1-6.5
		c5.7-2.6,10.8-5.8,15.4-9.7C128.3,181,125.7,178.8,123.8,176.2z M65.3,13.9c1.2,0.1,2.3,0.2,3.5,0.2c4.8,0,9.6-0.9,14.3-2.6
		l0.7-0.2l0.7,0.2c4.7,1.7,9.6,2.6,14.4,2.6c1.2,0,2.3-0.1,3.5-0.2l2.7-0.2l-0.5,2.6c-0.8,3.8-2.1,7.4-3.4,10.9
		c-1.1,3-2.2,5.8-2.8,8.6L98,37.3H70l-0.4-1.5c-0.8-3.2-1.9-6.2-3-9.2c-1.2-3.3-2.5-6.6-3.3-10.3l-0.6-2.7L65.3,13.9z"/>
	<g>
		<path class="st0" d="M69.5,73.6h33.9v0.1c-2,3.5-3.1,5.4-3.4,5.6h-9c1.2,1.7,2.1,3.7,2.5,6h9.6c0.1,0,0.2,0.1,0.2,0.2
			c-2.2,3.7-3.3,5.5-3.3,5.5h-6.2c-0.1,1.9-0.9,4.1-2.4,6.8c-2,2.7-3.8,4.4-5.6,5.2c-3.3,1.8-6.4,2.7-9.4,2.7v0.1
			c0,0.2,0.7,1.3,2.2,3.3L95.3,132v1.1c0,0.1-0.1,0.2-0.2,0.2h-7.4C74.5,115.8,67.8,107,67.8,107v-5.3l0.1-0.2
			c1.2,0.2,2.5,0.3,4.1,0.3c7.4,0,12-2.7,13.8-8.2c0.3-0.8,0.4-1.6,0.4-2.5h-20c-0.1,0-0.2-0.1-0.2-0.2c2.2-3.7,3.4-5.5,3.4-5.5h16
			v-0.1c-0.9-2.1-2.7-3.7-5.3-4.9c-1.9-0.7-3.6-1-5.1-1h-8.9V79C68.3,75.4,69.4,73.6,69.5,73.6z"/>
	</g>
	<path class="st0" d="M143.8,106c-24.3,0-44,19.7-44,44s19.7,44,44,44s44-19.7,44-44S168.1,106,143.8,106z M161.6,128.6
		c-1.7,2.9-2.6,4.5-2.8,4.7h-7.5c1,1.4,1.7,3,2.1,5h8c0.1,0,0.1,0.1,0.1,0.1c-1.8,3-2.7,4.6-2.8,4.6h-5.2c-0.1,1.5-0.8,3.4-2,5.7
		c-1.6,2.2-3.2,3.7-4.6,4.3c-2.7,1.5-5.3,2.2-7.8,2.2v0.1c0,0.2,0.6,1.1,1.8,2.7l13.9,19v0.9c0,0.1,0,0.1-0.1,0.1h-6.1
		c-11-14.5-16.5-21.8-16.5-21.9v-4.4l0.1-0.2c1,0.2,2.1,0.2,3.4,0.2c6.1,0,10-2.3,11.5-6.8c0.2-0.7,0.3-1.3,0.3-2h-16.7
		c-0.1,0-0.1-0.1-0.1-0.2c1.8-3,2.8-4.6,2.8-4.6h13.3V138c-0.8-1.7-2.3-3.1-4.4-4.1c-1.6-0.6-3-0.9-4.2-0.9h-7.4v-0.2
		c1.8-3,2.7-4.6,2.8-4.6L161.6,128.6L161.6,128.6z"/>
</g>
</svg>
