<?xml version="1.0" encoding="utf-8"?>
<!-- Generator: Adobe Illustrator 27.2.0, SVG Export Plug-In . SVG Version: 6.00 Build 0)  -->
<svg version="1.1" id="Layer_1" xmlns="http://www.w3.org/2000/svg" xmlns:xlink="http://www.w3.org/1999/xlink" x="0px" y="0px"
	 viewBox="0 0 200 200" style="enable-background:new 0 0 200 200;" xml:space="preserve">
<style type="text/css">
	.st0{fill:#EC3783;}
</style>
<g>
	<path class="st0" d="M175.8,92.1c1.2-4.2,1.8-8.6,1.8-13c0-14.2-6.1-27.7-16.7-37.2c-10.6-9.5-24.7-13.9-38.9-12.3
		c-14.1,1.6-26.9,9.1-35.1,20.7c-3.2-0.7-6.4-1.1-9.7-1.1c-23.6,0-43,17.3-44.3,39.4c-18.5,5.2-31.7,21.6-31.7,40.3
		c0,23.2,20,42.1,44.6,42.1h108.5c24.5,0,44.6-18.9,44.6-42.1c-0.1-7.6-2.3-15.1-6.4-21.5C188.4,100.7,182.6,95.5,175.8,92.1
		L175.8,92.1z M154.2,161.8H45.8c-19.6,0-35.6-14.9-35.6-33.1s11.9-29,28.1-32.4l3.6-0.7v-3.6c0-0.3,0-0.6,0-0.9
		c0-18.2,16-33.1,35.6-33.1c3.5,0,7,0.5,10.4,1.6l3.4,0.9l1.8-2.9c7.4-11.1,19.6-17.9,32.9-18.3c13.3-0.4,25.9,5.7,33.9,16.3
		c8,10.6,10.4,24.4,6.3,37.1l-1.3,4l4,1.6c6.1,2.4,11.4,6.5,15.2,11.9c3.8,5.4,5.9,11.7,6,18.3C189.8,147,173.8,161.8,154.2,161.8
		L154.2,161.8z"/>
	<path class="st0" d="M88.3,85.8c5.8-5.4,13.7-7.9,21.6-7c6.9,0.9,13.3,4.2,18,9.5H109v9l32.2,0V65.1h-9l0,14.6
		c-5.9-5.5-13.4-9-21.4-9.9C100.4,68.6,90,72,82.2,79c-7,6.2-11.4,14.6-12.6,23.9l9,0.9h0C79.6,96.8,83,90.4,88.3,85.8L88.3,85.8z"
		/>
	<path class="st0" d="M125.2,127.6c-5.8,5.4-13.7,7.9-21.6,7c-6.9-0.9-13.3-4.2-18-9.5h18.9v-9H72.3v32.2h9v-14.6
		c5.9,5.5,13.4,9,21.4,9.9h4.1c9.1,0,17.8-3.4,24.5-9.5c7-6.2,11.4-14.6,12.6-23.9l-9-0.9v0C133.9,116.4,130.5,122.9,125.2,127.6
		L125.2,127.6z"/>
</g>
</svg>
