<?xml version="1.0" encoding="utf-8"?>
<!-- Generator: Adobe Illustrator 27.0.0, SVG Export Plug-In . SVG Version: 6.00 Build 0)  -->
<svg version="1.1" id="Layer_1" xmlns="http://www.w3.org/2000/svg" xmlns:xlink="http://www.w3.org/1999/xlink" x="0px" y="0px"
	 viewBox="0 0 200 200" style="enable-background:new 0 0 200 200;" xml:space="preserve">
<style type="text/css">
	.st0{fill:#96C43D;}
</style>
<g>
	<path class="st0" d="M17.1,51.1L17.1,51.1c-0.5,25.9-1.1,55.2,8.9,82.2c11.6,31.4,35.2,52.8,72.1,65.6c0.1,0,0.2,0.1,0.4,0.1
		c0.6,0.1,1,0.3,1.5,0.3c0.6,0,1.3-0.2,1.8-0.3c36.9-12.7,60.5-34.1,72.1-65.4c10-26.9,9.6-56.2,9.2-82l0-0.5l0-0.1
		c-0.2-5.4-0.2-10.5-0.2-15.5c0-3.1-2.4-5.5-5.5-5.5c-30.8-0.2-54.1-9-73.5-27.8c-1-1-2.4-1.6-3.9-1.6c-1.5,0-2.8,0.6-3.9,1.6
		C76.6,21.1,53.3,29.9,22.8,29.9c-3.1,0-5.5,2.4-5.5,5.5C17.3,40.3,17.3,45.5,17.1,51.1z M28,51.4c0-1.6,0.1-3.1,0.1-4.6
		c0.1-1.5,0.1-2.8,0.1-4.2v-1.5l1.5-0.1c28.3-1.4,50.3-9.8,69.2-26.4l1-0.9l1,0.9c9.6,8.4,19.9,14.6,31.3,18.9
		c11.5,4.4,23.9,6.7,37.9,7.2l1.5,0.1v1.5c0,2.8,0,5.7,0.2,8.7l0,0l0,0c1,50.9,2.2,108.5-69.2,135.6l3,3.1l-6.3-2.3
		C25.8,160.9,27,102.7,28,51.4z"/>
	<path class="st0" d="M133,76.3c-1-1-2.3-1.5-3.7-1.5c-1.4,0-2.7,0.5-3.7,1.5l0,0l-0.2,0.2l-33.9,34l-1.1,1.1l-1.1-1.1L74.6,95.9
		c-1-1-2.4-1.6-3.9-1.6c-1.5,0-2.9,0.6-4.1,1.6c-2.1,2.1-2.1,5.6,0,7.9l19.5,19.5c1.1,1.1,2.3,1.6,3.9,1.6c0.9,0,2.6-0.2,3.8-1.5
		l0,0l0,0L133,84.3C135.1,82.2,135.1,78.6,133,76.3z"/>
</g>
</svg>
