<?xml version="1.0" encoding="utf-8"?>
<!-- Generator: Adobe Illustrator 27.0.0, SVG Export Plug-In . SVG Version: 6.00 Build 0)  -->
<svg version="1.1" id="Layer_1" xmlns="http://www.w3.org/2000/svg" xmlns:xlink="http://www.w3.org/1999/xlink" x="0px" y="0px"
	 viewBox="0 0 200 200" style="enable-background:new 0 0 200 200;" xml:space="preserve">
<style type="text/css">
	.st0{fill:#96C43D;}
</style>
<g>
	<path class="st0" d="M123.1,1c-2.4,0.2-4.2,2.3-4.2,4.7v7.4c-1.7,0.6-3.4,1.3-5,2.1l-5.2-5.2c-1.8-1.8-4.7-1.8-6.6,0L87.7,24.6
		c-0.9,0.9-1.4,2.1-1.4,3.4c0,1.3,0.5,2.5,1.4,3.4l5.1,5.2c-0.8,1.7-1.5,3.4-2.1,5.2h-7.1c-2.6,0-4.7,2.1-4.7,4.7v20.6
		c0,2.6,2.1,4.7,4.7,4.7h7.1c0.6,1.8,1.3,3.4,2.1,5.1l-5.1,5.2c-0.9,0.9-1.4,2.1-1.4,3.4c0,1.3,0.5,2.5,1.4,3.4l14.5,14.6
		c1.8,1.8,4.7,1.8,6.6,0l5-5.1c1.6,0.8,3.3,1.5,5.1,2.1v7.3c0,2.6,2.1,4.7,4.7,4.7H144c2.6,0,4.7-2.1,4.7-4.7v-7.3
		c1.7-0.6,3.5-1.3,5.1-2.1l5,5c1.8,1.8,4.7,1.8,6.6,0l14.4-14.6c1.8-1.8,1.9-4.8,0.1-6.6l-5-5.2c0.8-1.6,1.5-3.3,2.1-5.1h7.1
		c2.6,0,4.7-2.1,4.7-4.7V46.3c0-2.6-2.1-4.7-4.7-4.7h-7.1c-0.6-1.8-1.3-3.5-2.1-5.2l5-5.2c1.8-1.9,1.7-4.8-0.1-6.6L165.3,10
		c-1.8-1.8-4.7-1.8-6.6,0l-5.1,5.2c-1.6-0.8-3.2-1.4-5-2.1V5.7c0-2.6-2.1-4.7-4.7-4.7h-20.5C123.4,1,123.3,1,123.1,1L123.1,1z
		 M128.2,10.4h11.2v5.7c0,2.2,1.4,4,3.5,4.6c3.4,0.9,6.4,2.2,9.5,4.1c1.8,1.1,4.2,0.8,5.7-0.7l4-4.1l7.9,8L166,32
		c-1.5,1.5-1.7,3.8-0.7,5.7c1.8,3,3.1,6.3,4,9.7c0.5,2.1,2.4,3.6,4.5,3.6h5.5v11.2h-5.5c-2.1,0-4,1.5-4.5,3.5
		c-0.9,3.5-2.2,6.7-4,9.7c-1.1,1.8-0.8,4.1,0.7,5.7l3.9,4.1l-7.9,8l-3.9-3.9c-1.5-1.5-3.9-1.8-5.7-0.7c-2.9,1.8-6.2,3.1-9.6,4
		c-2.1,0.5-3.5,2.4-3.5,4.6v5.7h-11.2v-5.7c0-2.2-1.4-4-3.5-4.6c-3.4-0.9-6.6-2.2-9.6-4.1c-1.8-1.1-4.2-0.8-5.7,0.7l-3.9,4l-7.9-8
		l3.9-4c1.5-1.5,1.8-3.9,0.7-5.7c-1.8-3-3.1-6.3-4-9.7c-0.5-2.1-2.4-3.5-4.5-3.5h-5.5V51h5.5c2.1,0,4-1.5,4.5-3.6
		c0.9-3.4,2.2-6.7,4-9.7c1.1-1.9,0.8-4.2-0.7-5.7l-3.9-4l7.9-8l4.1,4.1c1.5,1.5,3.8,1.8,5.7,0.7c3-1.8,6.1-3.2,9.5-4.1
		c2.1-0.5,3.5-2.4,3.5-4.6L128.2,10.4z M133.8,33.8c-12.4,0-22.7,10.2-22.7,22.8c0,12.6,10.2,22.9,22.7,22.9s22.6-10.3,22.6-22.9
		C156.4,44.1,146.3,33.8,133.8,33.8z M133.8,43.2c7.4,0,13.3,5.9,13.3,13.4c0,7.5-5.9,13.5-13.3,13.5c-7.4,0-13.3-6-13.3-13.5
		C120.5,49.1,126.4,43.2,133.8,43.2z M67.6,109.6c-7.4,0-14.4,2.2-20.5,5.9c-1.1,0.6-2,1.6-2.4,2.9c-0.4,1.2-0.2,2.6,0.5,3.7
		c0.7,1.1,1.7,1.9,3,2.2c1.3,0.3,2.6,0,3.6-0.7c4.9-2.9,10.2-4.6,15.7-4.6c8.8,0,16.8,3.5,22.8,9.1c0.9,0.8,2,1.3,3.2,1.3l21.9-0.1
		c2.4,0,3.4,0.7,4.2,1.4c0.7,0.7,1,1.8,1,2.9c-0.1,2.3-1,4.6-5.2,4.6H84.3c-1.2,0-2.5,0.5-3.3,1.4c-0.9,0.9-1.4,2.1-1.4,3.4
		c0,1.3,0.5,2.5,1.4,3.4c0.9,0.9,2.1,1.4,3.3,1.4h31.2c8.6,0,14.3-6.9,14.5-13.8c0.1-3.4-1.1-7-3.6-9.7c-2.6-2.7-6.4-4.3-10.9-4.3
		h-0.1L95.1,120C87.7,113.6,78.1,109.6,67.6,109.6L67.6,109.6z M182.2,109.7c-3.2,0-6.4,0.9-9.3,2.4l-27.8,14.3
		c-1.2,0.5-2,1.5-2.5,2.7c-0.4,1.2-0.3,2.5,0.2,3.7c0.6,1.1,1.6,2,2.8,2.4c1.2,0.4,2.5,0.2,3.6-0.4l27.8-14.3
		c4.5-2.3,8.9-1.5,10.6,1.2c1.7,2.6,0.9,6.4-3.1,8.8c0,0,0,0-0.1,0.1l-59,36.2H61.1l-30.7-53.6c-1.3-2.3-4.1-3-6.3-1.8L4.4,122.8
		c-0.1,0.1-0.3,0.1-0.4,0.2c-1.9,1.4-2.5,4.1-1.2,6.2l38.5,67.4c0.6,1.1,1.6,1.9,2.8,2.2c1.2,0.3,2.5,0.2,3.6-0.5l19.6-11.5
		c2.2-1.3,3-4.2,1.7-6.4l-2.5-4.3h60.4c0.9,0,1.7-0.3,2.5-0.7l60.1-36.8l0.1-0.1c7.7-4.7,11-14.7,6.1-22.1
		c-2.5-3.7-6.2-5.8-10.3-6.5C184.4,109.7,183.3,109.6,182.2,109.7L182.2,109.7z M24.6,121.8l33.9,59.3L47,187.8l-33.8-59.2
		L24.6,121.8z"/>
</g>
</svg>
