<?xml version="1.0" encoding="utf-8"?>
<!-- Generator: Adobe Illustrator 27.0.0, SVG Export Plug-In . SVG Version: 6.00 Build 0)  -->
<svg version="1.1" id="Layer_1" xmlns="http://www.w3.org/2000/svg" xmlns:xlink="http://www.w3.org/1999/xlink" x="0px" y="0px"
	 viewBox="0 0 200 200" style="enable-background:new 0 0 200 200;" xml:space="preserve">
<style type="text/css">
	.st0{fill:#96C43D;}
</style>
<g>
	<path class="st0" d="M180.3,17.8h-18.8v-5.1c0-6.2-5.1-11.3-11.3-11.3h-2.1c-6.2,0-11.3,5.1-11.3,11.3v5.1H63.2v-5.1
		c0-6.2-5.1-11.3-11.3-11.3h-2.1c-6.2,0-11.3,5.1-11.3,11.3v5.1H19.7C9.6,17.8,1.4,26,1.4,36.1v144.2c0,10.1,8.2,18.3,18.3,18.3
		h160.6c10.1,0,18.3-8.2,18.3-18.3V36.1C198.6,26,190.4,17.8,180.3,17.8L180.3,17.8z M145.3,12.7c0-1.5,1.3-2.8,2.8-2.8h2.1
		c1.5,0,2.8,1.3,2.8,2.8v22.7c0,1.5-1.3,2.8-2.8,2.8h-2.1c-1.5,0-2.8-1.3-2.8-2.8V12.7z M46.9,12.7c0-1.5,1.3-2.8,2.8-2.8h2.1
		c1.5,0,2.8,1.3,2.8,2.8v22.7c0,1.5-1.3,2.8-2.8,2.8h-2.1c-1.5,0-2.8-1.3-2.8-2.8V12.7z M19.7,26.2h18.8v9.1
		c0,6.2,5.1,11.3,11.3,11.3h2.1c6.2,0,11.3-5.1,11.3-11.3l0-9.1h73.6v9.1c0,6.2,5.1,11.3,11.3,11.3h2.1c6.2,0,11.3-5.1,11.3-11.3
		l0-9.1h18.8c5.4,0,9.9,4.4,9.9,9.9v27.2H9.8V36.1C9.8,30.6,14.3,26.2,19.7,26.2L19.7,26.2z M180.3,190.2H19.7
		c-5.4,0-9.9-4.4-9.9-9.9V71.8h180.3v108.6C190.2,185.7,185.7,190.2,180.3,190.2L180.3,190.2z"/>
	<path class="st0" d="M143.4,116.6c-2.3,0.5-3.7,2.8-3.2,5.1c0.7,3,1.1,6.2,1.1,9.3c0,22.9-18.6,41.6-41.6,41.6S58.2,153.9,58.2,131
		s18.6-41.6,41.6-41.6c7.6,0,15.1,2.1,21.5,6c2,1.2,4.6,0.6,5.8-1.4c1.2-2,0.6-4.6-1.4-5.8c-7.8-4.7-16.8-7.2-25.9-7.2
		c-27.6,0-50,22.4-50,50c0,27.6,22.4,50,50,50s50-22.4,50-50c0-3.8-0.4-7.6-1.3-11.2C148,117.5,145.6,116,143.4,116.6L143.4,116.6z"
		/>
	<path class="st0" d="M143.1,91.1l-48.8,48.8l-12.6-12.6c-1.6-1.6-4.3-1.6-6,0c-1.6,1.6-1.6,4.3,0,6l15.6,15.6
		c0.8,0.8,1.9,1.2,3,1.2s2.2-0.4,3-1.2l51.8-51.8c1.6-1.6,1.6-4.3,0-6C147.4,89.5,144.7,89.5,143.1,91.1L143.1,91.1z"/>
</g>
</svg>
