<?xml version="1.0" encoding="utf-8"?>
<!-- Generator: Adobe Illustrator 27.0.0, SVG Export Plug-In . SVG Version: 6.00 Build 0)  -->
<svg version="1.1" id="Layer_1" xmlns="http://www.w3.org/2000/svg" xmlns:xlink="http://www.w3.org/1999/xlink" x="0px" y="0px"
	 viewBox="0 0 150 150" style="enable-background:new 0 0 150 150;" xml:space="preserve">
<style type="text/css">
	.st0{fill:#EC3783;}
</style>
<g>
	<path class="st0" d="M92.5,0.8c-1.8,0.2-3.2,1.7-3.2,3.5v5.5c-1.3,0.5-2.5,1-3.8,1.6l-3.9-3.9c-1.4-1.4-3.6-1.4-5,0l-11,10.9
		c-0.7,0.7-1,1.6-1,2.5c0,0.9,0.4,1.8,1,2.5l3.9,3.9c-0.6,1.2-1.1,2.5-1.6,3.9h-5.4c-2,0-3.5,1.6-3.5,3.5v15.5c0,2,1.6,3.5,3.5,3.5
		h5.4c0.5,1.3,1,2.6,1.6,3.8l-3.9,3.9c-0.7,0.7-1,1.6-1,2.5c0,0.9,0.4,1.8,1,2.5l11,10.9c1.4,1.4,3.6,1.4,5,0l3.8-3.8
		c1.2,0.6,2.5,1.1,3.9,1.6v5.5c0,2,1.6,3.5,3.5,3.5h15.5c2,0,3.5-1.6,3.5-3.5v-5.5c1.3-0.4,2.6-0.9,3.9-1.5l3.8,3.8
		c1.4,1.4,3.6,1.4,5,0l10.9-10.9c1.4-1.4,1.4-3.6,0.1-5l-3.8-3.9c0.6-1.2,1.1-2.5,1.6-3.8h5.4c2,0,3.5-1.6,3.5-3.5V34.8
		c0-2-1.6-3.5-3.5-3.5h-5.4c-0.5-1.3-1-2.6-1.6-3.9l3.8-3.9c1.3-1.4,1.3-3.6-0.1-5L124.5,7.6c-1.4-1.4-3.6-1.4-5,0l-3.9,3.9
		c-1.2-0.6-2.5-1.1-3.8-1.5V4.4c0-2-1.6-3.5-3.5-3.5H92.8C92.7,0.8,92.6,0.8,92.5,0.8L92.5,0.8z M96.4,7.9h8.4v4.3
		c0,1.6,1.1,3,2.6,3.4c2.5,0.6,4.9,1.7,7.2,3c1.4,0.8,3.2,0.6,4.3-0.6l3-3l6,6l-3,3c-1.1,1.1-1.3,2.9-0.5,4.2c1.3,2.3,2.4,4.7,3,7.3
		c0.4,1.6,1.8,2.7,3.4,2.7h4.2v8.4h-4.2c-1.6,0-3,1.1-3.4,2.6c-0.7,2.6-1.7,5-3,7.3c-0.8,1.4-0.6,3.1,0.5,4.2l3,3l-6,6l-2.9-2.9
		c-1.2-1.1-2.9-1.3-4.3-0.5c-2.2,1.3-4.7,2.3-7.3,3c-1.6,0.4-2.7,1.8-2.6,3.4v4.2h-8.4v-4.2c0-1.6-1.1-3-2.7-3.4
		c-2.6-0.7-5-1.7-7.3-3c-1.4-0.8-3.2-0.6-4.3,0.5l-3,3l-6-6l3-3c1.1-1.1,1.4-2.9,0.6-4.3c-1.4-2.3-2.4-4.7-3-7.3
		c-0.4-1.6-1.8-2.7-3.4-2.6h-4.2v-8.4h4.2c1.6,0,3-1.1,3.4-2.7c0.7-2.6,1.7-5,3-7.3c0.8-1.4,0.6-3.2-0.6-4.3l-3-3l6-6l3.1,3
		c1.1,1.1,2.9,1.4,4.3,0.6c2.3-1.4,4.6-2.4,7.2-3c1.6-0.4,2.7-1.8,2.7-3.4L96.4,7.9z M100.6,25.4c-9.4,0-17.2,7.7-17.2,17.1
		c0,9.4,7.7,17.2,17.2,17.2s17.1-7.8,17.1-17.2C117.7,33.1,110,25.4,100.6,25.4z M100.6,32.5c5.6,0,10,4.4,10,10
		c0,5.6-4.4,10.1-10,10.1s-10.1-4.5-10.1-10.1C90.5,36.9,95,32.5,100.6,32.5z M50.5,82.2c-5.6,0-10.9,1.7-15.5,4.4
		c-0.9,0.4-1.5,1.2-1.8,2.2c-0.3,0.9-0.1,1.9,0.4,2.8c0.5,0.8,1.3,1.4,2.3,1.6c1,0.2,1.9,0,2.8-0.5c3.7-2.2,7.8-3.4,11.9-3.4
		c6.7,0,12.7,2.6,17.3,6.8c0.7,0.6,1.5,0.9,2.4,0.9l16.6-0.1c1.8,0,2.6,0.5,3.1,1c0.5,0.6,0.8,1.3,0.8,2.2c0,1.7-0.8,3.4-3.9,3.4
		H63.1c-0.9,0-1.9,0.4-2.5,1c-0.7,0.7-1.1,1.6-1.1,2.5c0,0.9,0.4,1.9,1.1,2.5c0.7,0.7,1.6,1,2.5,1h23.6c6.5,0,10.9-5.2,11-10.3
		c0.1-2.6-0.8-5.3-2.8-7.3c-1.9-2-4.9-3.2-8.2-3.2h-0.1L71.3,90C65.7,85.2,58.4,82.2,50.5,82.2L50.5,82.2z M137.3,82.2
		c-2.4,0-4.8,0.7-7,1.8l-21,10.7c-0.9,0.4-1.5,1.1-1.9,2c-0.3,0.9-0.2,1.9,0.2,2.8c0.4,0.9,1.2,1.5,2.1,1.8c0.9,0.3,1.9,0.2,2.8-0.3
		l21-10.7c3.4-1.7,6.7-1.1,8.1,0.9c1.3,2,0.7,4.8-2.4,6.6c0,0,0,0-0.1,0.1L94.4,125H45.5L22.3,84.8c-1-1.7-3.1-2.3-4.8-1.3L2.6,92.1
		c-0.1,0-0.2,0.1-0.3,0.2c-1.5,1.1-1.9,3.1-0.9,4.6l29.1,50.5c0.5,0.8,1.2,1.4,2.2,1.7c0.9,0.2,1.9,0.1,2.7-0.4l14.8-8.6
		c1.7-1,2.3-3.1,1.3-4.8l-1.9-3.3h45.8c0.7,0,1.3-0.2,1.9-0.6l45.5-27.6l0.1-0.1c5.8-3.5,8.3-11,4.6-16.6c-1.9-2.8-4.7-4.4-7.8-4.9
		C138.9,82.3,138.1,82.2,137.3,82.2L137.3,82.2z M17.9,91.4l25.7,44.4l-8.8,5L9.2,96.4L17.9,91.4z"/>
</g>
</svg>
