<?xml version="1.0" encoding="utf-8"?>
<!-- Generator: Adobe Illustrator 27.0.0, SVG Export Plug-In . SVG Version: 6.00 Build 0)  -->
<svg version="1.1" id="Layer_1" xmlns="http://www.w3.org/2000/svg" xmlns:xlink="http://www.w3.org/1999/xlink" x="0px" y="0px"
	 viewBox="0 0 150 150" style="enable-background:new 0 0 150 150;" xml:space="preserve">
<style type="text/css">
	.st0{fill:#EC3783;}
</style>
<g>
	<path class="st0" d="M12.9,38.3L12.9,38.3c-0.4,19.4-0.8,41.3,6.6,61.6c8.7,23.5,26.3,39.6,54,49.1c0.1,0,0.2,0,0.3,0.1
		c0.4,0.1,0.7,0.2,1.1,0.2c0.5,0,1-0.1,1.3-0.2c27.6-9.5,45.3-25.6,54-49c7.5-20.2,7.2-42.1,6.9-61.4l0-0.3l0-0.1
		c-0.2-4-0.2-7.9-0.2-11.6c0-2.3-1.8-4.1-4.1-4.1c-23-0.2-40.5-6.8-55-20.8c-0.8-0.8-1.8-1.2-2.9-1.2c-1.1,0-2.1,0.4-2.9,1.2
		C57.5,15.9,40,22.5,17.2,22.5c-2.3,0-4.1,1.8-4.1,4.1C13.1,30.3,13.1,34.2,12.9,38.3z M21.1,38.6c0-1.2,0-2.3,0.1-3.4
		c0-1.1,0.1-2.1,0.1-3.2v-1.1l1.1-0.1c21.2-1.1,37.6-7.4,51.9-19.8l0.8-0.7l0.8,0.7c7.2,6.3,14.9,10.9,23.4,14.2
		c8.6,3.3,17.9,5,28.4,5.4l1.1,0v1.1c0,2.1,0,4.3,0.2,6.6l0,0l0,0c0.8,38.1,1.6,81.3-51.8,101.6l2.3,2.3l-4.7-1.7
		C19.4,120.6,20.3,77,21.1,38.6z"/>
	<path class="st0" d="M99.7,57.3c-0.7-0.7-1.7-1.1-2.8-1.1c-1.1,0-2,0.4-2.8,1.1l0,0l-0.2,0.2L68.5,82.9l-0.8,0.8l-0.8-0.8
		L55.9,71.9c-0.8-0.8-1.8-1.2-2.9-1.2c-1.1,0-2.2,0.4-3,1.2c-1.6,1.6-1.5,4.2,0,5.9l14.6,14.6c0.8,0.8,1.7,1.2,2.9,1.2
		c0.7,0,2-0.1,2.8-1.1l0,0l0,0l29.3-29.3C101.3,61.7,101.3,59,99.7,57.3z"/>
</g>
</svg>
