<?xml version="1.0" encoding="utf-8"?>
<!-- Generator: Adobe Illustrator 27.0.0, SVG Export Plug-In . SVG Version: 6.00 Build 0)  -->
<svg version="1.1" id="Layer_1" xmlns="http://www.w3.org/2000/svg" xmlns:xlink="http://www.w3.org/1999/xlink" x="0px" y="0px"
	 viewBox="0 0 200 200" style="enable-background:new 0 0 200 200;" xml:space="preserve">
<style type="text/css">
	.st0{fill:#96C43D;}
</style>
<g>
	<path class="st0" d="M180.6,17.4h-18.9v-5.1c0-6.2-5.1-11.3-11.3-11.3h-2.2c-6.2,0-11.3,5.1-11.3,11.3v5.1H63v-5.1
		C63,6.1,58,1,51.7,1h-2.1c-6.2,0-11.3,5.1-11.3,11.3v5.1H19.4C9.2,17.4,1,25.7,1,35.8v144.8C1,190.8,9.2,199,19.4,199h161.2
		c10.1,0,18.4-8.2,18.4-18.4V35.8C199,25.7,190.7,17.4,180.6,17.4L180.6,17.4z M145.4,12.3c0-1.5,1.3-2.8,2.8-2.8h2.2
		c1.5,0,2.8,1.3,2.8,2.8v22.7c0,1.5-1.3,2.8-2.8,2.8h-2.2c-1.5,0-2.8-1.3-2.8-2.8V12.3z M46.7,12.3c0-1.5,1.3-2.8,2.8-2.8h2.2
		c1.5,0,2.8,1.3,2.8,2.8v22.8c0,1.5-1.3,2.8-2.8,2.8h-2.2c-1.5,0-2.8-1.3-2.8-2.8V12.3z M19.4,25.9h18.9v9.2
		c0,6.2,5.1,11.3,11.3,11.3h2.2C58,46.4,63,41.3,63,35.1l0-9.2H137v9.1c0,6.2,5.1,11.3,11.3,11.3h2.2c6.2,0,11.3-5.1,11.3-11.3
		l0-9.1h18.9c5.5,0,9.9,4.4,9.9,9.9v27.3H9.5V35.8C9.5,30.4,13.9,25.9,19.4,25.9L19.4,25.9z M180.6,190.5H19.4
		c-5.5,0-9.9-4.4-9.9-9.9v-109h181v109C190.5,186.1,186.1,190.5,180.6,190.5L180.6,190.5z"/>
	<path class="st0" d="M100,79.8c-28.3,0-51.3,23-51.3,51.3c0,28.3,23,51.3,51.3,51.3s51.3-23,51.3-51.3
		C151.3,102.8,128.3,79.8,100,79.8L100,79.8z M100,173.7c-23.5,0-42.6-19.1-42.6-42.6c0-23.5,19.1-42.6,42.6-42.6
		s42.6,19.1,42.6,42.6C142.6,154.6,123.5,173.7,100,173.7z"/>
	<path class="st0" d="M121.4,118.3h-8.6v-8.6c0-4.1-3.4-7.5-7.5-7.5H94.7c-4.1,0-7.5,3.4-7.5,7.5v8.6h-8.6c-4.1,0-7.5,3.4-7.5,7.5
		v10.6c0,4.1,3.4,7.5,7.5,7.5h8.6v8.6c0,4.1,3.4,7.5,7.5,7.5h10.6c4.1,0,7.5-3.4,7.5-7.5v-8.6h8.6c4.1,0,7.5-3.4,7.5-7.5v-10.6
		C128.9,121.7,125.5,118.3,121.4,118.3z M121.4,136.6h-15.8v15.8c0,0.1-0.1,0.3-0.3,0.3l-10.8-0.3v-15.8l-16.1-0.3l0.3-10.8h15.8
		l0.3-16.1l10.8,0.3v15.8l16.1,0.3L121.4,136.6z"/>
</g>
</svg>
