<?xml version="1.0" encoding="utf-8"?>
<!-- Generator: Adobe Illustrator 27.0.0, SVG Export Plug-In . SVG Version: 6.00 Build 0)  -->
<svg version="1.1" id="Layer_1" xmlns="http://www.w3.org/2000/svg" xmlns:xlink="http://www.w3.org/1999/xlink" x="0px" y="0px"
	 viewBox="0 0 150 150" style="enable-background:new 0 0 150 150;" xml:space="preserve">
<style type="text/css">
	.st0{fill:#EC3783;}
</style>
<g>
	<path class="st0" d="M135.3,13.2h-14.1V9.4c0-4.7-3.8-8.5-8.5-8.5h-1.6c-4.7,0-8.5,3.8-8.5,8.5v3.8H47.3V9.4c0-4.7-3.8-8.5-8.5-8.5
		h-1.6c-4.7,0-8.5,3.8-8.5,8.5v3.8H14.7C7.1,13.2,0.9,19.4,0.9,27v108.4c0,7.6,6.2,13.8,13.8,13.8h120.7c7.6,0,13.8-6.2,13.8-13.8
		V27C149.1,19.4,142.9,13.2,135.3,13.2L135.3,13.2z M109,9.4c0-1.1,1-2.1,2.1-2.1h1.6c1.2,0,2.1,1,2.1,2.1v17c0,1.1-1,2.1-2.1,2.1
		h-1.6c-1.2,0-2.1-1-2.1-2.1V9.4z M35.1,9.4c0-1.1,1-2.1,2.1-2.1h1.6c1.1,0,2.1,1,2.1,2.1v17c0,1.1-1,2.1-2.1,2.1h-1.6
		c-1.1,0-2.1-1-2.1-2.1V9.4z M14.7,19.6h14.1v6.8c0,4.7,3.8,8.5,8.5,8.5h1.6c4.7,0,8.5-3.8,8.5-8.5l0-6.8h55.3v6.8
		c0,4.7,3.8,8.5,8.5,8.5h1.6c4.7,0,8.5-3.8,8.5-8.5l0-6.8h14.1c4.1,0,7.4,3.3,7.4,7.4v20.5H7.3V27C7.3,22.9,10.6,19.6,14.7,19.6
		L14.7,19.6z M135.3,142.7H14.7c-4.1,0-7.4-3.3-7.4-7.4V53.8h135.5v81.6C142.7,139.4,139.4,142.7,135.3,142.7L135.3,142.7z"/>
	<path class="st0" d="M75,59.9c-21.2,0-38.4,17.2-38.4,38.4c0,21.2,17.2,38.4,38.4,38.4s38.4-17.2,38.4-38.4
		C113.4,77.1,96.2,59.9,75,59.9L75,59.9z M75,130.2c-17.6,0-31.9-14.3-31.9-31.9c0-17.6,14.3-31.9,31.9-31.9s31.9,14.3,31.9,31.9
		C106.9,115.8,92.6,130.2,75,130.2z"/>
	<path class="st0" d="M91,88.7h-6.4v-6.4c0-3.1-2.5-5.6-5.6-5.6H71c-3.1,0-5.6,2.5-5.6,5.6v6.4H59c-3.1,0-5.6,2.5-5.6,5.6v7.9
		c0,3.1,2.5,5.6,5.6,5.6h6.4v6.4c0,3.1,2.5,5.6,5.6,5.6h7.9c3.1,0,5.6-2.5,5.6-5.6v-6.4H91c3.1,0,5.6-2.5,5.6-5.6v-7.9
		C96.6,91.2,94.1,88.7,91,88.7z M91,102.4H79.2v11.8c0,0.1-0.1,0.2-0.2,0.2l-8.1-0.2v-11.8l-12.1-0.2l0.2-8.1h11.8l0.2-12l8.1,0.2
		v11.8l12,0.2L91,102.4z"/>
</g>
</svg>
