<?xml version="1.0" encoding="utf-8"?>
<!-- Generator: Adobe Illustrator 27.0.0, SVG Export Plug-In . SVG Version: 6.00 Build 0)  -->
<svg version="1.1" id="Layer_1" xmlns="http://www.w3.org/2000/svg" xmlns:xlink="http://www.w3.org/1999/xlink" x="0px" y="0px"
	 viewBox="0 0 150 150" style="enable-background:new 0 0 150 150;" xml:space="preserve">
<style type="text/css">
	.st0{fill:#EC3783;}
</style>
<g>
	<path class="st0" d="M135.4,13.1h-14.1V9.3c0-4.7-3.8-8.5-8.5-8.5h-1.6c-4.7,0-8.5,3.8-8.5,8.5v3.8H47.3V9.3c0-4.7-3.8-8.5-8.5-8.5
		h-1.6c-4.7,0-8.5,3.8-8.5,8.5v3.8H14.6C7,13.1,0.8,19.3,0.8,26.9v108.5c0,7.6,6.2,13.8,13.8,13.8h120.9c7.6,0,13.8-6.2,13.8-13.8
		V26.9C149.2,19.3,143,13.1,135.4,13.1L135.4,13.1z M109.1,9.3c0-1.2,1-2.1,2.1-2.1h1.6c1.2,0,2.1,1,2.1,2.1v17.1
		c0,1.2-1,2.1-2.1,2.1h-1.6c-1.2,0-2.1-1-2.1-2.1V9.3z M35.1,9.3c0-1.2,1-2.1,2.1-2.1h1.6c1.2,0,2.1,1,2.1,2.1v17.1
		c0,1.2-1,2.1-2.1,2.1h-1.6c-1.2,0-2.1-1-2.1-2.1V9.3z M14.6,19.5h14.1v6.9c0,4.7,3.8,8.5,8.5,8.5h1.6c4.7,0,8.5-3.8,8.5-8.5l0-6.9
		h55.4v6.9c0,4.7,3.8,8.5,8.5,8.5h1.6c4.7,0,8.5-3.8,8.5-8.5l0-6.9h14.1c4.1,0,7.4,3.3,7.4,7.4v20.5H7.1V26.9
		C7.1,22.8,10.5,19.5,14.6,19.5L14.6,19.5z M135.4,142.9H14.6c-4.1,0-7.4-3.3-7.4-7.4V53.7h135.7v81.7
		C142.9,139.5,139.5,142.9,135.4,142.9L135.4,142.9z"/>
	<path class="st0" d="M107.7,87.5c-1.7,0.4-2.8,2.1-2.4,3.8c0.5,2.3,0.8,4.7,0.8,7c0,17.3-14,31.3-31.3,31.3s-31.3-14-31.3-31.3
		S57.5,67,74.8,67c5.7,0,11.3,1.6,16.2,4.5c1.5,0.9,3.5,0.4,4.4-1.1c0.9-1.5,0.4-3.5-1.1-4.4c-5.9-3.5-12.6-5.4-19.5-5.4
		c-20.8,0-37.6,16.9-37.6,37.7c0,20.7,16.9,37.6,37.6,37.6s37.6-16.9,37.6-37.6c0-2.9-0.3-5.7-0.9-8.5
		C111.1,88.1,109.3,87.1,107.7,87.5L107.7,87.5z"/>
	<path class="st0" d="M107.4,68.3L70.7,105l-9.5-9.5c-1.2-1.2-3.3-1.2-4.5,0c-1.2,1.2-1.2,3.3,0,4.5l11.7,11.7
		c0.6,0.6,1.4,0.9,2.3,0.9c0.8,0,1.7-0.3,2.2-0.9l39-39c1.2-1.2,1.2-3.3,0-4.5C110.7,67.1,108.7,67.1,107.4,68.3L107.4,68.3z"/>
</g>
</svg>
