<?xml version="1.0" encoding="utf-8"?>
<!-- Generator: Adobe Illustrator 27.2.0, SVG Export Plug-In . SVG Version: 6.00 Build 0)  -->
<svg version="1.1" id="Layer_1" xmlns="http://www.w3.org/2000/svg" xmlns:xlink="http://www.w3.org/1999/xlink" x="0px" y="0px"
	 viewBox="0 0 200 200" style="enable-background:new 0 0 200 200;" xml:space="preserve">
<style type="text/css">
	.st0{fill:#96C43D;stroke:#96C43D;stroke-width:2;stroke-miterlimit:10;}
</style>
<g>
	<path class="st0" d="M15.4,50.4C25.1,22.5,55.4,2.1,87.1,2.1c40.8,0,75.1,32.6,75.8,71.5l25.8,60.9l-26.6,2.6l-8.2,39.5l-49.1-2.8
		l0.4-8.6l41.6,2.4l7.9-38.4l21.5-1.9l-21.9-51.9v-0.9c0-34.6-30.9-63.7-67.2-63.7c-28.3,0-55.2,18-63.7,42.9v0.4
		c-5.8,12.2-2.6,39.3,0,60.7c0.9,7.9,1.9,15.2,2.4,21.7c0.6,8.7,0.4,17.3-0.4,26l-0.4,4.3l-8.6-0.9l0.4-4.3l0,0
		c0.8-8.2,1-16.5,0.4-24.7c-0.4-6-1.3-13.5-2.1-21.2C11.8,92.1,8.6,65,15.4,50.4L15.4,50.4z"/>
	<path class="st0" d="M89.7,129.8H127v-25.8c5.7-1.4,10.3-5.5,12.4-11c2.1-5.5,1.3-11.6-2-16.4c-3.3-4.8-8.8-7.7-14.7-7.7
		s-11.3,2.9-14.7,7.7c-3.3,4.8-4.1,11-2,16.4c2.1,5.5,6.7,9.6,12.4,11v17.2H89.7V65.4c5.7-1.4,10.3-5.5,12.4-11
		c2.1-5.5,1.3-11.6-2-16.4c-3.3-4.8-8.8-7.7-14.7-7.7c-5.9,0-11.3,2.9-14.7,7.7c-3.3,4.8-4.1,11-2,16.4c2.1,5.5,6.7,9.6,12.4,11
		v82.8H56.4v-26c5.7-1.4,10.3-5.5,12.4-11c2.1-5.5,1.3-11.6-2-16.4c-3.3-4.8-8.8-7.7-14.7-7.7s-11.3,2.9-14.7,7.7
		c-3.3,4.8-4.1,11-2,16.4c2.1,5.5,6.7,9.6,12.4,11v34.6h33.3l0,41h8.6v-41L89.7,129.8z M58.4,111.7c-1.7,1.7-4.1,2.7-6.5,2.7
		c-2.4,0-4.8-1-6.5-2.7c-1.7-1.7-2.7-4.1-2.7-6.5c0-2.4,1-4.8,2.7-6.5c1.7-1.7,4.1-2.7,6.5-2.7c2.4,0,4.8,1,6.5,2.7
		c1.7,1.7,2.7,4.1,2.7,6.5C61.1,107.6,60.2,109.9,58.4,111.7z M129.1,93.2c-1.7,1.7-4.1,2.7-6.5,2.7s-4.8-1-6.5-2.7
		c-1.7-1.7-2.7-4.1-2.7-6.5s1-4.8,2.7-6.5c1.7-1.7,4.1-2.7,6.5-2.7s4.8,1,6.5,2.7s2.7,4.1,2.7,6.5C131.8,89.1,130.8,91.5,129.1,93.2
		z M91.9,54.8c-1.7,1.7-4.1,2.7-6.5,2.7c-2.4,0-4.8-1-6.5-2.7c-1.7-1.7-2.7-4.1-2.7-6.5c0-2.4,1-4.8,2.7-6.5
		c1.7-1.7,4.1-2.7,6.5-2.7c2.4,0,4.8,1,6.5,2.7c1.7,1.7,2.7,4.1,2.7,6.5C94.6,50.7,93.7,53.1,91.9,54.8z"/>
</g>
</svg>
