<?xml version="1.0" encoding="utf-8"?>
<!-- Generator: Adobe Illustrator 27.2.0, SVG Export Plug-In . SVG Version: 6.00 Build 0)  -->
<svg version="1.1" id="Layer_1" xmlns="http://www.w3.org/2000/svg" xmlns:xlink="http://www.w3.org/1999/xlink" x="0px" y="0px"
	 viewBox="0 0 200 200" style="enable-background:new 0 0 200 200;" xml:space="preserve">
<style type="text/css">
	.st0{fill:#96C43D;stroke:#96C43D;stroke-width:2;stroke-miterlimit:10;}
</style>
<g>
	<path class="st0" d="M198.4,182c0,1.5-0.6,2.8-1.6,3.9c-1,1-2.4,1.6-3.9,1.6H7.1c-3,0-5.5-2.4-5.5-5.5v-153c0-3,2.4-5.5,5.5-5.5
		s5.5,2.4,5.5,5.5v147.6H18v-49.2c0-3,2.4-5.5,5.5-5.5h21.9c1.5,0,2.8,0.6,3.9,1.6c1,1,1.6,2.4,1.6,3.9v49.2h10.9v-82
		c0-3,2.4-5.5,5.5-5.5h21.9c1.5,0,2.8,0.6,3.9,1.6c1,1,1.6,2.4,1.6,3.9v82h10.9v-71.1c0-3,2.4-5.5,5.5-5.5h21.9
		c1.5,0,2.8,0.6,3.9,1.6c1,1,1.6,2.4,1.6,3.9v71.1h10.9V73.3c0-3,2.4-5.5,5.5-5.5h21.9c1.5,0,2.8,0.6,3.9,1.6c1,1,1.6,2.4,1.6,3.9
		v103.2h10.9c1.5,0,2.8,0.6,3.9,1.6C197.8,179.2,198.4,180.5,198.4,182z M80.6,45.9c-2.1-1-4.7-0.6-6.3,1L30.5,90.7
		c-2.1,2.1-2.1,5.6,0,7.7c2.1,2.1,5.6,2.1,7.7,0l40.9-41l40.2,20.1c2.1,1,4.7,0.6,6.3-1l45.3-45.3v8.7c0,3,2.4,5.5,5.5,5.5
		c3,0,5.5-2.4,5.5-5.5V18c0-0.4,0-0.7,0-1.1c0-0.2-0.1-0.3-0.1-0.5c0-0.2,0-0.4-0.2-0.5l-0.3-0.5c0-0.1-0.1-0.3-0.2-0.4v0
		c-0.4-0.6-0.9-1.1-1.5-1.5l-0.4-0.2l-0.6-0.3l-0.5-0.2h0c-0.2-0.1-0.3-0.1-0.5-0.2c-0.4-0.1-0.8-0.1-1.2-0.1h-21.9
		c-3,0-5.5,2.4-5.5,5.5s2.4,5.5,5.5,5.5h8.7l-42.6,42.6L80.6,45.9z"/>
</g>
</svg>
