<?xml version="1.0" encoding="UTF-8"?><svg id="Layer_1" xmlns="http://www.w3.org/2000/svg" viewBox="0 0 119 119"><defs><style>.cls-1{fill:#97c43e;}</style></defs><path class="cls-1" d="M59.5,96.06c-20.61,0-37.37-16.76-37.37-37.37S38.89,21.32,59.5,21.32s37.37,16.76,37.37,37.37-16.76,37.37-37.37,37.37Zm0-68.92c-17.4,0-31.55,14.15-31.55,31.55s14.15,31.55,31.55,31.55,31.55-14.15,31.55-31.55-14.15-31.55-31.55-31.55Z"/><path class="cls-1" d="M49.77,42.09h22v.05c-1.3,2.27-2.03,3.48-2.21,3.64h-5.86c.81,1.08,1.36,2.38,1.65,3.91h6.26c.07,.02,.11,.05,.11,.11-1.4,2.38-2.12,3.57-2.16,3.59h-4.05c-.09,1.21-.6,2.68-1.54,4.43-1.28,1.75-2.48,2.88-3.62,3.4-2.12,1.15-4.16,1.73-6.1,1.73v.05c0,.16,.48,.87,1.43,2.13l10.85,14.87v.7c0,.07-.04,.11-.11,.11h-4.78c-8.6-11.35-12.9-17.06-12.9-17.11v-3.45l.05-.13c.76,.13,1.65,.19,2.67,.19,4.8,0,7.8-1.77,8.99-5.32,.18-.52,.27-1.05,.27-1.59h-13.06c-.07,0-.11-.04-.11-.13,1.44-2.38,2.18-3.56,2.21-3.56h10.39v-.05c-.61-1.37-1.76-2.43-3.45-3.18-1.22-.45-2.32-.67-3.29-.67h-5.8v-.13c1.4-2.38,2.12-3.56,2.16-3.56Z"/><path class="cls-1" d="M108.27,119H10.73c-1.61,0-2.91-1.3-2.91-2.91s1.3-2.91,2.91-2.91H108.27c1.61,0,2.91,1.3,2.91,2.91s-1.3,2.91-2.91,2.91Z"/><path class="cls-1" d="M108.27,107.99H10.73c-1.61,0-2.91-1.3-2.91-2.91s1.3-2.91,2.91-2.91H108.27c1.61,0,2.91,1.3,2.91,2.91s-1.3,2.91-2.91,2.91Z"/><path class="cls-1" d="M108.27,16.83H10.73c-1.61,0-2.91-1.3-2.91-2.91s1.3-2.91,2.91-2.91H108.27c1.61,0,2.91,1.3,2.91,2.91s-1.3,2.91-2.91,2.91Z"/><path class="cls-1" d="M108.27,5.82H10.73c-1.61,0-2.91-1.3-2.91-2.91s1.3-2.91,2.91-2.91H108.27c1.61,0,2.91,1.3,2.91,2.91s-1.3,2.91-2.91,2.91Z"/></svg>