<?xml version="1.0" encoding="UTF-8"?><svg id="Layer_1" xmlns="http://www.w3.org/2000/svg" viewBox="0 0 119 119"><defs><style>.cls-1{fill:#97c43e;}</style></defs><path class="cls-1" d="M115.24,93.7c0-2-.63-4.01-1.75-5.51,2.38-1.75,4.01-4.63,4.01-7.77s-1.63-6.01-4.01-7.77c1.13-1.63,1.75-3.51,1.75-5.51,0-5.39-4.38-9.77-9.77-9.77h-25.05c1-3.01,2.13-7.39,2.63-12.03,.38-3.13,.25-6.51-.38-10.15-.88-5.39-5.01-9.52-10.4-10.4-4.26-.75-8.27,2-9.14,6.26l-2,9.65c-1.13,5.14-3.63,9.65-7.39,13.28l-11.4,10.9c-1.13,1-2.63,1.63-4.13,1.63h-4.51c-1-3.63-4.26-6.39-8.27-6.39H10.15c-4.76,0-8.64,3.88-8.64,8.64v36.08c0,4.76,3.88,8.64,8.64,8.64h15.41c4.01,0,7.39-2.76,8.27-6.51h6.89s.88,1.38,.88,1.38c4.13,6.51,11.15,10.52,18.91,10.65h1.88c7.77,0,18.29-.5,27.93-2.76,1,.25,1.88,.5,3.01,.5h10.4c5.39,0,9.77-4.38,9.77-9.77,0-2.13-.75-4.13-1.88-5.76,2.13-1.63,3.63-4.38,3.63-7.52h0Zm-87.31,11.15c0,1.38-1.13,2.51-2.51,2.51H10.15c-1.38,0-2.51-1.13-2.51-2.5v-36.08c0-1.38,1.13-2.51,2.51-2.51h15.41c1.38,0,2.51,1.13,2.51,2.51v36.08s-.13,0-.13,0Zm63.51-41.46h14.15c2,0,3.63,1.63,3.63,3.63s-1.63,3.63-3.63,3.63h-14.16c-2,0-3.63-1.63-3.63-3.63,0-2,1.63-3.63,3.63-3.63h0Zm-6.89,47.85c-8.64,1.5-17.54,1.75-24.05,1.63-5.64,0-10.77-3.01-13.78-7.77l-1.75-2.88c-.5-.88-1.5-1.38-2.63-1.38h-8.27v-28.18h4.13c3.13,0,6.01-1.13,8.27-3.38l11.4-10.9c4.63-4.38,7.77-10.15,9.14-16.41l2.13-9.65c.25-1,1.13-1.63,2.25-1.5,2.76,.5,4.89,2.63,5.39,5.39,.5,3.13,.63,6.01,.38,8.52-.75,7.39-3.76,14.4-3.76,14.53-.38,.88-.25,2,.25,2.88,.63,.88,1.5,1.38,2.51,1.38h6.14l-.25,1.13c-4.26,17.91-18.79,16.66-19.42,16.54-1.63-.25-3.13,1-3.38,2.63-.25,1.63,1,3.13,2.63,3.38h1.5c3.01,0,10.15-.63,16.16-6.01,.25,2.88,1.75,5.39,3.88,7.01-1.13,1.63-1.75,3.51-1.75,5.51,0,3.13,1.5,5.89,3.76,7.64-1.13,1.63-1.88,3.51-1.88,5.76,0,1.5,.38,2.88,1,4.13h0Zm19.17-.5h-10.4c-2,0-3.63-1.63-3.63-3.63s1.63-3.63,3.63-3.63h10.4c2,0,3.63,1.63,3.63,3.63,0,2-1.63,3.63-3.63,3.63Zm1.88-13.4h-14.15c-2,0-3.63-1.63-3.63-3.63s1.63-3.63,3.63-3.63h14.15c2,0,3.63,1.63,3.63,3.63s-1.63,3.63-3.63,3.63h0Zm2.13-13.28h-18.54c-2,0-3.63-1.63-3.63-3.63s1.63-3.63,3.63-3.63h18.54c2,0,3.63,1.63,3.63,3.63,0,2-1.63,3.63-3.63,3.63Z"/><path class="cls-1" d="M22.67,97.58c0,2.7-2.19,4.89-4.89,4.89s-4.89-2.19-4.89-4.89,2.19-4.89,4.89-4.89,4.89,2.19,4.89,4.89"/><path class="cls-1" d="M72.28,15.78c1.63,0,3.01-1.38,3.01-3.01V3.01c0-1.63-1.38-3.01-3.01-3.01s-3.01,1.38-3.01,3.01V12.78c0,1.75,1.38,3.01,3.01,3.01h0Z"/><path class="cls-1" d="M54.61,21.29c.63,.63,1.38,.88,2.13,.88s1.5-.25,2.13-.88c1.25-1.13,1.25-3.13,0-4.26l-6.89-6.89c-1.13-1.25-3.13-1.25-4.26,0-1.25,1.13-1.25,3.13,0,4.26l6.89,6.89Z"/><path class="cls-1" d="M40.71,37.7h9.77c1.63,0,3.01-1.38,3.01-3.01s-1.38-3.01-3.01-3.01h-9.77c-1.63,0-3.01,1.38-3.01,3.01s1.25,3.01,3.01,3.01h0Z"/><path class="cls-1" d="M91.07,34.7c0,1.63,1.38,3.01,3.01,3.01h9.77c1.63,0,3.01-1.38,3.01-3.01s-1.38-3.01-3.01-3.01h-9.77c-1.63-.12-3.01,1.25-3.01,3.01h0Z"/><path class="cls-1" d="M87.68,22.3c.75,0,1.5-.25,2.13-.88l6.89-6.89c1.13-1.25,1.13-3.13,0-4.26-1.25-1.13-3.13-1.13-4.26,0l-6.89,6.89c-1.13,1.25-1.13,3.13,0,4.26,.63,.5,1.38,.88,2.13,.88Z"/></svg>