<?xml version="1.0" encoding="UTF-8"?><svg id="Layer_1" xmlns="http://www.w3.org/2000/svg" viewBox="0 0 119 119"><defs><style>.cls-1{fill:#ec3783;}</style></defs><g><path class="cls-1" d="M116.29,50.22l-11.83-3.46c-1.09-3.64-2.55-7.1-4.19-10.37l5.82-10.74c.36-.73,.18-1.64-.36-2.18l-10.56-10.56c-.55-.55-1.46-.73-2.18-.36l-10.74,5.82c-3.28-1.82-6.73-3.28-10.37-4.37l-3.46-11.65c-.18-.73-.91-1.27-1.82-1.27h-14.93c-.73,0-1.46,.55-1.82,1.27l-3.28,11.83c-3.64,1.09-7.1,2.37-10.37,4.37l-10.74-5.82c-.73-.36-1.64-.18-2.18,.36l-10.56,10.56c-.55,.55-.73,1.46-.36,2.18l5.82,10.74c-1.82,3.28-3.28,6.73-4.19,10.37l-11.65,3.28c-.73,.18-1.27,.91-1.27,1.82v14.74c0,.73,.55,1.46,1.27,1.82l11.83,3.46c1.09,3.64,2.55,7.1,4.19,10.37l-5.82,10.74c-.36,.73-.18,1.64,.36,2.18l10.56,10.56c.55,.55,1.46,.73,2.18,.36l10.74-5.82c3.28,1.82,6.73,3.28,10.37,4.37l3.46,11.83c.18,.73,.91,1.27,1.82,1.27h14.93c.73,0,1.46-.55,1.82-1.27l3.46-11.83c3.64-1.09,7.1-2.37,10.37-4.37l10.74,5.82c.73,.36,1.64,.18,2.18-.36l10.56-10.56c.55-.55,.73-1.46,.36-2.18l-5.82-10.74c1.82-3.28,3.28-6.73,4.19-10.37l11.83-3.46c.73-.18,1.27-.91,1.27-1.82v-14.74c-.36-.91-.91-1.64-1.64-1.82h0Zm-2.37,15.11c-19.84,6.55-7.64-.73-17.29,16.02-.36,.55-.36,1.27,0,1.82l5.64,10.56-8.55,8.55-10.56-5.64c-.55-.36-1.27-.36-1.82,0-3.46,2-7.28,3.64-11.28,4.73-.55,.18-1.09,.55-1.27,1.27l-3.46,11.29h-12.2l-3.46-11.47c-.18-.55-.73-1.09-1.27-1.27-4-1.09-7.83-2.55-11.28-4.73-.55-.36-1.27-.36-1.82,0l-10.56,5.64-8.55-8.55,5.64-10.56c.36-.55,.36-1.27,0-1.82-2-3.46-3.64-7.28-4.73-11.28-.18-.55-.55-1.09-1.27-1.27l-11.1-3.28v-12.2l11.47-3.46c.55-.18,1.09-.73,1.27-1.27,1.09-4,2.55-7.83,4.73-11.28,.36-.55,.36-1.27,0-1.82l-5.64-10.56,8.55-8.55,10.56,5.64c.55,.36,1.27,.36,1.82,0,3.46-2,7.28-3.64,11.28-4.73,.55-.18,1.09-.55,1.27-1.27l3.28-11.1h12.2l3.46,11.47c.18,.55,.73,1.09,1.27,1.27,4,1.09,7.83,2.55,11.28,4.73,.55,.36,1.27,.36,1.82,0l10.56-5.64,8.55,8.55-5.64,10.56c-.36,.55-.36,1.27,0,1.82,2,3.46,3.64,7.28,4.73,11.28,.18,.55,.55,1.09,1.27,1.27l11.47,3.46v11.83s-.36,0-.36,0Z"/><path class="cls-1" d="M66.96,119h-14.93c-1.37,0-2.54-.85-2.85-2.06l-3.29-11.26c-3.31-1.03-6.5-2.38-9.51-4l-10.26,5.56c-1.12,.56-2.53,.33-3.42-.56l-10.56-10.56c-.89-.89-1.12-2.3-.56-3.42l.02-.03,5.56-10.25c-1.62-3.28-2.87-6.4-3.83-9.49l-11.37-3.32-.09-.04C.75,69,0,67.88,0,66.78v-14.74c0-1.37,.85-2.54,2.07-2.86l11.04-3.11c.84-3.15,2.14-6.34,3.85-9.51l-5.56-10.26c-.56-1.12-.33-2.53,.56-3.42l10.56-10.56c.89-.89,2.3-1.13,3.42-.56l.03,.02,10.2,5.53c3.28-1.92,6.61-3.1,9.52-3.99l3.15-11.36,.05-.09c.56-1.12,1.68-1.87,2.78-1.87h14.93c1.37,0,2.54,.85,2.85,2.06l3.29,11.08c3.31,1.03,6.5,2.38,9.51,4l10.26-5.56c1.12-.56,2.53-.33,3.42,.56l10.56,10.56c.89,.89,1.12,2.3,.56,3.42l-.02,.03-5.56,10.25c1.62,3.29,2.87,6.4,3.83,9.49l11.26,3.29c1,.26,1.81,1.11,2.35,2.46l.08,.19v14.95c0,1.37-.85,2.54-2.06,2.85l-11.23,3.28c-.84,3.15-2.14,6.35-3.85,9.52l5.56,10.26c.56,1.12,.33,2.53-.56,3.42l-10.56,10.56c-.89,.89-2.3,1.12-3.42,.57l-.03-.02-10.2-5.53c-3.28,1.92-6.62,3.1-9.53,3.99l-3.32,11.37-.04,.09c-.56,1.12-1.68,1.87-2.78,1.87Zm-30.57-19.77l.51,.29c3.19,1.77,6.61,3.21,10.16,4.28l.56,.17,3.63,12.43c.06,.23,.34,.46,.78,.46h14.93c.24,0,.6-.23,.82-.61l3.59-12.28,.56-.17c3.07-.92,6.67-2.15,10.12-4.26l.53-.32,11.26,6.11c.29,.14,.7,.07,.94-.17l10.56-10.56c.23-.23,.31-.64,.17-.93l-6.09-11.24,.29-.51c1.88-3.38,3.25-6.78,4.08-10.11l.15-.6,12.46-3.64c.23-.06,.46-.34,.46-.78v-14.53c-.29-.65-.61-.94-.83-1h-.04s-12.39-3.63-12.39-3.63l-.17-.56c-.99-3.31-2.34-6.64-4.12-10.2l-.25-.5,6.08-11.21c.14-.29,.07-.7-.17-.94l-10.56-10.56c-.23-.23-.64-.31-.93-.17l-11.24,6.1-.51-.29c-3.19-1.77-6.61-3.21-10.16-4.28l-.56-.17-3.63-12.25c-.06-.23-.34-.46-.78-.46h-14.93c-.24,0-.6,.22-.82,.6l-3.4,12.29-.57,.17c-3.07,.92-6.67,2.15-10.12,4.26l-.53,.32-11.26-6.11c-.29-.14-.7-.07-.94,.17l-10.56,10.56c-.23,.23-.31,.64-.17,.93l6.09,11.24-.29,.51c-1.88,3.38-3.25,6.78-4.08,10.11l-.15,.6-12.28,3.45c-.23,.06-.46,.34-.46,.78v14.74c0,.24,.23,.6,.61,.82l12.28,3.59,.17,.56c.99,3.31,2.34,6.65,4.12,10.2l.25,.5-6.08,11.21c-.14,.29-.07,.7,.17,.94l10.56,10.56c.23,.23,.64,.31,.93,.17l11.24-6.1Zm29.73,15.77h-13.79l-3.68-12.21c-.08-.22-.35-.49-.57-.58-4.58-1.25-8.35-2.84-11.54-4.85h-.02c-.19-.14-.45-.14-.63-.01l-.09,.05-11.26,6.02-9.68-9.68,6.07-11.35c.12-.19,.12-.45,0-.63l-.04-.06c-2.12-3.66-3.74-7.53-4.83-11.51-.16-.46-.39-.52-.51-.55h-.04s-11.87-3.52-11.87-3.52v-13.79l12.21-3.68c.22-.08,.49-.35,.58-.57,1.25-4.58,2.84-8.35,4.85-11.54v-.02c.14-.19,.14-.45,.01-.63l-.05-.09-6.02-11.26,9.68-9.68,11.35,6.07c.19,.12,.45,.12,.63,0l.06-.04c3.66-2.12,7.53-3.74,11.51-4.83,.46-.16,.52-.39,.55-.51v-.04s3.52-11.87,3.52-11.87h13.79l3.68,12.21c.08,.22,.35,.49,.57,.58,4.58,1.25,8.35,2.84,11.54,4.85h.02c.19,.14,.45,.14,.63,.01l.09-.05,11.26-6.02,9.68,9.68-6.07,11.35c-.12,.19-.12,.45,0,.63l.04,.06c2.12,3.66,3.74,7.53,4.83,11.51,.16,.46,.39,.52,.51,.55h.05s12.23,3.7,12.23,3.7v13.7s-1.26,0-1.26,0c-4.25,1.4-7.02,2.16-8.85,2.67-1.48,.41-2.45,.67-2.78,.91-.12,.08-.16,.22-.32,1-.33,1.62-.96,4.63-4.58,10.91l-.04,.06c-.12,.19-.12,.45,0,.63l.05,.09,6.02,11.26-9.68,9.68-11.35-6.07c-.19-.12-.45-.12-.63,0l-.06,.04c-3.66,2.12-7.53,3.74-11.51,4.83-.46,.16-.52,.39-.55,.51l-.02,.05-3.69,12.04Zm-12.19-2.15h10.61l3.22-10.5c.25-.95,.95-1.66,1.97-2l.06-.02c3.8-1.04,7.51-2.59,11-4.61,.88-.57,2.04-.57,2.93-.01l9.82,5.25,7.43-7.43-5.25-9.82c-.56-.88-.56-2.05,.01-2.93,3.43-5.97,4.01-8.75,4.32-10.25,.5-2.4,1.05-2.55,4.64-3.54,1.78-.49,4.45-1.23,8.54-2.57v-10.14s-10.68-3.22-10.68-3.22c-.95-.25-1.66-.95-2-1.97l-.02-.06c-1.04-3.8-2.59-7.51-4.61-11.01-.57-.88-.57-2.04-.01-2.93l5.25-9.82-7.43-7.43-9.82,5.25c-.89,.56-2.07,.56-2.95-.02-3.01-1.9-6.6-3.4-10.98-4.6l-.06-.02c-.86-.29-1.67-1.09-1.95-1.95v-.03s-3.24-10.7-3.24-10.7h-10.6l-3.05,10.32c-.25,.95-.95,1.67-1.97,2.01l-.06,.02c-3.8,1.04-7.51,2.59-11,4.61-.88,.57-2.04,.57-2.93,.01l-9.82-5.25-7.43,7.43,5.25,9.82c.56,.89,.56,2.06-.02,2.95-1.9,3.01-3.4,6.6-4.6,10.99l-.02,.06c-.29,.86-1.09,1.67-1.95,1.95h-.03s-10.7,3.24-10.7,3.24v10.6l10.32,3.05c.95,.25,1.67,.95,2.01,1.97l.02,.06c1.04,3.8,2.59,7.51,4.61,11,.57,.88,.57,2.04,.01,2.93l-5.25,9.82,7.43,7.43,9.82-5.25c.89-.56,2.06-.56,2.95,.02,3.01,1.9,6.6,3.4,10.99,4.6l.06,.02c.86,.29,1.67,1.09,1.95,1.95v.03s3.24,10.7,3.24,10.7Z"/></g><g><path class="cls-1" d="M59.32,38.93c-19.11,0-34.22,18.57-34.95,19.29-.55,.73-.55,1.64,0,2.37s15.84,19.29,34.95,19.29,34.22-18.57,34.95-19.29c.55-.73,.55-1.64,0-2.37-.73-.91-15.84-19.29-34.95-19.29h0Zm0,37.13c-14.74,0-27.48-12.92-31.12-16.75,3.64-4,16.2-16.75,31.12-16.75s27.48,12.92,31.12,16.75c-3.64,4-16.38,16.75-31.12,16.75Z"/><path class="cls-1" d="M59.32,80.96c-8.08,0-16.76-3.32-25.08-9.59-6.65-5.01-10.69-10.09-10.72-10.13-.83-1.11-.83-2.54,0-3.65l.05-.06,.05-.05s.13-.14,.26-.29c5.13-5.81,18.84-19.32,35.45-19.32,19.78,0,35.14,18.89,35.79,19.7l.02,.03c.83,1.11,.83,2.54,0,3.65l-.1,.11s-.13,.14-.26,.29c-5.13,5.81-18.84,19.32-35.45,19.32ZM25.2,58.91c-.23,.34-.22,.7,.03,1.04,.14,.19,15.33,18.86,34.09,18.86,15.73,0,28.91-13,33.84-18.59,.14-.16,.22-.25,.28-.31,.23-.33,.22-.69-.02-1.02-.29-.36-4.17-5.11-10.38-9.79-8.01-6.03-15.99-9.09-23.72-9.09-15.73,0-28.91,13-33.84,18.59-.14,.16-.22,.25-.28,.31Zm34.12,18.22c-6.5,0-13.34-2.4-20.33-7.12-5.88-3.98-10.17-8.48-11.57-9.96l-.69-.72,.67-.74c4.67-5.14,17.14-17.1,31.92-17.1,6.5,0,13.34,2.4,20.33,7.12,5.88,3.98,10.17,8.48,11.57,9.96l.69,.72-.67,.74c-3.65,4.01-16.72,17.1-31.92,17.1Zm-29.65-17.83c9.88,10.13,20.38,15.69,29.65,15.69,13.5,0,25.41-11.16,29.65-15.66-9.88-10.13-20.38-15.69-29.65-15.69-13.27,0-24.72,10.41-29.65,15.66Z"/></g><g><path class="cls-1" d="M59.32,47.12c-6.73,0-12.2,5.46-12.2,12.2s5.46,12.2,12.2,12.2,12.2-5.46,12.2-12.2-5.46-12.2-12.2-12.2Zm0,20.75c-4.73,0-8.55-3.82-8.55-8.55s3.82-8.55,8.55-8.55,8.55,3.82,8.55,8.55-3.82,8.55-8.55,8.55Z"/><path class="cls-1" d="M59.32,72.59c-7.32,0-13.27-5.95-13.27-13.27s5.95-13.27,13.27-13.27,13.27,5.95,13.27,13.27-5.95,13.27-13.27,13.27Zm0-24.39c-6.13,0-11.12,4.99-11.12,11.12s4.99,11.12,11.12,11.12,11.12-4.99,11.12-11.12-4.99-11.12-11.12-11.12Zm0,20.75c-5.31,0-9.63-4.32-9.63-9.63s4.32-9.63,9.63-9.63,9.63,4.32,9.63,9.63-4.32,9.63-9.63,9.63Zm0-17.11c-4.13,0-7.48,3.36-7.48,7.48s3.36,7.48,7.48,7.48,7.48-3.36,7.48-7.48-3.36-7.48-7.48-7.48Z"/></g></svg>