<?xml version="1.0" encoding="UTF-8"?><svg id="Layer_1" xmlns="http://www.w3.org/2000/svg" viewBox="0 0 119 119"><defs><style>.cls-1{fill:#97c43e;}</style></defs><g><path class="cls-1" d="M115.96,28.08L1.58,73.44c-.68,.27-1.16,.9-1.23,1.63s.26,1.44,.88,1.85l21.57,14.16,13.25,26.49s.04,.05,.05,.08c.05,.08,.1,.15,.16,.23,.06,.07,.11,.15,.18,.21,.06,.06,.13,.11,.2,.16,.08,.06,.15,.11,.24,.16,.03,.02,.05,.04,.07,.05,.03,.01,.06,0,.09,.02,.25,.11,.5,.18,.78,.18,.15,0,.3-.02,.45-.05,.03,0,.06-.03,.09-.04,.11-.03,.2-.08,.3-.13,.1-.05,.2-.09,.29-.16,.02-.02,.05-.02,.07-.04l11.52-8.96,13.8,9.05c.33,.21,.7,.32,1.08,.32,.15,0,.3-.02,.45-.05,.53-.12,.98-.45,1.25-.92L118.39,30.92c.43-.73,.35-1.64-.2-2.28-.55-.64-1.44-.87-2.23-.55h0ZM29.36,95.39l6.47,4.25v8.7l-6.47-12.95Zm10.42,17.27v-10.43l7.27,4.77-7.27,5.66Zm24.99,1.25l-13.24-8.69s0,0,0,0l-10.22-6.71,60.91-53.3-2.6-2.97-61.74,54.02-10.44-6.85,42.89-24.25-1.94-3.43-44.66,25.24-17.16-11.26L112.06,33.88l-47.29,80.03Z"/><path class="cls-1" d="M65.42,119c-.45,0-.89-.13-1.27-.38l-13.59-8.92-11.33,8.81s-.08,.05-.1,.06c-.09,.06-.18,.11-.27,.15l-.08,.04c-.1,.05-.2,.1-.31,.13-.03,.02-.07,.04-.12,.05-.49,.11-.92,.08-1.41-.13-.04,0-.09-.02-.14-.04-.04-.02-.07-.04-.09-.06-.08-.05-.17-.11-.27-.19l-.04-.03c-.06-.04-.12-.1-.19-.16-.08-.07-.14-.16-.2-.23-.06-.08-.13-.17-.18-.26-.02-.03-.05-.06-.07-.11l-13.2-26.4L1.04,77.21c-.72-.48-1.12-1.31-1.03-2.17,.09-.86,.64-1.59,1.45-1.91L116.45,27.53l-.02,.09c.75-.09,1.51,.2,2.02,.8,.64,.75,.74,1.83,.23,2.68l-51.27,86.77c-.32,.54-.85,.93-1.47,1.07-.18,.04-.35,.06-.52,.06Zm-26.27-.44s0,0,0,0c0,0,0,0,0,0Zm11.38-9.69l14,9.19c.37,.24,.81,.33,1.27,.23,.43-.1,.81-.38,1.04-.76L118.1,30.75c.36-.6,.29-1.36-.16-1.89-.46-.53-1.2-.72-1.84-.46l-.61,.25h0S1.71,73.76,1.71,73.76c-.57,.23-.96,.74-1.02,1.35-.06,.61,.22,1.2,.73,1.53l21.65,14.21,13.28,26.56s.04,.05,.05,.08c.03,.06,.07,.11,.13,.18,.06,.07,.1,.13,.14,.17,.04,.04,.08,.07,.13,.1l.05,.04c.08,.06,.14,.1,.2,.14,.01,0,.03,.02,.04,.03,.02,0,.05,.01,.07,.02,.39,.17,.68,.19,1.01,.12,.03-.01,.05-.02,.07-.03,.09-.03,.16-.06,.25-.1l.08-.04c.07-.03,.13-.06,.18-.1,.03-.02,.06-.04,.08-.05l11.69-9.1Zm-11.71,9.11s0,0,0,0h0Zm-3.01-.17s0,0,0,0c0,0,0,0,0,0Zm.54-.4h0s0,0,0,0Zm28.54-3.03l-13.45-8.83h-.24v-.16s-10.44-6.85-10.44-6.85l.33-.29,60.66-53.07-2.15-2.46-61.68,53.97-11.12-7.3,43.08-24.35-1.61-2.84-44.55,25.18-17.88-11.73L112.85,33.2l-47.97,81.18Zm-13.02-9.35l12.8,8.4L111.27,34.56,7.29,75.78l16.44,10.79,44.78-25.31,2.27,4.02-42.71,24.14,9.76,6.41,61.8-54.07,3.04,3.48-.25,.22-60.58,53,10,6.57Zm-12.42,8.32v-11.75l8.19,5.38-8.19,6.37Zm.68-10.5v9.12l6.36-4.94-6.36-4.17Zm-3.94,6.92l-7.68-15.35,7.68,5.04v10.31Zm-5.95-13.41l5.27,10.54v-7.08l-5.27-3.46Z"/></g><g><path class="cls-1" d="M4.28,59.5c0,1.36,.05,2.74,.15,4.08l3.93-.29c-.09-1.25-.14-2.53-.14-3.8h-3.94Z"/><path class="cls-1" d="M4.12,63.95l-.02-.34c-.1-1.35-.15-2.73-.15-4.11v-.34h4.62v.34c0,1.27,.05,2.54,.14,3.77l.02,.34-4.61,.34Zm.5-4.11c0,1.14,.05,2.27,.12,3.38l3.26-.24c-.07-1.03-.11-2.09-.11-3.15h-3.27Z"/></g><g><path class="cls-1" d="M10.44,44.54l-3.77-1.15c-.39,1.29-.75,2.62-1.05,3.95l3.85,.87c.28-1.23,.6-2.47,.97-3.67h0Z"/><path class="cls-1" d="M9.73,48.61l-4.51-1.01,.07-.33c.3-1.34,.66-2.68,1.05-3.98l.1-.32,4.42,1.35-.1,.32c-.36,1.17-.68,2.4-.96,3.64l-.07,.33Zm-3.7-1.52l3.19,.72c.24-1.03,.51-2.05,.8-3.04l-3.13-.95c-.32,1.07-.61,2.17-.87,3.27Z"/></g><g><path class="cls-1" d="M13.19,37.46l-3.56-1.7c-.58,1.22-1.13,2.49-1.62,3.76l3.68,1.43c.46-1.18,.96-2.35,1.51-3.48h0Z"/><path class="cls-1" d="M11.88,41.38l-4.31-1.67,.12-.32c.5-1.28,1.05-2.55,1.63-3.78l.15-.31,4.17,1.99-.15,.31c-.53,1.11-1.04,2.28-1.5,3.46l-.12,.31Zm-3.43-2.06l3.05,1.18c.39-.98,.81-1.95,1.25-2.89l-2.95-1.41c-.48,1.02-.93,2.06-1.35,3.11Z"/></g><g><path class="cls-1" d="M93.49,21.11c.94,.83,1.86,1.71,2.75,2.62l2.83-2.75c-.95-.98-1.95-1.93-2.96-2.82l-2.62,2.95Z"/><path class="cls-1" d="M96.24,24.22l-.24-.24c-.87-.9-1.79-1.77-2.73-2.61l-.25-.22,3.07-3.46,.25,.22c1,.88,2,1.84,2.98,2.84l.24,.24-3.31,3.22Zm-2.27-3.13c.78,.7,1.54,1.43,2.28,2.17l2.34-2.28c-.81-.82-1.63-1.6-2.45-2.34l-2.17,2.45Z"/></g><g><path class="cls-1" d="M21.66,24.9l-2.91-2.67c-.91,1-1.8,2.05-2.65,3.12l3.1,2.44c.79-1,1.61-1.97,2.46-2.89h0Z"/><path class="cls-1" d="M19.26,28.27l-3.63-2.86,.21-.27c.83-1.06,1.73-2.12,2.66-3.14l.23-.25,3.41,3.12-.23,.25c-.84,.92-1.66,1.88-2.44,2.87l-.21,.27Zm-2.68-2.97l2.57,2.02c.66-.82,1.34-1.63,2.04-2.4l-2.41-2.21c-.77,.85-1.5,1.71-2.19,2.59Z"/></g><g><path class="cls-1" d="M16.96,30.86l-3.27-2.2c-.76,1.13-1.49,2.3-2.16,3.47l3.42,1.96c.62-1.09,1.3-2.17,2.01-3.23h0Z"/><path class="cls-1" d="M15.08,34.55l-4.01-2.29,.17-.29c.68-1.19,1.41-2.37,2.17-3.5l.19-.28,3.83,2.58-.19,.28c-.71,1.06-1.38,2.13-1.99,3.21l-.17,.29Zm-3.09-2.54l2.84,1.62c.52-.9,1.08-1.79,1.66-2.68l-2.71-1.83c-.62,.94-1.22,1.9-1.79,2.88Z"/></g><g><path class="cls-1" d="M27.18,19.69l-2.49-3.06c-1.05,.86-2.09,1.76-3.07,2.69l2.71,2.87c.92-.86,1.88-1.7,2.86-2.5Z"/><path class="cls-1" d="M24.31,22.67l-3.17-3.36,.25-.23c1-.94,2.04-1.85,3.09-2.71l.26-.21,2.92,3.58-.26,.21c-.99,.81-1.94,1.64-2.84,2.49l-.25,.23Zm-2.22-3.33l2.24,2.38c.75-.7,1.55-1.4,2.37-2.07l-2.06-2.53c-.86,.71-1.72,1.46-2.55,2.23Z"/></g><g><path class="cls-1" d="M4.88,51.36c-.2,1.34-.35,2.71-.45,4.06l3.93,.29c.09-1.26,.23-2.53,.41-3.77l-3.9-.57Z"/><path class="cls-1" d="M8.68,56.07l-4.61-.34,.02-.34c.1-1.37,.25-2.74,.45-4.09l.05-.33,4.57,.67-.05,.33c-.18,1.25-.32,2.51-.41,3.75l-.02,.34Zm-3.88-.96l3.26,.24c.08-1.03,.2-2.08,.34-3.13l-3.23-.48c-.16,1.11-.28,2.24-.37,3.36Z"/></g><g><path class="cls-1" d="M77.3,11.4l1.37-3.7c-1.27-.47-2.58-.9-3.89-1.28l-1.09,3.79c1.22,.35,2.43,.75,3.61,1.18h0Z"/><path class="cls-1" d="M77.5,11.83l-.32-.12c-1.14-.42-2.34-.82-3.58-1.18l-.32-.09,1.27-4.44,.32,.09c1.29,.37,2.61,.8,3.92,1.28l.32,.12-1.61,4.33Zm-3.39-1.85c1.03,.3,2.03,.63,2.99,.98l1.14-3.06c-1.08-.39-2.16-.75-3.22-1.06l-.9,3.14Z"/></g><g><path class="cls-1" d="M66.26,8.67c1.23,.16,2.5,.38,3.75,.63l.8-3.86c-1.35-.28-2.7-.51-4.03-.68l-.52,3.91Z"/><path class="cls-1" d="M70.27,9.7l-.33-.07c-1.24-.25-2.49-.47-3.73-.63l-.33-.04,.61-4.58,.33,.04c1.35,.18,2.71,.41,4.05,.69l.33,.07-.93,4.53Zm-3.63-1.32c1.03,.14,2.07,.32,3.11,.53l.66-3.2c-1.11-.22-2.23-.41-3.34-.57l-.43,3.24Z"/></g><g><path class="cls-1" d="M103.98,26.77c-.69-.94-1.42-1.86-2.17-2.75l-3.02,2.53c.7,.83,1.37,1.69,2.02,2.57l3.17-2.35Z"/><path class="cls-1" d="M100.74,29.59l-.2-.27c-.61-.83-1.29-1.69-2-2.55l-.22-.26,3.54-2.97,.22,.26c.76,.9,1.49,1.83,2.18,2.77l.2,.27-3.72,2.75Zm-1.47-3c.57,.69,1.11,1.38,1.61,2.05l2.63-1.94c-.56-.74-1.14-1.48-1.74-2.21l-2.5,2.1Z"/></g><g><path class="cls-1" d="M84.2,14.56l1.9-3.45c-1.18-.65-2.41-1.27-3.65-1.84l-1.64,3.58c1.15,.53,2.29,1.1,3.39,1.71h0Z"/><path class="cls-1" d="M84.34,15.02l-.3-.16c-1.08-.6-2.21-1.17-3.37-1.7l-.31-.14,1.92-4.2,.31,.14c1.24,.57,2.47,1.19,3.68,1.85l.3,.16-2.23,4.05Zm-3.08-2.33c.96,.45,1.9,.92,2.81,1.42l1.58-2.86c-.99-.54-2.01-1.05-3.03-1.53l-1.36,2.97Z"/></g><g><path class="cls-1" d="M90.56,18.7l2.39-3.14c-1.08-.82-2.2-1.62-3.34-2.36l-2.15,3.3c1.06,.69,2.1,1.42,3.1,2.19h0Z"/><path class="cls-1" d="M90.63,19.18l-.27-.2c-1.01-.77-2.05-1.5-3.08-2.17l-.28-.18,2.52-3.87,.28,.18c1.14,.74,2.27,1.54,3.36,2.37l.27,.21-2.8,3.67Zm-2.7-2.76c.86,.57,1.72,1.18,2.57,1.81l1.98-2.6c-.9-.68-1.83-1.33-2.77-1.95l-1.78,2.74Z"/></g><g><path class="cls-1" d="M30.21,17.41c1.04-.72,2.11-1.42,3.19-2.05l-2.01-3.39c-1.16,.69-2.32,1.43-3.44,2.21l2.26,3.24Z"/><path class="cls-1" d="M30.13,17.88l-2.65-3.79,.28-.19c1.12-.78,2.29-1.53,3.46-2.23l.29-.17,2.36,3.98-.29,.17c-1.08,.64-2.14,1.32-3.17,2.04l-.28,.19Zm-1.7-3.62l1.87,2.68c.86-.59,1.75-1.16,2.64-1.7l-1.67-2.81c-.96,.58-1.92,1.19-2.85,1.83Z"/></g><g><path class="cls-1" d="M54.54,4.5c-1.35,.12-2.72,.29-4.05,.51l.64,3.89c1.24-.21,2.51-.36,3.77-.48l-.35-3.93Z"/><path class="cls-1" d="M50.85,9.3l-.75-4.56,.33-.06c1.32-.22,2.69-.39,4.08-.52l.34-.03,.41,4.6-.34,.03c-1.25,.11-2.51,.27-3.74,.47l-.33,.06Zm.03-4l.53,3.22c1.03-.16,2.07-.29,3.12-.39l-.29-3.26c-1.14,.11-2.27,.25-3.36,.43Z"/></g><g><path class="cls-1" d="M47.41,9.66l-.93-3.83c-1.32,.32-2.64,.69-3.93,1.11l1.21,3.75c1.2-.39,2.43-.73,3.65-1.03h0Z"/><path class="cls-1" d="M43.53,11.12l-1.41-4.4,.32-.1c1.3-.42,2.63-.79,3.96-1.11l.33-.08,1.09,4.49-.33,.08c-1.23,.3-2.45,.64-3.63,1.02l-.32,.1Zm-.56-3.96l1,3.11c.99-.31,2-.6,3.03-.85l-.77-3.17c-1.09,.27-2.19,.58-3.26,.92Z"/></g><g><path class="cls-1" d="M58.68,8.23h.82c1,0,1.99,.02,2.98,.08l.23-3.94c-1.06-.06-2.13-.09-3.21-.09h-.87s.05,3.95,.05,3.95Z"/><path class="cls-1" d="M62.8,8.67l-.34-.02c-.96-.06-1.96-.08-2.96-.08h-1.15s-.06-4.61-.06-4.61h1.21c1.07,0,2.15,.02,3.23,.08l.34,.02-.27,4.61Zm-3.3-.78c.9,0,1.8,.02,2.67,.07l.19-3.26c-.96-.05-1.91-.07-2.85-.07h-.53s.04,3.27,.04,3.27h.48Z"/></g><g><path class="cls-1" d="M40.19,11.98l-1.49-3.65c-1.25,.51-2.5,1.07-3.72,1.68l1.75,3.53c1.13-.56,2.3-1.08,3.46-1.56h0Z"/><path class="cls-1" d="M36.58,14l-2.05-4.14,.3-.15c1.23-.61,2.49-1.18,3.74-1.69l.31-.13,1.74,4.28-.31,.13c-1.17,.48-2.33,1-3.44,1.55l-.3,.15Zm-1.15-3.83l1.45,2.93c.93-.45,1.89-.89,2.86-1.29l-1.23-3.03c-1.03,.43-2.06,.89-3.08,1.39Z"/></g><g><path class="cls-1" d="M94.68,96.8l2.71,2.87c.98-.93,1.95-1.91,2.87-2.92l-2.91-2.66c-.85,.94-1.75,1.85-2.66,2.71Z"/><path class="cls-1" d="M97.38,100.15l-3.17-3.36,.25-.23c.91-.86,1.8-1.77,2.64-2.69l.23-.25,3.41,3.12-.23,.25c-.93,1.02-1.9,2-2.89,2.93l-.25,.23Zm-2.21-3.33l2.24,2.38c.81-.77,1.61-1.58,2.38-2.42l-2.41-2.21c-.71,.77-1.45,1.52-2.21,2.24Z"/></g><g><path class="cls-1" d="M99.8,91.19l3.09,2.45c.84-1.06,1.65-2.17,2.41-3.31l-3.27-2.2c-.71,1.05-1.46,2.08-2.24,3.06h0Z"/><path class="cls-1" d="M102.95,94.12l-3.63-2.87,.21-.27c.78-.99,1.53-2.01,2.22-3.04l.19-.28,3.83,2.58-.19,.28c-.76,1.13-1.58,2.25-2.43,3.33l-.21,.27Zm-2.68-2.98l2.56,2.03c.7-.89,1.37-1.81,2-2.74l-2.71-1.83c-.59,.86-1.21,1.71-1.85,2.54Z"/></g><g><path class="cls-1" d="M109.52,70.8l3.85,.87c.3-1.32,.55-2.67,.75-4.02l-3.9-.58c-.18,1.25-.42,2.51-.69,3.73h0Z"/><path class="cls-1" d="M113.63,72.07l-4.51-1.01,.07-.33c.28-1.25,.51-2.5,.69-3.71l.05-.34,4.57,.68-.05,.33c-.2,1.36-.45,2.72-.75,4.05l-.07,.33Zm-3.7-1.53l3.19,.72c.24-1.1,.45-2.22,.62-3.33l-3.23-.48c-.16,1.01-.35,2.05-.57,3.09Z"/></g><g><path class="cls-1" d="M82.26,105.46l1.76,3.53c1.22-.61,2.43-1.27,3.59-1.95l-2.01-3.39c-1.08,.64-2.2,1.25-3.34,1.81h0Z"/><path class="cls-1" d="M83.87,109.44l-2.06-4.14,.3-.15c1.11-.55,2.23-1.16,3.32-1.8l.29-.17,2.35,3.98-.29,.17c-1.17,.69-2.39,1.35-3.61,1.96l-.3,.15Zm-1.15-3.83l1.46,2.93c1.01-.51,2-1.05,2.98-1.62l-1.67-2.81c-.91,.53-1.84,1.03-2.77,1.5Z"/></g><g><path class="cls-1" d="M88.79,101.59l2.26,3.24c1.11-.78,2.21-1.6,3.26-2.46l-2.49-3.06c-.98,.79-2,1.56-3.03,2.29Z"/><path class="cls-1" d="M90.97,105.29l-2.65-3.79,.28-.19c1.03-.71,2.04-1.48,3.01-2.27l.26-.21,2.92,3.59-.26,.21c-1.05,.85-2.15,1.68-3.28,2.47l-.28,.19Zm-1.7-3.62l1.87,2.68c.93-.66,1.84-1.34,2.7-2.04l-2.06-2.54c-.82,.66-1.66,1.29-2.51,1.89Z"/></g><g><path class="cls-1" d="M110.64,63.3l3.93,.29c.1-1.35,.15-2.72,.15-4.08h-3.94c0,1.27-.05,2.54-.14,3.79h0Z"/><path class="cls-1" d="M114.88,63.94l-4.61-.34,.02-.34c.09-1.23,.14-2.5,.14-3.77v-.34h4.62v.34c0,1.38-.05,2.76-.15,4.11l-.02,.34Zm-3.89-.96l3.26,.24c.07-1.11,.12-2.25,.12-3.38h-3.27c0,1.06-.05,2.11-.11,3.14Z"/></g><g><path class="cls-1" d="M107.31,78.06l3.68,1.43c.49-1.27,.94-2.57,1.34-3.86l-3.77-1.15c-.37,1.2-.78,2.41-1.24,3.59h0Z"/><path class="cls-1" d="M111.18,79.92l-4.31-1.67,.12-.32c.45-1.16,.87-2.36,1.23-3.57l.1-.32,4.42,1.35-.1,.32c-.4,1.3-.85,2.61-1.35,3.89l-.12,.31Zm-3.43-2.06l3.05,1.18c.4-1.05,.77-2.13,1.11-3.2l-3.13-.95c-.31,1-.66,2-1.03,2.97Z"/></g><g><path class="cls-1" d="M104.05,84.91l3.42,1.96c.68-1.19,1.32-2.41,1.9-3.62l-3.56-1.7c-.54,1.13-1.13,2.26-1.76,3.36h0Z"/><path class="cls-1" d="M107.6,87.32l-4.01-2.29,.17-.29c.61-1.08,1.2-2.2,1.75-3.34l.15-.31,4.17,1.99-.15,.31c-.58,1.21-1.22,2.44-1.91,3.64l-.17,.29Zm-3.09-2.54l2.84,1.62c.56-1,1.09-2,1.57-3l-2.95-1.41c-.46,.95-.95,1.88-1.46,2.79Z"/></g><g><path class="cls-1" d="M116.69,8.23c-3.26,0-5.92-2.65-5.92-5.92,0-1.09-.88-1.97-1.97-1.97s-1.97,.88-1.97,1.97c0,3.26-2.65,5.92-5.92,5.92-1.09,0-1.97,.88-1.97,1.97s.88,1.97,1.97,1.97c3.26,0,5.92,2.65,5.92,5.92,0,1.09,.88,1.97,1.97,1.97s1.97-.88,1.97-1.97c0-3.26,2.65-5.92,5.92-5.92,1.09,0,1.97-.88,1.97-1.97s-.88-1.97-1.97-1.97Zm-7.89,3.95c-.56-.75-1.23-1.42-1.98-1.98,.75-.56,1.42-1.23,1.98-1.98,.56,.75,1.23,1.42,1.98,1.98-.75,.56-1.42,1.23-1.98,1.98Z"/><path class="cls-1" d="M108.8,20.4c-1.27,0-2.31-1.04-2.31-2.31,0-3.08-2.5-5.58-5.58-5.58-1.27,0-2.31-1.04-2.31-2.31s1.04-2.31,2.31-2.31c3.08,0,5.58-2.5,5.58-5.58C106.49,1.04,107.53,0,108.8,0s2.31,1.04,2.31,2.31c0,3.08,2.5,5.58,5.58,5.58,1.27,0,2.31,1.04,2.31,2.31s-1.04,2.31-2.31,2.31c-3.08,0-5.58,2.5-5.58,5.58,0,1.27-1.04,2.31-2.31,2.31Zm0-19.72c-.9,0-1.63,.73-1.63,1.63,0,3.45-2.81,6.25-6.25,6.25-.9,0-1.63,.73-1.63,1.63s.73,1.63,1.63,1.63c3.45,0,6.25,2.81,6.25,6.25,0,.9,.73,1.63,1.63,1.63s1.63-.73,1.63-1.63c0-3.45,2.81-6.25,6.25-6.25,.9,0,1.63-.73,1.63-1.63s-.73-1.63-1.63-1.63c-3.45,0-6.25-2.81-6.25-6.25,0-.9-.73-1.63-1.63-1.63Zm0,12.06l-.27-.36c-.54-.72-1.18-1.36-1.91-1.91l-.36-.27,.36-.27c.73-.55,1.37-1.19,1.91-1.91l.27-.36,.27,.36c.54,.72,1.18,1.36,1.91,1.91l.36,.27-.36,.27c-.73,.55-1.37,1.19-1.91,1.91l-.27,.36Zm-1.43-2.54c.52,.43,1,.91,1.43,1.43,.43-.52,.91-1,1.43-1.43-.53-.43-1-.91-1.43-1.43-.43,.52-.91,1-1.43,1.43Z"/></g><g><path class="cls-1" d="M33.86,41.75c0,1.09,.88,1.97,1.97,1.97,3.26,0,5.92,2.65,5.92,5.92,0,1.09,.88,1.97,1.97,1.97s1.97-.88,1.97-1.97c0-3.26,2.65-5.92,5.92-5.92,1.09,0,1.97-.88,1.97-1.97s-.88-1.97-1.97-1.97c-3.26,0-5.92-2.65-5.92-5.92,0-1.09-.88-1.97-1.97-1.97s-1.97,.88-1.97,1.97c0,3.26-2.65,5.92-5.92,5.92-1.09,0-1.97,.88-1.97,1.97Zm9.86-1.98c.56,.75,1.23,1.42,1.98,1.98-.75,.56-1.42,1.23-1.98,1.98-.56-.75-1.23-1.42-1.98-1.98,.75-.56,1.42-1.23,1.98-1.98Z"/><path class="cls-1" d="M43.72,51.95c-1.27,0-2.31-1.04-2.31-2.31,0-3.08-2.5-5.58-5.58-5.58-1.27,0-2.31-1.04-2.31-2.31s1.04-2.31,2.31-2.31c3.08,0,5.58-2.5,5.58-5.58,0-1.27,1.04-2.31,2.31-2.31s2.31,1.04,2.31,2.31c0,3.08,2.5,5.58,5.58,5.58,1.27,0,2.31,1.04,2.31,2.31s-1.04,2.31-2.31,2.31c-3.08,0-5.58,2.5-5.58,5.58,0,1.27-1.04,2.31-2.31,2.31Zm0-19.72c-.9,0-1.63,.73-1.63,1.63,0,3.45-2.81,6.25-6.25,6.25-.9,0-1.63,.73-1.63,1.63s.73,1.63,1.63,1.63c3.45,0,6.25,2.81,6.25,6.25,0,.9,.73,1.63,1.63,1.63s1.63-.73,1.63-1.63c0-3.45,2.81-6.25,6.25-6.25,.9,0,1.63-.73,1.63-1.63s-.73-1.63-1.63-1.63c-3.45,0-6.25-2.81-6.25-6.25,0-.9-.73-1.63-1.63-1.63Zm0,12.06l-.27-.36c-.54-.72-1.18-1.36-1.91-1.91l-.36-.27,.36-.27c.73-.55,1.37-1.19,1.91-1.91l.27-.36,.27,.36c.54,.72,1.18,1.36,1.91,1.91l.36,.27-.36,.27c-.72,.54-1.37,1.19-1.91,1.91l-.27,.36Zm-1.43-2.54c.53,.43,1,.91,1.43,1.43,.43-.52,.91-1,1.43-1.43-.53-.43-1-.91-1.43-1.43-.43,.52-.91,1-1.43,1.43Z"/></g></svg>