<?xml version="1.0" encoding="UTF-8"?><svg id="Layer_1" xmlns="http://www.w3.org/2000/svg" viewBox="0 0 119 119"><defs><style>.cls-1{fill:#97c43e;}</style></defs><path class="cls-1" d="M73.54,.01c-1.46,.14-2.57,1.37-2.57,2.83V7.27c-1.04,.37-2.04,.8-3.01,1.28l-3.14-3.14c-1.1-1.09-2.88-1.09-3.98,0l-8.81,8.77c-.54,.53-.84,1.26-.84,2.01s.3,1.48,.84,2.02l3.1,3.1c-.49,1-.91,2.03-1.28,3.1h-4.34c-1.56,0-2.83,1.27-2.83,2.83v12.4c0,1.56,1.27,2.83,2.83,2.83h4.34c.37,1.05,.8,2.07,1.28,3.05l-3.1,3.1c-.54,.53-.84,1.26-.84,2.02s.3,1.48,.84,2.01l8.81,8.77c1.1,1.09,2.88,1.09,3.98,0l3.05-3.05c1,.49,2.03,.91,3.1,1.28v4.38c0,1.56,1.27,2.83,2.83,2.83h12.44c1.57,0,2.83-1.27,2.83-2.83v-4.38c1.06-.36,2.1-.76,3.1-1.24l3.01,3.01c1.1,1.09,2.88,1.09,3.98,0l8.77-8.77c1.1-1.09,1.12-2.87,.04-3.98l-3.05-3.14c.48-.99,.92-2,1.28-3.05h4.34c1.57,0,2.83-1.27,2.83-2.83v-12.4c0-1.57-1.27-2.83-2.83-2.83h-4.34c-.37-1.07-.79-2.1-1.28-3.1l3.05-3.14c1.08-1.12,1.06-2.89-.04-3.98l-8.77-8.77c-1.1-1.09-2.88-1.09-3.98,0l-3.1,3.1c-.96-.48-1.97-.87-3.01-1.24V2.84c0-1.56-1.27-2.83-2.83-2.83h-12.44c-.09,0-.18,0-.26,0h0Zm3.1,5.67h6.77v3.45c0,1.29,.87,2.42,2.12,2.74,2.04,.51,3.91,1.35,5.76,2.44,1.12,.66,2.54,.48,3.45-.44l2.44-2.44,4.78,4.78-2.39,2.44c-.88,.92-1.05,2.31-.4,3.41,1.08,1.81,1.91,3.76,2.44,5.84,.31,1.27,1.44,2.16,2.74,2.17h3.37v6.73h-3.37c-1.29,0-2.42,.87-2.74,2.12-.53,2.09-1.35,4.02-2.44,5.84-.65,1.1-.49,2.49,.4,3.41l2.39,2.44-4.78,4.78-2.35-2.35c-.92-.91-2.35-1.07-3.45-.4-1.79,1.06-3.74,1.86-5.84,2.39-1.25,.32-2.13,1.45-2.12,2.75v3.41h-6.77v-3.41c0-1.29-.87-2.42-2.13-2.75-2.09-.53-4.02-1.35-5.84-2.44-1.11-.67-2.53-.51-3.45,.4l-2.39,2.39-4.78-4.78,2.39-2.39c.92-.91,1.1-2.34,.44-3.45-1.08-1.83-1.91-3.76-2.44-5.84-.32-1.25-1.45-2.13-2.75-2.12h-3.37v-6.73h3.37c1.31,0,2.44-.9,2.75-2.17,.53-2.07,1.36-4.03,2.44-5.84,.66-1.12,.48-2.54-.44-3.45l-2.39-2.39,4.78-4.78,2.48,2.44c.91,.92,2.34,1.1,3.45,.44,1.85-1.09,3.71-1.92,5.76-2.44,1.25-.32,2.13-1.45,2.13-2.74v-3.45Zm3.41,14.04c-7.56,0-13.77,6.16-13.77,13.73s6.2,13.77,13.77,13.77,13.73-6.22,13.73-13.77-6.17-13.73-13.73-13.73Zm0,5.67c4.52,0,8.06,3.55,8.06,8.06s-3.56,8.1-8.06,8.1-8.1-3.61-8.1-8.1,3.59-8.06,8.1-8.06Zm-40.24,39.89c-4.48,0-8.72,1.34-12.44,3.54-.7,.36-1.21,.98-1.43,1.73-.22,.75-.12,1.56,.28,2.23,.4,.67,1.06,1.15,1.82,1.32,.76,.17,1.56,.02,2.21-.42,2.96-1.76,6.22-2.75,9.56-2.75,5.34,0,10.21,2.09,13.86,5.49,.53,.49,1.23,.76,1.95,.75l13.33-.09c1.44,0,2.1,.39,2.52,.84s.64,1.08,.62,1.77c-.03,1.38-.61,2.74-3.14,2.74h-18.95c-.76,0-1.49,.28-2.03,.82-.54,.53-.84,1.26-.84,2.02s.3,1.49,.84,2.02c.54,.53,1.27,.83,2.03,.82h18.95c5.22,0,8.71-4.15,8.81-8.28,.05-2.06-.66-4.22-2.21-5.84-1.56-1.62-3.9-2.57-6.6-2.57h-.04l-12.35,.09c-4.54-3.85-10.35-6.24-16.74-6.24h0Zm69.64,.04c-1.91,.03-3.86,.52-5.62,1.42l-16.87,8.59c-.7,.32-1.24,.92-1.5,1.64s-.2,1.53,.15,2.22c.35,.69,.97,1.2,1.7,1.43,.74,.22,1.54,.14,2.21-.24l16.87-8.59c2.74-1.39,5.41-.88,6.46,.71,1.06,1.59,.53,3.82-1.9,5.27-.01,.01-.03,.03-.04,.04l-35.86,21.78H35.86l-18.64-32.23c-.77-1.35-2.49-1.83-3.85-1.06l-11.95,6.91c-.09,.04-.18,.08-.26,.13-1.17,.86-1.49,2.47-.75,3.72l23.38,40.51c.37,.66,.99,1.15,1.73,1.35,.73,.2,1.52,.1,2.17-.28l11.91-6.91c1.35-.77,1.83-2.49,1.06-3.85l-1.51-2.61h36.7c.53,0,1.06-.16,1.51-.44l36.48-22.14,.04-.04c4.68-2.82,6.68-8.82,3.72-13.28-1.49-2.24-3.77-3.51-6.24-3.9-.62-.1-1.27-.14-1.9-.13h0Zm-95.72,7.31l20.59,35.64-7.04,4.03L6.73,76.7l7-4.07Z"/></svg>