<?xml version="1.0" encoding="UTF-8"?><svg id="Layer_1" xmlns="http://www.w3.org/2000/svg" viewBox="0 0 119 119"><defs><style>.cls-1{fill:#ec3783;}</style></defs><path class="cls-1" d="M29.77,37.59c0,5.44,1.58,10.77,4.54,15.34,2.96,4.57,7.17,8.19,12.13,10.43-4.96-2.24-9.18-5.86-12.13-10.43-2.96-4.57-4.53-9.9-4.54-15.34h0Z"/><path class="cls-1" d="M108.05,119H10.98c-1.86,.04-3.64-.74-4.88-2.12-.73-.81-1.18-1.84-1.28-2.93,.1,1.09,.55,2.12,1.28,2.93,1.24,1.39,3.02,2.16,4.88,2.12H108.05c1.86,.03,3.64-.75,4.88-2.12,.72-.82,1.16-1.84,1.25-2.93-.09,1.09-.53,2.11-1.25,2.93-1.25,1.38-3.03,2.15-4.88,2.12Z"/><path class="cls-1" d="M72.38,63.36c4.99-2.21,9.24-5.82,12.23-10.4,2.99-4.57,4.59-9.91,4.61-15.37-.02,5.46-1.63,10.8-4.61,15.37-2.99,4.57-7.23,8.18-12.23,10.4h0Z"/><path class="cls-1" d="M113.98,112.87l-1.92-14.05c-1.62-16.4-19.1-28.76-40.65-28.76h-23.98c-21.52,0-39,12.36-40.62,28.66l-1.95,14.15h0c-.03,.36-.03,.72,0,1.08,.1,1.09,.55,2.12,1.28,2.93,1.24,1.39,3.02,2.16,4.88,2.12H108.05c1.86,.03,3.64-.75,4.88-2.12,.72-.82,1.16-1.84,1.25-2.93-.02-.37-.09-.73-.2-1.08h0Zm-102.23-.64l1.72-12.73c1.28-12.73,16.2-22.7,33.95-22.7h23.98c17.78,0,32.67,10.1,33.95,22.84l1.75,12.63-95.35-.03Z"/><path class="cls-1" d="M46.45,63.36c3.65,1.67,7.61,2.53,11.62,2.53h2.83c4,0,7.95-.86,11.59-2.53,4.99-2.21,9.24-5.82,12.23-10.4s4.59-9.91,4.62-15.37v-9.3c0-7.52-3.01-14.74-8.34-20.04C75.65,2.94,68.42-.03,60.9,0h-2.73c-7.5,0-14.69,2.99-20,8.3-5.3,5.3-8.29,12.49-8.3,20v9.3c0,5.43,1.56,10.75,4.5,15.32,2.94,4.57,7.13,8.2,12.07,10.45h0Zm-9.94-35.06c0-5.71,2.28-11.19,6.32-15.23,4.04-4.04,9.52-6.31,15.23-6.32h2.83c5.71,0,11.19,2.28,15.23,6.32,4.04,4.04,6.31,9.52,6.32,15.23v9.3c0,5.71-2.28,11.19-6.32,15.23s-9.52,6.31-15.23,6.32h-2.73c-5.71,0-11.19-2.28-15.23-6.32-4.04-4.04-6.31-9.52-6.32-15.23l-.1-9.3Z"/></svg>