<?xml version="1.0" encoding="UTF-8"?><svg id="Layer_1" xmlns="http://www.w3.org/2000/svg" viewBox="0 0 119 119"><defs><style>.cls-1{fill:#ec3783;}</style></defs><g><path class="cls-1" d="M.83,89.48c.7-.89,1.33-1.84,2.11-2.65,2.12-2.2,4.3-4.34,6.46-6.5,2.03-2.03,3.52-2.16,5.93-.45,1.52-1.33,2.42-2.97,2.48-5.03,.06-2.1-.01-4.2,.13-6.3,.15-2.25,1.14-4.18,2.73-5.78,2.63-2.66,5.28-5.3,7.93-7.95,1.6-1.6,3.58-2.41,5.96-2.69-1.18-2.21-.98-4.51-.98-6.78,0-2.79,.01-5.58,0-8.36-.01-2.74,.97-5.07,2.86-7.02,1.14-1.18,2.33-2.31,3.47-3.5,1.45-1.51,2.12-3.31,1.94-5.49-.26-.06-.51-.13-.75-.18-1.86-.39-3.07-1.71-3.09-3.59-.04-3.82-.05-7.64,0-11.46,.03-2.08,1.61-3.59,3.7-3.59,10.66-.02,21.31-.02,31.97,0,2.15,0,3.68,1.54,3.7,3.7,.03,3.4,0,6.8,0,10.2,0,3.2-.57,3.98-3.66,4.94-.26,2.08,.07,4.03,1.48,5.66,1.89,2.2,2.63,4.74,2.61,7.61-.05,5.92-.03,11.84,0,17.76,0,.57,.31,1.14,.46,1.68,1.46-.52,2.63-1.08,3.87-1.35,3.05-.65,5.8,.15,8.04,2.28,2.87,2.74,5.65,5.58,8.42,8.43,1.58,1.62,2.32,3.65,2.54,5.86,1.91,.23,2.65,.82,2.53,1.95-.12,1.07-.93,1.6-2.42,1.52-.32,2.85,.03,5.47,2.4,7.44,2.71-1.69,3.9-1.55,6.13,.68,2.35,2.35,4.7,4.7,7.04,7.06,1.83,1.84,1.82,3.87-.02,5.72-7.33,7.36-14.67,14.71-22.02,22.06-1.98,1.98-3.92,1.97-5.88,0-2.43-2.43-4.86-4.86-7.29-7.3-1.85-1.86-1.97-3.43-.42-5.63-1.38-1.8-3.18-2.89-5.47-3.07-2.47-.2-4.54-1.21-6.29-2.94-1.73-1.72-3.47-3.44-5.2-5.17-.98-.98-1.08-1.92-.33-2.7,.75-.79,1.79-.69,2.8,.3,1.71,1.69,3.42,3.38,5.12,5.09,1.15,1.15,2.49,1.86,4.13,1.99,3.12,.25,5.67,1.64,7.59,3.91,5.9-5.88,11.74-11.69,17.63-17.56-1.78-1.68-3.05-3.76-3.32-6.28-.18-1.66-.18-3.36-.09-5.03,.15-2.75-.79-4.93-2.83-6.81-2.38-2.2-4.59-4.59-6.91-6.86-1.94-1.89-4.51-2.24-6.87-.93,1.12,1.12,2.21,2.22,3.29,3.31,.32,.33,.66,.64,.96,.98,.73,.82,.75,1.77,.09,2.46-.68,.7-1.74,.7-2.55-.09-1.37-1.33-2.7-2.7-4.05-4.05-.29-.29-.59-.57-1.03-.99-.03,.53-.07,.88-.07,1.24,0,3.28-.11,6.57,.02,9.85,.19,4.89-3.99,7.69-7.87,6.37-.1-.03-.21,0-.45,0,0,.96-.06,1.91,.01,2.85,.38,4.67-3.46,8.09-8.37,6.44-.66,2.12-1.97,3.65-4.14,4.36-.3,.1-.53,.42-.77,.66-2.13,2.13-4.28,4.26-6.39,6.41-1.84,1.87-4,3-6.64,3.2-2.22,.17-3.96,1.27-5.33,2.99,1.55,2.68,1.41,3.83-.78,6.02-2.34,2.36-4.69,4.71-7.05,7.05-1.86,1.85-3.85,1.85-5.71,0-4.78-4.78-9.55-9.57-14.33-14.35-.24-.24-.63-.5-.65-.77-.05-.67-.11-1.46,.19-1.99,.41-.73,1.26-.81,2.03-.38,.36,.2,.66,.51,.95,.81,4.56,4.56,9.13,9.13,13.68,13.71,.29,.3,.51,.67,.72,.96,2.9-2.92,5.62-5.67,8.3-8.37-7.51-7.47-15.13-15.06-22.65-22.54-2.57,2.56-5.31,5.29-8.25,8.22,.72,.67,1.63,1.48,2.48,2.33,.94,.93,1.03,1.97,.28,2.71-.77,.76-1.77,.7-2.7-.31-1.22-1.34-2.36-2.75-3.54-4.14,0-.61,0-1.22,0-1.83ZM41.13,53.49c.03-.52,.06-.92,.06-1.32,0-1.6-.04-3.21,.03-4.81,.04-1.07,.81-1.72,1.79-1.67,.93,.04,1.55,.69,1.61,1.73,.02,.34,0,.69,0,1.03,0,10,0,20.01,0,30.01,0,.49,0,1,.12,1.47,.3,1.21,1.33,1.9,2.57,1.79,1.16-.11,2-.96,2.12-2.17,.04-.45,.03-.92,.03-1.37,0-8.97,0-17.95,0-26.92,0-1.43,.64-2.25,1.71-2.26,1.08-.01,1.7,.79,1.72,2.23,0,.31,0,.61,0,.92,0,10.12,0,20.24,0,30.36,0,.53,.02,1.08,.14,1.59,.26,1.11,1.21,1.79,2.36,1.76,1.14-.03,2.05-.76,2.26-1.89,.09-.48,.1-.99,.1-1.48-.01-7.48-.04-14.97-.05-22.45,0-3.02-.02-6.03,.01-9.05,.01-1.22,.77-1.97,1.8-1.95,.98,.02,1.63,.74,1.67,1.94,.04,1.03,.01,2.06,.01,3.09,0,8.36,0,16.73,0,25.09,0,1.56,.91,2.55,2.29,2.59,1.4,.04,2.38-.9,2.5-2.42,.03-.38,.02-.76,.02-1.14,0-8.82,0-17.64,0-26.46,0-.46-.01-.93,.08-1.37,.17-.81,.73-1.24,1.54-1.28,.81-.04,1.43,.33,1.66,1.12,.14,.46,.14,.98,.14,1.47,0,5.77,0,11.53,0,17.3,0,.46,0,.92,.06,1.37,.16,1.08,1,1.87,2.07,1.98,1.14,.12,2.19-.48,2.52-1.55,.17-.57,.2-1.2,.2-1.8,.01-11.57,0-23.14,.02-34.71,0-2.08-.53-3.87-1.89-5.48-1.47-1.74-2.21-3.81-2.25-6.11-.01-.56,0-1.12,0-1.77-.6,0-1.02,0-1.43,0-3.7,0-7.41,0-11.11,0-.45,0-1.05,.08-1.33-.16-.5-.42-1.04-1.03-1.14-1.63-.14-.82,.47-1.42,1.33-1.58,.41-.07,.84-.06,1.26-.06,4.93,0,9.85,0,14.78,0,.44,0,.87-.06,1.28-.09V5.69H41.42v11.69c.53,.03,.94,.06,1.34,.06,1.87,0,3.74,0,5.61,0,1.34,.01,2.14,.67,2.13,1.7,0,1.03-.81,1.7-2.14,1.72-.98,.02-1.96,0-2.81,0-.15,.19-.19,.21-.19,.25-.02,.15-.05,.3-.05,.45,0,3.12-1.24,5.69-3.46,7.83-1.02,.98-2.01,1.99-2.99,3-1.11,1.13-1.82,2.48-1.83,4.08-.03,3.97-.05,7.94,0,11.91,.03,2.3,1.68,4.33,4.09,5.09Zm-3.26,2.93c-2.23-1.37-4.95-1.01-6.91,.91-2.43,2.38-4.76,4.85-7.23,7.19-1.76,1.67-2.6,3.61-2.48,6.02,.04,.76-.04,1.53,.01,2.29,.24,3.69-.68,6.96-3.48,9.46,5.92,5.89,11.76,11.7,17.65,17.57,2.13-2.57,5.02-3.77,8.41-4.08,.89-.08,1.89-.58,2.54-1.19,2.05-1.93,3.95-4.01,5.78-5.89-.92-1.26-1.87-2.55-2.87-3.9-.35,.08-.89,.26-1.45,.33-3.75,.42-6.64-2.22-6.65-6.1-.02-6.57,0-13.13,0-19.7,0-.38,0-.76,0-1.45-1.8,1.82-3.33,3.37-4.87,4.91-1,1-2.04,1.13-2.8,.38-.79-.78-.67-1.76,.35-2.79,1.32-1.32,2.65-2.63,3.99-3.96Zm45.89,48.62c2.71,2.7,5.45,5.43,7.99,7.96,7.55-7.51,15.19-15.11,22.65-22.53-2.67-2.67-5.4-5.41-7.96-7.99-7.53,7.48-15.15,15.07-22.68,22.55Z"/><path class="cls-1" d="M91.83,117.67c-1.2,0-2.38-.58-3.52-1.71-2.46-2.46-4.86-4.86-7.29-7.3-2-2.01-2.27-3.88-.86-6.16-1.22-1.4-2.71-2.15-4.51-2.29-2.6-.21-4.89-1.28-6.81-3.18l-1.36-1.35c-1.26-1.25-2.57-2.54-3.84-3.83-1.29-1.29-1.42-2.74-.35-3.86,.48-.5,1.07-.77,1.7-.78,.77,0,1.55,.36,2.28,1.07,2.06,2.03,3.64,3.6,5.13,5.09,1.06,1.07,2.24,1.64,3.61,1.75,2.93,.23,5.53,1.45,7.55,3.54l16.43-16.36c-1.73-1.83-2.72-3.91-2.97-6.18-.17-1.55-.2-3.24-.09-5.17,.13-2.46-.68-4.42-2.56-6.15-1.45-1.33-2.84-2.76-4.19-4.13-.89-.91-1.81-1.84-2.73-2.74-1.38-1.35-3.13-1.78-4.84-1.25,.82,.83,1.63,1.64,2.44,2.45,.09,.09,.18,.18,.27,.27,.24,.24,.49,.48,.72,.74,1.01,1.14,1.04,2.58,.06,3.59-.47,.49-1.09,.76-1.74,.77-.71,.02-1.42-.29-1.99-.84-.92-.9-1.84-1.82-2.72-2.72-.34-.35-.68-.69-1.03-1.04,0,.77-.01,1.54-.02,2.29-.02,2.26-.05,4.6,.04,6.89,.1,2.57-.91,4.85-2.79,6.25-1.58,1.18-3.62,1.58-5.55,1.12-.01,.63-.02,1.22,.02,1.81,.21,2.6-.73,4.92-2.59,6.36-1.65,1.29-3.84,1.69-6.09,1.15-.84,2.06-2.31,3.44-4.39,4.13-.06,.04-.18,.17-.26,.26-.07,.07-.13,.14-.2,.21-.49,.49-.99,.98-1.48,1.48-1.61,1.61-3.28,3.27-4.91,4.93-2.07,2.11-4.42,3.24-7.17,3.45-1.7,.13-3.14,.87-4.39,2.26,1.42,2.67,1.1,4.2-1.2,6.51-2.23,2.24-4.63,4.65-7.05,7.05-2.19,2.18-4.7,2.17-6.89-.01-4.26-4.25-8.57-8.58-12.75-12.77l-1.58-1.58s-.11-.1-.17-.15c-.29-.25-.69-.6-.73-1.14v-.06c-.06-.74-.12-1.66,.3-2.39,.32-.57,.84-.93,1.47-1.03,.54-.09,1.14,.03,1.69,.34,.44,.25,.78,.59,1.08,.9l.05,.05c5.54,5.53,9.75,9.76,13.68,13.71,.08,.08,.16,.17,.23,.26l7.02-7.09-21.47-21.37-7.05,7.02s.02,.02,.04,.03c.57,.52,1.21,1.12,1.83,1.73,.67,.67,1.03,1.42,1.03,2.17,0,.64-.26,1.24-.75,1.72-.52,.51-1.13,.77-1.79,.76-.52-.01-1.3-.21-2.11-1.09-.87-.95-1.7-1.95-2.51-2.91-.35-.42-.7-.83-1.05-1.25l-.2-.23v-2.43l.18-.23c.21-.27,.42-.55,.63-.83,.47-.63,.96-1.29,1.53-1.88,1.56-1.62,3.17-3.22,4.73-4.77,.58-.58,1.16-1.16,1.74-1.74,2.15-2.15,4-2.44,6.42-.93,1.12-1.15,1.69-2.46,1.74-3.99,.02-.79,.03-1.59,.03-2.37,0-1.3,.01-2.64,.1-3.96,.16-2.36,1.15-4.48,2.96-6.31,2.51-2.54,5.08-5.1,7.56-7.57l.38-.38c1.42-1.42,3.18-2.33,5.35-2.76-.65-1.77-.63-3.53-.62-5.25,0-.29,0-.58,0-.87,0-1.13,0-2.25,0-3.38,0-1.63,0-3.32,0-4.98-.01-2.91,1.03-5.47,3.1-7.6,.54-.56,1.1-1.11,1.64-1.65,.6-.6,1.23-1.22,1.83-1.84,1.17-1.21,1.74-2.61,1.73-4.25-.04,0-.08-.02-.12-.03-2.29-.48-3.72-2.16-3.75-4.39-.05-4.29-.05-8.04,0-11.48,.04-2.51,1.98-4.4,4.52-4.41,10.81-.02,21.56-.02,31.97,0,2.6,0,4.5,1.9,4.52,4.52,.02,2.4,.02,4.85,.01,7.21,0,1,0,2,0,2.99,0,3.36-.75,4.55-3.72,5.56-.13,1.83,.31,3.3,1.33,4.5,1.92,2.23,2.84,4.9,2.81,8.15-.05,6.3-.02,12.51,0,17.75,0,.18,.06,.39,.13,.61,.18-.07,.36-.14,.53-.21,.9-.35,1.75-.69,2.66-.88,3.3-.7,6.34,.16,8.78,2.49,2.84,2.71,5.62,5.56,8.32,8.32l.13,.13c1.45,1.49,2.36,3.41,2.69,5.71,1.12,.21,2.83,.79,2.61,2.77-.07,.65-.46,2.05-2.48,2.25-.17,2.52,.37,4.25,1.74,5.6,2.7-1.54,4.26-1.24,6.62,1.12,.68,.69,1.37,1.37,2.06,2.06,1.64,1.64,3.33,3.33,4.99,5,2.14,2.16,2.13,4.73-.03,6.89-7.58,7.6-14.98,15.02-22.02,22.06-1.14,1.14-2.33,1.72-3.53,1.72h0ZM10.14,100.11s.12,.11,.17,.16c.08,.07,.17,.15,.25,.23l1.58,1.58c4.18,4.19,8.49,8.52,12.75,12.77,1.55,1.55,2.99,1.55,4.54,0,2.42-2.4,4.81-4.81,7.04-7.05,1.91-1.92,2.01-2.67,.65-5.02l-.28-.49,.36-.44c1.61-2.01,3.6-3.12,5.92-3.3,2.34-.18,4.34-1.14,6.11-2.96,1.63-1.66,3.3-3.33,4.92-4.94,.49-.49,.98-.98,1.48-1.47,.05-.05,.1-.1,.15-.16,.23-.25,.52-.57,.96-.71,1.82-.6,3-1.84,3.61-3.82l.25-.81,.81,.27c2.02,.68,3.91,.45,5.32-.66,1.41-1.1,2.12-2.89,1.96-4.92-.06-.68-.04-1.37-.03-2.03,0-.3,.01-.59,.01-.89v-.83h.83c.07,0,.12,0,.17,0,.15,0,.33-.02,.55,.05,1.6,.55,3.34,.28,4.66-.7,1.43-1.06,2.2-2.83,2.12-4.85-.09-2.33-.07-4.69-.04-6.97,0-.96,.02-1.95,.02-2.92,0-.26,.02-.52,.04-.81,.01-.14,.02-.3,.03-.48l.11-1.78,1.29,1.23c.15,.14,.28,.27,.41,.38,.24,.22,.44,.42,.64,.62,.45,.45,.89,.9,1.34,1.35,.88,.89,1.79,1.81,2.7,2.69,.25,.24,.53,.37,.8,.37,.21,0,.41-.09,.57-.26,.46-.48,.2-.99-.11-1.34-.2-.22-.41-.44-.64-.66-.1-.09-.19-.19-.29-.28-.84-.84-1.68-1.69-2.53-2.55l-1.53-1.54,.96-.53c2.65-1.48,5.66-1.07,7.85,1.06,.94,.91,1.86,1.86,2.76,2.77,1.34,1.36,2.72,2.77,4.14,4.07,2.24,2.07,3.25,4.51,3.09,7.46-.1,1.84-.07,3.44,.09,4.9,.23,2.12,1.26,4.06,3.06,5.76l.62,.59-18.88,18.8-.58-.69c-1.84-2.18-4.2-3.4-7.02-3.62-1.75-.14-3.32-.89-4.65-2.23-1.48-1.49-3.06-3.06-5.11-5.08-.39-.39-.77-.59-1.08-.59-.19,0-.36,.09-.53,.27-.21,.22-.6,.63,.32,1.54,1.27,1.28,2.58,2.57,3.84,3.82l1.36,1.35c1.66,1.64,3.54,2.53,5.77,2.7,2.45,.19,4.49,1.33,6.07,3.39l.37,.48-.35,.5c-1.32,1.87-1.24,2.98,.33,4.57,2.42,2.44,4.83,4.84,7.28,7.3,.82,.82,1.6,1.23,2.35,1.23h0c.74,0,1.54-.42,2.36-1.24,7.03-7.04,14.44-14.46,22.01-22.06,1.53-1.53,1.54-3.02,.02-4.55-1.66-1.67-3.35-3.36-4.98-5-.69-.69-1.37-1.37-2.06-2.06-1.96-1.96-2.72-2.05-5.1-.56l-.51,.32-.46-.38c-2.96-2.47-2.95-5.85-2.69-8.17l.09-.77,.78,.04c1.46,.07,1.52-.51,1.55-.79,.04-.32,.09-.8-1.81-1.03l-.66-.08-.06-.66c-.22-2.24-.97-3.99-2.31-5.36l-.13-.13c-2.68-2.75-5.45-5.59-8.27-8.27-2.06-1.96-4.51-2.66-7.29-2.07-.77,.16-1.52,.46-2.4,.8-.43,.17-.88,.34-1.37,.52l-.83,.3-.24-.85c-.04-.14-.1-.29-.15-.45-.16-.43-.33-.91-.34-1.45-.03-5.25-.06-11.46,0-17.77,.02-2.83-.77-5.14-2.41-7.06-1.42-1.66-1.99-3.78-1.67-6.31l.07-.53,.51-.16c2.73-.85,3.08-1.31,3.08-4.14,0-1,0-2,0-3,0-2.36,0-4.8-.01-7.19-.01-1.72-1.17-2.87-2.87-2.87-10.4-.02-21.16-.02-31.96,0-1.64,0-2.84,1.17-2.87,2.77-.05,3.42-.05,7.16,0,11.44,.02,1.45,.9,2.46,2.43,2.78,.19,.04,.37,.08,.54,.13,.08,.02,.16,.04,.24,.06l.58,.14,.05,.6c.2,2.37-.53,4.44-2.17,6.13-.61,.63-1.24,1.26-1.85,1.87-.54,.53-1.09,1.08-1.62,1.63-1.78,1.83-2.64,3.94-2.63,6.43,0,1.67,0,3.36,0,4.99,0,1.12,0,2.25,0,3.37,0,.3,0,.6,0,.89-.02,1.93-.04,3.76,.89,5.49l.57,1.07-1.2,.14c-2.33,.28-4.07,1.06-5.47,2.46l-.38,.38c-2.48,2.47-5.05,5.03-7.55,7.56-1.52,1.54-2.36,3.31-2.49,5.25-.08,1.27-.09,2.59-.1,3.86,0,.79,0,1.6-.03,2.4-.06,2.18-.99,4.08-2.76,5.63l-.49,.43-.53-.38c-2.06-1.46-3.11-1.39-4.86,.36-.58,.58-1.16,1.16-1.74,1.74-1.56,1.55-3.16,3.15-4.71,4.75-.5,.52-.94,1.1-1.4,1.72-.16,.21-.32,.42-.48,.63v1.24c.29,.34,.57,.68,.86,1.03,.79,.95,1.62,1.93,2.46,2.86,.32,.35,.65,.55,.92,.55,.19,0,.39-.09,.58-.28,.17-.17,.25-.35,.25-.54,0-.3-.19-.65-.53-.99-.6-.59-1.23-1.17-1.79-1.69-.24-.22-.47-.43-.68-.63l-.63-.59,9.44-9.41,23.82,23.7-9.56,9.65-.58-.77c-.07-.1-.14-.2-.22-.31-.14-.2-.28-.4-.42-.55-3.92-3.94-8.14-8.17-13.68-13.7l-.05-.05c-.25-.25-.49-.49-.73-.63-.21-.12-.43-.17-.6-.15-.13,.02-.22,.09-.29,.22-.16,.28-.13,.9-.09,1.38Zm-.05-.05h0Zm81.66,14.11l-9.17-9.13,23.86-23.72,9.14,9.16-23.83,23.7Zm-6.81-9.13l6.81,6.79,21.48-21.36-6.79-6.81-21.5,21.38Zm-49.44-3.94l-18.92-18.84,.66-.59c2.4-2.14,3.44-5.02,3.2-8.79-.03-.43-.02-.85-.01-1.26,0-.36,.01-.71,0-1.04-.14-2.61,.76-4.79,2.74-6.67,1.42-1.35,2.82-2.77,4.18-4.14,.99-1,2.01-2.03,3.03-3.04,2.25-2.2,5.36-2.61,7.93-1.03l.9,.55-.75,.74c-.41,.4-.81,.8-1.21,1.2-.91,.9-1.86,1.84-2.77,2.76-.4,.41-.63,.79-.63,1.08,0,.06,0,.26,.27,.53,.42,.41,.96,.29,1.63-.38,1.06-1.06,2.13-2.15,3.27-3.29,.51-.52,1.04-1.05,1.6-1.61l1.42-1.43v3.47c0,1.95,0,3.9,0,5.85,0,4.54,0,9.24,0,13.85,0,1.67,.61,3.13,1.71,4.1,1.05,.94,2.48,1.36,4.03,1.18,.34-.04,.68-.13,.99-.21,.14-.04,.26-.07,.37-.1l.53-.12,3.61,4.91-.49,.5c-.5,.52-1.01,1.05-1.52,1.59-1.37,1.43-2.78,2.92-4.28,4.33-.81,.77-2,1.32-3.03,1.42-3.43,.31-6,1.55-7.85,3.78l-.58,.7Zm-16.52-18.79l16.43,16.36c2.08-2.16,4.83-3.37,8.37-3.7,.66-.06,1.5-.46,2.05-.97,1.47-1.38,2.87-2.85,4.22-4.27,.35-.37,.7-.73,1.05-1.09l-2.12-2.88c-.3,.08-.65,.16-1.02,.2-2.02,.23-3.91-.34-5.32-1.59-1.45-1.29-2.25-3.19-2.26-5.33-.02-4.62-.01-9.32,0-13.86,0-1.76,0-3.52,0-5.27-.06,.06-.12,.12-.18,.18-1.14,1.15-2.21,2.23-3.27,3.3-1.32,1.32-2.87,1.47-3.97,.38-.5-.49-.76-1.08-.76-1.7,0-.76,.37-1.52,1.11-2.26,.92-.92,1.87-1.86,2.78-2.77,.12-.12,.25-.24,.37-.37-1.67-.56-3.5-.11-4.91,1.27-1.01,.99-2.03,2.02-3.01,3.02-1.37,1.38-2.78,2.82-4.22,4.18-1.63,1.54-2.33,3.25-2.22,5.37,.02,.4,.01,.79,0,1.16,0,.39-.02,.76,0,1.12,.25,3.97-.77,7.1-3.12,9.53Zm36.39,4.37c-1.52,0-2.77-.96-3.11-2.4-.15-.62-.16-1.24-.16-1.78,0-8.42,0-16.84,0-25.26v-5.38c0-.21,0-.42,0-.62-.02-1.42-.65-1.41-.88-1.41-.22,0-.89,.01-.89,1.43,0,5.92,0,11.84,0,17.75,0,3.06,0,6.11,0,9.17v.24c0,.39,0,.8-.04,1.21-.15,1.61-1.31,2.78-2.87,2.92-1.67,.15-3.05-.82-3.45-2.42-.14-.55-.15-1.11-.15-1.67,0-8.04,0-16.07,0-24.11v-5.91c0-.1,0-.19,0-.29,0-.24,0-.47,0-.7-.04-.61-.31-.93-.82-.95-.27-.01-.5,.06-.66,.21-.16,.15-.26,.38-.27,.67-.04,1.05-.04,2.12-.03,3.16,0,.54,0,1.08,0,1.62,0,.29-.02,.58-.04,.88,0,.15-.02,.31-.03,.48l-.05,1.07-1.03-.32c-2.76-.87-4.63-3.23-4.67-5.87-.06-3.77-.04-7.5,0-11.93,.01-1.7,.71-3.26,2.07-4.65,.92-.94,1.97-2.01,3.01-3.02,2.16-2.09,3.21-4.45,3.21-7.23,0-.19,.03-.37,.05-.52v-.05c.05-.26,.18-.41,.26-.51,.03-.03,.06-.07,.11-.14l.25-.31h.4c.26,0,.52,0,.8,0,.65,0,1.32,0,2,0,.49,0,1.32-.14,1.32-.9,0-.71-.71-.87-1.31-.87-1.1,0-2.21,0-3.29,0-.77,0-1.54,0-2.32,0-.3,0-.59-.02-.9-.04-.15,0-.31-.02-.48-.03l-.79-.04V4.86h34.09v13.27l-.77,.05c-.12,0-.25,.02-.37,.03-.31,.03-.63,.06-.97,.06-2.91,0-5.82,0-8.73,0-2.02,0-4.03,0-6.05,0h-.22c-.32,0-.63,0-.89,.04-.12,.02-.74,.16-.66,.63,.05,.28,.36,.71,.81,1.1,.11,.02,.37,.01,.52,0,.11,0,.22,0,.32,0,2.85,0,5.74,0,8.55,0h4.83s0,.83,0,.83c0,.22,0,.42,0,.62,0,.4,0,.77,0,1.14,.04,2.14,.73,4.02,2.06,5.59,1.41,1.67,2.09,3.64,2.09,6.02-.02,7.26-.02,14.63-.02,21.77,0,4.31,0,8.63,0,12.94,0,.62-.03,1.36-.24,2.05-.43,1.41-1.83,2.29-3.39,2.13-1.46-.15-2.59-1.23-2.8-2.68-.07-.48-.07-.96-.07-1.41v-.08c0-2.2,0-4.41,0-6.61,0-3.56,0-7.13,0-10.69,0-.41,0-.87-.11-1.24-.08-.27-.24-.55-.83-.52-.57,.03-.71,.31-.77,.61-.06,.31-.06,.66-.06,1.04v.16c0,6.43,0,12.87,0,19.3v7.16c0,.09,0,.18,0,.27,0,.3,0,.62-.02,.94-.16,1.95-1.51,3.22-3.36,3.18-1.85-.05-3.09-1.43-3.09-3.42,0-6.08,0-12.27,0-18.25v-6.84c0-.3,0-.6,0-.9,0-.71,0-1.45-.01-2.16-.02-.51-.18-1.12-.86-1.13-.26,0-.47,.07-.63,.22-.2,.19-.31,.51-.32,.9-.03,2.58-.02,5.21-.02,7.75v1.29c.01,3.34,.02,6.69,.03,10.03,.01,4.14,.02,8.28,.03,12.42,0,.52,0,1.08-.11,1.64-.29,1.5-1.52,2.53-3.06,2.56-.03,0-.06,0-.08,0Zm-4.14-38.52c1.21,0,2.5,.8,2.53,3.05,0,.22,0,.43,0,.65v.28s0,5.1,0,5.1c0,8.42,0,16.84,0,25.26,0,.44,0,.95,.11,1.4,.17,.71,.76,1.14,1.54,1.12,.76-.02,1.33-.48,1.47-1.22,.08-.41,.09-.88,.08-1.32,0-4.14-.02-8.28-.03-12.42,0-3.34-.02-6.69-.02-10.03v-1.29c0-2.55-.02-5.18,.01-7.77,0-.83,.3-1.57,.82-2.08,.48-.46,1.12-.71,1.82-.69,1.43,.03,2.43,1.13,2.49,2.74,.03,.75,.02,1.5,.02,2.23,0,.3,0,.6,0,.89v6.84c0,5.98,0,12.16,0,18.25,0,1.09,.54,1.74,1.48,1.77,.96,.03,1.56-.58,1.65-1.66,.02-.25,.02-.51,.02-.79,0-.1,0-.19,0-.29v-7.16c0-6.43,0-12.87,0-19.3v-.16c0-.42,0-.9,.09-1.38,.24-1.16,1.1-1.88,2.32-1.94,1.23-.06,2.17,.58,2.5,1.71,.17,.59,.18,1.21,.18,1.71,0,3.56,0,7.13,0,10.69,0,2.2,0,4.41,0,6.61v.08c0,.41,0,.81,.05,1.17,.1,.69,.64,1.2,1.33,1.27,.78,.08,1.44-.31,1.64-.96,.15-.48,.17-1.06,.17-1.56,0-4.31,0-8.63,0-12.94,0-7.14,0-14.52,.02-21.77,0-2-.53-3.57-1.69-4.94-1.58-1.87-2.4-4.1-2.45-6.63,0-.32,0-.63,0-.96h-3.16c-2.8,0-5.7,0-8.55,0-.08,0-.17,0-.26,0-.51,.02-1.14,.04-1.61-.37-.56-.48-1.27-1.24-1.42-2.13-.2-1.22,.64-2.28,2-2.53,.42-.08,.83-.07,1.2-.07h.2c2.02,0,4.03,0,6.05,0,2.91,0,5.82,0,8.73,0,.15,0,.3,0,.45-.02V6.52h-30.77v10.08c.18,.01,.35,.02,.52,.02,.77,0,1.54,0,2.31,0,1.08,0,2.21,0,3.31,0,1.8,.02,2.96,1.01,2.96,2.54,0,1.49-1.19,2.52-2.95,2.55-.7,.01-1.38,0-2.04,0-.07,0-.13,0-.2,0-.03,3.15-1.28,5.94-3.72,8.29-1.03,.99-2.06,2.05-2.98,2.98-1.06,1.09-1.58,2.23-1.59,3.5-.04,4.42-.05,8.14,0,11.89,.02,1.59,.99,3.05,2.49,3.88,0-.03,0-.07,0-.1,0-.53,0-1.07,0-1.6,0-1.06-.01-2.15,.03-3.24,.03-.73,.31-1.37,.8-1.82,.49-.45,1.15-.68,1.86-.65,1.37,.06,2.31,1.05,2.4,2.51,.02,.28,.01,.55,.01,.81,0,.09,0,.18,0,.27v5.91c0,8.04,0,16.07,0,24.11,0,.48,0,.9,.1,1.28,.2,.79,.84,1.24,1.69,1.16,.77-.07,1.29-.62,1.37-1.43,.03-.33,.03-.68,.03-1.05v-.25c0-3.06,0-6.11,0-9.17,0-5.92,0-11.84,0-17.75,0-2.26,1.31-3.08,2.53-3.09,.01,0,.02,0,.04,0Zm5.58-28.13h0Z"/></g><g><path class="cls-1" d="M27.7,103.73c.97,.03,1.8,.92,1.77,1.89-.03,1-.87,1.78-1.88,1.75-1.01-.03-1.8-.86-1.76-1.86,.03-.98,.91-1.81,1.88-1.78Z"/><path class="cls-1" d="M27.64,108.2s-.05,0-.07,0c-.71-.02-1.37-.31-1.86-.83-.48-.51-.74-1.18-.71-1.89,.02-.69,.34-1.37,.86-1.86,.52-.48,1.2-.75,1.87-.72h0c1.44,.05,2.62,1.31,2.57,2.75-.05,1.42-1.23,2.55-2.66,2.55Zm0-3.64c-.23,0-.47,.1-.66,.28-.2,.19-.33,.45-.33,.7,0,.26,.09,.51,.26,.7,.18,.19,.43,.3,.69,.31,.56,.02,1.01-.4,1.03-.95,.02-.51-.45-1.01-.97-1.03h0s-.02,0-.03,0Z"/></g><g><path class="cls-1" d="M94.96,38.11c-.93,.04-1.77-.77-1.78-1.72-.01-.93,.71-1.68,1.64-1.71,.97-.03,1.78,.73,1.79,1.69,0,.9-.75,1.7-1.65,1.74Z"/><path class="cls-1" d="M94.9,38.94c-.63,0-1.26-.26-1.74-.71-.51-.48-.8-1.15-.81-1.83-.02-1.38,1.05-2.5,2.44-2.55,.7-.02,1.36,.23,1.87,.71,.5,.48,.77,1.11,.78,1.8,.01,1.34-1.11,2.52-2.44,2.57h0s-.06,0-.09,0Zm-.03-3.43s-.02,0-.03,0c-.47,.02-.84,.4-.83,.87,0,.23,.11,.47,.29,.64,.18,.17,.41,.26,.62,.25,.45-.02,.85-.45,.85-.9,0-.23-.1-.45-.27-.61-.17-.16-.39-.25-.63-.25Z"/></g><g><path class="cls-1" d="M32,25.62c0,.94-.81,1.74-1.74,1.73-.93-.02-1.73-.85-1.69-1.78,.04-.9,.79-1.63,1.7-1.65,.96-.02,1.74,.74,1.73,1.7Z"/><path class="cls-1" d="M30.3,28.18s-.03,0-.05,0c-.67-.01-1.32-.31-1.8-.81-.47-.5-.73-1.17-.7-1.83,.05-1.35,1.15-2.42,2.51-2.45,.69-.01,1.34,.24,1.83,.72,.49,.48,.75,1.12,.75,1.81,0,.68-.29,1.34-.78,1.82-.48,.47-1.1,.73-1.75,.73Zm.01-3.43s-.01,0-.02,0c-.47,0-.86,.39-.88,.85,0,.22,.08,.45,.25,.63,.17,.18,.4,.29,.62,.29,.22,0,.44-.09,.61-.26,.18-.17,.28-.41,.28-.64h0c0-.24-.09-.46-.25-.62-.16-.16-.38-.25-.61-.25Z"/></g><g><path class="cls-1" d="M17.08,39.57c.96,.02,1.7,.84,1.65,1.82-.05,.94-.78,1.62-1.73,1.61-.92-.02-1.68-.77-1.68-1.68,0-.93,.85-1.77,1.76-1.75Z"/><path class="cls-1" d="M17.04,43.83s-.03,0-.05,0c-1.37-.02-2.49-1.15-2.5-2.5,0-.67,.29-1.34,.79-1.83,.5-.49,1.17-.76,1.82-.75,.68,.02,1.31,.3,1.78,.8,.48,.51,.72,1.18,.68,1.89-.07,1.37-1.15,2.39-2.53,2.4Zm.01-3.43c-.21,0-.43,.1-.6,.27-.19,.18-.3,.42-.29,.64,0,.45,.4,.84,.87,.85,0,0,.01,0,.02,0,.49,0,.85-.33,.87-.82,.01-.25-.07-.49-.24-.68-.16-.17-.37-.27-.6-.27h0s-.01,0-.02,0Z"/></g><g><path class="cls-1" d="M57.21,107.31c-.01,.93-.73,1.65-1.67,1.67-.97,.01-1.77-.78-1.75-1.72,.02-.9,.8-1.67,1.69-1.69,.96-.02,1.74,.78,1.73,1.74Z"/><path class="cls-1" d="M55.52,109.81c-.68,0-1.34-.28-1.83-.76-.49-.49-.75-1.13-.73-1.8,.02-1.34,1.17-2.48,2.51-2.5,.68-.01,1.33,.25,1.82,.74,.5,.49,.76,1.15,.76,1.84-.02,1.37-1.11,2.47-2.49,2.49-.01,0-.02,0-.04,0Zm-.01-3.41h-.01c-.45,0-.87,.42-.87,.88,0,.22,.09,.43,.25,.6,.18,.18,.42,.27,.66,.27,.49,0,.85-.36,.85-.85h0c0-.24-.09-.47-.27-.65-.17-.16-.38-.26-.61-.26Z"/></g><g><path class="cls-1" d="M20.65,37.15c-.89,0-1.68-.76-1.71-1.67-.03-.95,.75-1.76,1.71-1.76,.92,0,1.69,.73,1.71,1.64,.03,.94-.78,1.78-1.72,1.79Z"/><path class="cls-1" d="M20.63,37.99c-1.33,0-2.48-1.13-2.53-2.47-.02-.68,.23-1.34,.71-1.83,.48-.5,1.15-.78,1.83-.78h0c1.36,0,2.5,1.1,2.54,2.45,.02,.67-.25,1.34-.73,1.84-.48,.5-1.14,.79-1.81,.8h-.02Zm.02-3.43h0c-.24,0-.47,.1-.64,.28-.17,.17-.25,.4-.25,.63,.01,.45,.43,.86,.87,.86h0c.22,0,.45-.11,.63-.29,.18-.18,.27-.42,.27-.64-.01-.46-.41-.83-.88-.83Z"/></g><g><path class="cls-1" d="M98.46,40.9c.95,0,1.74,.82,1.72,1.77-.02,.92-.79,1.66-1.7,1.66-.97,0-1.73-.8-1.7-1.77,.02-.93,.77-1.66,1.69-1.66Z"/><path class="cls-1" d="M98.48,45.16h0c-.69,0-1.33-.27-1.81-.77-.48-.5-.74-1.16-.72-1.85,.03-1.39,1.14-2.47,2.52-2.47h0c.68,0,1.32,.28,1.81,.77,.48,.5,.75,1.17,.74,1.85-.03,1.36-1.16,2.47-2.53,2.47Zm-.02-3.43c-.47,0-.85,.37-.86,.85,0,.25,.08,.48,.25,.66,.16,.17,.39,.26,.63,.26h0c.46,0,.86-.39,.87-.85,0-.24-.09-.47-.26-.65-.17-.18-.39-.27-.62-.27h0Z"/></g><g><path class="cls-1" d="M16.09,47.7c-.03,.96-.85,1.73-1.81,1.68-.92-.05-1.62-.81-1.6-1.75,.02-.98,.83-1.74,1.79-1.68,.91,.05,1.64,.85,1.62,1.75Z"/><path class="cls-1" d="M14.38,50.21s-.09,0-.13,0c-1.37-.07-2.41-1.21-2.38-2.6,.02-.71,.31-1.36,.82-1.84,.5-.46,1.16-.7,1.84-.66,1.36,.08,2.43,1.25,2.4,2.61-.02,.69-.31,1.34-.82,1.81-.48,.44-1.08,.68-1.72,.68Zm0-3.44c-.21,0-.41,.08-.57,.22-.18,.17-.28,.4-.29,.65-.01,.49,.34,.88,.81,.9,.24,.01,.47-.07,.64-.24,.18-.17,.28-.39,.29-.63h0c.01-.45-.38-.88-.83-.9-.02,0-.03,0-.05,0Z"/></g><g><path class="cls-1" d="M62.33,108.76c-.93-.01-1.67-.74-1.69-1.66-.02-.95,.79-1.77,1.74-1.75,.89,.01,1.67,.79,1.69,1.69,.02,.96-.77,1.74-1.74,1.73Z"/><path class="cls-1" d="M62.35,109.59s-.02,0-.03,0h0c-1.38-.02-2.48-1.1-2.51-2.48-.01-.68,.26-1.35,.75-1.85,.49-.49,1.15-.77,1.82-.75,1.33,.02,2.48,1.17,2.51,2.5,.01,.68-.24,1.33-.73,1.82-.48,.49-1.13,.76-1.83,.76Zm-.01-1.66s0,0,.01,0c.25,0,.48-.09,.65-.27,.16-.17,.25-.38,.25-.61,0-.45-.43-.87-.88-.88-.23,0-.45,.09-.62,.27-.18,.18-.27,.41-.27,.64,0,.48,.38,.84,.87,.85h0Z"/></g><g><path class="cls-1" d="M84.99,24.25c.93-.02,1.77,.81,1.76,1.74,0,.91-.76,1.66-1.68,1.67-.98,.02-1.76-.75-1.75-1.72,0-.92,.75-1.68,1.67-1.7Z"/><path class="cls-1" d="M85.03,28.5c-.68,0-1.32-.26-1.8-.73-.49-.48-.75-1.13-.74-1.82,.01-1.36,1.13-2.49,2.48-2.52,.67-.02,1.34,.26,1.83,.75,.5,.49,.78,1.16,.77,1.82-.01,1.35-1.13,2.47-2.5,2.5-.02,0-.03,0-.05,0Zm-.02-3.42s0,0-.01,0h0c-.47,0-.85,.4-.85,.87,0,.24,.09,.46,.25,.63,.17,.17,.4,.26,.65,.25,.47,0,.86-.39,.87-.85,0-.22-.1-.45-.28-.63-.18-.17-.4-.27-.62-.27Z"/></g><g><path class="cls-1" d="M90.35,29.06c.95,0,1.73,.79,1.72,1.76-.01,.95-.72,1.65-1.67,1.65-.96,0-1.77-.8-1.75-1.74,.02-.89,.82-1.67,1.71-1.68Z"/><path class="cls-1" d="M90.38,33.31c-.68,0-1.35-.28-1.84-.78-.48-.49-.75-1.15-.73-1.81,.03-1.34,1.19-2.48,2.53-2.49h.02c.67,0,1.3,.26,1.78,.74,.49,.5,.76,1.16,.75,1.86-.02,1.4-1.09,2.46-2.5,2.47h-.02Zm-.02-3.42c-.44,0-.87,.43-.88,.87,0,.22,.09,.43,.25,.6,.18,.18,.42,.28,.66,.28,.5,0,.84-.34,.85-.84,0-.25-.09-.49-.27-.67-.16-.16-.38-.26-.6-.26h0Z"/></g><g><path class="cls-1" d="M100.98,47.61c.93-.01,1.76,.81,1.74,1.76-.01,.91-.76,1.66-1.69,1.67-1,.01-1.73-.72-1.72-1.73,.01-.93,.74-1.68,1.66-1.69Z"/><path class="cls-1" d="M101.01,51.87c-.69,0-1.33-.26-1.79-.72-.48-.48-.74-1.14-.73-1.85,.02-1.39,1.1-2.49,2.48-2.51h0c.67-.02,1.33,.27,1.82,.76,.5,.5,.78,1.17,.77,1.84-.02,1.35-1.14,2.47-2.51,2.49-.01,0-.02,0-.04,0Zm-.02-3.42c-.47,0-.84,.39-.84,.87,0,.27,.08,.49,.24,.66,.16,.16,.38,.24,.63,.24,.47,0,.86-.39,.87-.85,0-.23-.1-.46-.28-.64-.18-.18-.4-.27-.62-.27h0Z"/></g><g><path class="cls-1" d="M14.4,54.34c0,.95-.68,1.68-1.62,1.71-.98,.03-1.78-.72-1.78-1.69,0-.94,.83-1.77,1.76-1.74,.91,.03,1.64,.79,1.64,1.72Z"/><path class="cls-1" d="M12.71,56.88c-.67,0-1.3-.25-1.78-.71-.49-.48-.76-1.12-.77-1.8,0-.68,.29-1.35,.8-1.84,.5-.48,1.16-.75,1.82-.73,1.36,.04,2.44,1.16,2.45,2.54,0,1.4-1.03,2.5-2.42,2.54-.03,0-.06,0-.09,0Zm0-3.43c-.21,0-.42,.09-.59,.26-.19,.18-.29,.42-.29,.65,0,.23,.09,.45,.26,.61,.18,.17,.41,.26,.67,.25,.49-.02,.82-.37,.82-.88h0c0-.48-.38-.88-.84-.89,0,0-.01,0-.02,0Z"/></g><g><path class="cls-1" d="M102.41,58.09c-.95-.02-1.7-.82-1.67-1.78,.03-.91,.78-1.64,1.68-1.65,.94-.01,1.74,.78,1.74,1.73,0,.95-.8,1.72-1.75,1.7Z"/><path class="cls-1" d="M102.45,58.92s-.04,0-.06,0c-.68-.01-1.32-.3-1.79-.79-.47-.5-.72-1.15-.69-1.85,.05-1.36,1.15-2.44,2.5-2.46,.68,0,1.32,.26,1.81,.74,.49,.48,.77,1.15,.76,1.82,0,.68-.27,1.32-.77,1.8-.48,.47-1.11,.73-1.78,.73Zm0-3.43s0,0,0,0c-.46,0-.85,.39-.86,.85,0,.24,.08,.47,.24,.65,.16,.17,.38,.27,.61,.27h0c.24,0,.46-.09,.64-.26,.17-.17,.27-.39,.27-.62,0-.24-.1-.46-.27-.64-.17-.17-.39-.26-.61-.26Z"/></g><g><path class="cls-1" d="M14.17,68.09c0,.95-.67,1.68-1.61,1.71-.98,.04-1.77-.71-1.79-1.68-.01-.94,.82-1.77,1.75-1.74,.9,.02,1.64,.79,1.65,1.71Z"/><path class="cls-1" d="M12.48,70.63c-.67,0-1.29-.25-1.77-.7-.49-.47-.77-1.11-.78-1.8,0-.68,.28-1.35,.78-1.84,.5-.49,1.17-.76,1.83-.74,1.36,.04,2.44,1.15,2.45,2.53h0c.01,1.4-1.02,2.5-2.41,2.55-.03,0-.07,0-.1,0Zm0-3.43c-.21,0-.43,.1-.6,.27-.18,.18-.28,.41-.28,.64,0,.24,.1,.46,.26,.62,.17,.17,.41,.25,.66,.24,.49-.02,.82-.37,.81-.88h0c0-.48-.38-.88-.84-.89,0,0-.01,0-.02,0Z"/></g><g><path class="cls-1" d="M13.92,76.58c-.95,0-1.71-.81-1.68-1.79,.03-.95,.73-1.64,1.69-1.63,.97,0,1.75,.8,1.71,1.76-.04,.89-.84,1.67-1.72,1.67Z"/><path class="cls-1" d="M13.93,77.41h-.01c-.67,0-1.31-.27-1.78-.76-.49-.5-.75-1.17-.73-1.88,.04-1.39,1.12-2.44,2.51-2.44h0c.7,0,1.36,.28,1.84,.79,.48,.5,.72,1.15,.7,1.83-.05,1.34-1.22,2.46-2.54,2.46Zm0-1.66h0c.44,0,.86-.42,.88-.87,0-.23-.08-.45-.24-.62-.17-.18-.4-.27-.65-.28h0c-.51,0-.84,.32-.85,.82,0,.26,.09,.5,.26,.68,.16,.17,.37,.26,.6,.26h0Z"/></g><g><path class="cls-1" d="M75.5,105.28c-.91-.03-1.63-.8-1.63-1.72,0-.97,.8-1.74,1.76-1.7,.91,.03,1.66,.82,1.66,1.71,0,.93-.85,1.74-1.79,1.71Z"/><path class="cls-1" d="M75.55,106.11s-.05,0-.08,0c-1.35-.05-2.44-1.19-2.43-2.55,0-.7,.28-1.35,.78-1.83,.5-.48,1.15-.72,1.85-.7,1.36,.05,2.46,1.19,2.46,2.55,0,.67-.29,1.32-.79,1.8-.48,.47-1.13,.73-1.78,.73Zm.02-3.42c-.23,0-.44,.08-.6,.24-.17,.16-.27,.39-.27,.63,0,.47,.37,.87,.83,.89h0c.23,.01,.47-.09,.65-.27,.18-.17,.28-.4,.28-.62,0-.45-.4-.86-.86-.88-.01,0-.02,0-.03,0Z"/></g><g><path class="cls-1" d="M69.08,107.54c-.89,0-1.68-.78-1.71-1.67-.03-.96,.75-1.74,1.73-1.74,.95,0,1.66,.7,1.68,1.65,.02,.97-.75,1.77-1.71,1.77Z"/><path class="cls-1" d="M69.08,108.37c-1.33,0-2.5-1.14-2.54-2.48-.02-.68,.23-1.33,.71-1.82,.49-.5,1.14-.78,1.85-.78h0c1.4,0,2.48,1.06,2.51,2.46,.02,.7-.24,1.36-.73,1.85-.48,.49-1.12,.76-1.81,.76h0Zm.02-3.41c-.25,0-.49,.1-.66,.27-.16,.17-.25,.38-.24,.61,.01,.45,.44,.87,.88,.87h0c.23,0,.45-.09,.62-.26,.17-.17,.26-.41,.26-.65-.01-.5-.35-.84-.85-.84h0Z"/></g><g><path class="cls-1" d="M12.05,59.49c.94-.02,1.75,.8,1.74,1.75-.01,.93-.74,1.66-1.67,1.68-.95,.02-1.67-.66-1.72-1.61-.04-.98,.7-1.8,1.65-1.82Z"/><path class="cls-1" d="M12.08,63.75c-1.37,0-2.45-1.03-2.51-2.4-.03-.71,.21-1.38,.69-1.89,.47-.5,1.09-.78,1.77-.79h0c.66-.02,1.33,.26,1.82,.75,.5,.49,.77,1.17,.76,1.85-.02,1.37-1.11,2.47-2.49,2.49-.02,0-.03,0-.05,0Zm-.01-3.43c-.22,0-.43,.1-.59,.27-.17,.18-.26,.42-.25,.68,.02,.5,.37,.83,.87,.82,.49,0,.85-.37,.86-.86,0-.23-.1-.47-.28-.65-.17-.17-.4-.27-.62-.26h0Z"/></g><g><path class="cls-1" d="M42.07,102.98c.97-.01,1.76,.76,1.75,1.72-.01,.89-.79,1.68-1.68,1.7-.94,.02-1.74-.79-1.72-1.75,.01-.95,.72-1.66,1.66-1.67Z"/><path class="cls-1" d="M42.1,107.23c-.65,0-1.28-.26-1.75-.73-.49-.49-.77-1.17-.77-1.86,.02-1.4,1.08-2.47,2.48-2.49h0c.71,0,1.36,.26,1.85,.75,.48,.49,.74,1.13,.73,1.81-.02,1.34-1.16,2.49-2.49,2.51-.02,0-.03,0-.05,0Zm-.02-3.42c-.49,0-.83,.35-.84,.85,0,.24,.1,.48,.27,.66,.17,.17,.38,.26,.6,.25,.45,0,.86-.43,.87-.88,0-.23-.08-.45-.25-.61-.17-.17-.4-.26-.65-.26,0,0,0,0-.01,0h0Z"/></g><g><path class="cls-1" d="M50.4,106.51c0,.92-.75,1.68-1.66,1.7-.94,.02-1.77-.8-1.76-1.74,.01-.92,.75-1.66,1.68-1.67,1.01-.01,1.75,.71,1.74,1.71Z"/><path class="cls-1" d="M48.71,109.04c-.66,0-1.31-.27-1.8-.76-.49-.49-.77-1.16-.77-1.82,.02-1.38,1.11-2.47,2.5-2.49,.71-.01,1.37,.25,1.85,.72,.48,.47,.73,1.12,.73,1.82-.01,1.37-1.12,2.5-2.47,2.52-.02,0-.03,0-.05,0Zm-.02-3.41h-.02c-.49,0-.86,.37-.86,.85,0,.22,.1,.45,.28,.62,.18,.18,.41,.28,.64,.27,.45,0,.84-.41,.84-.88h0c0-.26-.08-.48-.24-.63-.16-.16-.38-.24-.64-.24Z"/></g><g><path class="cls-1" d="M80.71,22.08c0,.92-.74,1.65-1.68,1.67-.99,.02-1.74-.72-1.73-1.71,0-.92,.76-1.68,1.66-1.7,.93-.02,1.76,.81,1.75,1.74Z"/><path class="cls-1" d="M79,24.57c-.69,0-1.33-.26-1.8-.72-.48-.48-.74-1.12-.73-1.83,.01-1.37,1.12-2.5,2.47-2.52,.66-.01,1.33,.26,1.82,.75,.5,.49,.78,1.16,.78,1.83h0c0,1.37-1.1,2.47-2.49,2.49-.02,0-.03,0-.05,0Zm-.02-3.41h-.01c-.45,0-.83,.41-.84,.88,0,.26,.08,.48,.24,.64,.16,.16,.39,.24,.65,.24,.48,0,.86-.38,.86-.84h0c0-.23-.1-.46-.28-.64-.17-.17-.4-.27-.61-.27Z"/></g><g><path class="cls-1" d="M25.09,31.88c-.9,0-1.68-.77-1.7-1.67-.03-.95,.76-1.74,1.73-1.74,.95,0,1.66,.69,1.68,1.65,.02,.97-.76,1.77-1.71,1.76Z"/><path class="cls-1" d="M25.1,32.71h-.01c-1.36,0-2.49-1.12-2.53-2.48-.02-.68,.24-1.33,.72-1.82,.49-.5,1.14-.77,1.84-.77h0c1.4,0,2.48,1.06,2.5,2.46,.01,.7-.25,1.36-.74,1.86-.48,.49-1.11,.75-1.79,.75Zm.02-3.41c-.25,0-.48,.1-.65,.27-.16,.17-.25,.38-.24,.61,.01,.45,.43,.86,.88,.87h0c.23,0,.44-.09,.61-.26,.17-.18,.27-.41,.26-.66-.01-.5-.34-.83-.85-.83h0Z"/></g><g><path class="cls-1" d="M104.45,63.58c0,1-.76,1.72-1.76,1.69-.91-.04-1.65-.81-1.64-1.72,.01-.95,.84-1.74,1.79-1.7,.92,.04,1.62,.79,1.61,1.73Z"/><path class="cls-1" d="M102.77,66.1s-.07,0-.11,0c-1.36-.05-2.46-1.2-2.44-2.56,0-.68,.3-1.34,.81-1.82,.5-.47,1.18-.73,1.85-.7,1.36,.06,2.42,1.18,2.41,2.57h0c0,.71-.28,1.36-.77,1.83-.46,.44-1.08,.68-1.74,.68Zm0-3.42c-.22,0-.43,.09-.6,.25-.18,.17-.28,.4-.29,.63,0,.46,.38,.86,.84,.88,.26,.01,.48-.07,.64-.22,.16-.16,.25-.38,.26-.64,0-.5-.34-.87-.82-.89-.01,0-.02,0-.03,0Z"/></g><g><path class="cls-1" d="M36.15,23.63c-.94,.01-1.74-.79-1.72-1.75,.02-.93,.73-1.64,1.68-1.65,.95-.01,1.68,.66,1.72,1.6,.04,.96-.72,1.78-1.67,1.79Z"/><path class="cls-1" d="M36.12,24.46c-.66,0-1.3-.27-1.78-.75-.49-.49-.76-1.16-.75-1.84,.02-1.39,1.09-2.45,2.49-2.47,.01,0,.03,0,.04,0,1.38,0,2.46,1.02,2.52,2.4,.03,.68-.22,1.36-.7,1.87-.47,.5-1.11,.78-1.79,.79-.01,0-.02,0-.04,0Zm0-3.4h-.02c-.5,0-.85,.35-.86,.83,0,.23,.09,.47,.27,.64,.17,.17,.39,.26,.61,.26h0c.23,0,.44-.1,.61-.27,.17-.18,.26-.41,.25-.65-.02-.49-.37-.81-.86-.81Z"/></g><g><path class="cls-1" d="M48.91,11.48c.02,.96-.82,1.85-1.79,1.87-.98,.03-1.82-.79-1.84-1.79-.02-1.02,.74-1.83,1.76-1.85,1.01-.02,1.85,.77,1.87,1.77Z"/><path class="cls-1" d="M47.07,14.18c-.67,0-1.3-.26-1.79-.72-.52-.5-.82-1.16-.83-1.88-.02-.72,.24-1.39,.73-1.9,.48-.5,1.14-.78,1.85-.8,1.46-.02,2.68,1.13,2.72,2.57h0c.04,1.41-1.18,2.69-2.6,2.73-.02,0-.05,0-.07,0Zm0-3.64s-.01,0-.02,0c-.27,0-.51,.11-.68,.29-.18,.18-.27,.44-.26,.71,0,.27,.12,.52,.32,.71,.19,.18,.43,.27,.67,.27,.51-.01,1-.52,.98-1.02h0c-.01-.53-.46-.96-1.01-.96Z"/></g><g><path class="cls-1" d="M108.82,89.86c0,1.02-.8,1.83-1.79,1.84-.97,0-1.82-.84-1.82-1.83,0-1.01,.8-1.8,1.81-1.81,1.03,0,1.8,.77,1.8,1.8Z"/><path class="cls-1" d="M107.02,92.53c-1.43,0-2.64-1.21-2.65-2.65,0-.71,.27-1.37,.76-1.86,.5-.5,1.16-.78,1.88-.78h0c.72,0,1.38,.27,1.87,.76,.49,.49,.76,1.15,.76,1.87h0c0,1.47-1.18,2.66-2.62,2.67h0Zm0-3.63h0c-.27,0-.52,.1-.7,.29-.18,.18-.28,.42-.28,.69,0,.52,.47,1,.98,1h0c.54,0,.96-.44,.96-1.01,0-.28-.09-.52-.27-.69-.18-.18-.42-.27-.7-.27Z"/></g></svg>