<?xml version="1.0" encoding="UTF-8"?><svg id="Layer_1" xmlns="http://www.w3.org/2000/svg" viewBox="0 0 119 119"><defs><style>.cls-1{fill:#ec3783;}</style></defs><g><path class="cls-1" d="M20.06,86.64H2.81c-1.48,0-2.47,.99-2.47,2.47v27.11c0,1.48,.99,2.47,2.47,2.47H20.06c1.48,0,2.47-.99,2.47-2.47v-27.11c0-1.48-.99-2.47-2.47-2.47h0Zm-2.46,27.12H5.27v-22.18h12.32v22.18Z"/><path class="cls-1" d="M20.06,119H2.81c-1.66,0-2.78-1.12-2.78-2.78v-27.11c0-1.66,1.12-2.78,2.78-2.78H20.06c1.66,0,2.78,1.12,2.78,2.78v27.11c0,1.66-1.12,2.78-2.78,2.78ZM2.81,86.95c-1.31,0-2.15,.84-2.15,2.15v27.11c0,1.31,.84,2.15,2.15,2.15H20.06c1.31,0,2.15-.84,2.15-2.15v-27.11c0-1.31-.84-2.15-2.15-2.15H2.81Zm15.11,27.12H4.95v-22.82h12.96v22.82Zm-12.32-.63h11.69v-21.55H5.59v21.55Z"/></g><g><path class="cls-1" d="M52.11,66.92h-17.25c-1.48,0-2.47,.99-2.47,2.47v46.83c0,1.48,.99,2.47,2.47,2.47h17.25c1.48,0,2.47-.99,2.47-2.47v-46.83c0-1.48-.99-2.47-2.47-2.47h0Zm-2.47,46.83h-12.32v-41.91h12.32v41.91Z"/><path class="cls-1" d="M52.11,119h-17.25c-1.66,0-2.78-1.12-2.78-2.78v-46.83c0-1.66,1.12-2.78,2.78-2.78h17.25c1.66,0,2.78,1.12,2.78,2.78v46.83c0,1.66-1.12,2.78-2.78,2.78Zm-17.25-51.77c-1.31,0-2.15,.84-2.15,2.15v46.83c0,1.31,.84,2.15,2.15,2.15h17.25c1.31,0,2.15-.84,2.15-2.15v-46.83c0-1.31-.84-2.15-2.15-2.15h-17.25Zm15.11,46.83h-12.96v-42.54h12.96v42.54Zm-12.32-.63h11.69v-41.27h-11.69v41.27Z"/></g><g><path class="cls-1" d="M84.15,47.2h-17.25c-1.48,0-2.47,.99-2.47,2.47V116.22c0,1.48,.99,2.47,2.47,2.47h17.25c1.48,0,2.47-.99,2.47-2.47V49.66c0-1.48-.99-2.46-2.47-2.46h0Zm-2.47,66.55h-12.32V52.13h12.32v61.62Z"/><path class="cls-1" d="M84.15,119h-17.25c-1.66,0-2.78-1.12-2.78-2.78V49.66c0-1.66,1.12-2.78,2.78-2.78h17.57v.02c1.49,.13,2.46,1.21,2.46,2.77V116.22c0,1.66-1.12,2.78-2.78,2.78Zm-17.25-71.48c-1.31,0-2.15,.84-2.15,2.15V116.22c0,1.31,.84,2.15,2.15,2.15h17.25c1.31,0,2.15-.84,2.15-2.15V49.66c0-1.3-.84-2.15-2.15-2.15h-17.25Zm15.11,66.55h-12.96V51.81h12.96v62.26Zm-12.32-.63h11.69V52.45h-11.69v60.99Z"/></g><g><path class="cls-1" d="M116.19,27.48h-17.25c-1.48,0-2.47,.99-2.47,2.47V116.22c0,1.48,.99,2.47,2.47,2.47h17.25c1.48,0,2.47-.99,2.47-2.47V29.94c0-1.48-.99-2.47-2.47-2.47h0Zm-2.46,86.27h-12.32V32.41s12.32,0,12.32,0V113.75Z"/><path class="cls-1" d="M116.19,119h-17.25c-1.66,0-2.78-1.12-2.78-2.78V29.94c0-1.66,1.12-2.78,2.78-2.78h17.25c1.66,0,2.78,1.12,2.78,2.78V116.22c0,1.66-1.12,2.78-2.78,2.78ZM98.94,27.79c-1.31,0-2.15,.84-2.15,2.15V116.22c0,1.31,.84,2.15,2.15,2.15h17.25c1.31,0,2.15-.84,2.15-2.15V29.94c0-1.31-.84-2.15-2.15-2.15h-17.25Zm15.11,86.27h-12.96V32.09s12.96,0,12.96,0V114.07Zm-12.32-.63h11.69V32.73h-11.69V113.44Z"/></g><g><path class="cls-1" d="M88.59,6.28L67.14,.36c-1.23-.25-2.71,.49-2.96,1.73-.25,1.23,.49,2.71,1.73,2.96l15.78,4.44L1.57,55.58c-1.23,.74-1.48,2.22-.99,3.45,.99,1.48,1.97,1.73,3.45,.99L84.15,13.67l-4.19,15.78c-.25,1.23,.49,2.71,1.73,2.96,1.48,.25,2.47-.49,2.96-1.73l5.67-21.45c.25-1.73-.25-2.47-1.73-2.96h0Z"/><path class="cls-1" d="M2.61,60.73c-.88,0-1.6-.5-2.29-1.53l-.03-.06c-.6-1.5-.14-3.08,1.12-3.84L80.87,9.59l-15.04-4.23c-.67-.14-1.24-.59-1.62-1.26-.35-.63-.48-1.39-.34-2.06,.13-.67,.58-1.25,1.27-1.63,.64-.35,1.39-.48,2.06-.34h.02s21.45,5.92,21.45,5.92l-.03,.12,.05-.12c1.66,.55,2.2,1.48,1.94,3.3v.04s-5.68,21.46-5.68,21.46v.02c-.6,1.47-1.8,2.17-3.31,1.92-.68-.14-1.26-.59-1.64-1.27-.35-.63-.48-1.39-.34-2.06l4-15.06L4.2,60.29c-.59,.29-1.11,.44-1.59,.44Zm-1.74-1.85c.88,1.3,1.67,1.53,3.03,.85L84.65,13.02l-4.39,16.51c-.1,.51,0,1.11,.28,1.61,.29,.52,.71,.85,1.2,.95,1.53,.25,2.26-.68,2.59-1.52l5.66-21.41c.21-1.53-.14-2.13-1.5-2.59L67.07,.67c-.53-.1-1.12,0-1.62,.28-.52,.29-.85,.71-.95,1.2-.11,.53,0,1.13,.27,1.63,.29,.52,.71,.85,1.2,.95h.02s16.5,4.65,16.5,4.65L1.73,55.85c-1.14,.68-1.24,2.04-.86,3.03Z"/></g></svg>