<?xml version="1.0" encoding="UTF-8"?><svg id="Layer_1" xmlns="http://www.w3.org/2000/svg" viewBox="0 0 119 119"><defs><style>.cls-1{fill:#ec3783;}</style></defs><path class="cls-1" d="M59.5,13.27c1.57,0,2.85-1.28,2.85-2.85V2.85c0-1.57-1.28-2.85-2.85-2.85s-2.85,1.28-2.85,2.85v7.6c0,1.56,1.28,2.83,2.85,2.83Z"/><path class="cls-1" d="M27.94,24.68h0c.53,.53,1.25,.83,2.02,.83s1.49-.29,2.02-.83c1.11-1.11,1.11-2.91,0-4.02l-7.12-7.12c-1.11-1.11-2.91-1.11-4.02,0-1.11,1.11-1.11,2.91,0,4.02l7.1,7.12Z"/><path class="cls-1" d="M17.71,49.37h-7.58c-1.57,0-2.85,1.28-2.85,2.85s1.28,2.85,2.85,2.85h7.6c1.57,0,2.85-1.28,2.85-2.87-.03-1.56-1.32-2.83-2.87-2.83Z"/><path class="cls-1" d="M27.94,79.75l-7.12,7.12c-1.11,1.11-1.11,2.91,0,4.02,.53,.53,1.25,.83,2.02,.83s1.49-.29,2.02-.83l7.12-7.12c1.11-1.11,1.11-2.91,0-4.02-1.11-1.11-2.93-1.11-4.04,0Z"/><path class="cls-1" d="M91.06,79.75c-1.11-1.11-2.91-1.11-4.02,0-1.11,1.11-1.11,2.91,0,4.02l7.12,7.12c.53,.53,1.25,.83,2.02,.83s1.49-.29,2.02-.83c1.11-1.11,1.11-2.91,0-4.02l-7.14-7.12Z"/><path class="cls-1" d="M108.87,49.37h-7.6c-1.57,0-2.85,1.28-2.85,2.85s1.28,2.85,2.85,2.85h7.6c1.57,0,2.85-1.28,2.85-2.85s-1.28-2.85-2.85-2.85Z"/><path class="cls-1" d="M89.06,25.5c.77,0,1.49-.29,2.02-.83l7.12-7.12c1.11-1.11,1.11-2.91-.01-4.03-1.14-1.11-2.91-1.11-4.03,0l-7.12,7.12c-1.11,1.11-1.11,2.91,0,4.02,.53,.53,1.25,.83,2.02,.83Z"/><path class="cls-1" d="M79.38,36.56l-5.59-5.59c-.97-.97-2.54-1.11-3.64-.32l-1.97,1.38c-.52-.24-1.01-.44-1.48-.62l-.42-2.36c-.24-1.36-1.41-2.35-2.79-2.35h-7.89c-1.38,0-2.56,.99-2.79,2.35l-.42,2.35c-.12,.05-.24,.1-.36,.14-.39,.15-.77,.32-1.13,.49l-1.97-1.38c-1.13-.78-2.66-.65-3.64,.33l-5.59,5.59c-.97,.97-1.11,2.54-.32,3.64l1.37,1.95c-.24,.52-.44,1.01-.62,1.48l-2.36,.42c-1.36,.24-2.35,1.41-2.35,2.79v7.91c0,1.36,.98,2.54,2.35,2.81l2.37,.42c.19,.51,.39,1.02,.61,1.5l-1.38,1.98c-.8,1.15-.66,2.69,.32,3.64l5.6,5.6c1,.97,2.53,1.09,3.63,.31l1.97-1.38c.52,.24,1.01,.44,1.48,.62l.42,2.36c.23,1.34,1.44,2.35,2.79,2.35h7.89c1.38,0,2.56-.99,2.79-2.35l.42-2.36c.51-.19,1-.39,1.47-.6l1.96,1.37c1.11,.79,2.68,.65,3.65-.32l5.59-5.59c.97-.97,1.11-2.5,.32-3.64l-1.37-1.97c.23-.49,.43-.99,.62-1.5l2.34-.4c1.36-.24,2.35-1.42,2.35-2.81v-7.89c.02-1.4-.96-2.58-2.33-2.82l-2.36-.42c-.18-.5-.39-.99-.61-1.48l1.38-1.98c.79-1.13,.65-2.66-.32-3.64Zm-33,24.83c.64-.9,.69-2.11,.13-3.08-.64-1.1-1.12-2.28-1.44-3.52-.29-1.07-1.15-1.87-2.26-2.08l-1.72-.3v-3.12l1.67-.3c1.08-.17,1.97-.98,2.27-2.06,.33-1.22,.83-2.41,1.48-3.54,.55-.95,.5-2.15-.13-3.07l-.99-1.41,2.21-2.21,1.43,1.01c.92,.62,2.08,.67,3.03,.12,.71-.4,1.38-.73,2.01-.97,.52-.2,1.03-.36,1.5-.5,1.07-.29,1.87-1.15,2.08-2.26l.3-1.7h3.12l.3,1.69c.17,1.08,.98,1.97,2.05,2.27,1.19,.33,2.3,.79,3.31,1.35l.08,.05s.08,.04,.11,.06c.96,.57,2.17,.53,3.1-.11l1.41-.99,2.21,2.21-.98,1.41c-.63,.89-.69,2.06-.15,3.05,.63,1.11,1.13,2.31,1.47,3.55,.3,1.07,1.19,1.88,2.26,2.05l1.7,.3v3.13s-1.7,.3-1.7,.3c-1.1,.21-1.98,1.03-2.25,2.08-.32,1.2-.82,2.39-1.47,3.54-.54,.97-.48,2.15,.15,3.03l.98,1.41-2.21,2.21-1.43-.99c-.91-.64-2.11-.69-3.06-.13-1.06,.62-2.24,1.11-3.51,1.46-1.05,.29-1.86,1.17-2.07,2.26l-.3,1.7h-3.12l-.3-1.7c-.21-1.09-.99-1.95-2.05-2.24-1.24-.34-2.44-.83-3.54-1.46-.97-.56-2.14-.5-3.05,.14l-1.41,.99-2.21-2.21,.99-1.41Z"/><path class="cls-1" d="M59.5,61.09c5.66,0,10.26-4.6,10.26-10.26,0-1.57-1.28-2.85-2.85-2.85s-2.85,1.28-2.85,2.85c0,2.52-2.05,4.57-4.57,4.57s-4.57-2.05-4.57-4.57,2.05-4.57,4.57-4.57c1.57,0,2.85-1.28,2.85-2.85s-1.28-2.85-2.85-2.85c-5.66,0-10.26,4.6-10.26,10.26s4.6,10.26,10.26,10.26Z"/><path class="cls-1" d="M94.42,48.15l-.02-.32h0c-1.09-14.62-11.28-27.08-25.44-31.08-2.41-.69-4.86-1.1-7.5-1.25-.4-.02-.86-.04-1.25-.04-2.38-.07-4.86,.13-7.36,.6-9.94,1.92-18.55,8.06-23.62,16.84-3.09,5.28-4.73,11.35-4.73,17.54,0,7.79,2.49,15.16,7.22,21.31,4.16,5.39,7.04,11.88,8.32,18.75,.29,1.54,1.17,2.86,2.46,3.73v8.76c0,2.07,1.32,3.88,3.23,4.55,1.22,6.58,7.03,11.46,13.79,11.46s12.53-4.88,13.75-11.46c1.91-.67,3.23-2.47,3.23-4.55v-8.71c1.29-.85,2.21-2.18,2.52-3.68,.11-.56,.24-1.16,.43-1.93,.75-3.16,1.89-6.31,3.38-9.37,1.22-2.56,2.75-5.12,4.71-7.85l.17-.24c4.88-6.62,7.27-14.81,6.73-23.06ZM59.52,113.31c-3.55,0-6.66-2.24-7.83-5.48h15.64c-1.18,3.24-4.28,5.48-7.81,5.48Zm11.28-17.45h0v6.28s-22.61,0-22.61,0v-.59h-.01v-6.05h.01v-.23h22.6v.59Zm12.35-28.1l-.36,.49c-2.06,2.89-3.79,5.78-5.13,8.59-1.69,3.52-2.96,7.04-3.76,10.47-.19,.71-.34,1.45-.48,2.15v.02c-.01,.05-.09,.1-.17,.1h-27.44s-.15,0-.17-.11c-1.45-7.75-4.71-15.08-9.4-21.18-3.95-5.17-6.04-11.34-6.04-17.84,0-5.18,1.37-10.26,3.96-14.69,4.23-7.34,11.44-12.48,19.78-14.11,1.79-.35,3.59-.53,5.36-.53,.26,0,.51,0,.77,.02h.07c.29,0,.59,.01,.93,.03h.25c2.05,.13,4.1,.48,6.1,1.05,11.96,3.38,20.54,13.95,21.35,26.29,.42,6.93-1.57,13.77-5.62,19.26Z"/></svg>