<?xml version="1.0" encoding="utf-8"?>
<!-- Generator: Adobe Illustrator 27.1.0, SVG Export Plug-In . SVG Version: 6.00 Build 0)  -->
<svg version="1.1" id="Layer_1" xmlns="http://www.w3.org/2000/svg" xmlns:xlink="http://www.w3.org/1999/xlink" x="0px" y="0px"
	 viewBox="0 0 200 200" style="enable-background:new 0 0 200 200;" xml:space="preserve">
<style type="text/css">
	.st0{fill:#96C43D;stroke:#96C43D;stroke-width:2;stroke-miterlimit:10;}
</style>
<path class="st0" d="M90.1,197.6c-2.3-1.1-3.1-2.8-3.1-5.4c0.1-7.4,0-14.9,0-22.3c0-3.6,1.5-5.1,5.1-5.1c5,0,10,0,15.2,0
	c0-4.2,0-8.3,0-12.4c-10.1-1.5-18.5-5.7-23.9-15.5c-1.9,2.1-3.6,4-5.5,5.8c-1.4,1.4-3.1,1.7-4.9,0.7c-1.7-0.9-2.4-2.5-2-4.3
	c0.2-1,0.9-1.9,1.6-2.7c0.9-1,2-1.9,3-2.8c-0.1-0.2-0.2-0.3-0.3-0.5c-0.7,0-1.3,0-2,0c-10.7,0-21.5,0-32.2,0c-4.2,0-5.6-1.4-5.6-5.6
	c0-10.7,0-21.3,0-32c0-0.7,0-1.4,0-2.3c-2.4,0-4.6,0-6.8,0c-3.7,0-5.3-1.5-5.3-5.1c0-7.5,0-15,0-22.5c0-3.6,1.6-5.2,5.3-5.2
	c7.4,0,14.9,0,22.3,0c3.6,0,5.2,1.6,5.3,5.2c0,2.3,0,4.5,0,6.9c5.4,0,10.7,0,16.2,0c0-2.1,0-4.3,0-6.4c0-4.2,1.5-5.7,5.7-5.7
	c9,0,17.9,0,26.9,0c0.7,0,1.4,0,2.2,0c0-4.8,0-9.5-0.1-14.1c0-0.6-0.7-1.2-1.1-1.7c-5.1-5.2-10.3-10.3-15.5-15.5
	c-2.8-2.8-2.8-4.9-0.1-7.6c5.7-5.7,11.4-11.4,17.1-17.1c2.7-2.7,4.7-2.7,7.5,0c5.2,5.2,10.3,10.4,15.5,15.5c0.7,0.7,1.9,1.2,2.9,1.2
	c12.3,0.1,24.5,0.1,36.8,0.1c4.4,0,5.8,1.4,5.8,5.8c0,33.5,0,67,0,100.4c0,4.3-1.4,5.7-5.7,5.7c-7.1,0-14.1,0-21.2,0
	c-0.6,0-1.2,0-2.3,0c1.5,1.6,2.9,2.9,4,4.4c1.2,1.5,1.2,3.2,0.1,4.8c-1.1,1.5-2.6,2-4.3,1.5c-0.9-0.3-1.7-0.9-2.4-1.5
	c-1.7-1.6-3.3-3.4-5.1-5.3c-5.2,9.7-13.7,13.8-23.9,15.4c0,4.1,0,8.1,0,12.4c1.4,0,2.8,0,4.2,0c3.8,0,7.6,0,11.4,0
	c3.1,0,4.8,1.6,4.8,4.7c0,7.8,0,15.6,0,23.4c0,2.2-1.1,3.7-3,4.6C118.8,197.6,104.5,197.6,90.1,197.6z M115.8,93.3
	c0,4.3,0,8.3,0,12.4c10.1,1.6,18.6,5.6,23.7,15.1c0.5-0.5,1-0.9,1.5-1.4c1.4-1.4,2.8-2.9,4.3-4.3c2.3-2,5.5-1.3,6.6,1.4
	c0.8,1.9,0.1,3.5-1.3,4.8c-1,1-2,2.1-3.2,3.3c7.1,0,13.9,0,20.5,0c0-31.8,0-63.5,0-95.2c-11.8,0-23.5,0-35.2,0
	c-0.5,0-1.2,0.4-1.6,0.8c-4.9,4.9-9.8,9.8-14.7,14.7c-0.4,0.4-0.9,0.9-0.9,1.4c-0.1,4.6,0,9.2,0,14c0.9,0,1.6,0,2.3,0
	c9,0,18,0,27.1,0c4,0,5.5,1.5,5.5,5.5c0,7.3,0,14.6,0,21.9c0,3.9-1.5,5.4-5.4,5.4c-9,0-17.9,0-26.9,0
	C117.5,93.3,116.8,93.3,115.8,93.3z M83.5,121.2c5.4-9.9,13.9-13.9,23.9-15.5c0-4.1,0-8.2,0-12.4c-0.9,0-1.6,0-2.4,0
	c-9,0-18,0-27.1,0c-3.8,0-5.3-1.5-5.3-5.3c0-2.3,0-4.5,0-6.8c-5.5,0-10.8,0-16.2,0c0,2.2,0,4.3,0,6.4c0,4.3-1.4,5.7-5.7,5.7
	c-2.3,0-4.5,0-6.7,0c0,10.7,0,21.1,0,31.5c10.6,0,21,0,31.4,0c-0.8-1.3-1.9-2.2-2.8-3.2c-0.7-0.8-1.3-1.7-1.6-2.7
	c-0.4-1.9,0.3-3.4,2-4.3c1.8-0.9,3.5-0.6,4.9,0.8C79.9,117.1,81.5,119.1,83.5,121.2z M111.5,144.3c4.1,0.1,8-0.7,11.7-2.4
	c3.8-1.7,7-4.2,8.8-8.1c2.7-5.6,0.4-12.2-5.7-15.9c-9.7-5.8-19.7-6-29.3,0c-8.4,5.3-9.3,14.5-1.6,20.9
	C100,142.8,105.6,144.2,111.5,144.3z M142.2,85c0-5.5,0-10.8,0-16.1c-20.5,0-40.8,0-61.1,0c0,5.4,0,10.7,0,16.1
	C101.5,85,121.8,85,142.2,85z M127.8,173.2c-10.9,0-21.6,0-32.3,0c0,5.4,0,10.7,0,16c10.8,0,21.5,0,32.3,0
	C127.8,183.9,127.8,178.6,127.8,173.2z M111.6,37.7c4.1-4.1,8.4-8.4,12.5-12.5c-4.1-4.1-8.3-8.4-12.4-12.5
	c-4.2,4.2-8.4,8.5-12.6,12.7C103.2,29.5,107.5,33.7,111.6,37.7z M48.1,68.8c-5.5,0-10.8,0-16.2,0c0,5.4,0,10.7,0,16.1
	c5.4,0,10.8,0,16.2,0C48.1,79.5,48.1,74.2,48.1,68.8z"/>
</svg>
