<?xml version="1.0" encoding="utf-8"?>
<!-- Generator: Adobe Illustrator 27.1.0, SVG Export Plug-In . SVG Version: 6.00 Build 0)  -->
<svg version="1.1" id="Layer_1" xmlns="http://www.w3.org/2000/svg" xmlns:xlink="http://www.w3.org/1999/xlink" x="0px" y="0px"
	 viewBox="0 0 200 200" style="enable-background:new 0 0 200 200;" xml:space="preserve">
<style type="text/css">
	.st0{fill:#96C43D;stroke:#96C43D;stroke-width:2;stroke-miterlimit:10;}
</style>
<g>
	<path class="st0" d="M161.4,80.7c2.1-0.1,4-0.2,6.1-0.3c0,2.1,0.1,4.1,0,6c-0.6,11.9-3.4,23.2-9.2,33.7c-2.9,5.2-6.5,10.1-9.7,15.1
		c-10.2,16-15.8,33.4-15.5,52.6c0.1,3.4,0.4,6.8,0.6,10.4c-23.6,0-47.3,0-71.1,0c0.2-1.9,0.3-3.8,0.5-5.7
		c1.1-10.2,2.1-20.5,3.2-30.7c0.2-1.5-0.6-1.3-1.5-1.3c-10.9,0-21.9,0-32.8,0c-8,0-14.1-6.1-14.2-14.1c0-8.9,0-17.8,0-26.7
		c0-0.5,0-0.9,0-1.7c-1.6,0-3.2-0.2-4.7,0c-3.7,0.5-6.6-2.9-5.4-7.1C11.2,99,14.5,87,17.7,75.1c1.1-4,1.4-8.1,2.4-12.1
		c2.8-12,8.1-22.7,16-32.1c9-10.7,20.1-18.5,33.4-22.9c14.1-4.7,28.4-5,42.8-1.1c0.3,0.1,0.6,0.2,0.9,0.3c0.1,0.1,0.3,0.1,0.6,0.3
		c-0.6,1.9-1.2,3.8-1.7,5.6c-3.7-0.7-7.3-1.5-10.9-2c-12-1.7-23.6-0.2-34.6,4.8c-24,10.9-37.3,29.9-41.8,55.6
		c-1.1,6.4-3,12.6-4.7,18.8c-1.7,6.5-3.6,13-5.4,19.5c-0.2,0.6-0.3,1.1-0.5,1.9c3.3,0,6.5,0,10,0c0,0.8,0,1.4,0,2
		c0,10.7,0,21.4,0,32c0,5.4,3.2,8.6,8.6,8.6c12.8,0,25.6,0,38.5,0c0.6,0,1.3,0,2.2,0c-1.3,12.6-2.6,25-3.9,37.6c7.2,0,14.4,0,21.7,0
		c0-1.6,0-3.1,0-4.8c2.1,0,4.1,0,6.3,0c0,1.6,0,3.2,0,4.8c9.9,0,19.6,0,29.5,0c0-0.6-0.1-1.1-0.1-1.7c-0.6-14.6,2.1-28.6,7.7-42
		c3.6-8.5,8.4-16.2,13.7-23.8c8.8-12.6,12.9-26.7,13-42C161.3,81.9,161.3,81.4,161.4,80.7z"/>
	<path class="st0" d="M100.1,122.4c1.4-4.1,2.6-8.1,4.1-11.9c2.5-6.3,6.5-11.7,10.4-17.1c3.3-4.6,6.1-9.5,6.7-15.3
		c2-18.6-12.1-34.1-29.8-34.3c-14.8-0.2-26.8,9.1-30.4,22.7c-2.3,8.7-1,16.9,4.1,24.4c2.7,4.1,5.6,8.1,8.3,12.3
		c3.4,5.4,5.7,11.4,7.2,17.6c0.1,0.3,0.1,0.7,0.2,0.9c0.2,0.3,0.5,0.5,0.7,0.7c0.2-0.3,0.4-0.6,0.6-0.9c0-0.1,0-0.2,0-0.3
		c0-8.3,0-16.6,0-24.9c0-0.3-0.1-0.6-0.1-1.1c-1.3,0-2.5,0-3.7,0c-3.9-0.1-6.9-1.7-8.6-5.2c-1.6-3.5-1.4-7,0.9-10.2
		c2.2-3.1,6.3-4.5,10-3.4c3.7,1.1,6.4,4.5,6.6,8.2c0,0.2,0,0.3,0,0.5c0.1,4.1,0.1,4.1,4.7,3.7c0-1.2,0-2.4,0-3.6
		c0-5.1,3.9-9.1,9-9.2c5.2-0.1,9.2,3.9,9.3,9c0.1,6.1-3.6,10-9.7,10.2c-1.1,0-2.2,0-3.6,0c0,0.8,0,1.4,0,2c0,9.9,0,19.7,0,29.6
		c0,2.2,0.3,4.5,0,6.7c-0.6,4.4-4.4,7.7-8.9,7.7c-2.1,0-4.2,0-6.3,0c-2,0-2.5,0.6-2.5,2.6c0,2.4,0.4,3,2.5,2.9
		c3.5-0.1,6.9,0.2,9.8,2.4c3.4,2.5,5.1,5.9,5.4,10.3c-2.1,0-4,0-6,0c0,0-0.1-0.1-0.2-0.2c-1.3-4.8-3.3-6.4-8.4-6.3
		c-3.2,0.1-5.9-0.6-7.9-3.3c-3.5-5-1.2-12.7,4.2-14.3c0.8-0.2,1.6-0.3,2.4-0.3c2,0,4.1,0,6.1,0c2.2,0,3.7-1.3,3.7-3.1
		c0-1.8-1.5-3.1-3.7-3.1c-3.5,0-7.1,0-10.6,0c-0.5,0-1.1,0-1.6,0c-0.1-0.3-0.2-0.5-0.2-0.7c0.3-8-3-14.8-6.9-21.4
		c-2.9-5-6.6-9.5-9.5-14.5c-6.9-12.3-6.4-24.7,0.6-36.7c12.1-21,40.2-22.6,55.6-9.2c8.3,7.2,12.5,16.4,13,27.3
		c0.4,8.3-2.1,15.5-6.9,22.1c-6.3,8.6-12.1,17.4-14.2,28.4C104.5,123.4,102.6,122.9,100.1,122.4z M90.7,122.4c0-9.1,0-18.1,0-27.1
		c-0.8,0-1.5,0-2.1,0c0,9.1,0,18.1,0,27.1C89.3,122.4,89.9,122.4,90.7,122.4z M98.1,86.6c-0.1,0.1-0.2,0.1-0.3,0.2
		c0.4,0.7,0.7,1.7,1.2,1.9c0.8,0.3,1.9,0.1,2.8-0.1c1.5-0.3,2.5-1.8,2.3-3.6c-0.2-1.6-1.4-2.8-2.9-2.8c-1.6,0-2.8,1.1-3,2.8
		C98.1,85.5,98.2,86,98.1,86.6z M81.2,88.8c-0.1-1.6,0-2.9-0.3-4.3c-0.2-1.3-1.1-2-2.4-2.2c-1.3-0.2-2.3,0.4-3,1.4
		c-1.3,2.1,0,4.8,2.4,5.1C78.9,88.8,79.9,88.8,81.2,88.8z"/>
	<path class="st0" d="M188.4,55.1c-4.1,4.1-8.1,8.1-12.2,12.2c-2.1-2.1-4.3-4.2-6.4-6.5c-0.8-0.9-1.5-0.8-2.5-0.4
		c-1.1,0.4-1.2,1-1.1,2c0,3,0,6,0,9.1c-5.7,0-11.2,0-17,0c0-3,0-6,0-9c0-1,0-1.7-1.2-2.1c-1.1-0.4-1.7-0.3-2.5,0.5
		c-2,2.2-4.2,4.3-6.2,6.3c-4.1-4.1-8-8.1-12.2-12.3c2-1.9,4.1-4.1,6.4-6.1c0.8-0.7,1-1.3,0.5-2.3c-0.5-1.1-1-1.4-2.1-1.4
		c-2.9,0.1-5.9,0-9,0c0-5.7,0-11.2,0-16.9c3.1,0,6.1-0.1,9,0c1.4,0.1,1.6-0.7,2.1-1.6c0.5-1,0-1.5-0.6-2c-2.2-2.1-4.4-4.3-6.4-6.2
		c4.1-4.2,8-8.2,12-12.4c2.2,2.2,4.3,4.3,6.4,6.5c0.8,0.8,1.4,0.9,2.4,0.5c1-0.4,1.3-1,1.3-2c-0.1-3,0-6,0-9c5.7,0,11.3,0,17,0
		c0,3,0,6,0,8.9c0,1.1,0.3,1.7,1.3,2.2c1.1,0.5,1.7,0.1,2.5-0.7c2-2.1,4.1-4.2,6-6.2c4.1,4.1,8,8.1,12.2,12.2
		c-1.9,1.8-3.9,3.9-6,5.9c-0.8,0.8-1.3,1.4-0.8,2.7c0.6,1.4,1.5,1.2,2.4,1.2c2.8,0,5.7,0,8.7,0c0,5.6,0,11.1,0,16.9
		c-1.1,0-2.2,0-3.4,0c-1.9,0-3.9,0.1-5.8,0c-1.3-0.1-1.6,0.6-2,1.6c-0.4,0.9-0.1,1.5,0.5,2.1C184,50.8,186.2,52.9,188.4,55.1z
		 M155.4,16.7c-3.1,1.4-6,2.6-8.7,4c-1,0.5-1.5,0.5-2.2-0.3c-1.7-1.9-3.6-3.7-5.4-5.5c-1.2,1.1-2.2,2.1-3.4,3.2
		c2.3,2.1,4.4,4.2,6.2,5.8c-1.3,3.5-2.4,6.5-3.6,9.5c-0.2,0.4-0.8,0.8-1.3,0.8c-1.7,0.1-3.3,0-5,0c-3.6,0.1-3.1-0.8-3.2,3.3
		c0,1.1,0.5,1.3,1.4,1.3c2.1,0,4.3,0,6.4,0c1.1,0,1.4,0.4,1.8,1.4c0.9,2.5,1.9,5,3.1,7.4c0.4,0.9,0.5,1.5-0.3,2.2
		c-1.9,1.7-3.7,3.6-5.6,5.4c1.1,1.2,2.1,2.1,3.3,3.3c2.1-2.2,4.1-4.4,5.8-6.2c3.6,1.3,6.7,2.4,9.8,3.7c0.4,0.1,0.7,0.9,0.7,1.3
		c0.1,2.6,0,5.2,0,7.9c1.6,0,3,0,4.5,0c0-2.7,0-5.3,0-7.9c0-0.5,0.3-1.2,0.7-1.4c3.1-1.2,6.2-2.3,9.8-3.6c1.7,1.8,3.8,3.9,5.8,6
		c1.1-1.1,2.1-2,3.3-3.1c-1.9-1.9-3.8-3.8-5.7-5.6c-0.6-0.6-0.6-1-0.2-1.8c1.2-2.6,2.3-5.2,3.3-7.8c0.3-0.9,0.7-1.2,1.6-1.2
		c1.6,0.1,3.2,0,4.8,0c3.7-0.1,3,0.6,3.2-3.1c0-1.1-0.3-1.5-1.4-1.5c-2.2,0.1-4.5,0.1-6.8,0c-0.4,0-1-0.3-1.2-0.7
		c-1.2-3.1-2.3-6.2-3.6-9.7c1.8-1.7,4-3.7,6.2-5.7c-1.2-1.2-2.1-2.3-3.3-3.5c-1.9,2-3.7,3.8-5.5,5.6c-0.3,0.3-1.1,0.7-1.4,0.6
		c-3.1-1.3-6.1-2.8-9.4-4.3c0.1,0.3,0,0.2,0,0c0-1.9,0-3.8,0-5.6c0-3.2,0-3.1-3.2-3.1c-1,0-1.3,0.4-1.3,1.3
		C155.4,11.8,155.4,14.4,155.4,16.7z"/>
	<path class="st0" d="M97.4,177.6c0,1.6,0,3,0,4.6c-2,0-4,0-6,0c0-1.5,0-3,0-4.6C93.3,177.6,95.3,177.6,97.4,177.6z"/>
	<path class="st0" d="M97.4,166.9c0,1.5,0,3,0,4.5c-2,0-3.9,0-6,0c0-1.5,0-2.9,0-4.5C93.3,166.9,95.3,166.9,97.4,166.9z"/>
	<path class="st0" d="M157.6,26.1c5.8,0,10.5,4.5,10.6,10.3c0.1,5.8-4.7,10.6-10.5,10.6c-5.9,0-10.5-4.5-10.5-10.3
		C147.2,30.8,151.7,26.2,157.6,26.1z M157.7,32.4c-2.3,0-4.2,1.9-4.3,4.1c0,2.2,1.9,4.2,4.2,4.3c2.3,0.1,4.2-1.8,4.3-4.1
		C161.9,34.4,160,32.4,157.7,32.4z"/>
</g>
</svg>
