<?xml version="1.0" encoding="utf-8"?>
<!-- Generator: Adobe Illustrator 27.1.0, SVG Export Plug-In . SVG Version: 6.00 Build 0)  -->
<svg version="1.1" id="Layer_1" xmlns="http://www.w3.org/2000/svg" xmlns:xlink="http://www.w3.org/1999/xlink" x="0px" y="0px"
	 viewBox="0 0 200 200" style="enable-background:new 0 0 200 200;" xml:space="preserve">
<style type="text/css">
	.st0{fill:#96C43D;stroke:#96C43D;stroke-width:2;stroke-miterlimit:10;}
</style>
<g>
	<path class="st0" d="M155.9,37.3c11.8,13.4,11.8,35.1,0.6,48.6c-1.6,1.9-1.5,3.1,0,4.9c5.5,7.1,10.9,14.2,16.1,21.4
		c1.5,2,3,2.7,5.3,2.1c8.2-2,18.1,4.4,19,14.3c1,10.7-5.8,18.7-16.3,19c-2.7,0.1-3.5,1.4-4.4,3.4c-5.8,12.1-11.7,24.2-17.6,36.3
		c-0.9,1.9-1.6,4.1-4,4.5c-1.9,0.3-3.9,0.6-5.5-1.2c-1.9-2.2-1.5-4.5-0.4-6.8c3.2-6.7,6.5-13.4,9.8-20.1c2.9-6,5.7-12,8.8-17.9
		c1-2,1-3.2-0.5-5.1c-4.3-5.4-4.3-11.4-1.6-17.4c0.8-1.9,0.9-3-0.4-4.6c-5.6-7.2-11.1-14.4-16.5-21.8c-1.4-1.9-2.4-2-4.3-0.9
		c-5.5,3.1-11.5,4.5-17.8,4c-3.5-0.3-4,0.9-4,4c0.1,17.1,0.1,34.2,0,51.3c0,1.8,0.5,3.6-0.5,5.3c-0.1,0.1-0.4,0.2-0.4,0.2
		c0,0.2,0.2,0.5,0.2,0.7c-0.3,1.6-1.4,2.4-2.9,2.7c-0.4-0.4-0.7-0.4-0.9,0.1c-17.4,0.1-34.7,0.2-52.1,0.2c-19.5,0-39-0.2-58.4-0.3
		c-0.2-0.5-0.5-0.5-0.9-0.2c-1.4-0.4-2.4-1.2-2.8-2.7c0.1-0.1,0.3-0.3,0.3-0.3c-0.1-0.2-0.3-0.4-0.4-0.6c-0.1-1.1-0.3-2.3-0.3-3.4
		c0-47.3,0-94.6,0-142c0-1.1,0.2-2.3,0.3-3.4c0.1-0.1,0.3-0.1,0.4-0.2c0-0.2-0.1-0.5-0.1-0.7c1.2-2.6,3.5-3,6.1-3
		c35.3,0,70.5,0,105.8,0c5,0,6.5,1.7,6.7,6.8c0.4,9.7,0.4,9.8,10.3,9.9c3.2,0,5.9,0.7,8.2,3c-3,2.5-5.9,5-8.9,7.4
		c-12.8-3-24.6,3.4-30.9,16.9c-1.6,3.5-4,5.4-7.7,3.8c-3.6-1.6-3.4-4.7-2-7.9c3.8-8.6,9.6-15.5,18.2-19.5c4-1.9,2.1-5.4,2.2-8.1
		c0.1-3.4-3-1.8-4.5-1.8c-29.8-0.1-59.6,0-89.4-0.2c-3.5,0-4.7,0.7-4.7,4.5c0.2,42.4,0.1,84.7,0,127.1c0,3.6,0.8,4.7,4.5,4.7
		c30-0.2,60-0.1,89.9,0c3.4,0,4.4-0.8,4.4-4.3c-0.2-16.5-0.2-32.9,0-49.4c0-2.9-0.9-4.4-3.4-5.5c-3.2-1.4-5.9-3.7-3.7-7.5
		c2.1-3.6,5.3-3.1,8.8-1.5c5.2,2.5,10.2,4.8,16.6,3.5c22.5-4.6,31.6-27.6,17.6-45.9C150.1,41.3,153,39.3,155.9,37.3z M179.7,137.5
		c3.3,0.4,6.6-2.3,7.2-5.8c0.5-3.3-2.5-7.1-6.1-7.5c-3.2-0.3-6.7,2.5-7.3,5.8C173.1,133.5,176.1,137.1,179.7,137.5z"/>
	<path class="st0" d="M131.8,35c3-2.5,5.9-5,8.9-7.4c0.9-0.6,1.9-1.2,2.8-1.9c6.5-4.7,8-4.3,13,1.8c2.9,3.7,2.3,6.7-0.6,9.8
		c-2.9,2-5.7,4-8.1,6.6c-0.6,0.3-1.2,0.5-1.7,0.9C127.2,60.1,108,75,89.5,90.6c-7.8,6.6-16.1,10.4-26.6,10.9
		c3.3-8.1,5.6-16,13.3-21.9C95.2,65.4,113.3,50,131.8,35z"/>
	<path class="st0" d="M3.6,10.9c0,0.2,0.1,0.5,0.1,0.7c0,0.1-0.2,0.1-0.4,0.2C3.4,11.5,3.5,11.2,3.6,10.9z"/>
	<path class="st0" d="M3.3,160.5c0.1,0.2,0.3,0.4,0.4,0.6c0,0-0.2,0.2-0.3,0.3C3.2,161.1,3.2,160.8,3.3,160.5z"/>
	<path class="st0" d="M121.5,161.5c-0.1-0.2-0.2-0.5-0.2-0.7c0-0.1,0.3-0.1,0.4-0.2C121.6,160.8,121.5,161.1,121.5,161.5z"/>
	<path class="st0" d="M6.2,164.1c0.4-0.4,0.7-0.3,0.9,0.2c0,0-0.5,0.1-0.5,0.1L6.2,164.1z"/>
	<path class="st0" d="M117.7,164.3c0.2-0.5,0.5-0.6,0.9-0.1c0,0-0.4,0.2-0.4,0.2L117.7,164.3z"/>
	<path class="st0" d="M23.8,140c-0.2-1.8,0.9-3.1,1.9-4.3c6.1-7.8,12.3-15.5,18.3-23.5c2.7-3.6,5.5-4.4,9.5-2
		c6.6,3.9,13.4,7.2,20,11c2.7,1.5,4.2,1.2,6-1.2c3.9-5.2,8.2-10.1,12.2-15.2c2.3-2.9,5-4.4,8.3-1.7c3,2.5,2.2,5.3,0,8.1
		c-5.6,6.8-11.1,13.6-16.5,20.5c-2.5,3.2-5.2,3.9-8.9,1.8c-6.7-3.9-13.7-7.4-20.5-11.2c-2.5-1.4-3.9-1.2-5.7,1.1
		c-5,6.6-10.3,13-15.5,19.5c-1.8,2.2-4,2.8-6.5,1.8C24.6,143.9,23.6,142.2,23.8,140z"/>
	<path class="st0" d="M52.6,29.5c7.8,0,15.6,0.1,23.4,0c3.9,0,7.2,1.2,7.1,5.4c-0.1,4.2-3.4,5.3-7.3,5.3c-15.4-0.1-30.9,0-46.3,0
		c-3.9,0-7.1-1.1-7-5.5c0.1-4.5,3.5-5.3,7.2-5.2C37.3,29.5,45,29.5,52.6,29.5z"/>
	<path class="st0" d="M27.7,52c9.5-0.5,18.9-0.5,28.4,0c0.3,0.5,0.6,0.6,0.9,0.1c4.3,3.2,4.3,6.2-0.1,9.3c-0.4-0.4-0.7-0.3-0.9,0.2
		c-9.1,0-18.3,0-27.4,0c-0.3-0.5-0.6-0.5-0.9-0.1c-5.1-2.8-5.4-5.6-0.9-9.4C27.2,52.6,27.5,52.5,27.7,52z"/>
	<path class="st0" d="M57,73.7c4.3,3.1,4.3,6.1,0,9.3c-0.4-0.5-0.7-0.4-0.9,0.1c-9.5,0.4-18.9,0.5-28.4,0c-0.2-0.5-0.5-0.6-0.9-0.2
		c-4.5-3.9-4.3-6.4,0.9-9.3c0.3,0.5,0.6,0.5,0.9-0.1c9.1,0,18.3,0,27.4,0C56.3,74,56.6,74.1,57,73.7z"/>
	<path class="st0" d="M27.7,52c-0.2,0.5-0.5,0.6-0.9,0.2C27.1,52.1,27.4,52.1,27.7,52z"/>
	<path class="st0" d="M57,52.1c-0.4,0.5-0.7,0.4-0.9-0.1C56.4,52,56.7,52,57,52.1z"/>
	<path class="st0" d="M27.7,61.5c0.3-0.5,0.6-0.5,0.9,0.1c0,0-0.5,0.1-0.5,0.1L27.7,61.5z"/>
	<path class="st0" d="M56.1,61.6c0.2-0.5,0.5-0.6,0.9-0.2c0,0-0.4,0.3-0.4,0.3L56.1,61.6z"/>
	<path class="st0" d="M28.7,73.5c-0.3,0.5-0.6,0.6-0.9,0.1C28,73.4,28.3,73.4,28.7,73.5z"/>
	<path class="st0" d="M57,73.7c-0.4,0.4-0.7,0.3-0.9-0.2C56.4,73.4,56.7,73.5,57,73.7z"/>
	<path class="st0" d="M26.8,82.9c0.4-0.4,0.7-0.3,0.9,0.2C27.4,83.1,27.1,83,26.8,82.9z"/>
	<path class="st0" d="M56.1,83.2c0.3-0.5,0.6-0.6,0.9-0.1C56.7,83.1,56.4,83.1,56.1,83.2z"/>
</g>
</svg>
