<?xml version="1.0" encoding="utf-8"?>
<!-- Generator: Adobe Illustrator 27.1.0, SVG Export Plug-In . SVG Version: 6.00 Build 0)  -->
<svg version="1.1" id="Layer_1" xmlns="http://www.w3.org/2000/svg" xmlns:xlink="http://www.w3.org/1999/xlink" x="0px" y="0px"
	 viewBox="0 0 200 200" style="enable-background:new 0 0 200 200;" xml:space="preserve">
<style type="text/css">
	.st0{fill:#EC3783;stroke:#EC3783;stroke-width:2;stroke-miterlimit:10;}
</style>
<g>
	<path class="st0" d="M179.8,145.6c6.2,0,11.9,0,17.8,0c0.7,5.8,0.7,10.4-3.8,15.2c-6.5,7-13.2,9.5-22.8,9.4
		c-50.2-0.5-100.5-0.3-150.7-0.2c-2.7,0-4.9-0.5-6.7-2.7c-1.9-2.3-3.9-4.6-6.3-6.3c-5.6-3.9-5.5-9.3-4.5-15.4c5.8,0,11.5,0,17.9,0
		c0-2.2,0-4,0-5.8c0-31.5,0-63,0-94.5c0-11.7,4-15.7,15.5-15.7c42.9,0,85.7,0,128.6,0c10.8,0,15.1,4.3,15.1,15.3
		c0,31.8,0,63.6,0,95.4C179.8,141.9,179.8,143.5,179.8,145.6z M173.5,145.7c0-2,0-3.4,0-4.8c0-32.1,0-64.2,0-96.3c0-7.1-1.9-9-9.1-9
		c-42.9,0-85.7,0-128.6,0c-7.3,0-9.1,1.8-9.1,9c0,32.1,0,64.2,0,96.3c0,1.5,0,3,0,4.8c2.1,0,3.7,0,5.2,0c14.3,0,28.7,0.1,43-0.1
		c3.5,0,6.2,0.8,8.6,3.4c1.3,1.4,3.5,2.6,5.3,2.6c7.5,0.3,15,0.2,22.6,0c1.5,0,3.5-0.7,4.4-1.8c3-3.7,6.7-4.5,11.2-4.4
		c7.7,0.3,15.3,0.1,23,0.1C157.6,145.7,165.3,145.7,173.5,145.7z M192.3,153.4c-0.2-0.5-0.3-1-0.5-1.5c-1.6,0-3.2,0-4.8,0
		c-19.7,0-39.4,0.1-59.2-0.1c-3.5,0-6.1,0.9-8.6,3.4c-1.5,1.5-4,2.6-6.1,2.6c-8.5,0.3-17,0.3-25.5,0c-2.2-0.1-4.5-1.7-6.6-2.7
		c-2.3-1.1-4.6-3.1-6.9-3.2c-20.6-0.3-41.1-0.2-61.7-0.1c-1.3,0-2.6,0.2-5.2,0.5c3.8,3.8,6.5,6.9,9.6,9.5c1.4,1.2,3.4,2.2,5.1,2.2
		c52.2,0.1,104.4,0.1,156.6,0.1c1.2,0,2.8,0,3.6-0.8C185.6,160.2,188.9,156.7,192.3,153.4z"/>
	<path class="st0" d="M33.1,139.1c0-32.5,0-64.7,0-97.1c44.7,0,89.2,0,134,0c0,32.4,0,64.6,0,97.1C122.6,139.1,78,139.1,33.1,139.1z
		 M39,133.2c40.9,0,81.5,0,122.1,0c0-28.5,0-56.7,0-84.9c-40.8,0-81.4,0-122.1,0C39,76.6,39,104.7,39,133.2z"/>
	<path class="st0" d="M130.8,119.1c-14.2,0.1-25.5-10.9-25.6-25.1c-0.1-14.3,11-25.8,25.3-26c13.8-0.1,25.6,11.4,25.7,25.2
		C156.3,107.6,145.1,119,130.8,119.1z M149.5,96.7c-5.5,0-10.7,0-15.9,0c-0.8,0-1.8,0.2-2.3,0.7c-4,3.9-7.9,7.8-11.9,11.8
		C131.2,117.8,147.6,111,149.5,96.7z M114.7,83.1c-5,6.1-4.9,16,0.3,21.3c3.6-3.5,7.3-7,10.9-10.4C122.1,90.3,118.4,86.6,114.7,83.1
		z M134,90.4c5.5,0,10.5,0,15.5,0c-1.1-8.3-7.8-14.9-15.5-15.4C134,80.1,134,85.1,134,90.4z M127.4,85.6c0-3.8,0-7.2,0-11.4
		c-2.9,1.3-5.4,2.3-8.2,3.5C122.1,80.5,124.5,82.8,127.4,85.6z"/>
	<path class="st0" d="M46.8,64.9c2.4,0,4.1,0,6.2,0c0,16.9,0,33.5,0,50.7c17.1,0,33.7,0,50.7,0c0,2.1,0,3.7,0,6c-1.5,0-3,0-4.5,0
		c-13.2,0-26.4-0.1-39.5,0.1c-2.5,0-5,1.1-7.6,1.3c-1.7,0.1-4.2,0.2-5-0.8c-1.1-1.4-1.2-3.8-1.2-5.8c0-2.2,0.9-4.4,1-6.5
		c0.1-13.3,0-26.7,0-40C46.8,68.2,46.8,66.7,46.8,64.9z"/>
	<path class="st0" d="M78.7,83.5c1.7,1.3,2.9,2.4,4.2,3.4c-1.3,1.4-2.5,2.6-3.8,3.9c-1.1-1.4-2.2-2.6-3.4-4.1
		C76.6,85.9,77.7,84.6,78.7,83.5z"/>
	<path class="st0" d="M92.9,97.1c0.9,1.2,1.8,2.5,2.9,4.1c-0.6,0.6-1.8,1.9-3.2,3.4c-1.3-1.4-2.4-2.6-3.9-4.2
		C90.1,99.3,91.4,98.3,92.9,97.1z"/>
	<path class="st0" d="M86.9,73.1c0.9-0.9,2.1-2,3.5-3.3c1.2,1.2,2.5,2.3,4,3.8c-1.4,1.3-2.7,2.5-4.1,3.8
		C89.2,76,88.2,74.8,86.9,73.1z"/>
	<path class="st0" d="M88.1,78.7c1.5,1.4,2.6,2.5,3.9,3.8c-1.2,1.3-2.4,2.6-3.7,4c-1.3-1.2-2.4-2.3-3.9-3.7
		C85.6,81.4,86.7,80.2,88.1,78.7z"/>
	<path class="st0" d="M63.6,80.6c0.8,2,1.5,3.5,2.2,5.1c0.5-0.2,1-0.4,1.5-0.6c-1.3,1.1-2.6,2.2-4.2,3.5c-0.8-1.4-1.6-2.8-2.6-4.5
		C60.8,83.6,61.9,82.5,63.6,80.6z"/>
	<path class="st0" d="M103.1,69.5c-1.3,0.8-2.8,1.7-4.4,2.6c-0.4-0.5-1.3-1.8-2.5-3.5c0.7-0.8,1.8-2,3.3-3.6
		C100.6,66.6,101.7,67.9,103.1,69.5z"/>
	<path class="st0" d="M97.9,87.3c-0.8,1-1.8,2.3-2.8,3.5c-1.4-1.3-2.7-2.4-4.1-3.6c1.3-1.4,2.4-2.6,3.9-4.2C96,84.5,97,86,97.9,87.3
		z"/>
	<path class="st0" d="M81.4,92.2c1.4,1.4,2.5,2.5,4.1,4.1c-1.4,1.1-2.7,2.1-4.4,3.4c-1-1.1-2-2.2-3.3-3.6
		C78.9,94.8,80,93.6,81.4,92.2z"/>
	<path class="st0" d="M60.5,97.3c0.4-0.4,1.5-1.6,2.9-3c1.3,1.4,2.5,2.6,3.8,4c-1.2,1.3-2.3,2.5-3.8,4.1
		C62.3,100.6,61.5,99.1,60.5,97.3z"/>
	<path class="st0" d="M70.4,108.8c-1.5-1.3-2.7-2.5-4.1-3.7c1.3-1.4,2.4-2.6,4-4.2c1,1.5,2,3,3.1,4.7
		C72.7,106.3,71.5,107.5,70.4,108.8z"/>
	<path class="st0" d="M76.5,96.1c-1.5,1.4-2.7,2.5-4,3.7c-1.3-1.2-2.5-2.3-4-3.7c1.5-1.2,2.8-2.4,4.3-3.6
		C73.7,93.5,74.9,94.6,76.5,96.1z"/>
	<path class="st0" d="M58.7,113.7c-1.1-1.1-2.1-2.1-3.4-3.4c0.9-1,2.1-2.2,3.4-3.6c1.4,1.2,2.6,2.3,4.4,3.9
		C61.6,111.7,60.2,112.7,58.7,113.7z"/>
</g>
</svg>
