<?xml version="1.0" encoding="utf-8"?>
<!-- Generator: Adobe Illustrator 27.0.0, SVG Export Plug-In . SVG Version: 6.00 Build 0)  -->
<svg version="1.1" id="Layer_1" xmlns="http://www.w3.org/2000/svg" xmlns:xlink="http://www.w3.org/1999/xlink" x="0px" y="0px"
	 viewBox="0 0 150 150" style="enable-background:new 0 0 150 150;" xml:space="preserve">
<style type="text/css">
	.st0{fill:#EC3783;}
</style>
<path class="st0" d="M1.9,60.5l70,76.5l0.5,0.5c0.2,0.1,0.4,0.3,0.5,0.4h0.6l0.2,0.2c0.5,0,0.9,0.1,1.1,0.2c0.1,0,0.1,0,0.1,0
	c0,0,0.1,0,0.1,0l0.5-0.5h0.7c0.2-0.1,0.4-0.1,0.6-0.2c0.1-0.1,0.2-0.1,0.2-0.1l0.1-0.1c0.1-0.1,0.1-0.1,0.2-0.2
	c0.3-0.3,0.8-0.8,1.5-1l69.4-75.8c0.1-0.2,0.3-0.5,0.6-0.8c0.1-0.4,0.2-0.8,0.4-1.1v-2.3l-1.5-3.1h0.2L126,13.6
	c-0.6-1.3-1.9-2-3.5-2H28.2c-0.1,0-0.2,0-0.3,0l-0.5,0.2h-0.2L27,12.1h-0.7c0,0-0.1,0-0.1,0c-0.1,0.1-0.3,0.1-0.4,0.2
	c0,0-0.1,0-0.1,0.1l-0.1,0c-0.1,0.1-0.2,0.2-0.4,0.3c-0.1,0.1-0.2,0.2-0.3,0.3c-0.1,0.2-0.3,0.3-0.4,0.4c-0.1,0.3-0.3,0.6-0.6,0.8
	L1.6,55.2c-0.1,0.2-0.2,0.4-0.3,0.5c0,0,0,0,0,0v0.5l-0.2,0.2c0,0.5-0.1,0.9-0.2,1.2v0.9c0,0,0,0,0,0L1,58.9C1,58.9,1.1,59,1.1,59
	c0.1,0.2,0.3,0.5,0.5,0.9C1.7,60.2,1.8,60.3,1.9,60.5z M14.5,61.7H42l0.3,0.6L63,114.9L14.5,61.7z M75.3,123.1L50.9,61.7h48.8
	L75.3,123.1z M87.6,114.9l21.1-53.2h27.4L87.6,114.9z M123,25.5l15.2,27.9H112L123,25.5z M116.5,19.9l-13.4,33.5L82.3,19.9H116.5z
	 M93.5,53.5H57l18.1-29.1L93.5,53.5z M68.4,19.9L47.6,53.2L34.5,19.9H68.4z M27.7,25.4l11.2,28.1H12.2L27.7,25.4z"/>
</svg>
