<?xml version="1.0" encoding="utf-8"?>
<!-- Generator: Adobe Illustrator 27.0.0, SVG Export Plug-In . SVG Version: 6.00 Build 0)  -->
<svg version="1.1" id="Layer_1" xmlns="http://www.w3.org/2000/svg" xmlns:xlink="http://www.w3.org/1999/xlink" x="0px" y="0px"
	 viewBox="0 0 150 150" style="enable-background:new 0 0 150 150;" xml:space="preserve">
<style type="text/css">
	.st0{fill:#EC3783;}
</style>
<g>
	<path class="st0" d="M93.3,59.4c-1.3,0-2.5,0.3-3.7,0.7c-0.7-2.7-2.5-5-4.9-6.3c-2.5-1.3-5.4-1.5-8-0.5V32.8c0-3.6-1.9-6.9-5-8.6
		c-3.1-1.8-6.9-1.8-10,0c-3.1,1.8-5,5.1-5,8.6v54.4l-1.5-1.7c-0.1-0.1-0.3-0.3-0.4-0.4c-3.2-2.5-7.4-3.3-11.3-2
		c-3.9,1.2-6.9,4.3-8.1,8.2c-1.2,3.9-0.3,8.1,2.2,11.3l16.1,24c0.1,0.2,0.3,0.3,0.4,0.5c2.1,2.1,4.5,3.9,7.1,5.3v16.8H68v-18.9
		c0-1.3-0.8-2.5-2-3.1c-2.5-1.1-4.9-2.7-6.8-4.7l-16-23.8c-0.1-0.1-0.2-0.2-0.2-0.3c-0.9-1-1.4-2.3-1.4-3.7c0-1.4,0.5-2.7,1.4-3.8
		c0.9-1,2.2-1.7,3.6-1.8c1.4-0.1,2.8,0.2,3.9,1.1l7.1,8h0c0.9,1,2.4,1.4,3.7,0.9c1.3-0.5,2.1-1.7,2.2-3.1V32.8
		c0-1.8,1.5-3.3,3.3-3.3S70,31,70,32.8v49.9h6.6V62.7c0-1.8,1.5-3.3,3.3-3.3s3.3,1.5,3.3,3.3v19.9H90V69.4c0-1.8,1.5-3.3,3.3-3.3
		s3.3,1.5,3.3,3.3v13.3h6.6V76c0-1.8,1.5-3.3,3.3-3.3s3.3,1.5,3.3,3.3l-0.1,28.1c0.1,4.2-0.9,8.4-2.9,12.1c-2,3.7-5,6.8-8.6,8.9
		c-1,0.6-1.7,1.7-1.7,2.9v21.1h6.6v-19.3c8.5-5.8,13.4-15.5,13.2-25.7l0.1-28.1c0-3.3-1.6-6.4-4.4-8.3c-2.7-1.9-6.2-2.2-9.3-1
		c-0.6-2.1-1.8-4-3.6-5.3C97.6,60.2,95.5,59.4,93.3,59.4L93.3,59.4z"/>
	<path class="st0" d="M47.7,11.2c-1.4-0.8-3.1-1-4.7-0.6c-1.6,0.4-3,1.4-3.8,2.8l-4.8,8c-0.9,1.4-1.1,3.1-0.7,4.7
		c0.4,1.6,1.5,3,3,3.8l1.5,0.8c-0.3,2.2-0.3,4.4,0,6.6l-1.5,0.8c-1.5,0.8-2.6,2.2-3,3.8c-0.4,1.6-0.2,3.3,0.7,4.7l4.8,8
		c0.9,1.4,2.2,2.4,3.8,2.8c1.6,0.4,3.3,0.2,4.7-0.6l1.5-0.9v-5.4c0-0.4,0.1-0.8,0.1-1.2c-1.1,0-2.2,0.2-3.1,0.7L44.7,51l-4.4-7.3
		l1.3-0.7v0c1.1-0.6,2-1.5,2.5-2.6c0.6-1.1,0.8-2.4,0.6-3.6c-0.1-0.9-0.2-1.9-0.2-2.8c0-0.9,0.1-1.9,0.2-2.8
		c0.2-1.2-0.1-2.5-0.6-3.6c-0.6-1.1-1.5-2-2.5-2.6l-1.3-0.7l4.4-7.3l1.6,0.9v0c1.1,0.6,2.3,0.9,3.6,0.8c1.2-0.1,2.4-0.5,3.4-1.3
		c1.5-1.1,3.2-2,4.9-2.7c1.2-0.4,2.2-1.2,2.9-2.3c0.7-1,1.1-2.3,1.1-3.5V7.5h9v1.5c0,1.3,0.4,2.5,1.1,3.5c0.7,1,1.7,1.8,2.9,2.3
		c1.7,0.7,3.4,1.6,4.9,2.7c1,0.7,2.2,1.2,3.4,1.3c1.2,0.1,2.5-0.2,3.6-0.8l1.6-0.9l4.4,7.3l-1.3,0.7h0c-1.1,0.6-2,1.5-2.5,2.6
		s-0.8,2.4-0.6,3.6c0.1,0.9,0.2,1.9,0.2,2.8c0,0.9-0.1,1.9-0.2,2.8c-0.2,1.2,0.1,2.5,0.6,3.6c0.6,1.1,1.5,2,2.5,2.6l1.3,0.7
		l-4.4,7.3l-1.6-0.9h0c-1-0.5-2-0.8-3.1-0.7c0,0.4,0.1,0.8,0.1,1.2v5.4l1.5,0.8c1.4,0.8,3.1,1,4.7,0.6s3-1.4,3.8-2.8l4.8-8
		c0.9-1.4,1.1-3.1,0.7-4.7c-0.4-1.6-1.5-3-3-3.8l-1.5-0.8c0.3-2.2,0.3-4.4,0-6.6l1.5-0.8c1.5-0.8,2.6-2.2,3-3.8
		c0.4-1.6,0.2-3.3-0.7-4.7l-4.8-8h0C93.4,12,92,11,90.4,10.6c-1.6-0.4-3.3-0.2-4.7,0.6l-1.6,0.9h0c-1.9-1.4-4-2.6-6.2-3.5V7
		c0-1.7-0.7-3.2-1.9-4.4c-1.2-1.2-2.8-1.8-4.5-1.8h-9.6c-1.7,0-3.3,0.6-4.4,1.8c-1.2,1.2-1.9,2.7-1.9,4.4v1.6
		c-2.2,0.9-4.2,2.1-6.1,3.5L47.7,11.2z"/>
</g>
</svg>
