<?xml version="1.0" encoding="utf-8"?>
<!-- Generator: Adobe Illustrator 27.0.0, SVG Export Plug-In . SVG Version: 6.00 Build 0)  -->
<svg version="1.1" id="Layer_1" xmlns="http://www.w3.org/2000/svg" xmlns:xlink="http://www.w3.org/1999/xlink" x="0px" y="0px"
	 viewBox="0 0 150 150" style="enable-background:new 0 0 150 150;" xml:space="preserve">
<style type="text/css">
	.st0{fill:#EC3783;}
</style>
<g>
	<path class="st0" d="M38,25.3c1.6-10.9,7.4-19,18.2-22.8c10.7-3.7,20.2-1,28.4,6.5c12.6-8.5,28.9,1.1,27.4,16.4
		c1.7,0.1,3.4,0.1,5,0.4c7.4,1.2,12.7,8,12.2,15.6c-0.5,7.4-6.7,13.5-14.1,13.7c-5.3,0.1-10.7,0-16,0c-0.6,0-1.1,0-1.9,0
		c0.1,2.6,0.1,5.1-3.5,5.2c0.3,0.6,0.5,1,0.7,1.4c0.7,1.2,0.6,2.4-0.5,3.4c-2.1,2.1-4.3,4.3-6.4,6.4c-1.4,1.4-2,1.4-4.8,0
		c-0.1,0.4-0.3,0.9-0.4,1.3C82,74.3,81.1,75,79.6,75c-2.9,0-5.8,0-8.6,0c-2.3,0-2.8-0.4-3.5-2.6c-0.1-0.2-0.2-0.5-0.3-0.8
		c-0.4,0.2-0.8,0.5-1.2,0.7c-1.2,0.6-2.3,0.6-3.2-0.4c-2.3-2.2-4.5-4.5-6.8-6.8c-1.6-1.6-0.6-3,0.4-4.6c-3.2-0.3-4-2.3-3.3-5.3
		c-0.7,0-1.3,0-1.8,0c-5.3,0-10.7,0.1-16,0c-7.3-0.1-13.2-5.6-14.3-13.1c-0.9-6.7,3.4-13.6,10-15.7C33.1,25.8,35.6,25.7,38,25.3z
		 M97.2,50.3c0.5,0,0.9,0.1,1.2,0.1c5.3,0,10.7,0,16,0c5.6,0,9.9-4.4,9.9-9.9c0-5.5-4.4-9.8-9.9-9.9c-1.7,0-3.4,0-5.1,0
		c-2.5,0-3.4-1.3-2.9-3.7c0.3-1,0.6-2.1,0.6-3.2c0.1-5.3-2.2-9.3-6.9-11.6c-4.8-2.3-9.4-1.6-13.5,1.8c-2,1.7-3,1.6-4.7-0.3
		c-0.2-0.2-0.3-0.4-0.5-0.6C73.7,4.7,61,3.5,51.9,10.3c-5.7,4.3-8.6,10-9,17.1c-0.1,2.3-0.9,3.1-3.2,3.1c-1.2,0-2.5,0-3.7,0
		c-6,0-10.4,4.2-10.4,9.9c0,5.6,4.4,9.8,10.4,9.8c5,0,10.1,0,15.1,0c0.5,0,1,0,1.4-0.1c0.2-1.3,0-2.6,0.6-3.5c0.6-0.9,1.9-1.3,2.9-2
		c-1.2-2.4-1.3-3-0.2-4.2c2.3-2.3,4.6-4.6,6.9-6.9c0.9-0.9,2-1,3.1-0.4c0.4,0.2,0.9,0.5,1.3,0.7c1.3-3.4,1.3-3.4,4.9-3.4
		c2,0,4,0,6,0c3.4,0,3.4,0,4.6,3.2c0,0.1,0.2,0.1,0.2,0.1c2.5-1.3,3.1-1.4,4.4-0.1c2.2,2.2,4.4,4.4,6.7,6.6c1,1,1.1,2.1,0.4,3.4
		c-0.2,0.4-0.4,0.8-0.7,1.3C97.3,45.3,97.4,47.6,97.2,50.3z M72,70.1c1.1,0,2.1,0,3,0c1,0,1.9,0,2.9,0c1.9-5.5,1.9-5.5,7.6-2.9
		c0.5-0.6,1-1.4,1.6-2c2.1-2.1,2.1-2.1,0.7-4.8c-0.9-1.8-0.3-3.3,1.6-3.8c0.9-0.3,1.8-0.5,2.7-0.7c0-2.1,0-4,0-6
		c-1-0.3-2-0.5-2.9-0.7c-1.7-0.5-2.4-2.1-1.6-3.7c0.3-0.7,0.8-1.3,1.1-2c0.1-0.3,0.1-0.9-0.1-1.2c-1.1-1.3-2.3-2.6-3.5-3.8
		c-6.1,3.7-6.4,1.5-7.4-2.8c-2,0-4,0-5.9,0c-0.2,0.9-0.4,1.8-0.7,2.6c-0.6,2.1-2.1,2.7-4,1.7c-0.6-0.3-1.1-0.7-1.7-1
		c-0.3-0.1-0.9-0.1-1.2,0.1c-1.3,1.1-2.6,2.3-3.8,3.4c2.6,5.4,2.6,5.4-2.9,7.5c0,1.9,0,3.9,0,5.8c1.6,0.8,3.8,0.3,4.6,2.4
		c0.8,2-1.3,3.2-1.6,5.1c0.6,0.5,1.3,1,1.9,1.7c2.1,2.1,2.1,2.1,4.8,0.7c1.7-0.9,3.3-0.3,3.9,1.6C71.5,68.1,71.7,69,72,70.1z"/>
	<path class="st0" d="M3.5,116.8c0-7,0.1-14,0-21c-0.1-3.3,1.3-5.5,4-7.1c3.3-2,7-2.9,10.8-3.4c7.2-0.8,14.4-0.8,21.4,1.4
		c1.4,0.4,2.7,1,3.9,1.7c3,1.6,4.5,4,4.4,7.6c-0.1,13.9-0.1,27.8,0,41.8c0,3.7-1.6,6.1-4.7,7.8c-3.1,1.7-6.5,2.5-10,2.9
		c-7.2,0.9-14.4,0.8-21.4-1.4c-1.4-0.4-2.7-1-3.9-1.7c-3-1.7-4.6-4.1-4.5-7.7C3.6,130.8,3.5,123.8,3.5,116.8z M8.4,101.5
		c0,2.5,0.1,4.8,0,7.2c0,1.2,0.4,2.1,1.4,2.5c1.6,0.8,3.1,1.6,4.8,2c6,1.6,12.2,1.7,18.4,0.7c2.8-0.4,5.5-1.5,8.2-2.4
		c0.8-0.3,1.7-1.3,1.8-2.1c0.2-2.6,0.1-5.2,0.1-7.9C31.4,105.8,19.9,105.8,8.4,101.5z M8.4,116.2c0,2.3,0.2,4.4,0,6.4
		c-0.2,2.2,0.8,3.4,2.6,4.2c0.6,0.2,1.1,0.5,1.7,0.7c6.6,2.1,13.5,2.3,20.3,1.3c2.7-0.4,5.4-1.4,8.1-2.4c0.8-0.3,1.8-1.3,1.8-2
		c0.2-2.6,0.1-5.3,0.1-8.1c-5.6,2.4-11.3,3.3-17.2,3.3C19.8,119.5,14.1,118.6,8.4,116.2z M42.9,131.1c-11.5,4.3-23,4.3-34.5,0
		c0,1.7,0,3.3,0,4.8c0,4.5,0.5,5.1,4.8,6.5c0.4,0.1,0.9,0.3,1.3,0.4c6.1,1.5,12.2,1.7,18.4,0.7c2.8-0.4,5.5-1.5,8.2-2.4
		c0.8-0.3,1.7-1.3,1.8-2.1C43.1,136.4,42.9,133.8,42.9,131.1z M26.9,99.7c1.4-0.1,4.3-0.1,7-0.7c2.7-0.6,5.3-1.6,7.8-2.7
		c1.6-0.8,1.6-2,0.2-3c-1.3-0.8-2.7-1.6-4.1-2c-7.5-2.1-15.1-2.1-22.7-0.4c-2,0.4-3.9,1.4-5.7,2.4c-1.3,0.8-1.3,1.8,0,2.7
		c1,0.7,2.1,1.3,3.2,1.7C16.7,99.3,21.1,99.6,26.9,99.7z"/>
	<path class="st0" d="M52.8,116.9c0-7,0.1-14.1,0-21.1c-0.1-3.3,1.3-5.5,4-7.1c3.3-2,7-2.9,10.8-3.4c7.2-0.9,14.5-0.8,21.5,1.4
		c1.3,0.4,2.6,1,3.8,1.7c3,1.6,4.5,4,4.4,7.6c-0.1,13.9-0.1,27.8,0,41.8c0,3.7-1.6,6.1-4.7,7.8c-3.1,1.7-6.5,2.5-10,2.9
		c-7.3,0.9-14.5,0.8-21.5-1.4c-1.3-0.4-2.6-1-3.8-1.6c-3-1.7-4.6-4.1-4.5-7.7C52.9,130.8,52.8,123.9,52.8,116.9z M57.7,101.5
		c0,1.7,0,3.2,0,4.8c0,4.5,0.4,5.1,4.8,6.5c0.5,0.2,1,0.3,1.5,0.4c6,1.5,12.1,1.6,18.2,0.7c2.8-0.4,5.5-1.4,8.2-2.4
		c0.8-0.3,1.7-1.4,1.8-2.2c0.2-2.5,0.1-5.1,0.1-7.8C80.7,105.8,69.3,105.8,57.7,101.5z M92.3,116.3c-11.6,4.3-23,4.3-34.5,0
		c0,1.6,0,3.2,0,4.7c0,4.7,0.4,5.2,4.9,6.7c0.4,0.1,0.9,0.3,1.3,0.4c6,1.4,12.1,1.6,18.2,0.7c2.8-0.4,5.5-1.5,8.2-2.4
		c0.8-0.3,1.7-1.3,1.8-2.1C92.4,121.6,92.3,119,92.3,116.3z M92.3,131.1c-11.6,4.3-23,4.3-34.5,0c0,2.5,0.1,4.8,0,7.2
		c0,1.2,0.4,2.1,1.4,2.5c1.6,0.8,3.1,1.6,4.8,2c6.1,1.6,12.2,1.7,18.4,0.7c2.8-0.4,5.5-1.5,8.2-2.4c0.8-0.3,1.7-1.3,1.8-2.1
		C92.4,136.4,92.3,133.8,92.3,131.1z M76.3,99.7c1.4-0.1,4.3-0.1,7-0.7c2.7-0.6,5.3-1.5,7.8-2.7c1.7-0.8,1.6-2.1,0-3.1
		c-1.2-0.8-2.6-1.5-4-1.9c-7.6-2.1-15.3-2.1-23-0.3c-1.9,0.4-3.7,1.4-5.4,2.4c-1.3,0.8-1.3,1.8,0,2.7c1,0.7,2.1,1.3,3.2,1.7
		C66.1,99.3,70.5,99.6,76.3,99.7z"/>
	<path class="st0" d="M146.5,116.9c0,7-0.1,14.1,0,21.1c0.1,3.3-1.2,5.7-4,7.1c-2.7,1.3-5.7,2.5-8.6,3c-7.9,1.5-15.7,1.3-23.5-1
		c-1.3-0.4-2.5-0.9-3.7-1.6c-3.1-1.7-4.8-4.1-4.7-7.9c0.1-14,0.1-27.9,0-41.9c0-3.2,1.3-5.4,3.9-7c3.3-2.1,7-2.9,10.8-3.4
		c7.2-0.9,14.5-0.8,21.5,1.4c1.3,0.4,2.5,0.9,3.7,1.6c3.1,1.7,4.7,4.1,4.6,7.8C146.4,103.1,146.5,110,146.5,116.9z M107.1,101.5
		c0,1.6,0,3.2,0,4.7c0,4.7,0.4,5.2,4.9,6.7c0.4,0.1,0.9,0.3,1.3,0.4c6,1.4,12.1,1.6,18.2,0.7c2.8-0.4,5.5-1.5,8.2-2.4
		c0.8-0.3,1.7-1.3,1.8-2.1c0.2-2.6,0.1-5.2,0.1-7.9C130,105.8,118.6,105.8,107.1,101.5z M107.1,116.3c0,2.5,0.1,4.8,0,7.2
		c0,1.2,0.4,2.1,1.4,2.5c1.6,0.8,3.1,1.6,4.8,2c6,1.6,12.2,1.7,18.4,0.7c2.8-0.4,5.5-1.5,8.2-2.4c0.8-0.3,1.7-1.3,1.8-2.1
		c0.2-2.6,0.1-5.2,0.1-7.9C130,120.6,118.6,120.6,107.1,116.3z M141.6,131.1c-11.5,4.3-23,4.3-34.5,0c0,1.7,0,3.2,0,4.8
		c0,4.5,0.4,5.1,4.8,6.5c0.5,0.2,1,0.3,1.5,0.4c6.1,1.5,12.2,1.6,18.4,0.7c2.7-0.4,5.4-1.4,8.1-2.4c0.8-0.3,1.7-1.4,1.8-2.2
		C141.8,136.4,141.6,133.8,141.6,131.1z M123,89.8c-1.4,0.1-4.3,0.2-7.1,0.7c-2.6,0.5-5.1,1.4-7.5,2.6c-1.9,0.9-1.8,2.2,0,3.3
		c0.9,0.6,1.9,1.1,2.9,1.4c7.3,2.3,14.7,2.3,22.2,1c2.3-0.4,4.5-1.3,6.6-2.3c2-1,1.9-2.3,0-3.5c-0.9-0.5-1.8-1-2.8-1.3
		C133.2,90.1,128.9,89.9,123,89.8z"/>
	<path class="st0" d="M50.3,60.3c0,1.6,0,3.1,0,4.8c-0.5,0-1,0.1-1.5,0.1c-4.2,0-8.3,0-12.5,0c-5.2,0-8.2,3-8.2,8.2
		c0,2.9,0,5.9,0,8.9c-1.6,0-3.2,0-5.1,0c0.2-4.3-0.1-8.7,0.7-12.9c1-5.2,4.9-8.5,10.1-8.9C39.3,59.9,44.8,60.3,50.3,60.3z"/>
	<path class="st0" d="M99.7,65c0-1.5,0-3,0-4.5c0.1-0.1,0.2-0.2,0.2-0.2c5.2,0,10.4-0.2,15.6,0c5.9,0.3,10.7,5.1,11.2,11
		c0.3,3.6,0.1,7.3,0.1,11c-1.6,0-3.2,0-4.9,0c0-3,0-6,0-8.9c0-5.3-3-8.2-8.2-8.2c-4.5,0-9,0-13.6,0C100,65.1,99.9,65,99.7,65z"/>
	<path class="st0" d="M84.9,52.9c0,5.4-4.5,9.8-10,9.8c-5.4-0.1-9.8-4.5-9.8-9.9c0-5.5,4.5-9.9,9.9-9.9C80.5,43,84.9,47.4,84.9,52.9
		z M75.1,47.9c-2.7,0-4.9,2.1-5,4.8c-0.1,2.7,2.2,5,4.9,5c2.7,0,4.9-2.2,4.9-4.9C79.9,50.1,77.8,47.9,75.1,47.9z"/>
</g>
</svg>
