<?xml version="1.0" encoding="utf-8"?>
<!-- Generator: Adobe Illustrator 27.0.0, SVG Export Plug-In . SVG Version: 6.00 Build 0)  -->
<svg version="1.1" id="Layer_1" xmlns="http://www.w3.org/2000/svg" xmlns:xlink="http://www.w3.org/1999/xlink" x="0px" y="0px"
	 viewBox="0 0 150 150" style="enable-background:new 0 0 150 150;" xml:space="preserve">
<style type="text/css">
	.st0{fill:#EC3783;}
</style>
<g>
	<path class="st0" d="M125.7,44c2.5,1.9,5.5,3,8.7,3c8.1,0,14.7-6.6,14.7-14.7s-6.6-14.7-14.7-14.7s-14.7,6.6-14.7,14.7
		c0,1.6,0.3,3,0.8,4.4l-16.9,12c-2.5-1.9-5.5-3-8.7-3c-3.3,0-6.2,1.1-8.7,3l-16.9-12c0.5-1.4,0.8-2.8,0.8-4.4
		c0-8.1-6.6-14.7-14.7-14.7s-14.7,6.6-14.7,14.7c0,1.6,0.3,3,0.8,4.4l-16.9,12c-2.7-1.9-5.8-3.1-9.1-3.1c-8.1,0-14.7,6.6-14.7,14.7
		s6.6,14.7,14.7,14.7s14.7-6.6,14.7-14.7c0-1.6-0.3-3-0.8-4.4l16.9-12c2.5,1.9,5.5,3,8.7,3c3.3,0,6.2-1.1,8.7-3l16.9,12
		c-0.5,1.4-0.8,2.8-0.8,4.4c0,8.1,6.6,14.7,14.7,14.7s14.7-6.6,14.7-14.7c0-1.6-0.3-3-0.8-4.4L125.7,44z M134.6,26.5
		c3.1,0,5.6,2.5,5.6,5.6c0,3.1-2.5,5.6-5.6,5.6s-5.6-2.5-5.6-5.6C129,29,131.5,26.5,134.6,26.5z M15.6,66c-3.1,0-5.6-2.5-5.6-5.6
		s2.5-5.6,5.6-5.6s5.6,2.5,5.6,5.6C21.3,63.5,18.7,66,15.6,66z M55.2,37.9c-3.1,0-5.6-2.5-5.6-5.6c0-3.1,2.5-5.6,5.6-5.6
		c3.1,0,5.6,2.5,5.6,5.6C60.9,35.4,58.4,37.9,55.2,37.9z M94.9,66c-3.1,0-5.6-2.5-5.6-5.6s2.5-5.6,5.6-5.6c3.1,0,5.6,2.5,5.6,5.6
		C100.5,63.5,98,66,94.9,66z"/>
	<path class="st0" d="M24.8,87.9H6.5c-2.5,0-4.5,2-4.5,4.5v35.5c0,2.5,2,4.5,4.5,4.5h18.3c2.5,0,4.5-2,4.5-4.5l0-35.5
		C29.3,89.9,27.3,87.9,24.8,87.9L24.8,87.9z"/>
	<path class="st0" d="M104,87.9H85.9c-2.5,0-4.5,2-4.5,4.5v35.5c0,2.5,2,4.5,4.5,4.5h18.3c2.5,0,4.5-2,4.5-4.5V92.4
		C108.5,89.9,106.5,87.9,104,87.9z"/>
	<path class="st0" d="M64.3,59.8H46.2c-2.5,0-4.5,2-4.5,4.5v63.6c0,2.5,2,4.5,4.5,4.5h18.3c2.5,0,4.5-2,4.5-4.5l0-63.6
		C68.8,61.8,66.8,59.8,64.3,59.8L64.3,59.8z"/>
	<path class="st0" d="M143.7,59.8h-18.3c-2.5,0-4.5,2-4.5,4.5v63.6c0,2.5,2,4.5,4.5,4.5h18.3c2.5,0,4.5-2,4.5-4.5V64.3
		C148.2,61.8,146.2,59.8,143.7,59.8L143.7,59.8z"/>
</g>
</svg>
