<?xml version="1.0" encoding="utf-8"?>
<!-- Generator: Adobe Illustrator 27.0.0, SVG Export Plug-In . SVG Version: 6.00 Build 0)  -->
<svg version="1.1" id="Layer_1" xmlns="http://www.w3.org/2000/svg" xmlns:xlink="http://www.w3.org/1999/xlink" x="0px" y="0px"
	 viewBox="0 0 200 200" style="enable-background:new 0 0 200 200;" xml:space="preserve">
<style type="text/css">
	.st0{fill:#96C43D;}
</style>
<g>
	<path class="st0" d="M167.7,58.6c3.3,2.5,7.3,4,11.6,4c10.8,0,19.6-8.8,19.6-19.6s-8.8-19.6-19.6-19.6c-10.8,0-19.6,8.8-19.6,19.6
		c0,2.1,0.4,4,1.1,5.9l-22.6,16c-3.3-2.5-7.3-4-11.6-4c-4.4,0-8.3,1.5-11.6,4l-22.6-16c0.7-1.9,1.1-3.7,1.1-5.9
		c0-10.8-8.8-19.6-19.6-19.6S54.3,32.2,54.3,43c0,2.1,0.4,4,1.1,5.9l-22.6,16c-3.6-2.5-7.7-4.1-12.1-4.1c-10.8,0-19.6,8.8-19.6,19.6
		c0,10.8,8.8,19.6,19.6,19.6s19.6-8.8,19.6-19.6c0-2.1-0.4-4-1.1-5.9l22.6-16c3.3,2.5,7.3,4,11.6,4c4.4,0,8.3-1.5,11.6-4l22.6,16
		c-0.7,1.9-1.1,3.7-1.1,5.9c0,10.8,8.8,19.6,19.6,19.6s19.6-8.8,19.6-19.6c0-2.1-0.4-4-1.1-5.9L167.7,58.6z M179.6,35.3
		c4.1,0,7.5,3.3,7.5,7.5s-3.3,7.5-7.5,7.5c-4.1,0-7.5-3.3-7.5-7.5S175.5,35.3,179.6,35.3z M20.8,88c-4.1,0-7.5-3.3-7.5-7.5
		c0-4.1,3.3-7.5,7.5-7.5s7.5,3.3,7.5,7.5C28.4,84.7,24.9,88,20.8,88z M73.6,50.5c-4.1,0-7.5-3.3-7.5-7.5c0-4.1,3.3-7.5,7.5-7.5
		c4.1,0,7.5,3.3,7.5,7.5C81.3,47.2,77.9,50.5,73.6,50.5z M126.6,88c-4.1,0-7.5-3.3-7.5-7.5c0-4.1,3.3-7.5,7.5-7.5s7.5,3.3,7.5,7.5
		C134.1,84.7,130.8,88,126.6,88z"/>
	<path class="st0" d="M33.1,117.2H8.7c-3.3,0-6,2.7-6,6v47.4c0,3.3,2.7,6,6,6h24.4c3.3,0,6-2.7,6-6v-47.4
		C39.1,119.9,36.4,117.2,33.1,117.2L33.1,117.2z"/>
	<path class="st0" d="M138.8,117.2h-24.2c-3.3,0-6,2.7-6,6v47.4c0,3.3,2.7,6,6,6H139c3.3,0,6-2.7,6-6v-47.4
		C144.8,119.9,142.1,117.2,138.8,117.2z"/>
	<path class="st0" d="M85.8,79.7H61.6c-3.3,0-6,2.7-6,6v84.9c0,3.3,2.7,6,6,6h24.4c3.3,0,6-2.7,6-6V85.7
		C91.8,82.4,89.1,79.7,85.8,79.7L85.8,79.7z"/>
	<path class="st0" d="M191.7,79.7h-24.4c-3.3,0-6,2.7-6,6v84.9c0,3.3,2.7,6,6,6h24.4c3.3,0,6-2.7,6-6V85.7
		C197.7,82.4,195.1,79.7,191.7,79.7L191.7,79.7z"/>
</g>
</svg>
