<?xml version="1.0" encoding="utf-8"?>
<!-- Generator: Adobe Illustrator 27.0.0, SVG Export Plug-In . SVG Version: 6.00 Build 0)  -->
<svg version="1.1" id="Layer_1" xmlns="http://www.w3.org/2000/svg" xmlns:xlink="http://www.w3.org/1999/xlink" x="0px" y="0px"
	 viewBox="0 0 200 200" style="enable-background:new 0 0 200 200;" xml:space="preserve">
<style type="text/css">
	.st0{fill:#96C43D;}
</style>
<g>
	<path class="st0" d="M124.5,79.2c-1.7,0-3.3,0.4-4.9,0.9c-0.9-3.6-3.3-6.7-6.5-8.4c-3.3-1.7-7.2-2-10.7-0.7V43.6
		c0-4.8-2.5-9.2-6.7-11.5c-4.1-2.4-9.2-2.4-13.4,0s-6.7,6.8-6.7,11.5v72.7l-2-2.3c-0.1-0.1-0.4-0.4-0.5-0.5
		c-4.3-3.3-9.9-4.4-15.1-2.7c-5.2,1.6-9.2,5.7-10.8,11c-1.6,5.2-0.4,10.8,2.9,15.1l21.5,32.1c0.1,0.3,0.4,0.4,0.5,0.7
		c2.8,2.8,6,5.2,9.5,7.1v22.4h9.1v-25.3c0-1.7-1.1-3.3-2.7-4.1c-3.3-1.5-6.5-3.6-9.1-6.3l-21.4-31.8c-0.1-0.1-0.3-0.3-0.3-0.4
		c-1.2-1.3-1.9-3.1-1.9-4.9c0-1.9,0.7-3.6,1.9-5.1c1.2-1.3,2.9-2.3,4.8-2.4c1.9-0.1,3.7,0.3,5.2,1.5l9.5,10.7l0,0
		c1.2,1.3,3.2,1.9,4.9,1.2c1.7-0.7,2.8-2.3,2.9-4.1V43.6c0-2.4,2-4.4,4.4-4.4s4.3,2,4.3,4.4v66.7h8.8V83.6c0-2.4,2-4.4,4.4-4.4
		s4.4,2,4.4,4.4v26.6h9.1V92.5c0-2.4,2-4.4,4.4-4.4s4.4,2,4.4,4.4v17.8h8.8v-9c0-2.4,2-4.4,4.4-4.4s4.4,2,4.4,4.4l-0.1,37.5
		c0.1,5.6-1.2,11.2-3.9,16.2s-6.7,9.1-11.5,11.9c-1.3,0.8-2.3,2.3-2.3,3.9V199h8.8v-25.8c11.4-7.7,17.9-20.7,17.6-34.3l0.1-37.5
		c0-4.4-2.1-8.6-5.9-11.1c-3.6-2.5-8.3-2.9-12.4-1.3c-0.8-2.8-2.4-5.3-4.8-7.1C130.3,80.2,127.5,79.2,124.5,79.2L124.5,79.2z"/>
	<path class="st0" d="M63.6,14.8c-1.9-1.1-4.1-1.3-6.3-0.8c-2.1,0.5-4,1.9-5.1,3.7l-6.4,10.7c-1.2,1.9-1.5,4.1-0.9,6.3
		c0.5,2.1,2,4,4,5.1l2,1.1c-0.4,2.9-0.4,5.9,0,8.8l-2,1.1c-2,1.1-3.5,2.9-4,5.1c-0.5,2.1-0.3,4.4,0.9,6.3l6.4,10.7
		c1.2,1.9,2.9,3.2,5.1,3.7c2.1,0.5,4.4,0.3,6.3-0.8l2-1.2v-7.2c0-0.5,0.1-1.1,0.1-1.6c-1.5,0-2.9,0.3-4.1,0.9l-2,1.3l-5.9-9.8
		l1.7-0.9l0,0c1.5-0.8,2.7-2,3.3-3.5c0.8-1.5,1.1-3.2,0.8-4.8c-0.1-1.2-0.3-2.5-0.3-3.7c0-1.2,0.1-2.5,0.3-3.7
		c0.3-1.6-0.1-3.3-0.8-4.8c-0.8-1.5-2-2.7-3.3-3.5l-1.7-0.9l5.9-9.8l2.1,1.2l0,0c1.5,0.8,3.1,1.2,4.8,1.1c1.6-0.1,3.2-0.7,4.5-1.7
		c2-1.5,4.3-2.7,6.5-3.6c1.6-0.5,2.9-1.6,3.9-3.1c0.9-1.3,1.5-3.1,1.5-4.7V9.8h12v2c0,1.7,0.5,3.3,1.5,4.7c0.9,1.3,2.3,2.4,3.9,3.1
		c2.3,0.9,4.5,2.1,6.5,3.6c1.3,0.9,2.9,1.6,4.5,1.7c1.6,0.1,3.3-0.3,4.8-1.1l2.1-1.2l5.9,9.8l-1.7,0.9l0,0c-1.5,0.8-2.7,2-3.3,3.5
		c-0.7,1.5-1.1,3.2-0.8,4.8c0.1,1.2,0.3,2.5,0.3,3.7c0,1.2-0.1,2.5-0.3,3.7c-0.3,1.6,0.1,3.3,0.8,4.8c0.8,1.5,2,2.7,3.3,3.5l1.7,0.9
		l-5.9,9.8l-2.1-1.2l0,0c-1.3-0.7-2.7-1.1-4.1-0.9c0,0.5,0.1,1.1,0.1,1.6v7.2l2,1.1c1.9,1.1,4.1,1.3,6.3,0.8c2.1-0.5,4-1.9,5.1-3.7
		l6.4-10.7c1.2-1.9,1.5-4.1,0.9-6.3s-2-4-4-5.1l-2-1.1c0.4-2.9,0.4-5.9,0-8.8l2-1.1c2-1.1,3.5-2.9,4-5.1c0.5-2.1,0.3-4.4-0.9-6.3
		l-6.4-10.7l0,0c-0.9-2-2.8-3.3-4.9-3.9c-2.1-0.5-4.4-0.3-6.3,0.8l-2.1,1.2l0,0c-2.5-1.9-5.3-3.5-8.3-4.7V9.2c0-2.3-0.9-4.3-2.5-5.9
		c-1.6-1.6-3.7-2.4-6-2.4H82.6c-2.3,0-4.4,0.8-5.9,2.4c-1.6,1.6-2.5,3.6-2.5,5.9v2.1c-2.9,1.2-5.6,2.8-8.1,4.7L63.6,14.8z"/>
</g>
</svg>
