<?xml version="1.0" encoding="utf-8"?>
<!-- Generator: Adobe Illustrator 27.0.0, SVG Export Plug-In . SVG Version: 6.00 Build 0)  -->
<svg version="1.1" id="Layer_1" xmlns="http://www.w3.org/2000/svg" xmlns:xlink="http://www.w3.org/1999/xlink" x="0px" y="0px"
	 viewBox="0 0 200 200" style="enable-background:new 0 0 200 200;" xml:space="preserve">
<style type="text/css">
	.st0{fill:#96C43D;}
</style>
<g>
	<path class="st0" d="M50.3,33.3c2.1-14.6,9.9-25.5,24.4-30.6c14.4-5,27.1-1.3,38.1,8.7c16.9-11.4,38.8,1.5,36.8,22
		c2.3,0.1,4.6,0.1,6.7,0.5c9.9,1.6,17.1,10.7,16.4,21c-0.7,9.9-9,18.1-18.9,18.4c-7.1,0.1-14.4,0-21.5,0c-0.8,0-1.5,0-2.6,0
		c0.1,3.5,0.1,6.8-4.7,7c0.4,0.8,0.7,1.3,0.9,1.9c0.9,1.6,0.8,3.2-0.7,4.6c-2.8,2.8-5.8,5.8-8.6,8.6c-1.9,1.9-2.7,1.9-6.4,0
		c-0.1,0.5-0.4,1.2-0.5,1.7c-0.4,2-1.6,3-3.6,3c-3.9,0-7.8,0-11.6,0c-3.1,0-3.8-0.5-4.7-3.5c-0.1-0.3-0.3-0.7-0.4-1.1
		c-0.5,0.3-1.1,0.7-1.6,0.9c-1.6,0.8-3.1,0.8-4.3-0.5c-3.1-3-6-6-9.1-9.1c-2.1-2.1-0.8-4,0.5-6.2c-4.3-0.4-5.4-3.1-4.4-7.1
		c-0.9,0-1.7,0-2.4,0c-7.1,0-14.4,0.1-21.5,0c-9.8-0.1-17.7-7.5-19.2-17.6c-1.2-9,4.6-18.3,13.4-21.1C43.7,34,47.1,33.8,50.3,33.3z
		 M129.8,66.9c0.7,0,1.2,0.1,1.6,0.1c7.1,0,14.4,0,21.5,0c7.5,0,13.3-5.9,13.3-13.3c0-7.4-5.9-13.2-13.3-13.3c-2.3,0-4.6,0-6.8,0
		c-3.4,0-4.6-1.7-3.9-5c0.4-1.3,0.8-2.8,0.8-4.3c0.1-7.1-3-12.5-9.3-15.6c-6.4-3.1-12.6-2.1-18.1,2.4c-2.7,2.3-4,2.1-6.3-0.4
		c-0.3-0.3-0.4-0.5-0.7-0.8C98.3,5.6,81.2,4,69,13.2c-7.7,5.8-11.6,13.4-12.1,23c-0.1,3.1-1.2,4.2-4.3,4.2c-1.6,0-3.4,0-5,0
		c-8.1,0-14,5.6-14,13.3c0,7.5,5.9,13.2,14,13.2c6.7,0,13.6,0,20.3,0c0.7,0,1.3,0,1.9-0.1c0.3-1.7,0-3.5,0.8-4.7
		c0.8-1.2,2.6-1.7,3.9-2.7c-1.6-3.2-1.7-4-0.3-5.6c3.1-3.1,6.2-6.2,9.3-9.3c1.2-1.2,2.7-1.3,4.2-0.5c0.5,0.3,1.2,0.7,1.7,0.9
		c1.7-4.6,1.7-4.6,6.6-4.6c2.7,0,5.4,0,8.1,0c4.6,0,4.6,0,6.2,4.3c0,0.1,0.3,0.1,0.3,0.1c3.4-1.7,4.2-1.9,5.9-0.1c3,3,5.9,5.9,9,8.9
		c1.3,1.3,1.5,2.8,0.5,4.6c-0.3,0.5-0.5,1.1-0.9,1.7C130,60.2,130.1,63.3,129.8,66.9z M96,93.5c1.5,0,2.8,0,4,0c1.3,0,2.6,0,3.9,0
		c2.6-7.4,2.6-7.4,10.2-3.9c0.7-0.8,1.3-1.9,2.1-2.7c2.8-2.8,2.8-2.8,0.9-6.4c-1.2-2.4-0.4-4.4,2.1-5.1c1.2-0.4,2.4-0.7,3.6-0.9
		c0-2.8,0-5.4,0-8.1c-1.3-0.4-2.7-0.7-3.9-0.9c-2.3-0.7-3.2-2.8-2.1-5c0.4-0.9,1.1-1.7,1.5-2.7c0.1-0.4,0.1-1.2-0.1-1.6
		c-1.5-1.7-3.1-3.5-4.7-5.1c-8.2,5-8.6,2-9.9-3.8c-2.7,0-5.4,0-7.9,0c-0.3,1.2-0.5,2.4-0.9,3.5c-0.8,2.8-2.8,3.6-5.4,2.3
		c-0.8-0.4-1.5-0.9-2.3-1.3c-0.4-0.1-1.2-0.1-1.6,0.1c-1.7,1.5-3.5,3.1-5.1,4.6c3.5,7.3,3.5,7.3-3.9,10.1c0,2.6,0,5.2,0,7.8
		c2.1,1.1,5.1,0.4,6.2,3.2c1.1,2.7-1.7,4.3-2.1,6.8c0.8,0.7,1.7,1.3,2.6,2.3c2.8,2.8,2.8,2.8,6.4,0.9c2.3-1.2,4.4-0.4,5.2,2.1
		C95.3,90.8,95.6,92,96,93.5z"/>
	<path class="st0" d="M4,156.2c0-9.4,0.1-18.8,0-28.2c-0.1-4.4,1.7-7.4,5.4-9.5c4.4-2.7,9.4-3.9,14.5-4.6c9.7-1.1,19.3-1.1,28.7,1.9
		c1.9,0.5,3.6,1.3,5.2,2.3c4,2.1,6,5.4,5.9,10.2c-0.1,18.7-0.1,37.3,0,56.1c0,5-2.1,8.2-6.3,10.5c-4.2,2.3-8.7,3.4-13.4,3.9
		c-9.7,1.2-19.3,1.1-28.7-1.9c-1.9-0.5-3.6-1.3-5.2-2.3c-4-2.3-6.2-5.5-6-10.3C4.1,175,4,165.6,4,156.2z M10.5,135.6
		c0,3.4,0.1,6.4,0,9.7c0,1.6,0.5,2.8,1.9,3.4c2.1,1.1,4.2,2.1,6.4,2.7c8.1,2.1,16.4,2.3,24.7,0.9c3.8-0.5,7.4-2,11-3.2
		c1.1-0.4,2.3-1.7,2.4-2.8c0.3-3.5,0.1-7,0.1-10.6C41.4,141.4,26,141.4,10.5,135.6z M10.5,155.4c0,3.1,0.3,5.9,0,8.6
		c-0.3,3,1.1,4.6,3.5,5.6c0.8,0.3,1.5,0.7,2.3,0.9c8.9,2.8,18.1,3.1,27.3,1.7c3.6-0.5,7.3-1.9,10.9-3.2c1.1-0.4,2.4-1.7,2.4-2.7
		c0.3-3.5,0.1-7.1,0.1-10.9c-7.5,3.2-15.2,4.4-23.1,4.4C25.9,159.8,18.2,158.6,10.5,155.4z M56.9,175.4c-15.4,5.8-30.9,5.8-46.3,0
		c0,2.3,0,4.4,0,6.4c0,6,0.7,6.8,6.4,8.7c0.5,0.1,1.2,0.4,1.7,0.5c8.2,2,16.4,2.3,24.7,0.9c3.8-0.5,7.4-2,11-3.2
		c1.1-0.4,2.3-1.7,2.4-2.8C57.2,182.5,56.9,179,56.9,175.4z M35.4,133.2c1.9-0.1,5.8-0.1,9.4-0.9c3.6-0.8,7.1-2.1,10.5-3.6
		c2.1-1.1,2.1-2.7,0.3-4c-1.7-1.1-3.6-2.1-5.5-2.7c-10.1-2.8-20.3-2.8-30.5-0.5c-2.7,0.5-5.2,1.9-7.7,3.2c-1.7,1.1-1.7,2.4,0,3.6
		c1.3,0.9,2.8,1.7,4.3,2.3C21.7,132.7,27.6,133.1,35.4,133.2z"/>
	<path class="st0" d="M70.2,156.3c0-9.4,0.1-18.9,0-28.3c-0.1-4.4,1.7-7.4,5.4-9.5c4.4-2.7,9.4-3.9,14.5-4.6
		c9.7-1.2,19.5-1.1,28.9,1.9c1.7,0.5,3.5,1.3,5.1,2.3c4,2.1,6,5.4,5.9,10.2c-0.1,18.7-0.1,37.3,0,56.1c0,5-2.1,8.2-6.3,10.5
		c-4.2,2.3-8.7,3.4-13.4,3.9c-9.8,1.2-19.5,1.1-28.9-1.9c-1.7-0.5-3.5-1.3-5.1-2.1c-4-2.3-6.2-5.5-6-10.3
		C70.3,175,70.2,165.7,70.2,156.3z M76.8,135.6c0,2.3,0,4.3,0,6.4c0,6,0.5,6.8,6.4,8.7c0.7,0.3,1.3,0.4,2,0.5
		c8.1,2,16.3,2.1,24.4,0.9c3.8-0.5,7.4-1.9,11-3.2c1.1-0.4,2.3-1.9,2.4-3c0.3-3.4,0.1-6.8,0.1-10.5
		C107.7,141.4,92.3,141.4,76.8,135.6z M123.2,155.5c-15.6,5.8-30.9,5.8-46.3,0c0,2.1,0,4.3,0,6.3c0,6.3,0.5,7,6.6,9
		c0.5,0.1,1.2,0.4,1.7,0.5c8.1,1.9,16.3,2.1,24.4,0.9c3.8-0.5,7.4-2,11-3.2c1.1-0.4,2.3-1.7,2.4-2.8
		C123.4,162.6,123.2,159.2,123.2,155.5z M123.2,175.4c-15.6,5.8-30.9,5.8-46.3,0c0,3.4,0.1,6.4,0,9.7c0,1.6,0.5,2.8,1.9,3.4
		c2.1,1.1,4.2,2.1,6.4,2.7c8.2,2.1,16.4,2.3,24.7,0.9c3.8-0.5,7.4-2,11-3.2c1.1-0.4,2.3-1.7,2.4-2.8
		C123.4,182.5,123.2,179,123.2,175.4z M101.7,133.2c1.9-0.1,5.8-0.1,9.4-0.9c3.6-0.8,7.1-2,10.5-3.6c2.3-1.1,2.1-2.8,0-4.2
		c-1.6-1.1-3.5-2-5.4-2.6c-10.2-2.8-20.5-2.8-30.9-0.4c-2.6,0.5-5,1.9-7.3,3.2c-1.7,1.1-1.7,2.4,0,3.6c1.3,0.9,2.8,1.7,4.3,2.3
		C88,132.7,94,133.1,101.7,133.2z"/>
	<path class="st0" d="M196,156.3c0,9.4-0.1,18.9,0,28.3c0.1,4.4-1.6,7.7-5.4,9.5c-3.6,1.7-7.7,3.4-11.6,4c-10.6,2-21.1,1.7-31.6-1.3
		c-1.7-0.5-3.4-1.2-5-2.1c-4.2-2.3-6.4-5.5-6.3-10.6c0.1-18.8,0.1-37.5,0-56.3c0-4.3,1.7-7.3,5.2-9.4c4.4-2.8,9.4-3.9,14.5-4.6
		c9.7-1.2,19.5-1.1,28.9,1.9c1.7,0.5,3.4,1.2,5,2.1c4.2,2.3,6.3,5.5,6.2,10.5C195.9,137.8,196,147.1,196,156.3z M143.1,135.6
		c0,2.1,0,4.3,0,6.3c0,6.3,0.5,7,6.6,9c0.5,0.1,1.2,0.4,1.7,0.5c8.1,1.9,16.3,2.1,24.4,0.9c3.8-0.5,7.4-2,11-3.2
		c1.1-0.4,2.3-1.7,2.4-2.8c0.3-3.5,0.1-7,0.1-10.6C173.9,141.4,158.6,141.4,143.1,135.6z M143.1,155.5c0,3.4,0.1,6.4,0,9.7
		c0,1.6,0.5,2.8,1.9,3.4c2.1,1.1,4.2,2.1,6.4,2.7c8.1,2.1,16.4,2.3,24.7,0.9c3.8-0.5,7.4-2,11-3.2c1.1-0.4,2.3-1.7,2.4-2.8
		c0.3-3.5,0.1-7,0.1-10.6C173.9,161.3,158.6,161.3,143.1,155.5z M189.4,175.4c-15.4,5.8-30.9,5.8-46.3,0c0,2.3,0,4.3,0,6.4
		c0,6,0.5,6.8,6.4,8.7c0.7,0.3,1.3,0.4,2,0.5c8.2,2,16.4,2.1,24.7,0.9c3.6-0.5,7.3-1.9,10.9-3.2c1.1-0.4,2.3-1.9,2.4-3
		C189.7,182.5,189.4,179,189.4,175.4z M164.5,119.9c-1.9,0.1-5.8,0.3-9.5,0.9c-3.5,0.7-6.8,1.9-10.1,3.5c-2.6,1.2-2.4,3,0,4.4
		c1.2,0.8,2.6,1.5,3.9,1.9c9.8,3.1,19.7,3.1,29.8,1.3c3.1-0.5,6-1.7,8.9-3.1c2.7-1.3,2.6-3.1,0-4.7c-1.2-0.7-2.4-1.3-3.8-1.7
		C178.2,120.3,172.4,120.1,164.5,119.9z"/>
	<path class="st0" d="M66.8,80.3c0,2.1,0,4.2,0,6.4c-0.7,0-1.3,0.1-2,0.1c-5.6,0-11.1,0-16.8,0c-7,0-11,4-11,11c0,3.9,0,7.9,0,12
		c-2.1,0-4.3,0-6.8,0c0.3-5.8-0.1-11.7,0.9-17.3c1.3-7,6.6-11.4,13.6-12C52.1,79.8,59.4,80.3,66.8,80.3z"/>
	<path class="st0" d="M133.2,86.6c0-2,0-4,0-6c0.1-0.1,0.3-0.3,0.3-0.3c7,0,14-0.3,21,0c7.9,0.4,14.4,6.8,15,14.8
		c0.4,4.8,0.1,9.8,0.1,14.8c-2.1,0-4.3,0-6.6,0c0-4,0-8.1,0-12c0-7.1-4-11-11-11c-6,0-12.1,0-18.3,0
		C133.6,86.8,133.4,86.6,133.2,86.6z"/>
	<path class="st0" d="M113.3,70.4c0,7.3-6,13.2-13.4,13.2c-7.3-0.1-13.2-6-13.2-13.3c0-7.4,6-13.3,13.3-13.3
		C107.4,57.1,113.3,63,113.3,70.4z M100.1,63.7c-3.6,0-6.6,2.8-6.7,6.4c-0.1,3.6,3,6.7,6.6,6.7c3.6,0,6.6-3,6.6-6.6
		C106.6,66.6,103.8,63.7,100.1,63.7z"/>
</g>
</svg>
