<?xml version="1.0" encoding="utf-8"?>
<!-- Generator: Adobe Illustrator 27.0.0, SVG Export Plug-In . SVG Version: 6.00 Build 0)  -->
<svg version="1.1" id="Layer_1" xmlns="http://www.w3.org/2000/svg" xmlns:xlink="http://www.w3.org/1999/xlink" x="0px" y="0px"
	 viewBox="0 0 200 200" style="enable-background:new 0 0 200 200;" xml:space="preserve">
<style type="text/css">
	.st0{fill:#96C43D;}
</style>
<path class="st0" d="M2,80.6l93.8,102.5l0.7,0.7c0.3,0.1,0.5,0.4,0.7,0.5h0.8l0.3,0.3c0.7,0,1.2,0.1,1.5,0.3c0.1,0,0.1,0,0.1,0h0.1
	l0.7-0.7h0.9c0.3-0.1,0.5-0.1,0.8-0.3c0.1-0.1,0.3-0.1,0.3-0.1l0.1-0.1c0.1-0.1,0.1-0.1,0.3-0.3c0.4-0.4,1.1-1.1,2-1.3l93-101.6
	c0.1-0.3,0.4-0.7,0.8-1.1c0.1-0.5,0.3-1.1,0.5-1.5v-3.1l-2-4.2h0.3l-29.4-52.9c-0.8-1.7-2.5-2.7-4.7-2.7H37.2c-0.1,0-0.3,0-0.4,0
	l-0.7,0.3h-0.3l-0.3,0.4h-0.9h-0.1c-0.1,0.1-0.4,0.1-0.5,0.3c0,0-0.1,0-0.1,0.1h-0.1c-0.1,0.1-0.3,0.3-0.5,0.4
	c-0.1,0.1-0.3,0.3-0.4,0.4c-0.1,0.3-0.4,0.4-0.5,0.5c-0.1,0.4-0.4,0.8-0.8,1.1l-29.9,55c-0.1,0.3-0.3,0.5-0.4,0.7l0,0v0.7l-0.3,0.3
	c0,0.7-0.1,1.2-0.3,1.6V78l0,0l0.1,0.5l0.1,0.1c0.1,0.3,0.4,0.7,0.7,1.2C1.7,80.2,1.8,80.4,2,80.6z M18.8,82.2h36.9l0.4,0.8
	l27.7,70.5L18.8,82.2z M100.3,164.5L67.6,82.2H133L100.3,164.5z M116.8,153.5l28.3-71.3h36.7L116.8,153.5z M164.3,33.7l20.4,37.4
	h-35.1L164.3,33.7z M155.6,26.2l-18,44.9l-27.9-44.9H155.6z M124.7,71.2H75.8l24.3-39L124.7,71.2z M91.1,26.2L63.2,70.8L45.6,26.2
	H91.1z M36.5,33.6l15,37.7H15.8L36.5,33.6z"/>
</svg>
