<?xml version="1.0" encoding="utf-8"?>
<!-- Generator: Adobe Illustrator 27.0.0, SVG Export Plug-In . SVG Version: 6.00 Build 0)  -->
<svg version="1.1" id="Layer_1" xmlns="http://www.w3.org/2000/svg" xmlns:xlink="http://www.w3.org/1999/xlink" x="0px" y="0px"
	 viewBox="0 0 200 200" style="enable-background:new 0 0 200 200;" xml:space="preserve">
<style type="text/css">
	.st0{fill:#96C43D;}
</style>
<g>
	<path class="st0" d="M88.1,186.1l1.9-10.8c-38.9-7.2-67-41.2-67-81.1c0-8,1.1-15.9,3.3-23.3l0.7-2.3l6.5,11.5l9.5-5.5L30.7,53.3
		c-0.7-1.2-2-2.1-3.3-2.5c-1.5-0.4-2.9-0.1-4.1,0.5L2,64l5.6,9.3l8-4.7L15,70.9c-2,7.6-2.9,15.5-2.9,23.3c0,22.1,7.9,43.7,22.1,60.5
		C48,171.1,67.2,182.3,88.1,186.1z"/>
	<path class="st0" d="M198,94.2c0-10.7-1.7-21-5.2-31l-10.3,3.7c3.1,8.8,4.7,18,4.7,27.3c0,18.5-6.4,36.6-17.8,51.3
		c-11.5,14.4-27.3,24.6-44.9,29l-2.3,0.5l6.7-11.6l-9.5-5.5l-12.3,21.3c-1.5,2.7-0.5,6,2,7.5l21.4,12.4l5.5-9.5l-8.1-4.7l2.3-0.7
		c16.5-4.5,31.4-13.7,43.2-26.4C189.1,140.6,198,117.9,198,94.2z"/>
	<path class="st0" d="M182.7,19.6h-10.9v9.5l-1.7-1.6c-17.5-17.2-40.6-26.6-65-26.6c-28,0-54.1,12.4-71.8,34.1l8.5,6.8
		c15.7-19,38.6-30,63.3-30c22.4,0,44.1,9.3,59.4,25.7l1.6,1.6h-13.2V50h24.4c1.5,0,2.8-0.5,3.9-1.6c1.1-1.1,1.6-2.4,1.6-3.9
		L182.7,19.6z"/>
	<path class="st0" d="M134.4,38.4c-8.3-8.1-19.3-12.7-30.9-12.7c-0.3,0-0.4,0-0.7,0C91.2,25.9,80.3,30.7,72,39.2
		S59.2,58.8,59.4,70.4c0.1,10.5,4,20.6,10.9,28.5c4.8,5.5,8.3,11.9,10,18.6l0.3,1.2h-7.9v10.9h8.9V140c0,6.4,5.2,11.5,11.5,11.5
		h20.4l0,0c6.4,0,11.5-5.2,11.5-11.5v-10.4h8.9v-10.9H126l0.3-1.2c1.9-6.8,5.3-13.3,10-18.8c6.9-8,10.8-18.2,10.8-28.9
		C147.4,58,142.8,46.8,134.4,38.4z M114.1,140.7H92.7v-10.9h21.6v10.9H114.1z M128.4,91.5c-6.7,7.6-11.2,16.8-13.2,26.4l-0.1,0.8
		h-6.3V89.1l0.7-0.3c7.6-2.7,12.8-9.9,12.8-17.8c0-10.4-8.5-18.9-18.9-18.9S84.4,60.6,84.4,71c0,8,5.1,15.2,12.8,17.8l0.7,0.3v29.7
		h-6.1l-0.1-0.8c-1.9-9.6-6.4-18.8-13.1-26.4c-5.2-6-8.1-13.6-8.3-21.4C70,52.4,85.1,36.9,102.9,36.8c8.9-0.1,17.3,3.2,23.7,9.6
		c6.4,6.3,9.9,14.7,9.9,23.6C136.5,77.8,133.6,85.5,128.4,91.5z M103.3,79c-4.4,0-8-3.6-8-8s3.6-8,8-8c4.4,0,8,3.6,8,8
		S107.7,79,103.3,79z"/>
</g>
</svg>
