<?xml version="1.0" encoding="utf-8"?>
<!-- Generator: Adobe Illustrator 27.2.0, SVG Export Plug-In . SVG Version: 6.00 Build 0)  -->
<svg version="1.1" id="Layer_1" xmlns="http://www.w3.org/2000/svg" xmlns:xlink="http://www.w3.org/1999/xlink" x="0px" y="0px"
	 viewBox="0 0 200 200" style="enable-background:new 0 0 200 200;" xml:space="preserve">
<style type="text/css">
	.st0{fill:#EC3783;}
</style>
<g>
	<path class="st0" d="M119.5,99.8l-10-1.3c-1.3-4.8-3.1-9.3-5.5-13.3l6.1-8c1.2-1.6,1-3.8-0.3-5.1l-9.1-9.2
		c-1.4-1.4-3.6-1.5-5.1-0.3l-8,6.1c-4.1-2.4-8.6-4.3-13.3-5.5l-1.3-10c-0.3-1.9-1.9-3.4-3.8-3.4h-13c-2,0-3.6,1.4-3.8,3.4l-1.3,10
		c-4.7,1.2-9.2,3.1-13.3,5.5l-8-6.2c-1.5-1.2-3.7-1-5,0.3L15.6,72c-1.4,1.3-1.5,3.5-0.3,5l6.1,8c-2.4,4.1-4.3,8.6-5.5,13.4l-10,1.2
		c-1.9,0.3-3.3,1.9-3.3,3.8v13c0,1.9,1.4,3.6,3.3,3.8l10,1.3c1.2,4.7,3.1,9.2,5.5,13.3l-6.1,8c-1.2,1.5-1.1,3.7,0.3,5.1l9.2,9.2
		c1.3,1.4,3.5,1.5,5,0.3l8-6.1c4.1,2.5,8.5,4.4,13.3,5.5l1.3,10c0.3,1.9,1.9,3.4,3.8,3.4h13c1.9,0,3.6-1.5,3.8-3.4l1.2-10
		c4.8-1.2,9.3-3.1,13.4-5.5l7.9,6.1c1.6,1.2,3.8,1.1,5.1-0.3l9.2-9.2c1.4-1.4,1.6-3.6,0.3-5.1l-6.1-8c2.5-4.1,4.3-8.5,5.6-13.3
		l10-1.3c1.9-0.3,3.3-1.9,3.3-3.8v-12.9C122.8,101.6,121.4,100,119.5,99.8L119.5,99.8z M62.7,140.3c-16.7,0-30.3-13.5-30.3-30.3
		c0-16.7,13.6-30.3,30.3-30.3S93,93.3,93,110C93,126.8,79.4,140.3,62.7,140.3z"/>
	<path class="st0" d="M190.5,51.8l-7.3,1.7c-2.1-3-4.6-5.7-7.4-7.9l2.2-7.2c0.4-1.4-0.3-2.9-1.6-3.5l-8.8-4.1
		c-1.3-0.6-2.9-0.1-3.7,1.1l-4,6.4c-3.5-0.6-7.2-0.8-10.8-0.4l-3.5-6.7c-0.7-1.3-2.2-1.9-3.5-1.4l-9.1,3.4c-1.4,0.5-2.1,1.9-1.8,3.4
		l1.7,7.4c-3,2-5.7,4.6-7.9,7.3l-7.2-2.3c-1.4-0.4-2.9,0.3-3.5,1.5l-4.1,8.9c-0.6,1.3-0.1,2.8,1.1,3.6l6.4,4
		c-0.6,3.5-0.8,7.1-0.3,10.8l-6.7,3.5c-1.3,0.7-1.9,2.2-1.4,3.5l3.4,9.1c0.5,1.4,1.9,2.1,3.3,1.8l7.3-1.7c2.1,3,4.6,5.6,7.4,7.9
		l-2.2,7.2c-0.4,1.4,0.2,2.9,1.5,3.5l8.9,4c1.3,0.6,2.9,0.2,3.6-1.1l4-6.4c3.5,0.7,7.1,0.8,10.8,0.4l3.5,6.6
		c0.7,1.3,2.2,1.9,3.6,1.4l9.1-3.4c1.4-0.5,2.1-2,1.8-3.4l-1.7-7.3c3.1-2.1,5.7-4.6,7.9-7.4l7.2,2.2c1.4,0.5,2.9-0.2,3.5-1.5l4-8.8
		c0.6-1.3,0.2-2.9-1.1-3.6l-6.4-4c0.7-3.5,0.8-7.1,0.4-10.8l6.6-3.5c1.3-0.7,1.9-2.2,1.3-3.6l-3.4-9.1
		C193.4,52.2,191.9,51.4,190.5,51.8L190.5,51.8z M161.3,95.1c-11.7,4.4-24.8-1.6-29.2-13.3c-4.4-11.7,1.6-24.8,13.3-29.2
		s24.8,1.6,29.2,13.3C179,77.7,173,90.7,161.3,95.1z"/>
</g>
</svg>
