<?xml version="1.0" encoding="utf-8"?>
<!-- Generator: Adobe Illustrator 27.1.1, SVG Export Plug-In . SVG Version: 6.00 Build 0)  -->
<svg version="1.1" id="Layer_1" xmlns="http://www.w3.org/2000/svg" xmlns:xlink="http://www.w3.org/1999/xlink" x="0px" y="0px"
	 viewBox="0 0 200 200" style="enable-background:new 0 0 200 200;" xml:space="preserve">
<style type="text/css">
	.st0{fill:#FFFFFF;}
</style>
<g>
	<path class="st0" d="M110.2,198H89.8c-2.6,0-4.6-2-5.1-4.6l-2-17.4c-8.7-2-16.8-5.1-24-10.2l-13.8,10.7c-2,1.5-5.1,1.5-6.6-0.5
		l-14.3-14.3c-2-2-2-4.6-0.5-6.6l10.7-13.8c-4.6-7.7-8.2-15.3-10.2-24l-17.4-2C4,114.8,2,112.8,2,110.2V89.8c0-2.6,2-4.6,4.6-5.1
		l17.4-2c2-8.7,5.1-16.8,10.2-24L23.4,44.9c-1.5-2-1.5-5.1,0.5-6.6l14.3-14.3c2-2,4.6-2,6.6-0.5l13.8,10.7c7.7-4.6,15.3-8.2,24-10.2
		l2-17.4C85.2,4,87.2,2,89.8,2h20.4c2.6,0,4.6,2,5.1,4.6l2,17.4c8.7,2,16.8,5.1,24,10.2l13.8-10.7c2-1.5,5.1-1.5,6.6,0.5l14.3,14.3
		c2,2,2,4.6,0.5,6.6l-10.7,13.8c4.6,7.7,8.2,15.3,10.2,24l17.4,2c2.6,0.5,4.6,2.6,4.6,5.1v20.4c0,2.6-2,4.6-4.6,5.1l-17.4,2
		c-2,8.7-5.1,16.8-10.2,24l10.7,13.8c1.5,2,1.5,5.1-0.5,6.6l-13.8,14.8c-2,2-4.6,2-6.6,0.5l-13.8-10.7c-7.7,4.6-15.3,8.2-24,10.2
		l-2,17.4C114.8,196,112.8,198,110.2,198L110.2,198z M93.9,187.8h11.2l2-16.8c0.5-2,2-4.1,4.1-4.6c9.7-1.5,18.9-5.6,27.1-11.2
		c2-1.5,4.1-1,6.1,0l13.3,10.2l8.2-8.2l-10.2-13.3c-1.5-1.5-1.5-4.1,0-6.1c5.6-8.2,9.2-17.4,11.2-27.1c0.5-2,2-4.1,4.6-4.1l16.8-2
		V93.4l-16.8-2c-2-0.5-4.1-2-4.6-4.1c-1.5-9.7-5.6-18.9-11.2-27.1c-1-2-1-4.1,0-6.1l10.2-13.3l-8.2-8.2l-13.3,10.2
		c-1.5,1.5-4.1,1.5-6.1,0c-8.2-5.6-17.4-9.2-27.1-11.2c-2-0.5-4.1-2-4.1-4.6l-2-16.8H93.9l-2,16.8c-0.5,2-2,4.1-4.1,4.6
		c-9.7,1.5-18.9,5.6-27.1,11.2c-2,1.5-4.1,1-6.1,0L41.3,32.6l-8.2,8.2l10.2,13.3c1.5,1.5,1.5,4.1,0,6.1c-5.6,8.2-9.2,17.4-11.2,27.1
		c-0.5,2-2,4.1-4.6,4.1l-16.8,2v11.2l16.8,2c2,0.5,4.1,2,4.6,4.1c1.5,9.7,5.6,18.9,11.2,27.1c1,2,1,4.1,0,6.1l-10.2,13.3l8.2,8.2
		l13.3-10.2c1.5-1.5,4.1-1.5,6.1,0c8.2,5.6,17.4,9.2,27.1,11.2c2,0.5,4.1,2,4.1,4.6L93.9,187.8z"/>
	<path class="st0" d="M100,148c-26.5,0-47.5-21.4-47.5-48c0-26.5,21.4-48,47.5-48c26.5,0,47.5,21.4,47.5,48
		C147.5,126.5,126,148,100,148L100,148z M100,62.2c-20.9,0-37.3,16.8-37.3,37.8s16.8,37.8,37.3,37.8c20.9,0,37.3-16.8,37.3-37.8
		C137.3,79.1,120.4,62.2,100,62.2L100,62.2z"/>
</g>
</svg>
