<?xml version="1.0" encoding="utf-8"?>
<!-- Generator: Adobe Illustrator 27.1.1, SVG Export Plug-In . SVG Version: 6.00 Build 0)  -->
<svg version="1.1" id="Layer_1" xmlns="http://www.w3.org/2000/svg" xmlns:xlink="http://www.w3.org/1999/xlink" x="0px" y="0px"
	 viewBox="0 0 200 200" style="enable-background:new 0 0 200 200;" xml:space="preserve">
<style type="text/css">
	.st0{fill:#95C33D;stroke:#95C33D;stroke-width:4;stroke-miterlimit:10;}
</style>
<g>
	<path class="st0" d="M191.1,59.7c-60.9,0-121.3,0-182,0c-0.1,1.2-0.2,2.3-0.2,3.5c0,17.2,0,34.5,0,51.7c0,16.4,0,32.9,0,49.3
		c0,6.4,1.6,7.9,8,7.9c3.1,0,6.2,0,9.3,0c2,0,3.6,0.6,3.5,2.8c-0.1,2-1.8,2.3-3.5,2.3c-3.9-0.1-7.7,0-11.6,0
		C8.4,177.1,4,173,3.9,166.8c-0.2-11.1,0-22.2,0-33.3c0-6.8,0-13.6,0-20.5c0-26.2,0-52.4,0-78.6c0-7.9,4.2-12,12.1-12
		c56.1,0,112.1,0,168.2,0c8.2,0,12.1,4,12.1,12.2c0,28,0,56.1,0,84.1c0,15.5,0,31,0,46.5c0,8-4,12-12,12c-41.9,0-83.9,0-125.8,0
		c-2,0-5,0.8-5-2.4c0-3.3,3-2.7,5.1-2.7c41.6,0,83.2,0,124.9,0c6.2,0,7.8-1.6,7.8-7.8c0-17.5-0.1-35.1-0.1-52.6
		c0-16,0.1-32.1,0.1-48.1C191.1,62.4,191.1,61.3,191.1,59.7z M191.1,54.4c0-6.6,0-12.9,0-19.2c0-6.2-1.6-7.8-7.8-7.8
		c-38.7,0-77.4,0-116.2,0c-17,0-34,0-51,0c-5.5,0-7.3,1.8-7.3,7.3c0,5.5,0,10.9,0,16.4c0,1,0.1,2.1,0.2,3.2
		C69.8,54.4,130.2,54.4,191.1,54.4z"/>
	<path class="st0" d="M101.6,89.1c4.4-2.4,9-4.9,13.5-7.4c0.9-0.5,1.6-1.5,2-2.5c1.6-3.9,4-5.3,9.3-5.3c5,0,7.3,1.5,8.8,5.4
		c1,2.7,6.8,5.1,9.5,3.8c3.8-1.8,6.4-1.1,10.2,2.8c3.6,3.5,4.2,6.3,2.5,10c-1.2,2.6,1.2,8.4,3.9,9.4c3.9,1.5,5.3,3.9,5.3,8.8
		c0,5.4-1.3,7.7-5.3,9.2c-3,1.2-5.2,7-3.7,9.9c0.3,0.6,0.6,1.4,0.7,2.1c0.3,4.4-2.7,7-5.7,9.5c-2.5,2-5.3,2-8.2,0.7
		c-2.4-1.1-8.4,1.3-9.3,3.8c-1.5,4-3.6,5.4-8.4,5.4c-6,0-7.9-1.1-9.7-5.4c-0.4-0.9-1.1-1.8-1.9-2.3c-4.6-2.6-9.2-5.1-13.6-7.5
		c-4.3,2.3-9.1,4.9-13.7,7.5c-0.8,0.5-1.5,1.4-1.8,2.3c-1.7,4.2-3.7,5.4-9.8,5.3c-4.8,0-6.9-1.4-8.4-5.4c-0.9-2.5-6.8-4.9-9.3-3.7
		c-3.8,1.7-6.7,1-10.3-2.6c-4-4-4.4-6-2.5-10.1c1.1-2.4-1.3-8.4-3.8-9.3c-3.8-1.4-5.6-3.7-5.6-6.9c0-4.7-0.1-9.4,5.6-11.2
		c2.5-0.8,4.8-6.8,3.7-9.3c-1.8-4-1.1-6.5,2.8-10.5c3.5-3.5,6.1-4.1,10-2.3c2.4,1.1,8.3-1.3,9.2-3.8c1.4-3.9,3.8-5.5,8.4-5.5
		c5.8-0.1,8,1.2,9.7,5.5c0.3,0.8,0.9,1.8,1.6,2.2C92.3,84.1,97.1,86.6,101.6,89.1z M98.5,93.2c-4.3-2.3-8.4-4.8-12.8-6.7
		c-2.4-1.1-4.3-1.8-4.6-4.9c-0.1-1-2-2.3-3.3-2.5c-1.8-0.3-4.6-0.8-5,2c-0.4,3.7-2.6,5-5.8,5.6c-1.2,0.2-2.5,0.8-3.5,1.6
		c-2.4,1.7-4.5,1.9-7-0.1c-0.7-0.6-2.9-0.2-3.8,0.5c-1.4,1.2-4.1,2.6-2.4,4.8c2.4,3.1,1.7,5.5-0.1,8.4c-0.9,1.4-1.4,3.1-1.8,4.8
		c-0.4,2-1.4,3-3.4,3.1c-3,0.2-3.7,2.1-3.7,4.9c0,2.7,1.1,4,3.7,4.1c2.1,0.1,3.3,1.2,3.6,3.3c0.2,1.2,0.7,2.5,1.2,3.6
		c1.4,3.2,3.2,6.1,0.4,9.6c-1.6,2,0.8,3.3,2.1,4.3c0.9,0.7,3,1.5,3.5,1.1c3.1-2.9,5.8-1.6,8.6,0.1c1.1,0.7,2.3,1.2,3.6,1.4
		c2.7,0.5,4.1,1.8,4.4,4.6c0.3,3.1,2.8,2.6,4.9,2.6c2.1,0.1,3.6-0.6,3.7-2.9c0.1-2.4,1.3-3.5,3.6-4.2c13.9-4,20.7-14.9,21.4-28.3
		c0.6-13,12-22.2,24.6-19.2c10.9,2.5,17.5,13.7,14.5,24.8c-2.8,10.7-14.3,17.2-24.8,13.5c-4-1.4-7.6-4.3-11.4-6.5
		c-1.1,2.1-2.4,4.9-3.8,7.6c3,4.3,7.3,6.4,11.9,7.9c2.6,0.8,4.3,1.7,4.7,4.7c0.1,1,2,2.3,3.3,2.5c1.8,0.3,4.7,1,5-1.9
		c0.4-3.8,2.6-5,5.7-5.7c1.2-0.3,2.5-0.8,3.5-1.5c2.4-1.6,4.6-2,6.9,0.1c1.5,1.4,3,0.7,4.1-0.8c1-1.4,3.9-2.4,2.2-4.6
		c-2.4-3-1.9-5.4,0-8.3c0.9-1.4,1.5-3.1,1.8-4.8c0.4-2.5,1.7-3.6,4.1-3.5c2,0,3-1,2.9-3c-0.1-2,0.9-5-2-5.3
		c-3.8-0.4-4.9-2.7-5.6-5.8c-0.3-1.2-0.8-2.5-1.5-3.5c-1.6-2.4-1.9-4.5,0.1-7c0.6-0.7,0.2-2.9-0.5-3.8c-1.1-1.4-2.6-4.2-4.8-2.4
		c-3.2,2.6-5.8,1.6-8.7-0.1c-1.3-0.7-2.7-1.3-4.2-1.6c-2.2-0.4-3.4-1.5-3.5-3.8c-0.2-2.7-1.9-3.4-4.4-3.4c-2.4,0-4.3,0.5-4.5,3.3
		c-0.1,2.1-1.1,3.1-3.2,3.8c-13.4,4.1-21.1,14.3-21.8,28.4c-0.1,2.8-0.5,5.9-1.7,8.4c-4.8,10.4-18,14.7-27.8,9
		c-8.7-5-12.5-14.5-9-24.5c3.1-8.9,13-14.4,22.3-12.6c5.3,1,9.4,3.8,12.8,8.1C95,99.8,96.5,97,98.5,93.2z M77.1,129.1
		c8.5-0.1,14.7-6.9,14.6-16c-0.1-7-7.3-13.6-14.8-13.6c-8.1,0-15.4,7.1-14.8,14.9C62.7,122.8,67.6,128.5,77.1,129.1z M126.1,128.9
		c9.5,0.5,14.7-7.9,14.9-14.7c0.3-8-6.9-14.9-14.9-14.8c-8.1,0.1-14.8,6.9-14.7,14.8C111.6,122.3,118.2,129,126.1,128.9z"/>
	<path class="st0" d="M155.2,43.5c-1.4,0-2.8,0.3-4.1-0.1c-0.9-0.3-2.2-1.5-2.1-2.2c0.1-1,1.2-2.4,2.1-2.5c2.6-0.3,5.3-0.3,7.9,0
		c0.9,0.1,2.2,1.6,2.2,2.4c0,0.8-1.3,2-2.3,2.4C157.8,43.9,156.4,43.6,155.2,43.5C155.2,43.6,155.2,43.5,155.2,43.5z"/>
	<path class="st0" d="M132.2,43.5c-1.2,0-2.5,0.3-3.5-0.1c-1-0.4-2.1-1.5-2.2-2.5c-0.1-0.7,1.2-2.2,2-2.3c2.7-0.3,5.5-0.3,8.2,0
		c0.8,0.1,2,1.6,2.1,2.6c0.1,0.7-1.3,1.9-2.2,2.2C135.3,43.8,133.7,43.5,132.2,43.5C132.2,43.5,132.2,43.5,132.2,43.5z"/>
	<path class="st0" d="M177.4,43.5c-1.3,0-2.7,0.3-3.8-0.1c-1-0.4-2.1-1.5-2.2-2.5c-0.1-0.7,1.2-2.2,1.9-2.3c2.7-0.3,5.5-0.3,8.2,0
		c0.8,0.1,1.9,1.6,2.1,2.6c0.1,0.7-1.2,1.9-2.2,2.2C180.2,43.8,178.8,43.5,177.4,43.5z"/>
	<circle class="st0" cx="41.5" cy="174.9" r="2.8"/>
</g>
</svg>
