<?xml version="1.0" encoding="utf-8"?>
<!-- Generator: Adobe Illustrator 27.1.1, SVG Export Plug-In . SVG Version: 6.00 Build 0)  -->
<svg version="1.1" id="Layer_1" xmlns="http://www.w3.org/2000/svg" xmlns:xlink="http://www.w3.org/1999/xlink" x="0px" y="0px"
	 viewBox="0 0 200 200" style="enable-background:new 0 0 200 200;" xml:space="preserve">
<style type="text/css">
	.st0{fill:#FFFFFF;}
</style>
<g>
	<path class="st0" d="M158.4,65.6h-33.2c-1.7,0-3.2-1.1-3.7-2.7l-10.3-31.6c-1.6-5-6-8.2-11.2-8.2c-5.2,0-9.6,3.2-11.2,8.2
		L78.5,62.9c-0.5,1.6-2,2.7-3.7,2.7H41.6c-5.2,0-9.6,3.2-11.2,8.2c-1.6,5,0.1,10.1,4.3,13.2l26.8,19.5c1.4,1,2,2.8,1.4,4.4
		l-10.3,31.6c-1.6,5,0.1,10.1,4.3,13.2c4.2,3.1,9.7,3.1,13.9,0l26.8-19.5c1.4-1,3.2-1,4.6,0l26.8,19.5c2.1,1.5,4.5,2.3,6.9,2.3
		s4.8-0.8,6.9-2.3c4.2-3.1,5.9-8.2,4.3-13.2l-10.3-31.6c-0.5-1.6,0-3.4,1.4-4.4l26.8-19.5c4.2-3.1,5.9-8.2,4.3-13.2
		C168,68.8,163.6,65.6,158.4,65.6L158.4,65.6z M160.7,80.6l-26.8,19.5c-4.2,3-5.9,8.3-4.3,13.2l10.3,31.6c0.8,2.5-0.9,4-1.4,4.4
		c-0.5,0.4-2.5,1.6-4.6,0l-26.8-19.5c-2.1-1.5-4.5-2.3-6.9-2.3s-4.9,0.8-6.9,2.3l-26.8,19.5c-2.1,1.6-4.1,0.4-4.6,0
		c-0.5-0.4-2.3-1.9-1.4-4.4l10.3-31.6c1.6-4.9-0.1-10.2-4.3-13.2L39.3,80.6c-2.1-1.6-1.6-3.8-1.4-4.4c0.2-0.6,1.1-2.7,3.7-2.7h33.2
		c5.1,0,9.6-3.3,11.2-8.2l10.3-31.6c0.8-2.5,3.1-2.7,3.7-2.7c0.7,0,2.9,0.2,3.7,2.7L114,65.3c1.6,4.9,6.1,8.2,11.2,8.2h33.2
		c2.7,0,3.5,2.1,3.7,2.7C162.4,76.8,162.9,79,160.7,80.6L160.7,80.6z"/>
	<path class="st0" d="M25.2,100c0-1.5-0.8-2.9-2.2-3.5L7.3,88.6c-1.2-0.6-2.7-0.5-3.8,0.2c-1.2,0.7-1.9,2-1.9,3.3v15.7
		c0,1.4,0.7,2.6,1.9,3.3c0.6,0.4,1.3,0.6,2.1,0.6c0.6,0,1.2-0.1,1.8-0.4l15.7-7.9C24.4,102.9,25.2,101.5,25.2,100L25.2,100z
		 M9.5,101.5v-3l3,1.5L9.5,101.5z"/>
	<path class="st0" d="M196.5,88.8c-1.2-0.7-2.6-0.8-3.8-0.2L177,96.5c-1.3,0.7-2.2,2-2.2,3.5s0.8,2.9,2.2,3.5l15.7,7.9
		c0.6,0.3,1.2,0.4,1.8,0.4c0.7,0,1.4-0.2,2.1-0.6c1.2-0.7,1.9-2,1.9-3.3V92.1C198.4,90.8,197.7,89.5,196.5,88.8L196.5,88.8z
		 M190.5,101.5l-3-1.5l3-1.5V101.5z"/>
	<path class="st0" d="M48.8,41c1,0,1.9-0.4,2.7-1.1c1.2-1.1,1.6-2.9,1-4.4L39.5,4.1C39.1,3,38.2,2.1,37,1.8
		c-1.1-0.3-2.4-0.2-3.3,0.5C26.7,7,20.3,12.5,14.5,18.6c-0.9,0.9-1.2,2.2-1,3.4c0.2,1.2,1,2.3,2.1,2.8l31.5,15.7
		C47.6,40.8,48.2,41,48.8,41L48.8,41z M24,20.2c3.2-3.1,6.6-5.9,10.2-8.6l7.1,17.2L24,20.2z"/>
	<path class="st0" d="M186.5,22c0.2-1.2-0.2-2.5-1-3.4c-5.8-6.1-12.3-11.6-19.2-16.3c-1-0.7-2.2-0.9-3.3-0.5
		c-1.1,0.3-2.1,1.2-2.5,2.3l-12.9,31.5c-0.6,1.5-0.2,3.3,1,4.4c0.7,0.7,1.7,1.1,2.7,1.1c0.6,0,1.2-0.1,1.8-0.4l31.5-15.7
		C185.5,24.3,186.3,23.2,186.5,22L186.5,22z M158.8,28.8l7.1-17.2c3.6,2.7,7,5.5,10.2,8.6L158.8,28.8z"/>
	<path class="st0" d="M148.5,160.1c-1.2,1.1-1.6,2.9-1,4.4l12.9,31.5c0.5,1.1,1.4,1.9,2.5,2.3c0.4,0.1,0.8,0.2,1.1,0.2
		c0.8,0,1.6-0.2,2.2-0.7c6.9-4.7,13.4-10.2,19.2-16.3c0.9-0.9,1.2-2.2,1-3.4c-0.2-1.2-1-2.3-2.1-2.8l-31.5-15.7
		C151.5,158.7,149.7,159,148.5,160.1L148.5,160.1z M176,179.8c-3.2,3.1-6.6,5.9-10.2,8.6l-7.1-17.2L176,179.8z"/>
	<path class="st0" d="M13.5,178c-0.2,1.2,0.2,2.5,1,3.4c5.8,6.1,12.3,11.6,19.2,16.3c0.7,0.4,1.4,0.7,2.2,0.7c0.4,0,0.8-0.1,1.1-0.2
		c1.1-0.3,2.1-1.2,2.5-2.3l12.9-31.5c0.6-1.5,0.2-3.3-1-4.4c-1.2-1.1-3-1.4-4.4-0.6l-31.5,15.7C14.5,175.7,13.7,176.8,13.5,178
		L13.5,178z M41.2,171.2l-7.1,17.2c-3.6-2.7-7-5.5-10.2-8.6L41.2,171.2z"/>
	<path class="st0" d="M72.4,29.2c0.2,0,0.5,0,0.7-0.1c2.1-0.4,3.5-2.5,3.1-4.6L74,12.4c-0.4-2.1-2.4-3.5-4.6-3.1
		c-2.1,0.4-3.5,2.5-3.1,4.6L68.6,26C68.9,27.9,70.6,29.2,72.4,29.2L72.4,29.2z"/>
	<path class="st0" d="M127.6,29.2c1.7,0,3.2-1,3.7-2.7l3.9-11.8c0.7-2.1-0.4-4.3-2.5-5c-2.1-0.7-4.3,0.4-5,2.5L123.8,24
		c-0.7,2.1,0.4,4.3,2.5,5C126.7,29.1,127.1,29.2,127.6,29.2L127.6,29.2z"/>
	<path class="st0" d="M178.3,47.1c-1-1.9-3.3-2.7-5.3-1.8l-7.9,3.9c-1.9,1-2.7,3.3-1.8,5.3c0.7,1.4,2.1,2.2,3.5,2.2
		c0.6,0,1.2-0.1,1.8-0.4l7.9-3.9C178.5,51.4,179.3,49,178.3,47.1L178.3,47.1z"/>
	<path class="st0" d="M23.5,52.4l7.9,3.9c0.6,0.3,1.2,0.4,1.8,0.4c1.4,0,2.8-0.8,3.5-2.2c1-1.9,0.2-4.3-1.8-5.3L27,45.3
		c-1.9-1-4.3-0.2-5.3,1.8C20.7,49,21.5,51.4,23.5,52.4L23.5,52.4z"/>
	<path class="st0" d="M68.6,170.3l-2.3,12.1c-0.4,2.1,1,4.2,3.1,4.6c0.2,0,0.5,0.1,0.7,0.1c1.9,0,3.5-1.3,3.9-3.2l2.3-12.1
		c0.4-2.1-1-4.2-3.1-4.6C71,166.7,69,168.1,68.6,170.3L68.6,170.3z"/>
	<path class="st0" d="M126.3,167.3c-2.1,0.7-3.2,2.9-2.5,5l3.9,11.8c0.6,1.7,2.1,2.7,3.7,2.7c0.4,0,0.8-0.1,1.2-0.2
		c2.1-0.7,3.2-2.9,2.5-5l-3.9-11.8C130.6,167.7,128.4,166.6,126.3,167.3L126.3,167.3z"/>
	<path class="st0" d="M176.6,143.9l-7.9-3.9c-2-1-4.3-0.2-5.3,1.8c-1,1.9-0.2,4.3,1.8,5.3l7.9,3.9c0.6,0.3,1.2,0.4,1.8,0.4
		c1.4,0,2.8-0.8,3.5-2.2C179.3,147.2,178.5,144.8,176.6,143.9L176.6,143.9z"/>
	<path class="st0" d="M25.2,151.3c0.6,0,1.2-0.1,1.8-0.4l7.9-3.9c1.9-1,2.7-3.3,1.8-5.3c-1-1.9-3.3-2.7-5.3-1.8l-7.9,3.9
		c-1.9,1-2.7,3.3-1.8,5.3C22.4,150.5,23.8,151.3,25.2,151.3L25.2,151.3z"/>
</g>
</svg>
