<?xml version="1.0" encoding="utf-8"?>
<!-- Generator: Adobe Illustrator 27.1.1, SVG Export Plug-In . SVG Version: 6.00 Build 0)  -->
<svg version="1.1" id="Layer_1" xmlns="http://www.w3.org/2000/svg" xmlns:xlink="http://www.w3.org/1999/xlink" x="0px" y="0px"
	 viewBox="0 0 200 200" style="enable-background:new 0 0 200 200;" xml:space="preserve">
<style type="text/css">
	.st0{fill:#95C33D;stroke:#95C33D;stroke-width:3;stroke-miterlimit:10;}
</style>
<g>
	<path class="st0" d="M3.2,13c1-2.9,2.2-5.8,4.9-7.4c2-1.1,4.3-2.3,6.4-2.3C32,3.1,49.5,3.2,67,3.2c0.2,0,0.4,0.1,0.6,0.1
		c0,2.5,0,5.1,0,7.8c-0.9,0-1.7,0.1-2.4,0.1c-16,0-32,0-48,0c-0.9,0-1.8,0-2.6,0.2c-1.7,0.3-2.8,1.3-3.1,3.1
		c-0.2,0.9-0.2,1.8-0.2,2.6c0,33.5,0,67,0,100.6c0,0.7,0,1.5,0,2.4c17.5,0,34.8,0,52.3,0c0,2.8,0,5.4,0,8.2c-17.3,0-34.6,0-52.2,0
		c0,0.8-0.1,1.5-0.1,2.1c0,4.2,0,8.3,0,12.5s1.4,5.6,5.5,5.6c6.8,0,13.6,0,20.4,0c0.7,0,1.4,0,2.1,0c0,2.7,0,5.3,0,7.9
		c-0.4,0.1-0.8,0.1-1.3,0.1c-7.8,0-15.6,0.1-23.4-0.1c-5.6-0.2-9.2-3.3-11-8.5c-0.1-0.3-0.3-0.6-0.5-0.9C3.2,102.3,3.2,57.6,3.2,13z
		"/>
	<path class="st0" d="M45.2,196.8c-2.2-1.4-4.8-2.3-6.5-4.1c-3.5-3.6-4.1-8.2-2.1-12.8c2-4.7,5.8-7.1,11-7.3c2.6-0.1,5.3,0,8.1,0
		c0-2.7,0-5.3,0-8c2.8,0,5.3,0,8.1,0c0,2.6,0,5.2,0,7.9c24.3,0,48.4,0,72.7,0c0-2.6,0-5.2,0-7.9c2.7,0,5.3,0,8.1,0c0,2.6,0,5.2,0,8
		c2.6,0,4.9,0,7.2,0c6.7,0,11.8,4,12.7,10c1,6.4-2.3,11.6-8.9,13.8c-0.2,0.1-0.4,0.3-0.6,0.4C118.3,196.8,81.7,196.8,45.2,196.8z
		 M100.2,180.7c-16.9,0-33.8,0-50.7,0c-0.9,0-1.9,0-2.8,0.2c-1.8,0.3-3.1,1.9-3.1,3.7c0,1.9,1.3,3.5,3.2,3.9
		c0.8,0.1,1.6,0.2,2.4,0.2c33.8,0,67.7,0,101.5,0c0.8,0,1.6,0,2.4-0.2c1.9-0.3,3.2-1.9,3.2-3.8c0-1.9-1.3-3.5-3.3-3.8
		c-0.9-0.1-1.8-0.2-2.6-0.2C133.7,180.7,117,180.7,100.2,180.7z"/>
	<path class="st0" d="M99.9,108c-8.4,0-16.8,0.2-25.1-0.1c-6.3-0.2-11-5.5-11.1-11.9c-0.1-9.7,0-19.4,0-29.1c0-3.7,0-7.4,0-11.2
		c0.1-4.9,2.3-8.6,6.6-10.8c1.2-0.6,1.4-1.3,1.4-2.5c0-4.8-0.1-9.7,0.3-14.5C73.3,15.6,83.4,5.3,95.6,3.5
		C113.1,1,128,13.7,128.3,31.4c0.1,3.7,0,7.4,0,11.2c0,1,0.2,1.6,1.2,2.2c4.6,2.3,6.8,6.2,6.8,11.3c0,12.9,0,25.8,0,38.8
		c0,8.2-4.9,13.2-13.1,13.2C115.4,108.1,107.7,108.1,99.9,108C99.9,108.1,99.9,108,99.9,108z M99.9,100c7.6,0,15.1,0,22.7,0
		c4.2,0,5.6-1.3,5.6-5.5c0-12.5,0-24.9,0-37.4c0-4.2-1.4-5.5-5.6-5.5c-15.1,0-30.2,0-45.4,0c-4.1,0-5.5,1.4-5.5,5.4
		c0,12.5,0,25.1,0,37.6c0,4,1.4,5.4,5.5,5.4C84.8,100,92.4,100,99.9,100z M120.1,43.3c0-4,0-7.8,0-11.7c0-4.9-1.5-9.3-4.7-13
		C110,12.3,103.1,10,95.2,12c-7.9,1.9-13.2,7.1-14.7,15c-1,5.2-0.6,10.7-0.8,16.2c3,0,5.5,0,8.2,0c0-4.2-0.1-8.3,0-12.4
		c0.2-7.8,8-13.3,15.5-11c5.2,1.6,8.6,6,8.7,11.5c0.1,3.9,0,7.9,0,11.9C114.8,43.3,117.3,43.3,120.1,43.3z M103.8,43.2
		c0-4.3,0.1-8.5,0-12.6c-0.1-1.8-2-3.2-3.8-3.2s-3.6,1.4-3.7,3.1c-0.1,4.2,0,8.4,0,12.7C98.7,43.2,101.2,43.2,103.8,43.2z"/>
	<path class="st0" d="M136.4,128.3c0-2.8,0-5.4,0-8.2c17.3,0,34.7,0,52.3,0c0-0.9,0-1.6,0-2.3c0-33.7,0-67.3,0-101
		c0-4.5-1.2-5.7-5.8-5.7c-16,0-32,0-48,0c-0.8,0-1.6,0-2.6,0c0-2.7,0-5.3,0-8.1c0.6,0,1.3,0,2,0c16.5,0,33,0,49.6,0
		c7.9,0,13,5,13,13c0,42.4,0,84.8,0,127.3c0,7.8-4.6,12.8-12.3,13s-15.4,0-23.1,0c-0.2,0-0.5-0.1-0.8-0.1c0-2.6,0-5.2,0-7.9
		c0.7,0,1.4,0,2.1,0c6.9,0,13.9,0,20.8,0c3.7,0,5.2-1.4,5.2-5.1c0-4.9,0-9.8,0-15C171.2,128.3,153.9,128.3,136.4,128.3z"/>
	<path class="st0" d="M71.7,116.2c2.8,0,5.4,0,8.2,0c0,2.8,0,5.6,0,8.4c-0.1,11.4,1.3,7.8-6.6,16c-0.4,0.4-0.7,0.8-1.1,1.1
		c-1.3,0.9-1.4,2-1,3.5c2.1,6.7-2.2,13.6-9.2,15.2c-6.5,1.4-13.2-3.3-14.2-10c-1.4-9,6.9-16.1,15.6-13.4c1.2,0.4,1.8,0,2.8-0.7
		c4.6-3.4,6.5-7.8,5.6-13.5C71.4,120.7,71.7,118.5,71.7,116.2z M59.6,152.3c2.2,0,4-1.8,4-3.9c0-2.1-1.8-3.9-4-3.9s-4,1.7-4,3.9
		C55.7,150.6,57.4,152.3,59.6,152.3z"/>
	<path class="st0" d="M120.2,116.2c2.7,0,5.3,0,8.1,0c0,4.2,0.1,8.3,0,12.4c0,1.4,0.3,2.5,1.4,3.5c1.5,1.3,2.9,2.8,4.3,4.3
		c0.8,0.9,1.5,1,2.6,0.6c7.4-2.4,14.6,2.2,15.7,9.9c0.9,6-3,11.7-9.2,13.3c-5.8,1.5-12-1.8-14.1-7.4c-1-2.7-1.1-5.4-0.2-8.1
		c0.4-1.1,0.2-1.8-0.6-2.6c-2.1-2-4.3-4.1-6.3-6.3c-0.8-0.9-1.7-2.1-1.8-3.2C120.1,127.2,120.2,121.8,120.2,116.2z M140.3,152.3
		c2.2,0,4-1.7,4-3.9s-1.7-3.9-3.9-3.9s-4,1.8-4,3.9C136.3,150.5,138.2,152.3,140.3,152.3z"/>
	<path class="st0" d="M95.9,116.2c2.9,0,5.4,0,8.2,0c0,0.8,0,1.5,0,2.1c0,5.5,0.1,11.1,0,16.6c0,1.5,0.4,2.2,1.7,2.9
		c5,2.6,7.4,8.3,5.9,13.6c-1.5,5.5-6.3,9.1-12,9c-5.5-0.1-10-3.8-11.4-9.3c-1.3-5.1,1-10.7,5.7-13.2c1.6-0.8,2-1.8,2-3.5
		c-0.1-5.4,0-10.7,0-16.1C95.9,117.8,95.9,117.1,95.9,116.2z M103.9,148.4c0-2.3-1.7-3.9-3.9-3.9c-2.2,0-3.8,1.6-3.9,3.8
		c-0.1,2.3,1.6,4,3.8,4C102.2,152.3,103.9,150.7,103.9,148.4z"/>
	<path class="st0" d="M104.1,91.9c-2.9,0-5.4,0-8.2,0c0-2.5,0.1-5-0.1-7.4c0-0.6-0.6-1.5-1.1-1.8c-5.1-2.9-7.7-8-6.6-13.2
		c1.2-5.5,5.4-9.2,11.2-9.8c5.1-0.5,10.5,3.2,12.2,8.3c1.8,5.5-0.4,11.5-5.3,14.1c-1.7,0.9-2.2,1.9-2,3.6
		C104.2,87.7,104.1,89.7,104.1,91.9z M103.9,71.8c0-2.2-1.7-4-3.9-4c-2.2,0-3.9,1.7-3.9,3.9c0,2.2,1.8,4,3.9,4
		C102.1,75.8,103.9,73.9,103.9,71.8z"/>
</g>
</svg>
