<?xml version="1.0" encoding="utf-8"?>
<!-- Generator: Adobe Illustrator 27.1.1, SVG Export Plug-In . SVG Version: 6.00 Build 0)  -->
<svg version="1.1" id="Layer_1" xmlns="http://www.w3.org/2000/svg" xmlns:xlink="http://www.w3.org/1999/xlink" x="0px" y="0px"
	 viewBox="0 0 200 200" style="enable-background:new 0 0 200 200;" xml:space="preserve">
<style type="text/css">
	.st0{fill:#EC3783;}
</style>
<g>
	<path class="st0" d="M53.3,119.9c-14.7,0-29,0-43.4,0c-6.4,0-7.3-0.9-7.3-7.4c0-30.4,0-60.8,0-91.2c0-6.8,0.8-7.6,7.7-7.6
		c52.4,0,104.7,0,157.1,0c7.1,0,7.8,0.7,7.9,8c0,33.5,0,67.1,0,100.6c0,9.6-3.3,18-9.4,26.3c5.7,5.7,11.4,11.3,17.1,17
		c4,4,8.1,8.1,12.1,12.1c2.2,2.2,3.5,4.5,1,7.1c-2.6,2.6-5,1.3-7.2-0.9c-9.1-9.1-18.3-18.2-27.4-27.4c-0.5-0.5-1.1-0.9-2.1-1.7
		c-10.6,9-23.3,9.4-36.4,9.3c-26.2-0.2-52.4-0.1-78.5-0.1c-8.2,0-8.6-0.4-8.6-8.9c0-3.7,0.1-7.4,0-11.1c-0.2-4.7,1.7-7.3,6.5-6.5
		c5,0.7,6.9-1.6,7.9-6c0.8-3.4,2.1-6.7,3.2-10C53.4,121.4,53.3,121,53.3,119.9z M166.2,22.9c-51.9,0-103.2,0-154.4,0
		c0,29.6,0,58.8,0,87.9c1,0.1,1.6,0.2,2.1,0.2c24.5,0,49.1-0.1,73.6,0.1c3.7,0,5.3-1,6.8-4.5c11.4-28.2,46.5-35.5,68.5-14.3
		c1,0.9,2,1.7,3.5,3C166.2,70.8,166.2,47.1,166.2,22.9z M166.4,122.1c0-18.2-14.7-33.1-32.9-33.2C115,88.8,100,103.6,100,122.1
		c0,18.2,14.7,33.1,32.9,33.2C151.3,155.4,166.4,140.6,166.4,122.1z M90.5,119.9c-8.2,0-16.3-0.1-24.3,0.1c-1.1,0-2.9,0.6-3.1,1.4
		c-2,5.2-3.6,10.5-5.5,16.1c12.5,0,24.1,0,35.7,0C92.3,131.7,91.5,126.1,90.5,119.9z M105.8,155.2c-3.7-7.5-9.3-9.4-16.9-8.8
		c-8.6,0.6-17.3,0.1-26,0.1c-6,0-12,0-17.9,0c0,3.3,0,6,0,8.7C65.5,155.2,85.6,155.2,105.8,155.2z"/>
	<path class="st0" d="M68.6,68.8c-2.6-2.1-4.7-4.4-7.3-5.5c-1.9-0.8-5.3-1.1-6.7,0.1c-8.2,6.9-16.1,14.1-23.7,21.5
		c-0.3,0.3-0.5,0.7-0.6,1.2c-0.7,2.7,1.5,5.3,4.2,5.2c0.8,0,1.5-0.1,2.2-0.2c1.2-0.3,2.2-1.9,3.3-2.8c6-5.4,12-10.8,18-16.2
		c1.8,1.3,3.1,2.3,4.4,3.3c7,5.5,7,5.5,13-0.8c8.4-8.8,16.8-17.7,24.4-25.8l-6.6-5.9C84.8,51.7,76.8,60.1,68.6,68.8z"/>
	<polyline class="st0" points="80.8,41.2 104.3,39.1 101.3,61.8 	"/>
</g>
</svg>
