<?xml version="1.0" encoding="utf-8"?>
<!-- Generator: Adobe Illustrator 27.1.1, SVG Export Plug-In . SVG Version: 6.00 Build 0)  -->
<svg version="1.1" id="Layer_1" xmlns="http://www.w3.org/2000/svg" xmlns:xlink="http://www.w3.org/1999/xlink" x="0px" y="0px"
	 viewBox="0 0 200 200" style="enable-background:new 0 0 200 200;" xml:space="preserve">
<style type="text/css">
	.st0{fill:#EC3783;stroke:#EC3783;stroke-width:3;stroke-miterlimit:10;}
</style>
<g>
	<path class="st0" d="M53.3,119.5c-0.8,0-1.6,0-2.3,0c-10.4,0-20.8,0-31.2,0c-9.5,0-16.5-7-16.5-16.5c0-27.7,0-55.4,0-83.1
		c0-9.6,7-16.5,16.5-16.5c42.7,0,85.5,0,128.2,0c9.6,0,16.5,7,16.5,16.5c0,18.1,0,36.2,0,54.2c0,1.7,0.4,2.7,2,3.7
		c5.5,3.3,5.5,3.3,3.6,9.4c-1.4,4.5-1.2,5.3,2.7,8.1c0.4,0.3,1.2,0.3,1.8,0.2c2.1-0.5,4.1-1.1,6.2-1.8c1.7-0.6,3.1-0.1,4,1.3
		c2.1,3.5,4.2,7,6.2,10.6c0.8,1.5,0.5,3-0.8,4.2c-1.6,1.5-3.3,3-4.8,4.6c-0.4,0.5-0.7,1.4-0.6,2c1.2,4.9,1.2,4.9,6.2,6
		c5.3,1.2,5.7,1.6,5.8,7.1c0,2.9-0.1,5.8-0.2,8.7c-0.1,2.1-1.3,3.3-3.3,3.7s-3.9,1-5.9,1.3c-1.2,0.2-1.4,0.9-1.8,1.8
		c-1.5,3.4-0.6,5.8,2.3,8.1c4.4,3.6,4.3,4,1.7,8.9c-1.3,2.5-2.8,4.9-4.4,7.2c-1.5,2.3-2.5,2.6-5.1,1.8c-1.9-0.6-3.7-1.2-5.6-1.7
		c-0.6-0.1-1.4,0.3-2.1,0.5c-0.1,0-0.1,0.1-0.1,0.1c-3.2,2.1-3.4,4.7-2.2,8.2c2,5.4,1.8,5.6-3.2,8.6c-2.3,1.4-4.8,2.7-7.2,4
		c-2.4,1.2-3.4,1-5.3-1c-0.6-0.6-1.3-1.2-1.8-1.9c-1.8-2.8-4-3.7-7.2-2.3c-1.3,0.6-2.3,0.9-2.5,2.6c-0.3,1.9-0.9,3.8-1.3,5.7
		c-0.4,1.7-1.4,2.8-3.2,2.8c-4.1,0.1-8.2,0.1-12.3,0c-1.9,0-2.9-1.2-3.3-3c-0.4-2.1-0.9-4.2-1.5-6.2c-0.2-0.6-0.9-1.1-1.4-1.6
		c-0.1-0.1-0.4-0.1-0.6-0.2c-3.3-1.7-5.8-0.6-7.7,2.4c-0.4,0.7-1.1,1.2-1.6,1.8c-1.8,1.9-2.9,2.2-5.2,1c-3.3-1.8-6.5-3.7-9.7-5.6
		c-1.7-1-2.4-2.5-1.6-4.5c0.3-0.8,0.4-1.7,0.8-2.5c1.8-3.5,1.1-6.2-2.2-8.3c-0.6-0.4-1.5-0.7-2.2-0.5c-2,0.4-4,1.1-6,1.7
		c-2,0.7-3.5,0.1-4.4-1.7c-0.7-1.3-1.6-1.6-3.1-1.6c-12.6,0.1-25.3,0.1-37.9,0c-8.7,0-16-7.2-16-15.6c0-2.5,1.2-3.7,3.7-3.7
		c5,0,10.1,0,15.1-0.1c0.6,0,1.6-0.6,1.8-1.2c3.3-8.9,6.6-17.9,9.8-26.8C53.2,120.2,53.2,120,53.3,119.5z M94.5,87.2
		c-0.3-1-0.5-1.7-0.7-2.4c-0.9-2.9-0.7-3.8,1.9-5.4c2.2-1.5,4.5-2.9,6.9-4.2c5.1-2.8,5.5-2.9,9.1,1.5c2.3,2.9,4.7,4,8.1,2.3
		c0.1,0,0.2,0,0.2-0.1c0.5-0.6,1.3-1.1,1.5-1.7c0.6-1.8,0.9-3.6,1.3-5.5c0.7-2.8,1.3-3.5,4.2-3.7c2.6-0.2,5.2-0.2,7.9-0.2
		c6,0,6.5,0.3,7.5,6.2c0.6,3.4,1.8,5.4,5.4,5.8c1.5,0.2,2.2,0,3.3-1c2.2-2.1,3.6-5.3,7.2-5.8c0-0.7,0-1.3,0-1.9
		c0-16.9,0-33.7,0-50.6c0-6.8-4-10.8-10.8-10.8c-42.3,0-84.5,0-126.8,0c-6.9,0-10.8,4-10.8,10.9c0,21.4,0,42.9,0,64.3
		c0,0.7,0,1.4,0,2.1c4.4,0,8.6,0,12.9,0c0-0.9,0-1.7,0-2.5c0-21.4,0-42.7,0-64.1c0-3.3,1-4.3,4.3-4.3c38,0,75.9,0,113.9,0
		c3.4,0,4.3,0.9,4.3,4.3c0,12.9,0,25.8,0,38.7c0,0.7,0,1.4,0,2.1c-2.3,0-4.3,0-6.5,0c0-12.9,0-25.7,0-38.5c-36.6,0-73,0-109.5,0
		c0,6.4,0,12.8,0,19.3c10.8,0,21.4,0,32,0c0,2.2,0,4.2,0,6.4c-10.7,0-21.4,0-32,0c0,13,0,25.8,0,38.6C51,87.2,72.6,87.2,94.5,87.2z
		 M171.9,103.1c-0.7-0.5-1.7-0.9-2.4-1.5c-2.2-2.1-4.3-4.3-6.4-6.4c-1.2-1.1-1.7-2.4-1.1-4c0.7-1.9,1.1-3.9,1.8-5.8
		c0.9-2.6-1.7-2.5-2.8-3.3c-1-0.7-2.3-2.5-3.9-0.5c-1.2,1.5-2.6,2.7-3.8,4.1c-1.3,1.5-2.8,1.7-4.7,1.1c-2.6-0.8-5.3-1.5-8-2.1
		c-1.7-0.4-2.8-1.2-3.1-2.9c-0.2-0.9-0.5-1.8-0.7-2.7c-1.2-5.3-1.2-5.3-6.7-4.7c-0.6,0.1-1.3,0.7-1.5,1.3c-0.6,2-1.1,4.1-1.6,6.2
		c-0.4,1.6-1.4,2.5-3,2.8c-2.8,0.7-5.6,1.4-8.3,2.2c-1.7,0.5-3.1,0.3-4.4-1.1c-1.3-1.5-2.8-2.9-4.1-4.4c-0.8-0.9-1.5-0.8-2.2-0.2
		c-1.5,1.2-3.9,1.2-4.4,3.5c-0.1,0.4,0.2,0.9,0.4,1.3c0.5,1.7,0.9,3.4,1.5,5c0.6,1.7,0.1,3-1.1,4.2c-2.1,2.1-4.2,4.2-6.3,6.3
		c-1.1,1.1-2.3,1.8-4,1.1c-0.8-0.3-1.7-0.5-2.5-0.8c-5.1-1.6-5.1-1.5-7.6,3.3c-0.5,1-0.4,1.6,0.5,2.4c1.4,1.2,2.7,2.6,4.1,3.8
		c1.5,1.3,1.8,2.8,1.2,4.7c-0.8,2.6-1.5,5.3-2.1,8c-0.4,1.8-1.3,2.8-3.1,3.2c-2,0.4-4,0.9-6,1.5c-0.4,0.1-1.2,0.5-1.2,0.8
		c-0.1,1.9-0.1,3.9,0,5.8c0,0.3,0.7,0.7,1.2,0.8c2.1,0.6,4.2,1.1,6.2,1.5c1.6,0.4,2.5,1.4,2.9,3c0.7,2.8,1.4,5.6,2.2,8.3
		c0.5,1.7,0.3,3.2-1.1,4.4c-0.6,0.5-1.2,1.1-1.8,1.7c-4,3.8-4,3.8-0.8,8.3c0.3,0.4,1.3,0.8,1.9,0.6c2-0.5,4-1.1,6-1.7
		c1.6-0.6,2.8,0,4,1.1c2.1,2.1,4.1,4.2,6.3,6.3c1.2,1.2,1.8,2.5,1.1,4.2c-0.3,0.7-0.5,1.5-0.7,2.3c-1.6,5.2-1.6,5.3,3.4,7.6
		c0.5,0.2,1.6,0.1,2-0.3c1.4-1.3,2.8-2.8,4-4.2c1.3-1.5,2.8-1.8,4.7-1.2c2.7,0.8,5.4,1.5,8.1,2.2c1.6,0.4,2.6,1.2,3,2.8
		c0.5,2.2,1,4.3,1.5,6.5c0.5,2,2.2,1.2,3.3,1.1c1.3-0.1,3.2,1.1,4-1c0.2-0.4,0.3-0.9,0.4-1.4c0.4-1.8,0.6-3.6,1.3-5.3
		c0.5-1.1,1.6-2.2,2.6-2.6c2.9-1,5.9-1.7,8.9-2.5c1.5-0.4,2.8-0.2,3.8,1c0.6,0.7,1.2,1.3,1.8,1.9c3.8,4,3.8,4,8.3,0.9
		c0.5-0.3,0.8-1.3,0.7-1.9c-0.5-2-1.1-4-1.7-6c-0.6-1.6-0.1-2.9,1.1-4c2.2-2.1,4.3-4.2,6.4-6.4c1.1-1.2,2.4-1.6,4-1
		c2,0.7,4,1.1,6,1.8c1.7,0.7,1.9-0.7,2.3-1.5c0.7-1.6,2.8-2.7,1.6-4.9c-0.2-0.3-0.5-0.5-0.7-0.7c-1.3-1.2-2.6-2.5-4-3.7
		c-1.3-1.2-1.5-2.6-1.1-4.2c0.8-2.8,1.6-5.7,2.3-8.5c0.4-1.5,1.2-2.5,2.8-2.9c2.2-0.5,4.3-1.1,6.5-1.5c1.3-0.2,1.3-1.1,1.2-1.9
		c-0.2-1.8,0.9-3.9-0.8-5.4c-0.4-0.3-1-0.3-1.5-0.4c-1.8-0.4-3.5-0.8-5.3-1.2c-1.5-0.3-2.4-1.3-2.8-2.8c-0.7-2.9-1.5-5.7-2.3-8.5
		c-0.5-1.6-0.3-3,1-4.2c0.7-0.6,1.4-1.3,2.1-1.9c3.6-3.4,3.5-3.4,0.9-7.7c-0.8-1.3-1.5-1.4-2.7-1
		C176.7,101.7,174.4,102.3,171.9,103.1z M80.2,93.8c-23.3,0-46.8,0-70.5,0c0,2.8,0,5.6,0,8.3c0,7,3.9,10.9,11,10.9
		c18.3,0,36.5,0,54.8,0c0.6,0,1.3,0,2.4,0c-1.4-1.3-2.4-2.3-3.4-3.2c-1.3-1.2-1.7-2.7-0.8-4.4C75.8,101.6,78,97.7,80.2,93.8z
		 M79.2,120.2c-0.1-0.2-0.3-0.5-0.4-0.7c-5.8,0-11.5,0-17.3,0.1c-0.6,0-1.4,0.9-1.6,1.6c-3.2,8.5-6.3,17.1-9.4,25.7
		c-0.2,0.5-0.3,1.1-0.4,1.6c10.1,0,19.9,0,29.8,0c-0.3-1-0.6-1.9-0.7-2.8c-0.2-1.5-0.9-2.3-2.5-2.6c-1.9-0.3-3.8-0.9-5.7-1.3
		c-1.7-0.4-2.8-1.4-2.9-3.1c-0.1-4.2-0.1-8.3,0-12.5c0-1.7,1.1-2.7,2.7-3c2.2-0.5,4.3-1,6.4-1.6C77.9,121.3,78.5,120.6,79.2,120.2z
		 M74.5,161.4c-1.4-4-1.4-4-0.5-6.3c-14.6,0-29.3,0-44,0c1.2,3.9,4.8,6.3,9.1,6.3c11.4,0,22.8,0,34.2,0
		C73.7,161.4,74.1,161.4,74.5,161.4z M85.3,93.7c0,0.1,0,0.2,0,0.3c1.4,0.4,2.8,0.7,4.2,1.3c1.8,0.8,2.8,0,3.6-1.6
		C90.3,93.7,87.8,93.7,85.3,93.7z"/>
	<path class="st0" d="M71,80.7c-2.2,0-4.2,0-6.4,0c0-7.1,0-14,0-21c0-0.5,0.1-0.9,0.2-1.4c1.7-7.8,8-13,15.9-13
		c12.6,0,25.1,0,37.7,0c0.7,0,1.5,0,2.6,0c-2.6-2.5-5-4.8-7.4-7c1.9-1.9,3.3-3.3,4.8-4.8c4.4,4.3,8.8,8.6,13,12.9
		c1.3,1.3,1.2,3-0.1,4.4c-4.2,4.3-8.5,8.5-12.8,12.8c-1.4-1.6-2.8-3.1-4.2-4.6c2-1.9,4.4-4.2,6.8-6.4c-0.1-0.2-0.2-0.4-0.3-0.6
		c-0.5-0.1-0.9-0.2-1.4-0.2c-12.7,0-25.4,0-38.1,0C75.1,51.8,71,55.9,71,62S71,74.3,71,80.7z"/>
	<path class="st0" d="M41.8,35.5c-2,0-4,0-6.2,0c0-2,0-4,0-6.2c2,0,4,0,6.2,0C41.8,31.3,41.8,33.4,41.8,35.5z"/>
	<path class="st0" d="M48.5,35.5c0-2.1,0-4.1,0-6.2c2.1,0,4,0,6.2,0c0,2,0,4,0,6.2C52.7,35.5,50.7,35.5,48.5,35.5z"/>
	<path class="st0" d="M67.7,35.5c-2.1,0-4.1,0-6.2,0c0-2.1,0-4.1,0-6.2c2.1,0,4.1,0,6.2,0C67.7,31.3,67.7,33.3,67.7,35.5z"/>
	<path class="st0" d="M132.2,155c-12.5,0-22.5-10.2-22.5-22.8c0-12.4,10.2-22.4,22.7-22.4s22.5,10.2,22.5,22.8
		C154.8,145,144.7,155,132.2,155z M132.6,116.3c-8.8-0.2-16.3,7-16.4,15.9c-0.2,8.8,7.1,16.2,15.9,16.4c8.7,0.1,16.1-7,16.3-15.8
		C148.6,124,141.4,116.5,132.6,116.3z"/>
	<path class="st0" d="M130.5,93.6c0,2.3,0,4.4,0,6.6c-1.7,0.2-3.5,0.5-5.5,0.8c-0.5-2-0.9-4-1.5-6.3C125.8,94.3,128,93.9,130.5,93.6
		z"/>
	<path class="st0" d="M94.8,142.8c2.3-0.6,4.2-1.2,6.3-1.7c0.7,1.8,1.4,3.5,2.1,5.4c-1.8,0.9-3.7,1.8-5.9,2.9
		C96.5,147.1,95.7,145,94.8,142.8z"/>
	<path class="st0" d="M139.3,100.8c0.5-2.2,1-4.2,1.5-6.4c2.3,0.7,4.4,1.4,6.7,2.2c-0.9,2.1-1.7,4-2.5,6
		C143,102,141.3,101.5,139.3,100.8z"/>
	<path class="st0" d="M161.3,118.3c2-1,3.7-1.8,5.8-2.8c0.8,2.1,1.6,4.2,2.5,6.5c-2.2,0.6-4.2,1.2-6.3,1.7
		C162.7,121.9,162.1,120.2,161.3,118.3z"/>
	<path class="st0" d="M150.7,166.6c-1.1-2.1-2.1-3.9-3.1-5.7c1.7-1.1,3.2-2.1,4.9-3.2c1.3,1.7,2.6,3.3,4.1,5.1
		C154.5,164,152.7,165.3,150.7,166.6z"/>
	<path class="st0" d="M161.4,106.8c-1.7,1.5-3.3,2.9-4.9,4.3c-1.4-1.4-2.8-2.6-4.2-4c1.3-1.7,2.6-3.3,4-5.1
		C158.1,103.6,159.7,105.1,161.4,106.8z"/>
	<path class="st0" d="M103.1,118.4c-1.9-0.9-3.7-1.8-5.8-2.8c1.2-2.1,2.4-4,3.6-6c1.9,1.4,3.5,2.6,5.3,3.8
		C105.1,115.1,104.1,116.7,103.1,118.4z"/>
	<path class="st0" d="M119.6,162.1c2,0.6,3.7,1.2,5.5,1.8c-0.5,2.1-0.9,4.1-1.4,6.3c-2.3-0.7-4.3-1.4-6.7-2.2
		C117.9,166,118.7,164.1,119.6,162.1z"/>
	<path class="st0" d="M141,170.2c-2.4,0.3-4.5,0.7-6.9,1c0-2.3,0-4.3,0-6.5c1.7-0.3,3.4-0.5,5.5-0.8
		C140,165.9,140.4,167.9,141,170.2z"/>
	<path class="st0" d="M112,107.2c-1.3-1.7-2.6-3.2-4.1-5.1c1.9-1.3,3.8-2.5,5.8-3.9c1.1,2.1,2.1,3.9,3.1,5.7
		C115.3,105,113.8,106,112,107.2z"/>
	<path class="st0" d="M170.5,139.3c-2.3-0.4-4.3-0.8-6.4-1.1c0.2-1.9,0.3-3.8,0.5-5.8c2.1,0,4.1,0,6.4,0
		C170.9,134.6,170.7,136.8,170.5,139.3z"/>
	<path class="st0" d="M167.3,149.2c-1.2,2.1-2.4,4-3.6,6c-1.8-1.3-3.5-2.5-5.3-3.8c1-1.6,1.9-3.2,3-5
		C163.3,147.3,165.1,148.2,167.3,149.2z"/>
	<path class="st0" d="M103.1,158c1.7-1.5,3.3-2.9,4.9-4.3c1.4,1.4,2.8,2.6,4.2,4c-1.3,1.7-2.6,3.3-4,5.1
		C106.4,161.2,104.8,159.6,103.1,158z"/>
	<path class="st0" d="M94,125.5c2.3,0.4,4.3,0.8,6.4,1.1c-0.2,1.9-0.3,3.6-0.5,5.6c-2,0-4.1,0-6.4,0C93.7,130.1,93.8,128,94,125.5z"
		/>
</g>
</svg>
