<?xml version="1.0" encoding="utf-8"?>
<!-- Generator: Adobe Illustrator 27.1.1, SVG Export Plug-In . SVG Version: 6.00 Build 0)  -->
<svg version="1.1" id="Layer_1" xmlns="http://www.w3.org/2000/svg" xmlns:xlink="http://www.w3.org/1999/xlink" x="0px" y="0px"
	 viewBox="0 0 200 200" style="enable-background:new 0 0 200 200;" xml:space="preserve">
<style type="text/css">
	.st0{fill:#EC3783;stroke:#EC3783;stroke-width:3;stroke-miterlimit:10;}
</style>
<g>
	<path class="st0" d="M17.6,137.3c55,0,109.7,0,164.8,0c0-0.7,0-1.4,0-2c0-28.8,0-57.5,0-86.3c0-5.9-3.4-9.5-9.3-9.9
		c-2-0.1-3.2-1.3-3.2-3s1.3-2.8,3.4-2.8c7.5-0.1,13.9,5.5,14.9,12.9c0.2,1.3,0.2,2.6,0.2,3.9c0,36.3,0,72.5,0,108.8
		c0,0.9,0,1.7,0,2.9c0.8,0,1.5,0,2.2,0c6.2,0,6.1,0,6.2,6.3c0.1,5.4-0.8,10.5-3.6,15.2c-5.3,8.8-13.1,13.6-23.4,13.7
		c-46.6,0.1-93.1,0.1-139.7,0c-15,0-26.9-12.2-26.9-27.2c0-1.5,0-2.9,0-4.4c0-2.6,1-3.5,3.6-3.5c1.5,0,3,0,4.8,0c0-1,0-1.7,0-2.5
		c0-36.5,0-73,0-109.5c0-5.8,1.9-10.6,6.8-13.9c2.5-1.7,5.2-2.5,8.2-2.5c18.8,0,37.6,0,56.4,0c2.2,0,3.5,1,3.6,2.8s-1.3,3-3.6,3
		c-18.4,0-36.7,0-55.1,0c-6.6,0-10.2,3.6-10.2,10.3c0,28.6,0,57.1,0,85.7C17.6,135.7,17.6,136.5,17.6,137.3z M9.2,167.6
		c0,0.5-0.1,0.8-0.1,1.1c-0.4,12.3,9.1,22.2,21.6,22.2c46.2,0.1,92.4,0,138.6,0c7.8,0,14-3.4,18.3-9.9c2.6-4,3.7-8.5,3.3-13.4
		C130.2,167.6,69.8,167.6,9.2,167.6z M17.7,161.4c54.9,0,109.7,0,164.5,0c0-6.1,0-12,0-18c-54.9,0-109.7,0-164.5,0
		C17.7,149.5,17.7,155.4,17.7,161.4z"/>
	<path class="st0" d="M145,87.7c-1.2-2.8-2.3-5.3-3.5-8c-11.8,3.7-23,2.6-33.6-3.7c-8.7-5.2-14.5-12.8-17.4-22.5
		C84.7,34.3,94.3,14.1,113,6.2c18.5-7.8,40.2-0.3,50.1,17.3c10.3,18.3,4.3,43.2-16.1,53.9c1.1,2.6,2.2,5.1,3.4,7.9
		c2-0.8,3.9-1.7,5.8-2.4c2.3-0.9,3.6-0.4,4.6,1.8c4.3,9.9,8.7,19.8,13,29.7c2.8,6.5-0.2,13.8-6.5,16.6c-6.5,2.9-14,0.1-16.9-6.3
		c-4.4-9.9-8.7-19.9-13.1-29.8c-1-2.3-0.4-3.7,2-4.7C141.2,89.4,143,88.6,145,87.7z M95.2,45.5C96.1,60.7,110,77,130.5,75.9
		c21.3-1.2,31.7-19.3,31.4-31.6c-0.6,0-1.2,0-1.8,0c-5.6,0-11.2,0-16.8,0c-1.4,0-2.1,0.5-2.7,1.6c-3,5.1-6,10.1-9,15.2
		c-0.8,1.4-1.7,2.4-3.4,2.2c-1.8-0.2-2.3-1.5-2.8-3c-2.9-9.4-5.9-18.7-8.9-28.1c-0.2-0.6-0.4-1.2-0.7-2.2c-2.4,4.6-4.7,8.8-6.9,13.1
		c-0.9,1.7-2,2.5-3.9,2.4C101.8,45.4,98.5,45.5,95.2,45.5z M161.8,38.4c-1.2-14.2-14.5-30-34.3-29.2c-17.6,0.7-33.7,16.1-32.2,30.4
		c2.3,0,4.6-0.1,6.9,0c1.3,0.1,2.1-0.4,2.7-1.6c2.8-5.5,5.8-11,8.6-16.5c0.7-1.4,1.6-2.4,3.3-2.2c1.6,0.2,2.3,1.3,2.8,2.8
		c2,6.5,4.1,13,6.1,19.5c1.2,3.7,2.4,7.4,3.7,11.6c2.6-4.3,5-8.2,7.2-12.2c1.1-1.9,2.4-2.7,4.6-2.6C148,38.5,154.8,38.4,161.8,38.4z
		 M143.9,94.7c0.5,1.1,1,2,1.4,3c3.5,8.1,7,16.3,10.6,24.4c1.1,2.4,3.1,3.8,5.8,4c5.2,0.5,8.8-4.7,6.7-9.6
		c-3.3-7.7-6.7-15.3-10-22.9c-0.6-1.4-1.3-2.8-1.9-4.3C152.1,91.2,148.1,92.9,143.9,94.7z"/>
	<path class="st0" d="M56.2,78c0,2.6,0,4.9,0,7.3c0.1,6,0.1,12,0.2,18c0,2.4-0.9,3.4-3.3,3.4c-5.4,0.1-10.8,0.1-16.2,0
		c-1.9,0-2.9-1.2-2.9-3.5c0-5.2,0-10.3-0.1-15.5c0-3.1,0-6.2,0-9.6c-2.4,0-4.5,0-6.7,0c-1.4,0-2.7-0.2-3.5-1.6
		c-0.7-1.4-0.2-2.6,0.6-3.8c6-8.4,11.9-17.1,17.7-25.7c1.8-2.6,3.9-2.6,5.7,0c6,8.6,11.9,17.1,17.8,25.7c2,2.9,0.9,5.1-2.6,5.3
		C60.8,78.1,58.6,78,56.2,78z M44.9,53.3c-4.3,6.4-8.5,12.5-12.9,18.9c1.6,0,2.7,0,3.9,0c2.9,0,3.8,0.9,3.9,3.8
		c0,6.8,0.1,13.5,0.1,20.3c0,1.4,0.2,2.9,0.3,4.4c3.5,0,6.7,0,10,0c0-0.7,0.1-1.2,0.1-1.7c0-7.6-0.1-15.2-0.1-22.8
		c0-3.2,0.9-4.1,4.2-4.1c1.1,0,2.1,0,3.6,0C53.5,65.7,49.3,59.6,44.9,53.3z"/>
	<path class="st0" d="M93.8,97.6c2.2,0,4.2,0,6.3,0c1.4,0,3-0.1,3.7,1.4s0.2,2.9-0.7,4.2c-4.9,7.1-9.8,14.3-14.7,21.4
		c-1,1.5-2,3-3,4.4c-1.6,2.3-3.8,2.3-5.4,0c-4.5-6.4-8.9-12.8-13.3-19.2c-1.7-2.4-3.5-4.8-5-7.3c-1.6-2.6-0.1-4.9,2.8-4.8
		c2.1,0,4.3,0,6.9,0c0-3,0-5.8,0-8.6c0-5.7-0.1-11.3-0.1-17c0-2.1,1.1-3.2,3.2-3.2c5.3-0.1,10.6-0.1,15.8,0c2.3,0,3.3,1.2,3.3,3.7
		c0.1,7.2,0.1,14.4,0.1,21.6C93.7,95.2,93.8,96.2,93.8,97.6z M82.7,122.5c4.3-6.4,8.5-12.6,12.8-18.9c-1.4,0-2.4-0.1-3.4,0
		c-3,0.3-4.3-0.8-4.3-3.8c0-7.7-0.1-15.3-0.1-23c0-0.6,0-1.2,0-1.8c-3.7,0-7.1,0-10.5,0c0,0.5,0,0.8,0,1.1c0.1,8,0.2,16.1,0.2,24.1
		c0,2.4-0.9,3.4-3.3,3.4c-1.3,0-2.6,0-4.4,0C74.1,110.1,78.3,116.1,82.7,122.5z"/>
	<path class="st0" d="M100,155c-5.3,0-10.6,0-15.8,0c-2.3,0-3.7-1.1-3.7-2.9c0-1.8,1.4-2.9,3.7-3c10.6,0,21.1,0,31.7,0
		c2.3,0,3.6,1.1,3.7,3c0,1.8-1.3,2.9-3.7,2.9C110.5,155,105.2,155,100,155z"/>
</g>
</svg>
