<?xml version="1.0" encoding="utf-8"?>
<!-- Generator: Adobe Illustrator 27.1.1, SVG Export Plug-In . SVG Version: 6.00 Build 0)  -->
<svg version="1.1" id="Layer_1" xmlns="http://www.w3.org/2000/svg" xmlns:xlink="http://www.w3.org/1999/xlink" x="0px" y="0px"
	 viewBox="0 0 200 200" style="enable-background:new 0 0 200 200;" xml:space="preserve">
<style type="text/css">
	.st0{fill:#EC3783;}
</style>
<g>
	<path class="st0" d="M172.5,2.4c2.9,1.3,6,2.2,8.5,3.9c6,4.2,8.3,10.3,8.2,17.6c-0.1,30.8-0.1,61.6-0.1,92.4c0,0.7,0,1.4,0,2.2
		c-0.3,4.3-2.8,7-6.6,7s-6.6-2.6-6.8-6.9c-0.2-5.1-0.1-10.1-0.1-15.2c0-25.9,0-51.8,0-77.7c0-8.3-1.4-9.7-9.5-9.7
		c-37.5,0-74.9,0-112.4,0c-7.1,0-8.9,1.8-8.9,9c0,8.7,0,17.4,0,26c0,5.2-2.5,8.3-6.7,8.4c-4.3,0.1-7.1-3.2-7.1-8.5
		c0-9.1,0-18.2,0-27.3c0-10.9,5-17.5,15.5-20.7c0.4-0.1,0.7-0.5,1-0.7C89.1,2.4,130.8,2.4,172.5,2.4z"/>
	<path class="st0" d="M189.1,165.4c0,17.9-14.4,32.3-32.2,32.1c-17.5-0.2-32-14.6-32.1-32c-0.1-17.7,14.3-32.2,32.2-32.2
		C175.1,133.3,189.1,147.3,189.1,165.4z M157.1,165.2c0-7,0-13.3,0-19.6c-11.2-0.4-20.3,8.8-20.2,20c0.1,11.7,10.2,20.8,22,19.9
		c10.3-0.8,19-10.5,17.8-20.3C170.4,165.2,164.1,165.2,157.1,165.2z"/>
	<path class="st0" d="M79.9,197.6c-9.2,0-18.5,0-27.7,0c-12.7-0.1-21.1-8.5-21.2-21.2c0-9.1,0-18.2,0-27.3c0-5.4,2.7-8.6,7-8.6
		s6.8,3.1,6.8,8.7c0,9,0,17.9,0,26.9c0,5.7,2.2,7.8,7.9,7.8c18.6,0,37.3,0,55.9,0c5.6,0,8.8,2.4,8.9,6.7c0.1,4.4-3.3,7.1-9,7.1
		C99,197.6,89.5,197.6,79.9,197.6z"/>
	<path class="st0" d="M109.8,58.8c10.4,0,20.8,0,31.2,0c4.9,0,6.8,1.7,7,5.7c0.1,4-1.9,6.2-6.6,6.2c-20.9,0.1-41.8,0.1-62.8,0
		c-4.7,0-6.8-2.1-6.8-6.1s2.1-5.8,6.8-5.9C89,58.8,99.4,58.8,109.8,58.8z"/>
	<path class="st0" d="M109.8,93.5c10.4,0,20.8,0,31.2,0c4.9,0,6.8,1.7,6.9,5.7c0.1,4-1.9,6.1-6.7,6.1c-21,0.1-41.9,0.1-62.9,0
		c-4.6,0-6.7-2.3-6.5-6.3c0.2-3.8,2.1-5.5,6.7-5.5C89,93.5,99.4,93.5,109.8,93.5z"/>
	<path class="st0" d="M94.9,128.2c5.6,0,11.2,0.1,16.9,0c3.8-0.1,5.6,2,5.7,5.5c0.1,3.4-1.1,6.1-5.1,6.1c-11.7,0-23.4,0.1-35,0
		c-4,0-5.1-2.7-5-6.1c0.1-3.6,1.9-5.5,5.7-5.5C83.6,128.2,89.2,128.2,94.9,128.2z"/>
	<path class="st0" d="M30.1,77.9c-4.5,0-8.9,0-13.4,0c-3.8,0-5.8-1.9-5.9-5.8c-0.1-3.9,1.8-6.1,5.6-6.2c9.4-0.1,18.7-0.2,28.1,0
		c3.8,0.1,5.7,2.4,5.6,6.2c-0.2,3.9-2.3,5.7-6.1,5.7C39.3,77.9,34.7,77.9,30.1,77.9z"/>
	<path class="st0" d="M30.2,133.7c-4.8,0-9.5,0-14.3,0c-3.9,0-5.2-2.4-5.1-6c0.1-3.7,1.7-5.6,5.6-5.6c9.3,0.1,18.5,0,27.8,0
		c4.1,0,5.9,1.9,5.9,5.8s-2,5.8-5.9,5.8C39.5,133.8,34.9,133.7,30.2,133.7L30.2,133.7z"/>
	<path class="st0" d="M43,100c0,3.3,0.2,6.6,0,9.9c-0.3,4.2-2.3,5.6-6.6,5.5c-3.8-0.1-5.3-2.3-5.3-5.9c0-6.5,0-13,0-19.4
		c0-3.7,2-5.5,5.5-5.9s6.1,1.7,6.4,5.5C43.1,93,42.9,96.5,43,100C42.9,100,43,100,43,100z"/>
</g>
</svg>
