<?xml version="1.0" encoding="utf-8"?>
<!-- Generator: Adobe Illustrator 27.1.1, SVG Export Plug-In . SVG Version: 6.00 Build 0)  -->
<svg version="1.1" id="Layer_1" xmlns="http://www.w3.org/2000/svg" xmlns:xlink="http://www.w3.org/1999/xlink" x="0px" y="0px"
	 viewBox="0 0 200 200" style="enable-background:new 0 0 200 200;" xml:space="preserve">
<style type="text/css">
	.st0{fill:#FFFFFF;}
</style>
<g>
	<path class="st0" d="M149.9,58.6H50.2l-25.7,47l75.6,83l75.6-83.2L149.9,58.6z M107.9,65.6l33.3,0h1.8l-0.7,1.7l-13,32.4l-0.9,2.3
		l-1.3-2.1l-20.3-32.4l-1.2-1.9H107.9z M99.8,69.5l1.1,1.7l17.7,28.1l1.2,1.9h-2.2H82.3h-2.2l1.2-1.9l17.5-28.1L99.8,69.5z
		 M59.2,65.6H92h2.2l-1.2,1.9L73,99.7l-1.3,2.1l-0.9-2.3L58,67.3l-0.7-1.7H59.2z M35.8,99.3l14.7-26.7l1.3-2.3l1,2.4l10.6,26.7
		l0.7,1.7h-1.8H36.9h-2.1L35.8,99.3z M85.4,161.3l-46.8-51.1l-1.9-2.1h2.8H66h0.8l0.3,0.8L87.5,160l2.5,6.3L85.4,161.3z
		 M100.1,174.3l-1.2-2.9L75,110.8l-0.1-0.4L75,110l0.2-0.9l0.2-0.9h1h47h1l0.2,0.9l0.2,0.6l0.6,0.6l-0.3,0.8l-23.9,60.3L100.1,174.3
		z M161.5,110.5l-46.6,51.1l-4.6,5l2.5-6.3l20.3-51.1l0.3-0.8h0.8h26.2h2.8L161.5,110.5z M138.1,101.2h-1.8l0.7-1.7L147.6,73l1-2.4
		l1.3,2.3l14.7,26.5l1,1.8h-2.1H138.1z"/>
	<rect x="96.6" y="11.3" class="st0" width="7" height="28.3"/>
	
		<rect x="167.9" y="39.7" transform="matrix(0.7215 -0.6924 0.6924 0.7215 21.1307 138.9433)" class="st0" width="30.9" height="7"/>
	<rect x="13.2" y="27.8" transform="matrix(0.6924 -0.7215 0.7215 0.6924 -26.0424 25.3567)" class="st0" width="7" height="30.9"/>
</g>
</svg>
