<?xml version="1.0" encoding="utf-8"?>
<!-- Generator: Adobe Illustrator 27.1.1, SVG Export Plug-In . SVG Version: 6.00 Build 0)  -->
<svg version="1.1" id="Layer_1" xmlns="http://www.w3.org/2000/svg" xmlns:xlink="http://www.w3.org/1999/xlink" x="0px" y="0px"
	 viewBox="0 0 200 200" style="enable-background:new 0 0 200 200;" xml:space="preserve">
<style type="text/css">
	.st0{fill:#FFFFFF;}
</style>
<g>
	<path class="st0" d="M147.9,108h-22.1c-1.5,0-2.7,1.2-2.7,2.7v44.1c0,1.5,1.2,2.7,2.7,2.7h22.1c1.5,0,2.7-1.2,2.7-2.7v-44.1
		C150.3,109,149.1,108,147.9,108z M142.8,149.4h-11.9v-33.9h11.9V149.4z"/>
	<path class="st0" d="M73,108H51c-1.5,0-2.7,1.2-2.7,2.7v44.1c0,1.5,1.2,2.7,2.7,2.7H73c1.5,0,2.7-1.2,2.7-2.7v-44.1
		C75.4,109,74.2,108,73,108z M67.9,149.4H56.1v-33.9h11.9V149.4z"/>
	<path class="st0" d="M96.2,8.4L28.6,53.2c-0.7,0.5-1.2,1.2-1.2,2.2v94H17.2c-1.5,0-2.7,1.2-2.7,2.7v14.5H5.8
		c-1.5,0-2.7,1.2-2.7,2.7v19.6c0,1.5,1.2,2.7,2.7,2.7h188.3c1.5,0,2.7-1.2,2.7-2.7v-19.6c0-1.5-1.2-2.7-2.7-2.7h-8.7l0-0.2v-14.5
		c0-1.5-1.2-2.7-2.7-2.7h-10.2V55.4c0-1-0.5-1.7-1.2-2.2L103.8,8.4L96.2,8.4z M35.2,58.1l65-43.1l65,43.1v28.1H35.2L35.2,58.1z
		 M35.2,93.7h129.9v55.5l-51.4,0v-38.8c0-1.5-1.2-2.7-2.7-2.7H89c-1.5,0-2.7,1.2-2.7,2.7v38.8H35.2L35.2,93.7z M106.2,115.5v33.7
		H94.3v-33.7H106.2z M22.3,157h155.4v9.5H22.3L22.3,157z M189.3,183.6H10.9v-9.5h178.1l0,9.5H189.3z"/>
</g>
</svg>
