<?xml version="1.0" encoding="utf-8"?>
<!-- Generator: Adobe Illustrator 27.1.1, SVG Export Plug-In . SVG Version: 6.00 Build 0)  -->
<svg version="1.1" id="Layer_1" xmlns="http://www.w3.org/2000/svg" xmlns:xlink="http://www.w3.org/1999/xlink" x="0px" y="0px"
	 viewBox="0 0 200 200" style="enable-background:new 0 0 200 200;" xml:space="preserve">
<style type="text/css">
	.st0{fill:#EC3783;stroke:#EC3783;stroke-width:3;stroke-miterlimit:10;}
</style>
<g>
	<g>
		<path class="st0" d="M197,33.8c0-5.9-2.8-10.6-6.9-14.5c-4.9-4.6-10.9-5.9-17.4-5.9c-48.5,0.1-97,0-145.6,0
			c-1.5,0-2.9,0.1-4.4,0.2C11.8,14.3,2.9,25,3,35.1C3.2,56,3.2,76.8,3,97.6c0,0.5,0,1,0.1,1.4L3,116.1l0.1,0.1c0,8.6,0,17.2,0,25.8
			c0,1.2,0.4,2.4,0.7,3.6c2.2,9.1,11.4,16.7,22.5,16.4c17.1-0.4,34.3-0.1,51.4-0.1c1.1,0,2.2,0,3.5,0c0,6,0,11.6,0,17.6
			c-3.8,0-7.4,0.1-11.1,0c-2.6-0.1-4.5,1.1-4.6,3.6c0,2.6,2,3.5,4.6,3.5c20-0.1,39.9-0.1,59.9,0c2.7,0,4.5-1.3,4.5-3.6
			c0.1-2.6-2.1-3.5-4.6-3.4c-3.6,0.1-7.2,0-10.9,0c0-6,0-11.7,0-17.6c1.4,0,2.5,0,3.7,0c17,0,34.1,0.1,51.1-0.1c3,0,6-0.5,8.8-1.3
			c7.9-2.3,14.2-10.6,14.2-18.8C197.1,105.8,197,69.8,197,33.8z M10,110.8v-7c0-0.7,0-1.3,0-1.9V81c0.1-14.5,0.1-29.1-0.1-43.6
			c-0.1-10,6.8-17.4,16.9-16.8c6.7,0.4,13.4,0.1,20.1,0.1c42.5,0,84.9,0.1,127.4-0.1c9.3,0,16.1,6.9,16.1,15.2c0,30.3,0,60.7,0,91
			c0,2.4-0.7,3.2-3.2,3.2c-13.8-0.1-27.6-0.1-41.4-0.1c-7,0-7,0-8.2-6.8c-0.2-1-0.5-2-0.7-3.1c-2.4-12.2-7.9-22.3-19.7-28
			c-2.1-1-4.2-1.8-6.6-2.9c13.8-6.9,19.1-17.8,16.6-31.6c-2.2-12.2-12.9-21.3-26.4-21.7C88.3,35.5,76.6,44,73.7,56
			c-3.2,13.1,0.7,25.1,15.9,33.3c-0.7,0.4-1.3,0.9-1.9,1c-6,1.5-10.8,5-14.8,9.5c-6.8,7.6-9.4,16.9-10.4,26.8
			c-0.2,2.4-0.9,3.4-3.5,3.3c-15.4-0.1-30.7-0.1-46.1-0.1c-0.8,0-1.6-0.1-2.8-0.2C10,123.2,10,117,10,110.8L10,110.8z M81,58.6
			c0.6-2.8,1.7-5.7,3.6-8.2l0.1-0.1c9.9-11.5,29-9,34.6,6.4c3.4,9.4,0,19.5-9.4,24.5c-11.7,6.2-25.3,0.6-29-12
			C79.9,66,80.6,62.3,81,58.6z M121,103.5c5.5,5.7,8,12.7,9.2,20.3c0.3,1.8,0.5,3.7,0.8,5.8c-1.4,0.1-2.2,0.2-3.1,0.2
			c-18.4,0-36.8-0.1-55.2,0.1c-2.8,0-3.4-0.9-3-3.5c1.4-9.8,3.9-19,12.4-25.1c3.2-2.3,7-4.3,10.8-4.9
			C103.1,94.8,113.1,95.4,121,103.5z M109.7,179c-3.2-0.1-6.5,0-9.7,0c-3,0-6.1-0.1-9.1,0c-2,0.1-2.5-0.7-2.5-2.5
			c0.1-4,0.1-7.9,0-11.9c0-1.7,0.5-2.5,2.3-2.4c6.3,0.1,12.5,0.1,18.8,0c1.9,0,2.6,0.7,2.5,2.6c-0.1,4-0.1,7.9,0,11.9
			C112.2,178.5,111.5,179.1,109.7,179z M190.4,140.2c-0.4,8.3-6.7,14.8-15.1,14.8c-50.1,0-100.1,0-150.2,0
			c-8.8,0-15.4-7.1-15.1-15.9c0.1-2.2,0.8-2.8,3-2.8c17.6,0.2,35.1,0.3,52.7,0.3c11.6,0,23.2,0,34.8,0c0-0.1,0-0.2,0-0.3
			c28.7,0,57.5,0.1,86.2-0.1C189.8,136.2,190.5,137.3,190.4,140.2z"/>
		<path class="st0" d="M170.4,45.8c2.8-0.1,5.3-2.7,5.2-5.6c-0.1-2.7-2.8-5.5-5.4-5.5c-2.7,0-5.3,2.8-5.3,5.7
			C165,43.7,167.3,45.9,170.4,45.8z"/>
	</g>
</g>
</svg>
