<?xml version="1.0" encoding="utf-8"?>
<!-- Generator: Adobe Illustrator 27.1.1, SVG Export Plug-In . SVG Version: 6.00 Build 0)  -->
<svg version="1.1" id="Layer_1" xmlns="http://www.w3.org/2000/svg" xmlns:xlink="http://www.w3.org/1999/xlink" x="0px" y="0px"
	 viewBox="0 0 200 200" style="enable-background:new 0 0 200 200;" xml:space="preserve">
<style type="text/css">
	.st0{fill:#EC3783;stroke:#EC3783;stroke-width:3;stroke-miterlimit:10;}
</style>
<g>
	<path class="st0" d="M2.6,53.6c2.4-5,6.4-6.9,12-6.8c9.5,0.3,19,0.1,28.9,0.1c0.1-1.2,0.2-2.3,0.2-3.4c0-5.7,0-11.4,0-17.1
		c0-8.4,3.1-11.6,11.4-11.6c15.6,0,31.2,0,46.8,0c14.3,0,28.7,0,43,0c8.3,0,11.4,3.2,11.4,11.6c0,6.7,0,13.4,0,20.6c2.2,0,4,0,5.9,0
		c8.5,0,17-0.1,25.5,0c5.9,0.1,9.7,3.7,9.7,9.5c0.1,32.5,0.1,65,0,97.4c0,5.6-3.7,9.3-9.3,9.4c-6.4,0.1-12.9,0-19.5,0v-6.1
		c5.8,0,11.6,0,17.4,0c4.8,0,5.3-0.5,5.3-5.2c0-31.2,0-62.4,0-93.6c0-4.6-0.7-5.4-5.2-5.4c-9.7,0-19.5,0-29.5,0
		c-0.2,2-0.3,3.7-0.5,5.6h-5.7c-0.1-1.2-0.2-2.4-0.2-3.6c0-9.6,0-19.3,0-28.9c0-4.5-0.6-5.2-5-5.2c-30.2,0-60.4,0-90.6-0.1
		c-3.6,0-5,1.3-5,4.9c0.1,37.6,0,75.1,0.1,112.7c0,4.4,0.6,5,5.1,5c25.2,0,50.5,0,75.7,0c1.4,0,2.7,0,4.3,0v6.1c-1.1,0-2.3,0-3.5,0
		c-25.8,0-51.5,0-77.3,0c-7,0-10.5-3.5-10.5-10.6c0-27,0-54,0-81.1c0-1.5,0-3,0-4.8c-10.9,0-21.4-0.1-31.9,0.1
		c-2.8,0-3.2,2.3-3.2,4.7c0,10.9,0,21.8,0,32.7c0,20.3,0,40.6,0,60.9c0,5.5,0.3,5.8,5.9,5.8c38.4,0,76.9,0,115.3,0c1.6,0,3.2,0,5,0
		v6.1H103v6.2c6.2,0,12.5,0,18.8,0c1.6,0,3.5-0.4,4.9,0.1c0.4,0.2,0.8,0.4,1.2,0.8c1.5,1.3,1.3,3.7-0.4,4.8
		c-0.3,0.2-0.6,0.3-0.9,0.3c-4.7,0.3-9.4,0.2-14.1,0.2c-12.8,0-25.6,0-38.4,0c-2.3,0-4.7,0-4.7-3c0-2.9,2.4-3.1,4.7-3.1
		c7.3,0,14.7,0,22.3,0v-6.1c-1.5,0-2.8,0-4.2,0c-25.8,0-51.5-0.1-77.3,0.1c-5.6,0-9.9-1.3-12.7-6.3V53.6H2.6z"/>
	<path class="st0" d="M155,132.2c0,1.3,0,2.4,0,3.5c6.5,1.9,7.2,2.9,7.3,9.6c0.1,8.9,0.1,17.7,0.2,26.6c0,1.1,0.1,2.3-0.1,3.4
		c-0.7,5.7-5.3,10-10.7,9.9c-5.3-0.1-10.2-4.5-10.4-10.2c-0.2-10.9-0.1-21.8,0.1-32.7c0.1-4.1,2.9-6,7.1-6.2
		c0.1-1.3,0.2-2.5,0.2-3.9c-11-1.6-19.8-6.6-25.6-16.1c-4.3-7-5.9-14.5-4.5-22.6c2.9-17,17.7-29.2,34.3-28.3
		c17.1,0.9,30.8,14,32.1,30.8C186.4,111.1,176.7,129,155,132.2z M151.9,126c15.1,0,27.3-12.3,27.3-27.4s-12.4-27.5-27.3-27.4
		c-15.3,0.1-27.5,12.3-27.5,27.6C124.4,113.9,136.8,126.1,151.9,126z M147.2,142.7c0,10.3,0,20.5,0,30.6c0,3.5,2,6.1,4.6,5.8
		c3.4-0.4,4.5-2.8,4.5-5.9c-0.1-6.3-0.1-12.7-0.1-19c0-3.8,0-7.5,0-11.4C153,142.7,150.4,142.7,147.2,142.7z"/>
	<path class="st0" d="M92.4,82.5c0,2.8,0.1,5.6,0,8.4c-0.1,4.1-2.3,6.5-6.3,6.6c-6,0.2-11.9,0.2-17.9,0c-4-0.1-6.2-2.5-6.2-6.7
		c-0.1-5.7-0.1-11.4,0-17.1c0.1-4.5,2.3-6.8,6.9-6.9c5.6-0.1,11.2-0.1,16.7,0c4.6,0.1,6.7,2.3,6.8,6.9
		C92.4,76.6,92.4,79.6,92.4,82.5L92.4,82.5z M86,91.2c0-3.5,0-6.7,0-10.4c-1.4,1.3-2.4,2.2-3.3,3.2c-3.5,3.5-4.1,3.6-7.9,0.5
		c-1.8-1.5-5.1-2.7-3.1-5.9c2.2-3.6,4.5-0.3,6,0.3c2.3-2,4.4-3.7,6.8-5.7c-5.9,0-11,0-16.2,0c0,6.1,0,11.9,0,17.9
		C74.2,91.2,79.9,91.2,86,91.2z"/>
	<path class="st0" d="M92.4,119.1c0,2.9,0.1,5.8,0,8.8c-0.1,4-2.4,6.3-6.5,6.4c-5.8,0.1-11.7,0.1-17.5,0c-4-0.1-6.3-2.4-6.4-6.5
		c-0.1-6-0.1-11.9,0-17.9c0.1-3.9,2.4-6.1,6.3-6.2c6-0.1,11.9-0.1,17.9,0c3.9,0.1,6,2.3,6.2,6.2c0.1,1.5,0,3,0,4.6
		C92.4,116,92.4,117.5,92.4,119.1z M68.2,110c0,6.3,0,12,0,17.9c6.1,0,11.9,0,18.1,0c0-1.9,0-3.5,0-5.2c0-1.6,0-3.1,0-5.4
		c-1.5,1.4-2.3,2.2-3.1,3c-4.2,4.2-4.3,4.3-9,0.5c-1.9-1.5-4.5-2.9-2.3-5.7c2.1-2.6,4-0.5,5.9,0.7c0.2,0.1,0.5,0.1-0.3-0.1
		c2.4-2.2,4.4-4,6.4-5.8C78.8,110,73.6,110,68.2,110z"/>
	<path class="st0" d="M61.9,45.6c0-2.9-0.1-5.8,0-8.7c0.1-4.3,2.3-6.6,6.6-6.7c5.7-0.1,11.4-0.1,17.1,0c4.3,0.1,6.6,2.4,6.7,6.6
		c0.1,5.8,0.1,11.7,0,17.5c-0.1,4.1-2.3,6.4-6.4,6.5c-6,0.1-11.9,0.1-17.9,0c-3.8-0.1-6-2.4-6.2-6.3C61.8,51.4,61.9,48.5,61.9,45.6z
		 M68.2,54.2c6.2,0,12,0,17.8,0c0-3.4,0-6.6,0-10.9c-1.4,1.7-2,2.6-2.8,3.4c-4.2,4.2-4.3,4.2-9,0.5c-1.7-1.4-4.3-2.7-2.4-5.4
		c2-3,4.1-0.9,6.1,0.5c0.2,0.1,0.4,0.1,0.1,0c2.2-2.1,4.1-4,6.1-5.9c-5.3,0-10.5,0-15.9,0C68.2,42.4,68.2,48.2,68.2,54.2z"/>
	<path class="st0" d="M118.3,54.5c-5.2,0-10.4,0.2-15.6-0.1c-1.5-0.1-3.8-1.6-4-2.8c-0.5-2.5,1.7-3.3,4-3.3c10.4,0,20.7,0,31.1,0
		c2.3,0,4.5,0.8,4,3.3c-0.2,1.2-2.6,2.6-4,2.7C128.7,54.7,123.5,54.5,118.3,54.5L118.3,54.5z"/>
	<path class="st0" d="M124.2,128.1c-7.4,0-14.8,0.1-22.2-0.1c-0.4,0-0.8-0.2-1.2-0.6c-1.5-1.3-1.5-3.8,0.2-4.9
		c0.3-0.2,0.6-0.3,0.9-0.3c5.4-0.3,10.9-0.6,16.2,0.1c2.3,0.3,4.3,3,6.5,4.7C124.4,127.5,124.4,127.5,124.2,128.1z"/>
	<path class="st0" d="M110.6,42.3c-2.8,0-5.6,0.3-8.3-0.1c-0.3,0-0.6-0.2-0.9-0.3c-1.9-1.1-2.1-3.8-0.3-5.1c0.3-0.2,0.6-0.4,0.9-0.4
		c5.8-0.3,11.6-0.3,17.4,0c0.4,0,0.8,0.3,1.1,0.6c1.5,1.4,1.3,4-0.5,5c-0.2,0.1-0.5,0.2-0.7,0.3C116.5,42.5,113.5,42.3,110.6,42.3z"
		/>
	<path class="st0" d="M120.7,73c-1.6,4.4-3.7,6.9-8.5,6.2c-3.2-0.4-6.6-0.1-9.9-0.1c-2.2,0-4.1-0.9-3.7-3.2c0.2-1.2,2.3-2.7,3.6-2.8
		C108.3,72.8,114.4,73,120.7,73z"/>
	<path class="st0" d="M115.6,115.9c-4.6,0-9.1,0.2-13.6-0.1c-0.3,0-0.6-0.2-0.9-0.4c-1.8-1.3-1.6-4,0.3-5.1c0.3-0.2,0.6-0.3,0.9-0.4
		c2-0.5,4.3-0.1,6.4-0.1C114.3,109.7,114.3,109.7,115.6,115.9z"/>
	<path class="st0" d="M114.3,85.3c-0.6,2.3-1.1,4.1-1.6,6.1c-3.7,0-7.2,0.3-10.7-0.1c-0.4-0.1-0.8-0.3-1.2-0.6
		c-1.5-1.3-1.5-3.7,0.2-4.8c0.3-0.2,0.6-0.3,0.9-0.3C105.9,85.1,109.9,85.3,114.3,85.3z"/>
</g>
</svg>
