<?xml version="1.0" encoding="utf-8"?>
<!-- Generator: Adobe Illustrator 27.1.1, SVG Export Plug-In . SVG Version: 6.00 Build 0)  -->
<svg version="1.1" id="Layer_1" xmlns="http://www.w3.org/2000/svg" xmlns:xlink="http://www.w3.org/1999/xlink" x="0px" y="0px"
	 viewBox="0 0 200 200" style="enable-background:new 0 0 200 200;" xml:space="preserve">
<style type="text/css">
	.st0{fill:#EC3783;stroke:#EC3783;stroke-width:3;stroke-miterlimit:10;}
</style>
<g>
	<g>
		<path class="st0" d="M49.3,123.5c-0.9-3.8-2.8-7.3-5.6-10.1c-2.7-2.7-6.1-4.5-9.8-5.4h-0.1c-0.1,0-0.1,0-0.2-0.1l0,0l0,0
			c-1.3-0.3-1.8-1.6-1.6-2.7V74.8l1.6-0.3c3.8-0.8,7.4-2.7,10.2-5.5s4.7-6.2,5.6-10.1c0.3-1.7-0.8-3.4-2.6-3.8
			c-0.2,0-0.4-0.1-0.7-0.1c-1.5,0-2.8,1-3.2,2.5c-0.7,3.2-2.6,6-5.2,8c-2.4,1.8-5.4,2.8-8.5,2.8c-0.2,0-0.4,0-0.6,0
			c-1.8,0-3.2,1.5-3.2,3.3v39.1c0,1.8,1.4,3.3,3.2,3.3c0.2,0,0.4,0,0.6,0c3,0,6,1,8.4,2.8c2.6,2,4.4,4.8,5.2,8l0,0l0,0
			c0.3,1.5,1.7,2.6,3.2,2.6c0.2,0,0.4,0,0.7-0.1C48.6,127,49.7,125.3,49.3,123.5z"/>
		<path class="st0" d="M155.9,69.3c-0.6-0.6-1.4-1-2.3-1c-0.2,0-0.4,0-0.6,0c-3,0-6-1-8.4-2.8c-2.6-1.9-4.4-4.8-5.2-7.9v-0.1v-0.1
			c-0.2-0.9-0.7-1.6-1.4-2.1c-0.5-0.4-1.2-0.6-1.8-0.6c-0.2,0-0.4,0-0.7,0.1c-0.9,0.2-1.6,0.7-2.1,1.4s-0.6,1.6-0.5,2.5
			c0.9,3.8,2.8,7.3,5.6,10.1c2.5,2.5,5.7,4.3,9.1,5.2c0.1,0,0.2,0,0.4,0c1.5,0,2.2,1.1,2.2,2.2l0,0v31.2l-1.6,0.3
			c-3.8,0.8-7.4,2.7-10.2,5.5s-4.7,6.3-5.6,10.1c-0.3,1.8,0.8,3.5,2.6,3.8c0.2,0,0.4,0.1,0.7,0.1c1.5,0,2.9-1.1,3.2-2.6l0,0l0,0
			c0.7-3.2,2.6-6,5.2-7.9c2.4-1.8,5.4-2.8,8.4-2.8c0.2,0,0.4,0,0.6,0c1.8,0,3.2-1.5,3.2-3.3v-39C156.9,70.8,156.6,69.9,155.9,69.3z"
			/>
		<path class="st0" d="M37.4,166.5h142.8c4.3,0,8.4-1.7,11.5-4.8s4.8-7.2,4.8-11.5V67.4c0-1.8-1.5-3.3-3.3-3.3s-3.3,1.5-3.3,3.3
			v82.9c0,2.6-1,5-2.8,6.9c-1.8,1.8-4.3,2.8-6.9,2.8H37.4c-1.8,0-3.3,1.5-3.3,3.3C34.1,165.1,35.6,166.5,37.4,166.5z"/>
		<path class="st0" d="M8.3,38.2c-3.1,3.1-4.8,7.2-4.8,11.5v82.9c0,4.3,1.7,8.4,4.8,11.5s7.2,4.8,11.5,4.8h142.8
			c4.3,0,8.4-1.7,11.5-4.8s4.8-7.2,4.8-11.5V49.7c0-4.3-1.7-8.4-4.8-11.5c-3.1-3.1-7.2-4.8-11.5-4.8H19.8
			C15.4,33.5,11.4,35.2,8.3,38.2z M162.6,40c2.6,0,5,1,6.9,2.9c1.8,1.8,2.8,4.3,2.9,6.9v82.9c0,2.6-1,5-2.8,6.9
			c-1.8,1.8-4.3,2.8-6.9,2.8H19.8c-2.6,0-5-1-6.9-2.8c-1.8-1.8-2.8-4.3-2.9-6.9v-2l0,0V51.8l0,0v-2c0-2.6,1-5,2.9-6.9
			c1.8-1.8,4.3-2.8,6.9-2.9C19.8,40,162.6,40,162.6,40z"/>
	</g>
	<g>
		<path class="st0" d="M76.3,61.4h33.5v0.1c-2,3.5-3.1,5.3-3.4,5.6h-8.9c1.2,1.6,2.1,3.6,2.5,6h9.5c0.1,0,0.2,0.1,0.2,0.2
			c-2.1,3.6-3.2,5.4-3.3,5.5h-6.2c-0.1,1.8-0.9,4.1-2.3,6.7c-1.9,2.7-3.8,4.4-5.5,5.2c-3.2,1.8-6.3,2.6-9.3,2.6v0.1
			c0,0.2,0.7,1.3,2.2,3.3l16.5,22.7v1.1c0,0.1-0.1,0.2-0.2,0.2h-7.3c-13.1-17.3-19.7-26-19.7-26.1v-5.3l0.1-0.2
			c1.2,0.2,2.5,0.3,4.1,0.3c7.3,0,11.9-2.7,13.7-8.1c0.3-0.8,0.4-1.6,0.4-2.4H73.1c-0.1,0-0.2-0.1-0.2-0.2c2.2-3.6,3.3-5.4,3.4-5.4
			h15.8v-0.1c-0.9-2.1-2.7-3.7-5.3-4.9c-1.9-0.7-3.5-1-5-1H73v-0.2C75.2,63.2,76.3,61.4,76.3,61.4z"/>
	</g>
</g>
</svg>
