<?xml version="1.0" encoding="utf-8"?>
<!-- Generator: Adobe Illustrator 27.1.1, SVG Export Plug-In . SVG Version: 6.00 Build 0)  -->
<svg version="1.1" id="Layer_1" xmlns="http://www.w3.org/2000/svg" xmlns:xlink="http://www.w3.org/1999/xlink" x="0px" y="0px"
	 viewBox="0 0 200 200" style="enable-background:new 0 0 200 200;" xml:space="preserve">
<style type="text/css">
	.st0{fill:#95C33D;stroke:#95C33D;stroke-width:4;stroke-miterlimit:10;}
</style>
<g>
	<path class="st0" d="M178.9,142l-1.1-0.3v-1.2v-27.4c0-10.1-8.2-18.3-18.3-18.3h-52.9h-1.5v-1.5v-34v-1.2l1.1-0.3
		c11-2.9,18.7-12.7,18.7-24C124.9,20.2,113.7,9,100,9C86.3,9,75.1,20.2,75.1,33.9c0,11.3,7.7,21.2,18.7,24l1.1,0.3v1.2v34v1.5h-1.5
		H40.5c-10.1,0-18.3,8.2-18.3,18.3v27.4v1.2l-1.1,0.3c-11,2.9-18.7,12.7-18.7,24c0,13.7,11.2,24.9,24.9,24.9s24.9-11.2,24.9-24.9
		c0-11.3-7.7-21.2-18.7-24l-1.1-0.3v-1.2v-27.4c0-4.5,3.6-8.1,8.1-8.1h52.9h1.5v1.5v34v1.2l-1.1,0.3c-11,2.9-18.7,12.7-18.7,24
		c0,13.7,11.2,24.9,24.9,24.9c13.7,0,24.9-11.2,24.9-24.9c0-11.3-7.7-21.2-18.7-24l-1.1-0.3v-1.2v-34v-1.5h1.5h52.9
		c4.5,0,8.1,3.6,8.1,8.1v27.4v1.2l-1.1,0.3c-11,2.9-18.7,12.7-18.7,24c0,13.7,11.2,24.9,24.9,24.9c13.7,0,24.9-11.2,24.9-24.9
		C197.6,154.8,189.9,144.9,178.9,142z M42,166.1c0,8.1-6.6,14.7-14.7,14.7s-14.7-6.6-14.7-14.7s6.6-14.7,14.7-14.7S42,158,42,166.1z
		 M114.7,166.1c0,8.1-6.6,14.7-14.7,14.7s-14.7-6.6-14.7-14.7s6.6-14.7,14.7-14.7S114.7,158,114.7,166.1z M100,48.6
		c-8.1,0-14.7-6.6-14.7-14.7c0-8.1,6.6-14.7,14.7-14.7s14.7,6.6,14.7,14.7C114.7,42,108.1,48.6,100,48.6z M172.7,180.8
		c-8.1,0-14.7-6.6-14.7-14.7s6.6-14.7,14.7-14.7c8.1,0,14.7,6.6,14.7,14.7S180.8,180.8,172.7,180.8z"/>
</g>
</svg>
