<?xml version="1.0" encoding="utf-8"?>
<!-- Generator: Adobe Illustrator 27.1.1, SVG Export Plug-In . SVG Version: 6.00 Build 0)  -->
<svg version="1.1" id="Layer_1" xmlns="http://www.w3.org/2000/svg" xmlns:xlink="http://www.w3.org/1999/xlink" x="0px" y="0px"
	 viewBox="0 0 200 200" style="enable-background:new 0 0 200 200;" xml:space="preserve">
<style type="text/css">
	.st0{fill:#95C33D;stroke:#95C33D;stroke-width:3;stroke-miterlimit:10;}
</style>
<g>
	<path class="st0" d="M133.6,150.6c-7.4,6.7-15.4,12.2-24.9,15.5c-2.5,0.9-4.8,0.8-7.2-0.1c-9.3-3.4-17.3-8.8-24.6-15.3
		c-2.2-2.4-4.4-4.9-6.5-7.3c-7.4-10.4-12.5-21.7-14.5-34.3c-1.6-9.8-0.6-19.7-1.1-29.6c0-4.5,0-8.9,0-13.4c0.1-2.4,0.3-4.7,0.1-7.1
		c-0.3-4.2,1.7-5.8,5.7-6c15.6-0.6,30-4.8,42-15.4c1.8-1.6,3.8-1.4,5.6,0c1.6,1.3,2.9,2.9,4.9,3.7c2.3,2.1,4.8,3.8,7.9,4.5
		c8.1,4.8,17.1,6.4,26.2,7c8.2,0.6,8.2,0.4,8.2,8.7c0,9.6-0.4,19.3,0.1,28.8c1,19.5-3.8,37.1-15.3,52.9
		C137.9,145.8,135.8,148.2,133.6,150.6z M62.4,83.8c0,4.7-0.2,9.5,0,14.2c1.2,27.6,13.5,48.1,39.1,60c2.6,1.2,4.9,1.2,7.5,0
		c21.7-9.9,34.2-26.8,38-50c2.4-14.4,0.5-29,1.1-43.4c0.1-3.5-1.3-4.2-4.2-4.4c-13.3-1.2-25.7-5.2-36.6-13.2
		c-1.3-0.9-2.2-1.5-3.9-0.3c-11.2,8.3-24,12.6-37.8,13.6c-2.7,0.2-3.3,1.5-3.3,4C62.5,70.7,62.4,77.2,62.4,83.8z"/>
	<path class="st0" d="M133.6,150.6c2.2-2.4,4.3-4.8,6.5-7.2c6.8,0,13.6,0.1,20.4,0.1c13,0,23.6-7.7,27.1-19.6
		c3.5-12-1.2-24-12.3-30.9c-3.7-2.3-5.2-5.1-5.1-9.5c0.8-27.3-23-45.4-49.3-37.6c-3.1-0.7-5.6-2.4-7.9-4.5
		c26.1-14.5,61.9,4.5,64.3,34.2c0.2,2.8,1,5.5,0.4,8.4c-0.5,2.2,1.7,2.6,2.9,3.4c11.7,8.1,16.8,19.3,15.2,33.2
		c-1.5,13.2-9.1,22.5-21.3,27.8c-3.3,1.4-6.7,2.3-10.3,2.3C154,150.7,143.8,150.7,133.6,150.6z"/>
	<path class="st0" d="M25.6,63.8c3.2-1.6,6.4-3.1,9.5-4.7c2.3-1.2,4.4-1.2,5.8,1.2c1.4,2.4,0.1,4.2-2.2,5.4
		c-6.1,3.2-12.3,6.5-18.4,9.7c-2.8,1.5-4.9,0.5-6.2-2.1C11,67.3,7.9,61.4,4.9,55.5c-1.2-2.3-1.8-4.7,1.1-6c2.6-1.2,4.4,0.2,5.6,2.7
		c1.5,3.2,3.3,6.2,5.2,9.8c5-10.8,11.2-20.3,19.4-28.2c23-22.3,50.6-30.7,82.2-26.1c2.7,0.4,5.2,1.4,4.5,4.7c-0.7,3.3-3.2,3.2-6,2.7
		c-37.8-6.6-76.7,13.7-92.3,48c0,0.3-0.1,0.7-0.1,1C25,64,25.3,63.9,25.6,63.8z"/>
	<path class="st0" d="M54.7,66.1c0,4.5,0,8.9,0,13.4c-0.3,0.5-0.8,0.9-1,1.4c-1.5,5.5-4.9,7.8-10.6,9c-14,2.8-22.9,15.9-21.2,29.9
		c1.7,13.5,13.3,23.7,27.2,23.7c7.1,0,14.2,0,21.3-0.1c2.2,2.4,4.4,4.9,6.5,7.3c-9.3,0-18.6,0-27.9,0c-19-0.1-33.2-13.1-34.6-33.1
		c-1-15.5,9-31.2,27.6-35.1c2.6-0.5,3.7-1.5,4.7-3.8C48.4,74,50.9,69.6,54.7,66.1z"/>
	<path class="st0" d="M151.7,170.6c-4.8-0.5-8.1-0.9-11.4-1.2c-2.6-0.2-4.4-1.2-4.3-3.9c0.1-2.8,2-3.7,4.6-3.4
		c7.1,0.6,14.1,1.2,21.2,1.9c2.8,0.3,3.8,2.1,3.6,4.6c-0.5,6.8-1.2,13.5-1.8,20.3c-0.2,2.5-1,4.9-4.2,4.5c-3.1-0.3-3.5-2.6-3.3-5.2
		c0.3-3.7,0.7-7.3,1-11c-1.9-0.4-2.9,1-4,1.7c-8.9,5.6-18.5,9.8-28.8,12.2c-2.7,0.6-5.6,1.4-6.5-2.3c-0.9-3.6,2-4.4,4.7-5
		C132.7,181.3,142,177.2,151.7,170.6z"/>
	<path class="st0" d="M78.8,190.5c-11.5-3-21.8-7.9-31.2-14.8c-1.8-1.3-3.5-2.7-5.2-4.1c-2-1.6-2.8-3.6-1-5.7
		c1.8-2.1,3.9-1.6,5.9,0.1c6.8,5.7,14.4,10.3,22.7,13.7c3.4,1.4,7,2.4,10.5,3.6c2.1,0.7,3.2,2.2,2.7,4.4
		C82.4,189.9,80.8,190.7,78.8,190.5z"/>
	<path class="st0" d="M100.4,193.5c-2.9-0.2-5.9-0.2-8.8-0.5c-2.3-0.3-3.9-1.7-3.6-4.1c0.3-2.4,2.1-3.7,4.5-3.3
		c5.3,0.9,10.6,0.7,15.9,0.6c2.3,0,3.8,1.2,3.9,3.3c0.1,2.4-1.4,3.8-3.9,3.9c-2.7,0.1-5.3,0-8,0
		C100.4,193.4,100.4,193.4,100.4,193.5z"/>
	<path class="st0" d="M140.7,22.7c-3-1.4-7-2.9-10.7-5c-1.5-0.8-1.7-2.7-0.7-4.3c1-1.6,2.4-2.3,4.1-1.7c3.3,1.2,6.6,2.5,9.8,4.1
		c1.7,0.8,2.6,2.5,1.9,4.5C144.5,21.7,143.4,22.6,140.7,22.7z"/>
	<path class="st0" d="M25.6,63.8c-0.3,0.1-0.6,0.3-0.9,0.4c0-0.3,0.1-0.7,0.1-1C25.1,63.3,25.3,63.6,25.6,63.8z"/>
	<path class="st0" d="M127.5,90c0.1,1.5-1,2.4-1.9,3.4c-7.6,7.8-15.3,15.6-22.9,23.5c-2.9,3-5.4,3-8.2,0.1c-3.2-3.3-6.5-6.4-9.9-9.6
		c-1.8-1.8-2.6-3.8-0.7-5.8c1.9-2,4-1.4,5.8,0.4c0.2,0.2,0.4,0.4,0.6,0.6c2.9,2.2,5,7.2,8.2,6.6c3-0.5,5.4-4.7,8-7.3
		c4.8-4.8,9.6-9.6,14.3-14.5c1.3-1.3,2.6-1.8,4.4-1C126.9,87.2,127.6,88.4,127.5,90z"/>
</g>
</svg>
