<?xml version="1.0" encoding="utf-8"?>
<!-- Generator: Adobe Illustrator 27.1.1, SVG Export Plug-In . SVG Version: 6.00 Build 0)  -->
<svg version="1.1" id="Layer_1" xmlns="http://www.w3.org/2000/svg" xmlns:xlink="http://www.w3.org/1999/xlink" x="0px" y="0px"
	 viewBox="0 0 200 200" style="enable-background:new 0 0 200 200;" xml:space="preserve">
<style type="text/css">
	.st0{fill:#EC3783;stroke:#EC3783;stroke-width:3;stroke-miterlimit:10;}
</style>
<g>
	<g>
		<path class="st0" d="M13.5,133.4c-3.6-8.6-2.7-14.1,2.9-18.3c4.8-3.6,11.2-3.4,15.7,0.5c5.1,4.4,5.9,10.1,2.1,17.3
			c1.8,1.5,3.6,2.9,5.5,4.5c1.7-1.4,3.5-2.8,4.3-3.5c-0.1-4.8-0.9-9.1-0.1-13.1c0.4-2.4,2.8-4.7,5-6.3c4.4-3.3,10.9-2.6,15,1
			c5,4.4,5.7,9.9,2,17.6c7.7,4.1,9.4,11,8.8,19.1c-0.2,2.4-0.2,4.8,0,7.1c0.4,4-0.4,6.9-4.6,8.4c-0.9,0.3-1.7,2.2-1.7,3.4
			c-0.2,6.3-0.2,12.7,0,19c0.1,3.6-1.3,5-4.9,4.9c-5.3-0.2-10.6-0.1-15.9,0c-3.4,0.1-4.8-1.3-4.7-4.7c0.1-5.7,0.1-11.4,0-17
			c0-2.5,1-6-3-6c-4.3-0.1-3.2,3.6-3.3,6.2c-0.1,5.7-0.1,11.4,0,17c0.1,3.2-1.3,4.6-4.5,4.5c-5.4-0.1-10.8-0.1-16.2,0
			c-3.4,0.1-4.8-1.2-4.8-4.6c0.1-6.2-0.1-12.4,0.1-18.6c0.1-2.5-0.6-4-3-4.8c-2.6-0.9-3.6-2.7-3.5-5.5c0.2-3.4,0.2-6.9,0-10.3
			C4.3,143.7,6.3,137.3,13.5,133.4z M62,188.6c0-6.5,0.2-12.8-0.1-19.1c-0.1-3.5,0.8-5.8,4.2-7.1c1-0.4,2-2,2.1-3.2
			c0.3-3.8,0.2-7.7,0.1-11.5c-0.2-5.6-3.9-9.3-9.5-9.6c-2.1-0.1-4.2-0.1-6.3,0c-5.7,0.4-9.2,4.1-9.4,9.8c-0.1,3.4,0.1,6.9-0.1,10.3
			c-0.1,2.3,0.4,3.8,2.7,4.5c3,0.9,3.8,3.1,3.7,6.1c-0.2,6.5-0.1,13.1-0.1,19.7C53.7,188.6,57.6,188.6,62,188.6z M30.2,188.6
			c0-6.9,0.1-13.3-0.1-19.8c-0.1-3.1,0.8-4.9,3.7-6.2c1.2-0.5,2.5-2.1,2.6-3.2c0.3-3.9,0.3-7.9,0-11.9c-0.3-5.6-3.8-9-9.4-9.4
			c-2.1-0.2-4.2-0.2-6.3,0c-5.6,0.3-9.3,4.1-9.5,9.7c-0.1,3.4,0.1,6.9-0.1,10.3c-0.2,2.5,0.6,4,3,4.8c2.8,0.9,3.5,3,3.5,5.9
			c-0.2,6.6-0.1,13.1-0.1,19.9C21.9,188.6,25.8,188.6,30.2,188.6z M30.1,125.2c-0.1-3.3-3.3-6.3-6.6-6.1c-3.2,0.2-6,3.1-6,6.3
			c0,3.3,3.1,6.4,6.4,6.3C27.4,131.5,30.2,128.6,30.1,125.2z M55.7,131.7c3.4-0.1,6.3-3.1,6.2-6.5c-0.1-3.1-3.1-6.1-6.2-6.1
			c-3.4,0-6.4,2.9-6.4,6.3C49.3,128.7,52.4,131.7,55.7,131.7z"/>
		<path class="st0" d="M150.8,55.7c0,2.8-0.1,5.6,0,8.3c0.1,3-1.3,4.3-4.3,4.3c-1.9,0-4.1-0.7-4.6,2.3s-4.4,5.8,0,9
			c2.5,1.7,2.1,3.9,0,6c-4,3.9-7.9,7.8-11.8,11.8c-2.2,2.2-4.2,2.6-6.4,0.1c-1.5-1.7-2.9-3-5.3-1.4c-2.3,1.6-6.6,1-5.8,5.9
			c0.5,3.1-1.2,4.6-4.4,4.6c-5.4-0.1-10.8-0.1-16.3,0c-3.3,0.1-5-1.2-4.8-4.6c0.1-1.8,0.6-3.9-2.2-4.3c-2.9-0.4-5.5-4.6-8.7-0.3
			c-2,2.6-4.3,2.6-6.6,0.1C65.9,93.6,62,89.7,58.1,86c-2.5-2.4-2.4-4.5,0.1-6.7c1.4-1.2,3-2.4,1.4-4.6c-1.7-2.3-0.7-7.1-5.9-6.3
			c-3.4,0.5-4.7-1.3-4.7-4.7c0.1-5.4,0.1-10.8,0-16.3c-0.1-3.2,1.3-4.6,4.5-4.4c2,0.1,4,0.4,4.5-2.4c0.5-2.9,4.2-5.6,0-8.6
			c-2.6-1.9-2.3-4.1,0-6.3c3.9-3.8,7.7-7.6,11.5-11.5c2.3-2.4,4.4-2.6,6.7-0.1c1.2,1.3,2.4,3.1,4.6,1.5c2.3-1.8,7.1-0.7,6.4-5.9
			c-0.5-3.3,1.1-4.8,4.6-4.7c5.4,0.1,10.8,0.1,16.3,0c3.2-0.1,4.7,1.2,4.6,4.4c-0.1,1.9-0.6,4.1,2.4,4.6c2.9,0.4,5.6,4.4,8.6,0.1
			c1.9-2.6,4.1-2.5,6.3-0.1c3.9,4,7.8,7.9,11.8,11.8c2.3,2.2,2.3,4.2-0.1,6.4c-1.5,1.3-3.1,2.6-1.4,4.9c1.7,2.4,0.9,6.9,6.1,6.1
			c3.2-0.5,4.6,1.3,4.4,4.5C150.7,50.1,150.8,52.9,150.8,55.7z M55.8,62.3c5.9-2.1,7.5,1.4,8.5,5.7c0.3,1.3,0.8,2.6,1.5,3.7
			c2.7,4,3.6,7.7-1,10.3c3.1,3.1,5.9,6,9,9.1c2.4-4.6,5.7-4.2,9.4-1.6c1.1,0.7,2.4,1.3,3.6,1.6c4.6,1,8.5,2.6,6.9,8.6
			c4.5,0,8.5,0,13,0c-1.5-5.4,1.3-7.5,5.8-8.3c1.3-0.2,2.6-0.8,3.7-1.5c3.9-2.6,7.6-3.8,10.5,1.2c3.2-3.1,6.1-5.9,9.4-9
			c-5.1-2.6-4.4-6.1-1.8-9.9c0.7-1.1,1.3-2.4,1.6-3.6c0.9-4.7,2.6-8.1,8.5-6.5c0-4.5,0-8.5,0-13c-5.6,1.5-7.5-1.5-8.5-6.2
			c-0.5-2.1-1.5-4.2-2.7-6.1c-1.6-2.5-1.2-4.4,0.9-6.2c0.7-0.6,1.1-1.3,1.4-1.7c-3-3-5.8-5.8-8.8-8.8c-2.6,4.7-6.1,3.8-10.1,1.3
			c-2-1.2-4.4-1.8-6.6-2.5c-2.4-0.7-3.6-2-3.4-4.6c0.1-1-0.1-2-0.2-3c-4.2,0-8.1,0-12.7,0c2.2,6.5-2.2,7.6-6.7,8.7
			c-0.9,0.2-1.8,0.6-2.5,1.1c-4,2.6-7.8,4-10.5-0.5c-3.1,3-6,5.8-9,8.7c4.2,2.5,4,5.7,1.3,9.5c-0.8,1-1.3,2.4-1.6,3.6
			c-1,4.7-2.7,8.4-8.7,6.8C55.8,53.6,55.8,57.5,55.8,62.3z"/>
		<path class="st0" d="M135.1,194.9c0-2.1,0-3.9,0-6.1c4.1,0,8,0,12.2,0c0-3.2,0-6,0-9.5c-5.5,0-11.1,0-16.8,0
			c-8.2-0.1-11.5-3.4-11.5-11.5c0-12.7,0-25.4,0-38.1c0-7,3.7-10.7,10.7-10.7c18.2,0,36.5,0,54.7,0c7,0,10.7,3.7,10.7,10.7
			c0,13,0,25.9,0,38.9c0,7.1-3.6,10.7-10.7,10.7c-5.8,0-11.6,0-17.6,0c0,3.2,0,6,0,9.4c4,0,8.1,0,12.3,0c0,2.3,0,4.1,0,6.2
			C164.6,194.9,150,194.9,135.1,194.9z M157,172.9c9,0,18-0.1,26.9,0c3.5,0,5-1.3,5-4.9c-0.1-12.7-0.1-25.3,0-38
			c0-3.4-1.5-4.7-4.8-4.7c-18,0-35.9,0-53.9,0c-3.3,0-4.9,1.2-4.8,4.7c0.1,12.7,0.1,25.3,0,38c0,3.6,1.5,5,5,4.9
			C139.3,172.9,148.1,172.9,157,172.9z M154.3,179.5c0,3.3,0,6.3,0,9.1c2.1,0,3.9,0,5.7,0c0-3.2,0-6.1,0-9.1
			C158,179.5,156.3,179.5,154.3,179.5z"/>
		<path class="st0" d="M42.7,61.8c-2,0-3.8,0-5.9,0c0-1.9,0-3.8,0-6c1.9,0,3.8,0,5.9,0C42.7,57.8,42.7,59.7,42.7,61.8z"/>
		<path class="st0" d="M157.4,55.6c2.1,0,3.8,0,5.8,0c0,1.9,0,3.8,0,6c-1.8,0-3.7,0-5.8,0C157.4,59.8,157.4,57.9,157.4,55.6z"/>
		<path class="st0" d="M36.7,74.4c0-2,0-3.8,0-5.9c1.9,0,3.8,0,5.9,0c0,1.9,0,3.7,0,5.9C40.8,74.4,39,74.4,36.7,74.4z"/>
		<path class="st0" d="M157.3,74.3c0-2,0-3.8,0-5.8c2,0,3.9,0,6,0c0,1.9,0,3.7,0,5.8C161.5,74.3,159.6,74.3,157.3,74.3z"/>
		<path class="st0" d="M42.7,87.1c-2,0-3.8,0-5.9,0c0-1.9,0-3.8,0-5.9c1.8,0,3.7,0,5.9,0C42.7,83.1,42.7,84.8,42.7,87.1z"/>
		<path class="st0" d="M157.3,87.1c0-2,0-3.8,0-5.9c1.9,0,3.8,0,5.9,0c0,1.9,0,3.7,0,5.9C161.4,87.1,159.6,87.1,157.3,87.1z"/>
		<path class="st0" d="M42.6,99.8c-2,0-3.8,0-5.9,0c0-2.1,0-3.9,0-6c2,0,3.8,0,5.9,0C42.6,95.7,42.6,97.6,42.6,99.8z"/>
		<path class="st0" d="M157.3,99.7c0-2,0-3.8,0-5.8c2,0,3.9,0,6,0c0,1.9,0,3.7,0,5.8C161.5,99.7,159.6,99.7,157.3,99.7z"/>
		<path class="st0" d="M36.7,112.4c0-2,0-3.8,0-5.8c2,0,3.9,0,6,0c0,1.9,0,3.7,0,5.8C40.9,112.4,39,112.4,36.7,112.4z"/>
		<path class="st0" d="M157.4,106.5c2.1,0,3.9,0,5.9,0c0,2,0,3.8,0,5.9c-1.9,0-3.7,0-5.9,0C157.4,110.6,157.4,108.7,157.4,106.5z"/>
		<path class="st0" d="M99.9,87.3c-17.6,0-31.6-14.1-31.6-31.8c0-17.8,14.2-31.8,32.1-31.7c17.5,0.1,31.5,14.3,31.4,32
			C131.7,73.4,117.6,87.3,99.9,87.3z M125.4,55.7c0-14-11.4-25.5-25.4-25.5c-13.8,0.1-25.3,11.5-25.3,25.2c0,14,11.4,25.4,25.4,25.5
			C113.8,81,125.3,69.5,125.4,55.7z"/>
		<path class="st0" d="M160.4,163.7c-2.3-0.2-4.1-0.3-6.5-0.5c1.1-10.6,2.1-21,3.2-31.8c2.2,0.2,4.1,0.3,6.5,0.5
			C162.5,142.7,161.5,153.1,160.4,163.7z"/>
		<path class="st0" d="M149.7,154.8c-1.5,1.6-2.8,3.1-4.5,5c-3.3-3.4-6.5-6.4-9.1-9.8c-0.8-1-0.7-3.7,0.1-4.7c2.6-3.4,5.8-6.4,9-9.8
			c1.9,1.9,3.3,3.3,4.9,5c-2.6,2.2-5,4.2-7.8,6.6C145.2,150,147.5,152.4,149.7,154.8z"/>
		<path class="st0" d="M172.3,159.6c-1.8-1.8-3.1-3.1-5-5c2.8-2.1,5.4-4.1,8.6-6.5c-3.6-2.9-6.1-5-8.8-7.1c2.2-2,3.6-3.3,5.4-5
			c2.8,2.9,6.1,5.9,8.9,9.3c0.8,0.9,0.5,3.7-0.3,4.7C178.6,153.4,175.5,156.3,172.3,159.6z"/>
		<path class="st0" d="M89,67.6c0.1-0.5,0.1-1.2,0.3-1.8c1.4-3.9,0.4-7-2.9-9.7c-1.2-1-2.1-3.3-1.8-4.6c0.2-1,2.6-2.1,4.1-2.2
			c4-0.3,6.4-2.1,7.7-6c0.5-1.4,2.4-3.3,3.7-3.3c1.3,0,3.2,1.9,3.6,3.3c1.3,4.2,4,5.6,8.1,6c1.4,0.1,3.3,1.3,3.8,2.5
			c0.4,1-0.6,3.1-1.6,4c-3.4,2.9-4.6,6-3.2,10.4c0.4,1.3-0.2,3.7-1.2,4.4c-1,0.7-3.4,0.4-4.6-0.4c-3.5-2.5-6.4-2.4-10,0
			C91.7,72.6,89,71.3,89,67.6z M100,52c-1.5,1-3.3,2.2-4.7,3.2c0.7,2.1,1.4,4.2,2,6c1.9,0,3.8,0,5.5,0c0.7-1.9,1.4-4,2.1-5.9
			C103.4,54.2,101.7,53.1,100,52z"/>
	</g>
</g>
</svg>
