<?xml version="1.0" encoding="utf-8"?>
<!-- Generator: Adobe Illustrator 27.1.1, SVG Export Plug-In . SVG Version: 6.00 Build 0)  -->
<svg version="1.1" id="Layer_1" xmlns="http://www.w3.org/2000/svg" xmlns:xlink="http://www.w3.org/1999/xlink" x="0px" y="0px"
	 viewBox="0 0 200 200" style="enable-background:new 0 0 200 200;" xml:space="preserve">
<style type="text/css">
	.st0{fill:#95C33D;stroke:#95C33D;stroke-width:3;stroke-miterlimit:10;}
</style>
<g>
	<path class="st0" d="M178.8,103.5c1.8-2,1.8-5,0-7.1l-0.1-0.1c-2.4-2.7-11.1-12.3-24.3-21.7c-8.1-5.8-16.4-10.4-24.6-13.6
		c-10.1-4-20.1-6.1-29.8-6.1c-9.7,0-19.7,2-29.8,6.1c-8.2,3.3-16.5,7.9-24.6,13.6c-13.2,9.3-21.9,18.9-24.3,21.7l-0.1,0.1
		c-1.8,2-1.8,5,0,7.1l0.1,0.1c2.4,2.7,11.1,12.3,24.3,21.7c8.1,5.8,16.4,10.4,24.6,13.6c10.1,4,20.1,6.1,29.8,6.1
		c9.7,0,19.7-2,29.8-6.1c8.2-3.3,16.5-7.9,24.6-13.6C167.6,115.9,176.4,106.3,178.8,103.5L178.8,103.5z M90.9,68.3
		c7.2,0,13,5.8,13,13c0,7.2-5.8,13-13,13c-7.2,0-13-5.8-13-13C77.9,74.1,83.7,68.3,90.9,68.3z M164.8,102.2
		c-9.7,9.5-35.5,31.7-64.8,31.7c-29.3,0-55-22.1-64.8-31.7L33,100l2.2-2.2c4.6-4.6,17.2-16.3,33.6-24l6-2.8L73,77.5
		c-0.7,2.4-1.4,5.2-1.4,8.5c0,7.6,2.9,14.7,8.3,20.1c5.3,5.3,12.5,8.3,20.1,8.3c7.6,0,14.7-2.9,20.1-8.3c5.3-5.3,8.3-12.5,8.3-20.1
		c0-2.5-0.4-5.3-1.4-8.5l-1.9-6.5l6.1,3c15.3,7.4,27.5,18.2,33.5,23.9l2.2,2.2L164.8,102.2z"/>
	<path class="st0" d="M13.1,31.8l0-3h3h30.8c3,0,5.5-2.4,5.5-5.5s-2.4-5.5-5.5-5.5H7.6c-3,0-5.5,2.4-5.5,5.5v39.5
		c0,3,2.4,5.5,5.5,5.5c3,0,5.5-2.4,5.5-5.5L13.1,31.8z"/>
	<path class="st0" d="M13.3,137.4c0-3-2.4-5.5-5.5-5.5c-3,0-5.5,2.4-5.5,5.5v39.5c0,3,2.4,5.5,5.5,5.5h39.5c3,0,5.5-2.4,5.5-5.5
		c0-3.1-2.5-5.7-5.7-5.7H16.3h-3v-3V137.4z"/>
	<path class="st0" d="M186.7,62.4c0,3,2.4,5.5,5.5,5.5s5.5-2.4,5.5-5.5l0-39.1v-0.1l0-0.1c0.1-1.5-0.4-2.9-1.4-3.9
		c-1-1-2.2-1.6-3.6-1.6h-0.2h-39.5c-3,0-5.5,2.4-5.5,5.5s2.4,5.5,5.5,5.5h30.8h3v3V62.4z"/>
	<path class="st0" d="M186.9,137.2v30.8v3h-3h-31c-3,0-5.5,2.4-5.5,5.5s2.4,5.5,5.5,5.5h39.5c3,0,5.5-2.4,5.5-5.5v-39.1
		c0-3.1-2.4-5.6-5.4-5.7h-0.1C189.4,131.7,186.9,134.1,186.9,137.2z"/>
</g>
</svg>
