<?xml version="1.0" encoding="utf-8"?>
<!-- Generator: Adobe Illustrator 27.1.1, SVG Export Plug-In . SVG Version: 6.00 Build 0)  -->
<svg version="1.1" id="Layer_1" xmlns="http://www.w3.org/2000/svg" xmlns:xlink="http://www.w3.org/1999/xlink" x="0px" y="0px"
	 viewBox="0 0 200 200" style="enable-background:new 0 0 200 200;" xml:space="preserve">
<style type="text/css">
	.st0{fill-rule:evenodd;clip-rule:evenodd;fill:#95C33D;stroke:#95C33D;stroke-width:3;stroke-miterlimit:10;}
</style>
<g>
	<path class="st0" d="M120.2,56.5c-2.6-2.6-5.9-4-9.6-4H80.2c-7.5,0-13.5,6.1-13.5,13.5v67.8c0,7.5,6.1,13.5,13.5,13.5h39.5
		c7.5,0,13.5-6.1,13.5-13.5V75.2c0-3.6-1.4-7-4-9.6L120.2,56.5z M123.2,133.9L123.2,133.9L123.2,133.9c0,1.9-1.6,3.4-3.4,3.4H80.2
		c-1.9,0-3.4-1.5-3.4-3.4V66c0-1.9,1.5-3.4,3.4-3.4h30.4c0.9,0,1.8,0.4,2.4,1l0,0l9.1,9.1c0.6,0.6,1,1.5,1,2.4V133.9z"/>
	<path class="st0" d="M99.9,13.3c30.9,0,59.8,16.6,75.2,43.4c0.9,1.6,2.6,2.5,4.4,2.5c0.5,0,1-0.1,1.5-0.2c2.3-0.7,3.7-2.8,3.6-5.1
		l-1.9-31.5c-0.2-2.7-2.4-4.7-5-4.7c-0.1,0-0.2,0-0.3,0c-1.3,0.1-2.6,0.7-3.5,1.7c-0.9,1-1.3,2.3-1.3,3.6l0.5,8.2l0.3,5.4l-3.8-3.9
		c-9.1-9.4-19.9-16.8-32.1-21.9c-12-5-24.7-7.6-37.6-7.6c-16.9,0-33.6,4.5-48.3,13c-18.1,10.4-32,26-40.3,45.1
		c-4,9.2-6.5,18.9-7.6,28.9c-1,10.1-0.5,20.2,1.6,30.1c0.5,2.3,2.6,4,4.9,4c0.4,0,0.7,0,1.1-0.1c2.7-0.6,4.4-3.2,3.9-5.8l0-0.2
		c-7.9-36.9,8.8-74.4,41.5-93.3C69.8,17.3,84.8,13.3,99.9,13.3z"/>
	<path class="st0" d="M62.5,189.2c12,5,24.7,7.6,37.6,7.6c16.9,0,33.6-4.5,48.3-13c18.1-10.4,32-26,40.3-45.1
		c4-9.2,6.5-18.9,7.6-28.9c1-10.1,0.5-20.2-1.6-30.1c-0.5-2.3-2.6-4-4.9-4c-0.4,0-0.7,0-1.1,0.1c-2.7,0.6-4.4,3.2-3.9,5.8l0,0.2
		c7.9,36.9-8.8,74.4-41.5,93.3c-13.2,7.6-28.1,11.6-43.3,11.6c-30.9,0-59.8-16.6-75.2-43.4c-0.9-1.6-2.6-2.5-4.4-2.5
		c-0.5,0-1,0.1-1.5,0.2c-2.3,0.7-3.7,2.8-3.6,5.1l1.9,31.5c0.2,2.7,2.4,4.7,5,4.7c0.1,0,0.2,0,0.3,0c2.8-0.2,4.9-2.6,4.7-5.3
		l-0.5-8.2l-0.3-5.4l3.8,3.9C39.5,176.8,50.3,184.1,62.5,189.2z"/>
</g>
</svg>
