<?xml version="1.0" encoding="utf-8"?>
<!-- Generator: Adobe Illustrator 27.1.0, SVG Export Plug-In . SVG Version: 6.00 Build 0)  -->
<svg version="1.1" id="Layer_1" xmlns="http://www.w3.org/2000/svg" xmlns:xlink="http://www.w3.org/1999/xlink" x="0px" y="0px"
	 viewBox="0 0 200 200" style="enable-background:new 0 0 200 200;" xml:space="preserve">
<style type="text/css">
	.st0{fill:#96C43D;stroke:#96C43D;stroke-width:2;stroke-miterlimit:10;}
</style>
<g>
	<path class="st0" d="M17.3,139.6c-0.9-0.9-1.5-2.2-1.5-3.5c0-1.3,0.5-2.6,1.5-3.5l9.1-9.1c6-6,14.2-9.4,22.7-9.4h62.7
		c3.4,0,6.8,1,9.7,3c2.8,1.9,5,4.7,6.3,7.9l26.6-26.5c3.2-3.4,7.6-5.3,12.3-5.4c4.6-0.1,9.1,1.8,12.4,5c3.3,3.3,5.1,7.8,5.1,12.4
		c-0.1,4.6-2,9.1-5.3,12.3l-47.5,47.5c-6.8,6.9-16.1,10.7-25.8,10.7H46.5l-14.9,14.9c-2,1.9-5.1,1.9-7.1,0c-1.9-2-1.9-5.1,0-7.1
		l16.4-16.4h0c0.9-0.9,2.2-1.5,3.5-1.5h61c7,0,13.8-2.8,18.7-7.8l47.5-47.5c1.7-1.9,2.3-4.5,1.6-6.9c-0.7-2.4-2.6-4.3-5-5
		c-2.4-0.7-5-0.1-6.9,1.6l-37.6,38.2c-3.2,3.1-7.5,4.8-12,4.7H75.5c-2.8,0-5-2.2-5-5c0-2.8,2.2-5,5-5h36.3c2.6,0,4.9-1.4,6.2-3.6
		c1.3-2.2,1.3-5,0-7.2c-1.3-2.2-3.7-3.6-6.2-3.6H49.1c-5.9,0-11.5,2.3-15.6,6.5l-9.1,9.1c-0.9,0.9-2.2,1.5-3.5,1.5
		C19.5,141,18.3,140.5,17.3,139.6L17.3,139.6z M40,58.4c8.1,3.3,16.8,5,25.6,5c13.6,0,26.9-4.1,38.2-11.7
		c11.3-7.6,20.1-18.4,25.3-30.9l4.3,10h0c1.1,2.5,4,3.7,6.6,2.6c1.2-0.5,2.2-1.5,2.7-2.8c0.5-1.2,0.5-2.6-0.1-3.8l-9-20.9
		c-1.1-2.5-4-3.7-6.5-2.6L105,12.6c-2.5,1.1-3.7,4-2.6,6.6c1.1,2.5,4,3.7,6.6,2.6l10.8-4.6c-5.9,14.3-17.2,25.7-31.5,31.7
		c-14.3,6-30.3,6.1-44.7,0.4c-2.5-0.7-5.1,0.6-6,3C36.7,54.5,37.7,57.2,40,58.4L40,58.4z M47.3,78.7v21.7c0,2.8,2.2,5,5,5
		c2.8,0,5-2.2,5-5V78.7c0-2.8-2.2-5-5-5C49.5,73.7,47.3,75.9,47.3,78.7L47.3,78.7z M72.2,78.7v21.7c0,2.8,2.2,5,5,5c2.8,0,5-2.2,5-5
		V78.7c0-2.8-2.2-5-5-5C74.4,73.7,72.2,75.9,72.2,78.7L72.2,78.7z M97.1,71.3v29c0,2.8,2.2,5,5,5c2.8,0,5-2.2,5-5v-29
		c0-2.8-2.2-5-5-5C99.3,66.4,97.1,68.6,97.1,71.3L97.1,71.3z M121.8,51.9v48.5c0,2.8,2.2,5,5,5c2.8,0,5-2.2,5-5V51.9
		c0-2.8-2.2-5-5-5C124,46.9,121.8,49.1,121.8,51.9L121.8,51.9z"/>
</g>
</svg>
