<?xml version="1.0" encoding="utf-8"?>
<!-- Generator: Adobe Illustrator 27.1.0, SVG Export Plug-In . SVG Version: 6.00 Build 0)  -->
<svg version="1.1" id="Layer_1" xmlns="http://www.w3.org/2000/svg" xmlns:xlink="http://www.w3.org/1999/xlink" x="0px" y="0px"
	 viewBox="0 0 200 200" style="enable-background:new 0 0 200 200;" xml:space="preserve">
<style type="text/css">
	.st0{fill:#EC3783;stroke:#EC3783;stroke-width:2;stroke-miterlimit:10;}
</style>
<g>
	<path class="st0" d="M53.7,119.3c-0.8,0-1.5,0-2.2,0c-10.3,0-20.6,0-30.9,0c-9.4,0-16.3-6.9-16.3-16.4c0-27.4,0-54.8,0-82.2
		c0-9.5,6.9-16.4,16.4-16.4c42.3,0,84.6,0,126.9,0c9.5,0,16.4,6.9,16.4,16.4c0,17.9,0,35.8,0,53.7c0,1.7,0.4,2.7,2,3.6
		c5.5,3.2,5.4,3.3,3.6,9.3c-1.4,4.5-1.2,5.2,2.6,8c0.4,0.3,1.2,0.3,1.8,0.2c2.1-0.5,4.1-1.1,6.1-1.8c1.7-0.6,3.1-0.1,4,1.3
		c2.1,3.5,4.1,7,6.1,10.5c0.8,1.5,0.5,3-0.8,4.2c-1.6,1.5-3.3,2.9-4.8,4.5c-0.4,0.5-0.7,1.4-0.6,2c1.1,4.9,1.2,4.9,6.2,6
		c5.2,1.2,5.7,1.6,5.7,7c0,2.9-0.1,5.7-0.2,8.6c-0.1,2.1-1.2,3.2-3.3,3.7c-1.9,0.4-3.9,1-5.8,1.3c-1.2,0.2-1.4,0.9-1.8,1.7
		c-1.5,3.4-0.6,5.7,2.3,8c4.4,3.5,4.3,3.9,1.6,8.8c-1.3,2.5-2.8,4.8-4.3,7.2c-1.5,2.3-2.4,2.5-5,1.8c-1.8-0.6-3.7-1.2-5.5-1.7
		c-0.6-0.1-1.4,0.3-2.1,0.5c-0.1,0-0.1,0.1-0.1,0.1c-3.2,2.1-3.4,4.6-2.1,8.1c2,5.4,1.8,5.5-3.1,8.6c-2.3,1.4-4.7,2.7-7.1,4
		c-2.4,1.2-3.4,1-5.3-1c-0.6-0.6-1.3-1.2-1.7-1.9c-1.8-2.7-3.9-3.7-7.1-2.2c-1.3,0.6-2.3,0.9-2.5,2.5c-0.3,1.9-0.9,3.7-1.3,5.6
		c-0.4,1.7-1.4,2.8-3.1,2.8c-4,0.1-8.1,0.1-12.1,0c-1.9,0-2.9-1.1-3.2-2.9c-0.4-2.1-0.9-4.2-1.5-6.2c-0.2-0.6-0.9-1.1-1.4-1.6
		c-0.1-0.1-0.4-0.1-0.6-0.2c-3.3-1.7-5.7-0.6-7.6,2.4c-0.4,0.7-1.1,1.2-1.6,1.8c-1.8,1.9-2.9,2.2-5.1,1c-3.3-1.8-6.4-3.7-9.6-5.6
		c-1.7-1-2.3-2.5-1.6-4.4c0.3-0.8,0.4-1.7,0.8-2.5c1.8-3.4,1-6.1-2.1-8.2c-0.6-0.4-1.5-0.6-2.2-0.5c-2,0.4-4,1.1-5.9,1.7
		c-2,0.7-3.5,0.1-4.4-1.7c-0.7-1.3-1.6-1.6-3-1.6c-12.5,0.1-25,0.1-37.5,0c-8.6,0-15.9-7.2-15.8-15.5c0-2.5,1.1-3.6,3.7-3.6
		c5,0,10,0,15-0.1c0.6,0,1.6-0.6,1.8-1.2c3.3-8.8,6.5-17.7,9.7-26.5C53.6,120,53.7,119.8,53.7,119.3z M94.5,87.3
		c-0.3-1-0.5-1.7-0.7-2.3c-0.9-2.9-0.7-3.7,1.8-5.4c2.2-1.5,4.5-2.9,6.8-4.1c5-2.8,5.4-2.9,9,1.5c2.3,2.8,4.6,4,8,2.3
		c0.1,0,0.1,0,0.2-0.1c0.5-0.6,1.3-1.1,1.5-1.7c0.6-1.8,0.9-3.6,1.3-5.4c0.7-2.8,1.3-3.5,4.1-3.7c2.6-0.2,5.2-0.2,7.8-0.2
		c6,0,6.4,0.3,7.5,6.1c0.6,3.3,1.8,5.3,5.4,5.8c1.4,0.2,2.2,0,3.2-1c2.2-2.1,3.5-5.3,7.1-5.7c0-0.7,0-1.3,0-1.9
		c0-16.7,0-33.4,0-50.1c0-6.7-3.9-10.7-10.6-10.7c-41.8,0-83.7,0-125.5,0c-6.8,0-10.7,3.9-10.7,10.8c0,21.2,0,42.5,0,63.7
		c0,0.7,0,1.4,0,2.1c4.4,0,8.5,0,12.8,0c0-0.9,0-1.7,0-2.4c0-21.2,0-42.3,0-63.5c0-3.3,0.9-4.2,4.3-4.2c37.6,0,75.2,0,112.8,0
		c3.3,0,4.3,0.9,4.3,4.2c0,12.8,0,25.6,0,38.3c0,0.7,0,1.4,0,2c-2.3,0-4.3,0-6.4,0c0-12.8,0-25.4,0-38.1c-36.3,0-72.3,0-108.4,0
		c0,6.4,0,12.7,0,19.1c10.7,0,21.2,0,31.7,0c0,2.2,0,4.2,0,6.3c-10.6,0-21.2,0-31.7,0c0,12.9,0,25.6,0,38.2
		C51.5,87.3,72.9,87.3,94.5,87.3z M171.2,103.1c-0.7-0.5-1.7-0.9-2.4-1.5c-2.2-2.1-4.2-4.2-6.4-6.3c-1.1-1.1-1.6-2.3-1.1-3.9
		c0.7-1.9,1.1-3.8,1.7-5.7c0.9-2.6-1.6-2.5-2.8-3.3c-1-0.7-2.3-2.4-3.9-0.4c-1.2,1.5-2.6,2.7-3.8,4.1c-1.3,1.5-2.8,1.7-4.7,1.1
		c-2.6-0.8-5.2-1.5-7.9-2.1c-1.7-0.4-2.8-1.2-3.1-2.9c-0.2-0.9-0.5-1.8-0.7-2.7c-1.2-5.2-1.2-5.2-6.6-4.7c-0.6,0.1-1.3,0.7-1.5,1.3
		c-0.6,2-1.1,4.1-1.5,6.2c-0.4,1.6-1.4,2.4-3,2.8c-2.8,0.7-5.5,1.4-8.3,2.2c-1.7,0.5-3.1,0.3-4.3-1.1c-1.3-1.5-2.8-2.9-4.1-4.4
		c-0.7-0.9-1.5-0.8-2.2-0.2c-1.5,1.2-3.9,1.2-4.4,3.5c-0.1,0.4,0.2,0.9,0.4,1.3c0.5,1.7,0.9,3.3,1.5,4.9c0.6,1.7,0.1,2.9-1.1,4.1
		c-2.1,2-4.2,4.1-6.2,6.2c-1.1,1.1-2.3,1.7-3.9,1.1c-0.8-0.3-1.6-0.5-2.5-0.8c-5.1-1.5-5-1.5-7.5,3.2c-0.5,1-0.4,1.6,0.5,2.4
		c1.4,1.2,2.7,2.6,4.1,3.8c1.5,1.3,1.8,2.8,1.2,4.7c-0.8,2.6-1.5,5.2-2.1,7.9c-0.4,1.8-1.3,2.8-3.1,3.2c-2,0.4-4,0.9-6,1.5
		c-0.4,0.1-1.2,0.5-1.2,0.8c-0.1,1.9-0.1,3.9,0,5.8c0,0.3,0.7,0.6,1.2,0.8c2,0.5,4.1,1.1,6.2,1.5c1.6,0.4,2.5,1.3,2.8,2.9
		c0.7,2.8,1.4,5.5,2.2,8.3c0.5,1.7,0.3,3.1-1.1,4.3c-0.6,0.5-1.2,1.1-1.7,1.6c-4,3.7-4,3.7-0.8,8.2c0.3,0.4,1.3,0.7,1.9,0.6
		c2-0.5,4-1.1,5.9-1.7c1.6-0.6,2.8,0,3.9,1.1c2,2.1,4.1,4.2,6.2,6.2c1.2,1.2,1.8,2.4,1.1,4.1c-0.3,0.7-0.5,1.5-0.7,2.3
		c-1.6,5.2-1.6,5.2,3.4,7.5c0.5,0.2,1.5,0.1,2-0.3c1.4-1.3,2.7-2.7,4-4.2s2.8-1.8,4.6-1.2c2.7,0.8,5.4,1.5,8.1,2.1
		c1.6,0.4,2.6,1.2,3,2.8c0.5,2.1,1,4.3,1.5,6.4c0.5,2,2.2,1.2,3.3,1.1c1.3-0.1,3.1,1,4-1c0.2-0.4,0.3-0.9,0.4-1.3
		c0.4-1.7,0.6-3.6,1.3-5.2c0.5-1.1,1.5-2.2,2.6-2.6c2.9-1,5.9-1.7,8.8-2.4c1.5-0.4,2.8-0.2,3.8,1c0.6,0.7,1.2,1.3,1.8,1.9
		c3.7,4,3.8,4,8.2,0.9c0.5-0.3,0.8-1.3,0.7-1.8c-0.4-2-1-4-1.7-5.9c-0.6-1.6-0.1-2.8,1.1-3.9c2.1-2.1,4.2-4.2,6.3-6.3
		c1.1-1.2,2.4-1.6,4-1c1.9,0.7,4,1.1,5.9,1.8c1.6,0.6,1.9-0.7,2.3-1.5c0.7-1.6,2.8-2.7,1.6-4.8c-0.2-0.3-0.5-0.5-0.7-0.7
		c-1.3-1.2-2.6-2.5-3.9-3.7c-1.3-1.2-1.5-2.5-1-4.2c0.8-2.8,1.6-5.6,2.3-8.4c0.4-1.5,1.2-2.5,2.7-2.8c2.1-0.5,4.2-1.1,6.4-1.5
		c1.3-0.2,1.3-1.1,1.2-1.9c-0.2-1.8,0.9-3.8-0.8-5.4c-0.4-0.3-1-0.3-1.5-0.4c-1.7-0.4-3.5-0.8-5.2-1.2c-1.5-0.3-2.4-1.3-2.7-2.8
		c-0.7-2.8-1.5-5.6-2.3-8.4c-0.5-1.6-0.3-3,1-4.2c0.7-0.6,1.4-1.3,2-1.9c3.6-3.4,3.5-3.3,0.9-7.6c-0.8-1.3-1.5-1.4-2.7-1
		C175.9,101.7,173.7,102.3,171.2,103.1z M80.4,93.8c-23,0-46.3,0-69.8,0c0,2.8,0,5.5,0,8.2c0,7,3.9,10.8,10.9,10.8
		c18.1,0,36.2,0,54.3,0c0.6,0,1.3,0,2.4,0c-1.4-1.3-2.4-2.2-3.4-3.2c-1.3-1.2-1.7-2.7-0.8-4.3C76.1,101.6,78.3,97.7,80.4,93.8z
		 M79.4,120c-0.1-0.2-0.3-0.4-0.4-0.7c-5.7,0-11.4,0-17.1,0.1c-0.6,0-1.4,0.9-1.6,1.5c-3.1,8.5-6.2,16.9-9.3,25.4
		c-0.2,0.5-0.3,1.1-0.4,1.6c10,0,19.7,0,29.5,0c-0.3-1-0.6-1.9-0.7-2.8c-0.2-1.5-0.9-2.3-2.5-2.5c-1.9-0.3-3.7-0.9-5.6-1.3
		c-1.7-0.4-2.8-1.3-2.8-3.1c-0.1-4.1-0.1-8.2,0-12.3c0-1.7,1-2.6,2.7-3c2.1-0.5,4.3-0.9,6.4-1.6C78.2,121.1,78.7,120.4,79.4,120z
		 M74.7,160.8c-1.4-3.9-1.4-3.9-0.5-6.2c-14.5,0-29,0-43.6,0c1.2,3.8,4.7,6.3,9.1,6.3c11.3,0,22.6,0,33.9,0
		C73.9,160.8,74.3,160.8,74.7,160.8z M85.4,93.8c0,0.1,0,0.2,0,0.3c1.4,0.4,2.8,0.7,4.1,1.3c1.8,0.8,2.8,0,3.6-1.6
		C90.4,93.8,87.9,93.8,85.4,93.8z"/>
	<path class="st0" d="M71.3,80.9c-2.2,0-4.2,0-6.3,0c0-7,0-13.9,0-20.8c0-0.5,0.1-0.9,0.2-1.4C66.8,51,73.1,45.9,81,45.8
		c12.4,0,24.9,0,37.3,0c0.7,0,1.4,0,2.6,0c-2.6-2.5-5-4.7-7.4-7c1.8-1.9,3.3-3.3,4.7-4.8c4.3,4.3,8.7,8.5,12.9,12.8
		c1.3,1.3,1.2,3-0.1,4.3c-4.2,4.3-8.5,8.5-12.7,12.7c-1.4-1.5-2.8-3-4.2-4.6c2-1.9,4.3-4.1,6.7-6.3c-0.1-0.2-0.2-0.4-0.3-0.6
		c-0.5-0.1-0.9-0.2-1.4-0.2c-12.6,0-25.1,0-37.7,0c-6.1,0-10.2,4.1-10.2,10.1C71.2,68.5,71.3,74.6,71.3,80.9z"/>
	<path class="st0" d="M42.4,36.1c-2,0-4,0-6.1,0c0-2,0-4,0-6.1c2,0,4,0,6.1,0C42.4,32,42.4,34,42.4,36.1z"/>
	<path class="st0" d="M49,36.1c0-2.1,0-4.1,0-6.1c2,0,4,0,6.1,0c0,2,0,4,0,6.1C53.2,36.1,51.2,36.1,49,36.1z"/>
	<path class="st0" d="M68,36.2c-2.1,0-4.1,0-6.1,0c0-2.1,0-4.1,0-6.2c2,0,4,0,6.1,0C68,32,68,34,68,36.2z"/>
	<path class="st0" d="M131.8,154.4c-12.4,0-22.3-10.1-22.2-22.6c0-12.3,10.1-22.2,22.5-22.1c12.4,0,22.3,10.1,22.2,22.6
		C154.2,144.6,144.2,154.5,131.8,154.4z M132.2,116.1c-8.7-0.2-16.1,7-16.3,15.7c-0.2,8.7,7,16.1,15.8,16.2
		c8.6,0.1,15.9-7,16.1-15.6C148.1,123.7,141,116.3,132.2,116.1z"/>
	<path class="st0" d="M130.2,93.6c0,2.3,0,4.3,0,6.5c-1.7,0.2-3.4,0.5-5.4,0.8c-0.5-2-0.9-4-1.5-6.2C125.6,94.3,127.8,94,130.2,93.6
		z"/>
	<path class="st0" d="M94.9,142.4c2.3-0.6,4.2-1.1,6.2-1.7c0.7,1.8,1.3,3.5,2.1,5.4c-1.8,0.9-3.7,1.8-5.8,2.8
		C96.5,146.6,95.7,144.6,94.9,142.4z"/>
	<path class="st0" d="M139,100.8c0.5-2.2,0.9-4.1,1.4-6.3c2.3,0.7,4.3,1.4,6.6,2.1c-0.9,2.1-1.7,4-2.5,5.9
		C142.6,102,140.9,101.5,139,100.8z"/>
	<path class="st0" d="M160.7,118.1c1.9-0.9,3.7-1.8,5.8-2.8c0.8,2.1,1.6,4.1,2.5,6.5c-2.2,0.6-4.1,1.2-6.2,1.7
		C162.1,121.6,161.4,120,160.7,118.1z"/>
	<path class="st0" d="M150.2,165.9c-1.1-2-2.1-3.8-3.1-5.7c1.6-1.1,3.2-2.1,4.8-3.2c1.3,1.6,2.6,3.2,4,5
		C154,163.4,152.2,164.6,150.2,165.9z"/>
	<path class="st0" d="M160.8,106.7c-1.7,1.5-3.2,2.9-4.8,4.3c-1.4-1.3-2.7-2.6-4.2-4c1.3-1.6,2.6-3.2,4-5.1
		C157.5,103.5,159.1,105.1,160.8,106.7z"/>
	<path class="st0" d="M103.1,118.3c-1.9-0.9-3.7-1.8-5.8-2.8c1.2-2.1,2.3-4,3.5-6c1.9,1.4,3.5,2.6,5.2,3.8
		C105,115,104.1,116.5,103.1,118.3z"/>
	<path class="st0" d="M119.4,161.5c2,0.6,3.6,1.2,5.5,1.8c-0.5,2.1-0.9,4.1-1.4,6.3c-2.2-0.7-4.3-1.4-6.6-2.1
		C117.8,165.4,118.5,163.5,119.4,161.5z"/>
	<path class="st0" d="M140.6,169.5c-2.4,0.3-4.5,0.6-6.9,1c0-2.3,0-4.3,0-6.5c1.6-0.2,3.4-0.5,5.4-0.8
		C139.6,165.2,140,167.3,140.6,169.5z"/>
	<path class="st0" d="M111.9,107.1c-1.3-1.6-2.6-3.2-4-5c1.9-1.3,3.8-2.5,5.8-3.9c1.1,2,2.1,3.8,3.1,5.7
		C115.1,105,113.6,106,111.9,107.1z"/>
	<path class="st0" d="M169.8,138.9c-2.3-0.4-4.2-0.8-6.4-1.1c0.2-1.9,0.3-3.7,0.5-5.7c2,0,4,0,6.3,0
		C170.2,134.3,170,136.4,169.8,138.9z"/>
	<path class="st0" d="M166.6,148.7c-1.2,2.1-2.3,3.9-3.5,6c-1.8-1.3-3.5-2.5-5.2-3.8c1-1.6,1.9-3.2,2.9-5
		C162.6,146.8,164.4,147.7,166.6,148.7z"/>
	<path class="st0" d="M103,157.4c1.7-1.5,3.2-2.8,4.8-4.2c1.4,1.4,2.8,2.6,4.2,4c-1.3,1.6-2.6,3.2-4,5.1
		C106.4,160.6,104.8,159,103,157.4z"/>
	<path class="st0" d="M94.1,125.3c2.3,0.4,4.2,0.8,6.4,1.1c-0.2,1.9-0.3,3.6-0.5,5.5c-2,0-4,0-6.4,0
		C93.7,129.8,93.9,127.7,94.1,125.3z"/>
</g>
</svg>
