<?xml version="1.0" encoding="utf-8"?>
<!-- Generator: Adobe Illustrator 27.1.0, SVG Export Plug-In . SVG Version: 6.00 Build 0)  -->
<svg version="1.1" id="Layer_1" xmlns="http://www.w3.org/2000/svg" xmlns:xlink="http://www.w3.org/1999/xlink" x="0px" y="0px"
	 viewBox="0 0 200 200" style="enable-background:new 0 0 200 200;" xml:space="preserve">
<style type="text/css">
	.st0{fill:#EC3783;stroke:#EC3783;stroke-width:2;stroke-miterlimit:10;}
</style>
<g>
	<path class="st0" d="M70.7,136.6c16-18.1,42.6-17.9,58.6,0.1c0.8-1.1,1.5-2.3,2.4-3.3c2.7-2.8,3.4-2.8,6.6-0.5
		c1.3,1,2.3,2.5,4.5,1.6c2.2-0.9,3.1-2,3.3-4.4c0.3-4.4,0.7-4.6,5.2-4.6c2.2,0,4.5,0.1,6.7,0c2.9-0.2,4.3,0.9,4.5,3.9
		c0.1,1.6-0.3,3.6,2.1,4.6c2.1,0.9,3.6,0.8,5.4-0.7c3.6-2.9,3.9-2.8,7.2,0.5c1.6,1.6,3.1,3.2,4.8,4.7c2.1,1.8,2.2,3.5,0.4,5.7
		c-1,1.3-2.9,2.3-2,4.9c1,2.7,2.8,3,5,3.3c3.7,0.5,4,0.8,4,4.6c0,2.2,0,4.5,0,6.7c0,4.4-0.3,4.8-4.7,5.1c-2.1,0.2-3.3,0.8-4.1,2.8
		c-0.8,1.9,0,3,1,4.4c3.1,4,3.1,4.2-0.5,7.7c-1.2,1.2-2.5,2.5-3.7,3.7c-3.5,3.4-3.6,3.5-7.7,0.3c-1.5-1.2-2.8-1.3-4.7-0.7
		c-2.6,0.9-2.2,3-2.5,4.7c-0.7,3.8-0.7,4-4.6,4c-2.2,0-4.5,0-6.7,0c-4.3,0-4.9-0.3-5.1-4.7c-0.1-2.5-1.1-3.8-3.4-4.2
		c-0.9-0.2-2.1-0.1-2.8,0.3c-5.2,3.4-5.2,3.5-9.7-0.9c-0.4-0.4-0.9-0.7-1.3-1.1c-15.8,17.5-42,17.4-58.5-0.8
		c-0.8,1.2-1.6,2.5-2.5,3.6c-1.8,2.3-3.7,2.4-5.9,0.5c-1.6-1.4-3.4-3.2-5.8-1.3c-0.9,0.7-2,1.9-2.2,2.9c-0.9,5.6-0.8,5.6-6.5,5.6
		c-1.8,0-3.7,0-5.5,0c-3.9,0-3.9-0.2-4.6-3.9c-0.3-1.6,0.2-3.6-2.1-4.6c-2.3-1-3.7-0.5-5.4,0.8c-3.5,2.8-3.8,2.7-7-0.4
		c-1.7-1.6-3.2-3.4-5-4.9c-2-1.8-2-3.4-0.4-5.5c1-1.3,2.1-3.1,2-4.6c-0.1-2.4-1.6-3.7-4.5-3.8c-4.2-0.1-4.5-0.8-4.5-5
		c0-2.4,0.1-4.9,0-7.3c-0.1-2.6,0.9-3.8,3.7-4.1c1.7-0.2,3.9,0.4,4.9-2.1c0.8-2,0.8-3.4-0.6-5.2c-3.2-3.8-3-4,0.6-7.6
		c1.6-1.6,3.2-3.1,4.7-4.8c1.7-1.9,3.3-1.8,5.3-0.4c1.4,1,2.3,3.1,4.9,2.2c2.6-0.9,3.3-2.5,3.6-4.8c0.5-4.1,0.8-4.3,4.9-4.3
		c2,0,4.1,0,6.1,0c4.7,0,5,0.2,5.3,4.8c0.2,2.1,0.8,3.3,2.9,4.1c1.6,0.6,2.6,0.4,3.9-0.6c4.5-3.5,4.6-3.4,8.5,0.6
		C69.8,135,70.2,135.8,70.7,136.6z M100,128.1c-18,0-32.6,14.5-32.6,32.5c0,18,14.7,32.8,32.8,32.8c17.8,0,32.5-14.8,32.5-32.8
		C132.6,142.7,118,128.1,100,128.1z M132,140.5c7.6,13.6,7.6,26.9,0.3,40c1.1,1.3,2,2.5,2.9,3.7c5.1-3.5,5.1-3.5,11-1.4
		c0.1,0,0.2,0.1,0.3,0.1c3.1,0.3,4.3,2.2,4.3,5.1c0,2,0.6,3.1,2.9,2.9c1.9-0.2,4.2,0.8,4.4-2.6c0.1-1.5,0.5-3.7,1.6-4.4
		c2.4-1.5,5.2-2.8,8-3.1c1.7-0.1,3.6,1.9,5.4,3c0.1,0.1,0.4,0.1-0.3,0c1.9-1.6,3.4-2.9,5.1-4.3c-3.2-3-3.6-5.8-2-10.1
		c1.7-4.6,4.7-5.2,8.4-5.5c0-2.3,0-4.3,0-6.5c-4.2,0-6.7-1.3-8.5-5.6c-1.8-4.4-0.7-7,1.9-9.7c-1.6-1.7-2.9-3.2-4.4-4.9
		c-3,3.1-5.7,3.7-10,2.1c-4.6-1.8-5.3-4.6-5.6-8.5c-1-0.1-1.7-0.1-2.5-0.2c-2.9-0.4-4.6,0.3-4.5,3.7c0,1.1-0.6,2.8-1.5,3.2
		c-2.5,1.4-5.3,2.8-8,3.1c-1.6,0.2-3.4-1.9-5.2-2.9c-0.2-0.1-0.5-0.2-1-0.3C134,138.4,133.1,139.3,132,140.5z M26.9,183.9
		c0.5-0.4,1.3-0.8,1.9-1.4c2.1-2,4.2-2.6,6.7-0.6c0.4,0.3,1,0.6,1.6,0.7c3.4,0.5,5,2.4,5,5.9c0,3.5,2.7,2.1,4.4,2.4
		c2.1,0.3,2.5-0.9,2.8-2.7c0.2-1.5,0.5-3.6,1.5-4.1c2.5-1.5,5.4-2.8,8.3-3.1c1.6-0.2,3.4,1.9,5.1,3c0.2,0.1,0.4,0.1,0.6,0.2
		c0.5-0.5,1.1-1,1.7-1.6c0.5-0.5,1-1.1,1.5-1.7c-7.6-13.5-7.5-26.9,0.1-40.2c-1.1-1.2-2.1-2.2-3.2-3.5c-3.1,3-5.7,4-10.1,2.2
		c-4.6-1.8-5.5-4.6-5.7-8.5c-2.4,0-4.4,0-6.6,0c0.1,4.2-1.4,6.6-5.6,8.5c-4.4,1.9-7,0.6-9.7-1.8c-1.7,1.6-3.2,2.9-5,4.5
		c3.5,2.9,3.8,5.7,2.2,10c-1.7,4.6-4.7,5.2-8.5,5.6c-0.1,0.8-0.1,1.4-0.1,1.9c-0.1,4.3-0.1,4.2,4,5c1.2,0.3,2.9,1,3.2,2
		c1.5,4.4,5.6,9-0.8,13.1C23.7,181.1,25.2,182.4,26.9,183.9z"/>
	<path class="st0" d="M51.1,86.2c0-8.3,0-16.3,0-24.2c0-4.3,0.5-4.8,4.9-4.8c9,0,18.1,0,27.1,0c3.4,0,4,0.7,4.1,4.1
		c0,2.9,0,5.8,0,8.9c8.6,0,17,0,25.7,0c0-2.4,0-4.7,0-7c0-6.7,0-13.4,0-20.1c0-2.5,0.9-3.7,3.6-3.7c9.7,0.1,19.4,0.1,29.1,0
		c2.4,0,3.4,1,3.4,3.3c0,4.6,0,9.1,0,14c1.2,0.1,2.2,0.1,3.2,0.1c8,0,15.9,0.1,23.9,0c2.8,0,3.8,1.1,3.8,3.8c0,21.2,0,42.3,0,63.5
		c0,1.9-0.4,3.7-2.7,3.7c-2.3,0-2.6-1.9-2.6-3.8c0-19.4,0-38.8,0-58.3c0-1.2,0-2.3,0-3.7c-8.5,0-16.9,0-25.7,0c0,1.1,0,2.3,0,3.4
		c0,17.4,0,34.8,0,52.1c0,0.8,0.3,1.7-0.1,2.3c-0.7,1-1.7,2.4-2.6,2.3c-0.9,0-1.8-1.5-2.5-2.5c-0.3-0.6-0.1-1.5-0.1-2.3
		c0-23.1,0-46.2,0-69.3c0-1.1,0-2.3,0-3.6c-8.6,0-16.9,0-25.6,0c-0.1,1.1-0.1,2.2-0.1,3.4c0,22,0,44.1,0,66.1c0,0.4,0,0.8,0,1.2
		c0,2,0.4,4.6-2.5,4.7c-2.9,0.1-2.6-2.5-2.6-4.5c0-12.1,0-24.3,0-36.4c0-1.1,0-2.1,0-3.4c-8.6,0-17,0-25.7,0c0,3.3,0,6.4,0,9.5
		c0,10.4,0.1,20.8-0.1,31.2c0,1.2-1,3-2,3.6c-1.5,0.9-3-0.9-3-3.4c0-8.4,0-16.7,0-25.1c0-9.5,0-19,0-28.8c-8.5,0-16.9,0-25.7,0
		c0,1,0,2,0,3c0,17.4,0,34.8,0,52.1c0,0.9,0.2,1.9-0.1,2.6c-0.5,0.9-1.6,2-2.3,2c-0.9-0.1-2.3-1.1-2.5-2.1c-0.4-1.4-0.2-3.1-0.2-4.6
		c0-7.9,0-15.9,0-24.1c-8.6,0-16.9,0-25.7,0c0,1.1,0,2.1,0,3.2c0,9.8,0,19.6,0,29.4c0,1.9-0.3,3.8-2.6,3.8c-2.3,0-2.7-1.8-2.7-3.7
		c0-11.5,0-22.9,0-34.4c0-2.5,1.1-3.7,3.7-3.7C32.8,86.3,41.7,86.2,51.1,86.2z"/>
	<path class="st0" d="M140.2,9.1c-3.8-0.8-6.7-1.5-9.6-2.2c-1.8-0.4-3.2-1.2-2.6-3.4c0.5-1.9,2-2,3.7-1.7c5,1.2,10,2.3,15,3.4
		c2.4,0.6,3.4,1.8,2.5,4.4c-1.7,4.9-3.3,9.9-4.8,14.9c-0.5,1.7-1.5,2.9-3.4,2.3c-1.9-0.6-2-2.1-1.5-3.8c1-2.9,1.9-5.9,3-9.6
		c-1.5,0.8-2.4,1.3-3.4,1.9c-13.8,7.9-27.6,15.8-41.4,23.7c-3.8,2.2-3.9,2.2-6.9-0.9c-2.1-2.2-4-4.5-6-6.8
		c-8.4,5.2-16.1,9.9-23.7,14.6C53.8,50.8,46.4,55.4,39,60c-0.2,0.2-0.5,0.3-0.7,0.5c-1.5,1-3.2,1.5-4.3-0.3c-1.2-1.8,0-3.1,1.6-4
		c5-3.1,10.1-6.2,15.1-9.3C61,40.3,71.4,34,81.7,27.4c2.5-1.6,4.1-1.3,6.1,0.7c2.3,2.3,4.6,5.9,7.3,6.3c2.5,0.4,5.5-2.7,8.3-4.2
		C115.4,23.3,127.4,16.4,140.2,9.1z"/>
	<path class="st0" d="M96.8,170.6c7.4-7.4,14.4-14.5,21.4-21.6c0.6-0.6,1.2-1.5,2-1.7c0.9-0.2,2.3-0.2,2.8,0.4
		c0.6,0.6,0.7,1.9,0.5,2.8c-0.2,0.7-1,1.4-1.6,2c-7.4,7.4-14.8,14.8-22.2,22.2c-2.5,2.5-3.4,2.5-5.8,0.1c-4.9-4.8-9.7-9.7-14.6-14.6
		c-1.3-1.3-2.3-2.7-0.8-4.3c1.6-1.7,3.1-0.7,4.5,0.7C87.4,161.3,91.9,165.8,96.8,170.6z"/>
	<path class="st0" d="M154.1,172.5c-6.7-0.1-11.7-5.2-11.6-12c0.1-6.6,5.4-11.9,11.9-11.7c6.7,0.1,11.8,5.2,11.8,11.9
		C166.3,167.4,160.9,172.6,154.1,172.5z M161.2,160.8c0.1-3.7-3.1-6.9-6.8-7c-3.7-0.1-6.9,3.1-6.9,6.8c0,3.5,3,6.7,6.6,6.8
		C157.8,167.7,161.1,164.5,161.2,160.8z"/>
	<path class="st0" d="M57.5,160.8c0,6.7-5.1,11.7-11.9,11.7c-6.6,0-11.9-5.2-11.9-11.8c0-6.6,5.2-11.8,11.8-11.9
		C52.3,148.8,57.6,154,57.5,160.8z M45.7,153.9c-3.7,0-6.8,3.2-6.8,6.9c0,3.6,3.2,6.7,6.7,6.8c3.7,0.1,6.9-3.1,7-6.8
		C52.6,157.1,49.4,153.9,45.7,153.9z"/>
</g>
</svg>
