<?xml version="1.0" encoding="utf-8"?>
<!-- Generator: Adobe Illustrator 27.1.0, SVG Export Plug-In . SVG Version: 6.00 Build 0)  -->
<svg version="1.1" id="Layer_1" xmlns="http://www.w3.org/2000/svg" xmlns:xlink="http://www.w3.org/1999/xlink" x="0px" y="0px"
	 viewBox="0 0 200 200" style="enable-background:new 0 0 200 200;" xml:space="preserve">
<style type="text/css">
	.st0{fill:#96C43D;stroke:#96C43D;stroke-width:2;stroke-miterlimit:10;}
</style>
<g>
	<path class="st0" d="M4.2,100c0-30.5,0-61.1,0-91.6c0-3.5,0.7-4.2,4.1-4.2c33.4,0,66.7,0,100.1,0c2.1,0,3.6,0.7,5,2.2
		c15.6,17,31.3,33.9,46.9,51c0.8,0.9,1.1,2.4,1.1,3.7c0.1,21.9,0.1,43.8,0.1,65.7c0,21.5,0,42.9,0,64.4c0,3.9-0.7,4.6-4.6,4.6
		c-35.4,0-70.7,0-106.1,0c-14.1,0-28.2,0-42.3,0c-3.7,0-4.3-0.6-4.3-4.3C4.2,161,4.2,130.5,4.2,100L4.2,100z M10.3,10.2
		c0,60,0,119.8,0,179.5c48.5,0,96.9,0,145.2,0c0-42.5,0-84.7,0-127.1c-1,0-1.8,0-2.7,0c-13.7,0-27.5,0-41.2,0
		c-3.8,0-4.4-0.6-4.4-4.5c0-14.9,0-29.8,0-44.6c0-1,0-2.1,0-3.2C74.8,10.2,42.6,10.2,10.3,10.2z M151.8,56.6
		c-13-14.1-25.7-27.8-38.5-41.7c0,14.2,0,27.9,0,41.7C126,56.6,138.6,56.6,151.8,56.6z"/>
	<path class="st0" d="M195.7,115.8c0,13.3,0,26.6,0,39.9c0,1-0.1,2.1-0.4,3.1c-3.4,11.2-6.8,22.4-10.3,33.6c-0.3,1-0.9,2-1.6,2.6
		c-1.6,1.3-3.9,0.5-4.5-1.6c-3.6-11.6-7.3-23.2-10.7-34.9c-0.7-2.2-0.3-4.8-0.3-7.2c0-25.3,0-50.6,0-75.9c0-6.3,4.1-11.7,10.1-13.4
		c8.6-2.5,17.5,4,17.6,13c0.2,8.6,0,17.3,0,25.9C195.7,106,195.7,110.9,195.7,115.8z M189.7,104.5c-5.3,0-10.5,0-15.6,0
		c0,16.6,0,33,0,49.4c5.3,0,10.4,0,15.6,0C189.7,137.4,189.7,121,189.7,104.5z M189.7,85.6c0.1-0.5,0.1-0.8,0.1-1.2
		c0-3.2,0.1-6.4-0.1-9.5c-0.3-4.3-3.6-7.3-7.9-7.3c-4.1,0-7.7,3.1-7.9,7.3c-0.2,3.5,0,7.1,0,10.7C179.2,85.6,184.4,85.6,189.7,85.6z
		 M189,159.9c-4.8,0-9.3,0-14.1,0c2.3,7.6,4.5,15,6.7,22.4c0.1,0,0.3,0,0.4-0.1C184.3,174.9,186.6,167.6,189,159.9z M189.6,91.7
		c-5.2,0-10.3,0-15.5,0c0,2.3,0,4.5,0,6.8c3.4,0,6.7,0,10,0c6.4,0,6.4,0.1,5.7-6.4C189.7,92,189.7,91.9,189.6,91.7z"/>
	<path class="st0" d="M61.2,153.9c4.7,0.5,8.8,1.7,12.3,4.8c4.2,3.7,6.6,8.3,6.9,13.8c0.2,3,0.1,5.9,0.1,8.9c0,2.8-0.8,3.6-3.7,3.6
		c-12.3,0-24.5,0-36.8,0c-4.9,0-9.8,0-14.7,0c-2.8,0-3.7-0.9-3.7-3.7c0.1-3.8-0.3-7.7,0.5-11.4c1.8-9.4,8.6-15,18.1-15.6
		c0.2,0,0.4-0.1,0.6-0.1c0.2-0.2,0.4-0.5,0.7-0.7c-0.6-0.2-1.2-0.4-1.7-0.8c-4.9-4.5-7-10.1-5.6-16.7c1.5-6.7,5.8-11,12.4-13
		c1.3-0.4,1.8-1,1.8-2.3c-0.1-2.2,0-4.4,0-6.6c0-2.6,0.9-3.4,3.5-3.4c14.7,0,29.3,0,44,0c13.3,0,26.6,0,40,0c0.7,0,1.4,0,2.3,0
		c0-9.3,0-18.4,0-27.6c-8.2,0-16.5,0-25.4,0c1.7,1.6,3.1,2.8,4.3,4.1c1.5,1.5,1.6,3.2,0.3,4.5c-1.2,1.2-2.8,1.1-4.3-0.4
		c-3.1-3-6.2-6-9.3-9c-1.6-1.5-1.6-3-0.1-4.4c3.1-3,6.2-6,9.3-9c1.6-1.5,3.3-1.6,4.5-0.3c1.3,1.3,1.1,2.8-0.5,4.5
		c-1.2,1.2-2.4,2.5-4.1,4.2c1.4,0,2.2,0,2.9,0c8.1,0,16.2,0,24.2,0c3.4,0,4.3,1,4.3,4.3c0,10.4,0,20.8,0,31.2c0,2.9-0.8,3.6-3.7,3.6
		c-7.4,0-14.9,0-22.6,0c0,1.9-0.1,3.6,0.1,5.4c0.1,0.5,1.2,1,1.9,1.3c10,3.2,15.2,13.9,10.9,23.5c-1.2,2.8-3.5,5.1-5.2,7.6
		c1,0.2,2.3,0.3,3.6,0.7c8.7,2.1,14.7,9.6,15,18.6c0.1,2.7,0,5.4,0,8.1c0,3-0.8,3.8-3.8,3.8c-15.7,0-31.3,0-47,0c-1.6,0-3.3,0-4.9,0
		c-2.2-0.1-3.2-1-3.2-3.1c0-3.3-0.1-6.5,0-9.8c0.5-9.4,8.4-17.3,18.1-18.1c0.4,0,0.8-0.1,1.4-0.1c-1.4-1.5-2.8-2.7-3.8-4.2
		c-7-9.4-2.9-22.9,8.3-26.6c2.4-0.8,3.2-1.8,2.9-4.1c-0.1-0.8,0-1.7,0-2.7c-19.4,0-38.6,0-58.1,0c0,1.7-0.1,3.3,0.1,4.9
		c0.1,0.6,0.9,1.2,1.6,1.4c8.4,2.5,13.5,10,12.8,18.7C68.2,145.6,66.3,148.9,61.2,153.9z M91.1,179c15.8,0,31.4,0,47.2,0
		c0-2,0-3.7,0-5.5c-0.1-7.3-5.7-13.4-13-13.6c-7.1-0.2-14.2-0.2-21.2,0c-5,0.2-8.7,2.9-11.3,7.2C90.5,170.8,91.1,174.8,91.1,179z
		 M74.7,179.1c0-1.8,0.1-3.5,0-5.1c-0.3-8.5-6.3-14.2-14.8-14.2c-6,0-12,0.1-18,0c-9-0.2-16.5,7.4-14,19.3
		C43.4,179.1,58.9,179.1,74.7,179.1z M51.4,128.1c-6.2-0.2-11.6,5.1-11.7,11.3c-0.1,6.3,5,11.8,11.1,11.9
		c6.6,0.2,11.9-4.9,12.1-11.4C63,133.7,57.8,128.3,51.4,128.1z M126.4,139.6c0-6.3-5.4-11.7-11.7-11.6c-6.2,0.1-11.7,5.6-11.6,11.8
		c0.1,6.3,5.4,11.5,11.8,11.5C121.2,151.3,126.4,146,126.4,139.6z"/>
	<path class="st0" d="M22.3,84.3c0.5-0.8,0.8-1.8,1.4-2.5c3.3-3.2,4.5-6.3,1.8-11C24,68.3,23,66.7,20,66.5c-7.9-0.6-6.2-1.9-6.4-7.6
		c0-1.6,0-3.1,0-4.7c-0.1-2,0.9-3.2,2.9-3.6c2-0.4,4.1-0.7,6-1.3c0.8-0.2,1.6-1,1.9-1.7c1-2.1,1.9-4.3,2.7-6.5
		c0.2-0.7,0.2-1.8-0.2-2.4c-1.1-1.7-2.5-3.3-3.7-4.9c-1.2-1.5-1.1-3,0.3-4.3c2.2-2.1,4.4-4.2,6.6-6.3c1.3-1.2,2.6-1.3,4-0.3
		c1.6,1.2,3.3,2.4,4.9,3.8c0.9,0.8,1.6,1,2.8,0.4c2-1,4.1-1.9,6.3-2.6c1.3-0.4,1.7-1,1.8-2.2c0.3-2,0.6-4.1,0.9-6.1
		c0.3-1.9,1.4-3,3.5-3c2.8,0,5.5,0,8.3,0c2,0,3,1,3.4,2.8c0.4,2.2,0.6,4.4,1,6.5c0.2,0.7,0.9,1.5,1.6,1.8c2.2,1,4.4,1.9,6.7,2.7
		c0.6,0.2,1.7,0.2,2.2-0.2c1.7-1.1,3.2-2.3,4.7-3.6c1.7-1.3,3.2-1.3,4.7,0.2c2,2,4.1,4,6,6c1.5,1.6,1.5,3.2,0.2,5
		c-1.4,1.8-3.6,3.5-3.9,5.4s1.5,4.1,2,6.2c0.6,2.6,1.8,4,4.7,3.9c1.5,0,2.9,0.4,4.4,0.7c1.9,0.3,2.8,1.5,2.8,3.4c0,2.8,0,5.5,0,8.3
		c0,1.9-0.9,3.1-2.8,3.4c-2.2,0.4-4.5,0.6-6.7,1.1c-0.6,0.1-1.3,0.7-1.5,1.3c-1.1,2.3-2,4.7-2.9,7.1c-0.2,0.6-0.1,1.5,0.2,2
		c1.1,1.7,2.5,3.3,3.7,4.9c1.5,2.1,1.4,3.4-0.3,5.2c-1.7,1.8-3.5,3.5-5.3,5.3c-1.7,1.6-3.1,1.7-4.9,0.4c-1.7-1.2-3.2-2.6-4.9-3.7
		c-0.6-0.4-1.6-0.4-2.2-0.2c-2.1,0.7-4.2,1.8-6.3,2.4c-1.5,0.4-2,1.3-2.2,2.7c-0.2,2-0.5,3.9-0.8,5.9c-0.3,1.9-1.5,2.8-3.4,2.8
		c-2.8,0-5.7,0-8.5,0c-2,0-3.2-1-3.5-3c-0.2-1.5-0.7-3.1-0.7-4.6c0-2.4-1-3.7-3.4-4.2c-1.2-0.2-2.5-0.7-3.5-1.4
		c-2.1-1.5-3.8-1-5.5,0.7c-1.1,1-2.3,1.9-3.5,2.8c-1.3,1-2.7,1-3.9-0.1c-2.3-2.3-4.6-4.6-6.9-6.9C22.8,85.7,22.7,85.1,22.3,84.3z
		 M86.9,84.1c-1.4-1.9-2.7-3.6-4.1-5.4c-1.2-1.5-1.2-3-0.3-4.7c1.5-3.2,3-6.5,4.2-9.9c0.7-1.9,1.7-2.9,3.6-3.1
		c1.5-0.2,3.1-0.5,4.6-0.5c2.1,0,2.1-1.1,2.2-2.7c0.1-1.8-0.7-2.1-2.2-2.2c-1.4,0-2.8-0.3-4.2-0.5c-2-0.2-3-1.3-3.7-3.2
		c-1.2-3.4-2.7-6.8-4.3-10.1c-0.8-1.6-0.9-2.9,0.3-4.3c1.5-1.8,2.8-3.7,4.1-5.4c-1.2-1.2-2.1-2.2-3.1-3.2c-1.7,1.3-3.4,2.4-5,3.7
		c-1.8,1.5-3.4,1.3-5.4,0.2c-2.9-1.5-6-2.9-9.1-3.8c-2.2-0.7-3.2-1.8-3.4-4c-0.2-2.1-0.5-4.2-0.7-6.3c-1.6,0-2.9,0-4.3,0
		c-0.3,2.3-0.5,4.4-0.8,6.6c-0.2,2-1.3,3-3.2,3.6c-3.4,1.2-6.8,2.7-10.1,4.4c-1.5,0.8-2.8,0.8-4.1-0.2c-1.7-1.4-3.5-2.8-5-4
		c-1.3,1-2.4,1.9-3.5,2.9c1.4,1.9,2.7,3.5,3.9,5.1c1.3,1.6,1.3,3.2,0.3,5.1c-1.5,3-3,6-3.9,9.1c-0.8,3-1.5,3.5-4.7,3.9
		c-2,0.2-4,0.4-5.9,0.7c0,1.6,0,2.9,0,4.3c2.3,0.3,4.4,0.5,6.5,0.7c2,0.2,3,1.2,3.7,3.2c1.2,3.4,2.7,6.8,4.3,10.1
		c0.8,1.5,0.9,2.7-0.2,4.1c-1.5,1.8-2.8,3.6-4.3,5.5c1.1,1.1,2.2,2.1,3.2,3.1c1.9-1.4,3.6-2.8,5.4-4.1c1.5-1.1,2.9-1.1,4.5-0.3
		c3.3,1.5,6.7,3,10.1,4.3c1.6,0.6,2.6,1.4,2.8,3.1c0.3,1.8,0.6,3.6,0.7,5.5c0.1,1.1,0.2,2,1.7,1.8c1.2-0.2,3,0.7,3.2-1.7
		c0.1-1.6,0.5-3.2,0.7-4.8c0.2-1.9,1.2-2.9,3.1-3.6c3.5-1.3,6.9-2.8,10.3-4.4c1.5-0.7,2.7-0.9,4.1,0.3c1.6,1.5,3.3,2.8,5.2,4.3
		C84.9,86.1,85.8,85.1,86.9,84.1z"/>
	<path class="st0" d="M36.5,58.2c0.1-11.9,9.9-21.7,21.9-21.7s21.8,10,21.7,22.1C80,70.5,70.1,80.1,57.8,80
		C46.1,79.9,36.4,70,36.5,58.2z M58.1,74.1c9,0,16-7,16-16.1c0-8.8-7.2-15.9-16.1-15.8c-8.6,0.1-15.8,7.4-15.8,15.9
		C42.2,67,49.3,74.1,58.1,74.1z"/>
</g>
</svg>
