<?xml version="1.0" encoding="utf-8"?>
<!-- Generator: Adobe Illustrator 27.1.0, SVG Export Plug-In . SVG Version: 6.00 Build 0)  -->
<svg version="1.1" id="Layer_1" xmlns="http://www.w3.org/2000/svg" xmlns:xlink="http://www.w3.org/1999/xlink" x="0px" y="0px"
	 viewBox="0 0 200 200" style="enable-background:new 0 0 200 200;" xml:space="preserve">
<style type="text/css">
	.st0{fill:#96C43D;stroke:#96C43D;stroke-width:2;stroke-miterlimit:10;}
</style>
<g>
	<path class="st0" d="M50.5,99c0-1.8,0-3.6,0-5.4c-0.1-3.8,3.1-6.6,6.4-6.4c1.4,0.1,2.9,0,4.4,0c0.5,0,0.7-0.1,0.9-0.6
		c0.6-1.6,1.3-3.2,2-4.8c0.2-0.4,0.2-0.7-0.2-1c-1.1-1.1-2.2-2.1-3.2-3.2c-2.5-2.5-2.5-6.3,0-8.8c2.6-2.6,5.2-5.2,7.8-7.8
		c2.7-2.6,6.4-2.6,9,0.1c1.1,1.1,2.1,2.1,3.2,3.2c0.3,0.3,0.5,0.3,0.8,0.1c1.7-0.7,3.4-1.4,5-2.1c0.2-0.1,0.4-0.4,0.5-0.7
		c0-1.5,0-3.1,0-4.6c0-3.7,2.6-6.3,6.2-6.3s7.3,0,10.9,0c3.8-0.1,6.5,3.1,6.4,6.4c-0.1,1.5,0,3,0,4.5c0,0.4,0.1,0.6,0.6,0.8
		c1.6,0.6,3.2,1.3,4.8,2c0.4,0.2,0.7,0.2,1-0.2c1.1-1.1,2.1-2.2,3.2-3.2c2.6-2.5,6.3-2.5,8.8,0c2.6,2.6,5.2,5.2,7.8,7.8
		s2.6,6.3,0,8.9c-1,1.1-2.1,2.1-3.2,3.2c-0.3,0.3-0.4,0.6-0.2,1.1c0.7,1.5,1.3,3.1,1.9,4.7c0.2,0.5,0.4,0.7,0.9,0.7
		c1.6,0,3.1,0,4.7,0c3.3,0,6,2.6,6.1,5.9c0.1,3.9,0.1,7.8,0,11.7c-0.1,3.5-2.7,5.9-6.1,6c-1.6,0-3.1,0-4.7,0c-0.5,0-0.7,0.2-0.9,0.6
		c-0.6,1.6-1.3,3.2-2,4.8c-0.2,0.4-0.1,0.7,0.2,1c1.1,1,2.1,2.1,3.2,3.2c2.6,2.6,2.6,6.3,0,9c-2.5,2.5-5.1,5.1-7.6,7.6
		c-2.7,2.7-6.4,2.7-9.1,0c-1-1-2.1-2.1-3.1-3.1c-0.3-0.3-0.5-0.4-0.9-0.2c-1.6,0.7-3.3,1.4-5,2.1c-0.4,0.2-0.5,0.3-0.5,0.7
		c0,1.5-0.1,2.9,0,4.4c0.2,3.4-2.3,6.6-6.4,6.6c-3.6,0-7.2,0-10.9,0c-3.7,0-6.3-2.7-6.3-6.4c0-1.5,0-3,0-4.4c0-0.4-0.1-0.7-0.6-0.8
		c-1.6-0.6-3.2-1.3-4.8-2c-0.4-0.2-0.7-0.2-1,0.2c-1,1-2,2-3,3c-2.8,2.8-6.5,2.9-9.3,0.1c-2.5-2.5-5-5-7.5-7.5
		c-2.7-2.7-2.7-6.4,0-9.1c1-1,2.1-2.1,3.1-3.1c0.3-0.3,0.4-0.5,0.2-0.9c-0.7-1.6-1.4-3.3-2-4.9c-0.2-0.4-0.4-0.6-0.8-0.6
		c-1.7,0-3.4,0-5,0c-3-0.1-5.6-2.6-5.7-5.7C50.5,103.1,50.5,101.1,50.5,99L50.5,99z M93.8,57.5c0,0.3,0,0.6,0,0.8c0,2.7,0,5.4,0,8.1
		c0,0.8-0.2,1-0.9,1.1c-4.2,0.9-8.2,2.4-11.8,4.8c-0.4,0.2-0.7,0.4-1.3,0.7c-2.3-2.3-4.6-4.7-6.8-6.9c-2.3,2.3-4.7,4.6-7.1,7
		c2.3,2.3,4.6,4.6,7,6.8c-0.7,1.1-1.3,2.2-1.9,3.2c-1.8,3.1-2.9,6.4-3.6,9.9c-0.1,0.6-0.3,0.8-1,0.8c-2.8,0-5.5,0-8.3,0
		c-0.3,0-0.5,0-0.8,0c0,3.4,0,6.7,0,10c0.3,0,0.6,0,0.9,0c2.7,0,5.4,0,8.1,0c0.7,0,1,0.2,1.2,0.9c0.9,4.3,2.5,8.4,5,12.1
		c0.2,0.3,0.3,0.6,0.6,1c-2.3,2.3-4.7,4.6-7,6.9c2.4,2.4,4.7,4.7,7.1,7.1c2.3-2.3,4.6-4.6,6.9-7c0.2,0.1,0.3,0.1,0.4,0.2
		c4,2.6,8.3,4.4,12.9,5.4c0.5,0.1,0.6,0.3,0.6,0.8c0,2.8,0,5.6,0,8.4c0,0.3,0,0.5,0,0.8c3.4,0,6.6,0,10,0c0-0.3,0-0.5,0-0.8
		c0-2.7,0-5.5,0-8.2c0-0.7,0.2-1,0.9-1.1c3.2-0.7,6.3-1.6,9.1-3.2c1.3-0.7,2.5-1.5,4-2.3c2.3,2.3,4.6,4.7,6.8,6.9
		c2.4-2.3,4.7-4.7,7.1-7.1c-2.3-2.3-4.6-4.6-6.9-6.8c0-0.1,0-0.2,0.1-0.2c2.7-4,4.5-8.4,5.5-13.1c0.1-0.5,0.4-0.6,0.8-0.6
		c2.8,0,5.6,0,8.4,0c0.3,0,0.5,0,0.8,0c0-3.4,0-6.7,0-10c-3,0-5.9,0-8.9,0c-0.7,0-1.1-0.2-1.2-0.9c-0.6-2.9-1.5-5.8-2.9-8.5
		c-0.8-1.5-1.7-2.9-2.6-4.6c2.3-2.3,4.7-4.6,6.9-6.8c-2.4-2.4-4.7-4.7-7.1-7.1c-2.3,2.3-4.6,4.6-6.8,6.9c-0.1,0-0.2,0-0.2-0.1
		c-4-2.7-8.4-4.5-13.1-5.5c-0.5-0.1-0.6-0.3-0.6-0.8c0-2.7,0-5.5,0-8.2c0-0.3,0-0.7,0-1.1C100.4,57.5,97.2,57.5,93.8,57.5z"/>
	<path class="st0" d="M98.8,120.4c-11.9,0-21.4-9.5-21.4-21.4c0-11.8,9.5-21.4,21.3-21.4c11.9,0,21.5,9.5,21.5,21.2
		C120.2,110.9,110.7,120.4,98.8,120.4z M98.8,113.7c8.1,0,14.6-6.5,14.6-14.7c0-8.1-6.6-14.5-14.7-14.5c-8,0-14.5,6.5-14.5,14.5
		C84.2,107.2,90.7,113.7,98.8,113.7z"/>
	<path class="st0" d="M158.5,167.6c-0.9-5.2-3.9-8.7-8.9-10c-5.1-1.4-9.4,0.2-12.7,4.2c-0.4,0.5-0.7,0.5-1.2,0.3
		c-4.1-1.7-8.2-3.3-12.3-4.9c-0.4-0.2-0.6-0.4-0.6-0.7v-4.7l0,0c0-1.8,0-3.6,0-5.4c0-1.6-1.3-2.7-3-2.7s-2.9,1.1-2.9,2.7
		c0,4.2,0,8.5,0,12.7c0,1,0.4,1.7,1.2,2.2c0.5,0.3,1,0.6,1.6,0.8c4.7,1.9,9.3,3.7,14,5.6c0.5,0.2,0.8,0.4,0.7,1.1
		c-0.1,0.9,0,1.8,0.1,2.7c0.9,5.5,5.7,9.8,11.1,10.2c6.6,0.4,11.5-4,12.8-9c0.2-0.6,0.3-1.2,0.4-1.8c0-0.9,0-1.9,0-2.8
		C158.6,167.9,158.5,167.7,158.5,167.6z M152.4,171c-0.7,2.7-3.6,5.6-8.2,4.3c-0.5-0.2-0.9-0.4-1.3-0.6l0,0c-0.1,0-0.1,0-0.2-0.1
		c-0.4-0.2-0.7-0.5-0.7-0.5c-1.5-1.3-2.3-4.4-1.6-6.5c1.1-3.3,4.4-5,7.7-4.1C151.3,164.3,153.2,167.8,152.4,171z"/>
	<path class="st0" d="M41.4,168c0,0.9,0,1.9,0,2.8c0.1,0.6,0.3,1.2,0.4,1.8c1.3,5,6.2,9.4,12.8,9c5.3-0.3,10.2-4.7,11.1-10.2
		c0.1-0.9,0.2-1.8,0.1-2.7c0-0.7,0.2-0.9,0.7-1.1c4.7-1.8,9.3-3.7,14-5.6c0.5-0.2,1.1-0.5,1.6-0.8c0.8-0.5,1.2-1.3,1.2-2.2
		c0-4.2,0-8.5,0-12.7c0-1.6-1.3-2.7-2.9-2.7c-1.7,0-3,1-3,2.7c0,1.8,0,3.6,0,5.4l0,0v4.7c-0.1,0.4-0.2,0.6-0.6,0.7
		c-4.1,1.6-8.2,3.3-12.3,4.9c-0.5,0.2-0.8,0.2-1.2-0.3c-3.4-4-7.7-5.6-12.7-4.2c-5,1.4-8,4.9-8.9,10C41.5,167.7,41.4,167.9,41.4,168
		z M51.9,163.4c3.3-1,6.6,0.8,7.7,4.1c0.7,2.2-0.1,5.2-1.6,6.5c0,0-0.3,0.2-0.7,0.5c-0.1,0-0.1,0.1-0.2,0.1l0,0
		c-0.4,0.2-0.9,0.5-1.3,0.6c-4.6,1.3-7.5-1.6-8.2-4.3C46.8,167.8,48.7,164.3,51.9,163.4z"/>
	<path class="st0" d="M41.5,30.5c0.9,5.2,3.9,8.7,8.9,10c5.1,1.4,9.4-0.2,12.7-4.2c0.4-0.5,0.7-0.5,1.2-0.3
		c4.1,1.7,8.2,3.3,12.3,4.9c0.4,0.2,0.6,0.4,0.6,0.7v4.7l0,0c0,1.8,0,3.6,0,5.4c0,1.6,1.3,2.7,3,2.7s2.9-1.1,2.9-2.7
		c0-4.2,0-8.5,0-12.7c0-1-0.4-1.7-1.2-2.2c-0.5-0.3-1-0.6-1.6-0.8c-4.7-1.9-9.3-3.7-14-5.6c-0.5-0.2-0.8-0.4-0.7-1.1
		c0.1-0.9,0-1.8-0.1-2.7c-0.9-5.5-5.7-9.8-11.1-10.2c-6.6-0.4-11.5,4-12.8,9c-0.2,0.6-0.3,1.2-0.4,1.8c0,0.9,0,1.9,0,2.8
		C41.4,30.2,41.5,30.4,41.5,30.5z M47.6,27.1c0.7-2.7,3.6-5.6,8.2-4.3c0.5,0.2,0.9,0.4,1.3,0.6l0,0c0.1,0,0.1,0,0.2,0.1
		C57.7,23.8,58,24,58,24c1.5,1.3,2.3,4.4,1.6,6.5c-1.1,3.3-4.4,5-7.7,4.1C48.7,33.8,46.8,30.4,47.6,27.1z"/>
	<path class="st0" d="M158.6,30.1c0-0.9,0-1.9,0-2.8c-0.1-0.6-0.3-1.2-0.4-1.8c-1.3-5-6.2-9.4-12.8-9c-5.3,0.3-10.2,4.7-11.1,10.2
		c-0.1,0.9-0.2,1.8-0.1,2.7c0,0.7-0.2,0.9-0.7,1.1c-4.7,1.8-9.3,3.7-14,5.6c-0.5,0.2-1.1,0.5-1.6,0.8c-0.8,0.5-1.2,1.3-1.2,2.2
		c0,4.2,0,8.5,0,12.7c0,1.6,1.3,2.7,2.9,2.7c1.7,0,3-1,3-2.7c0-1.8,0-3.6,0-5.4l0,0v-4.7c0.1-0.4,0.2-0.6,0.6-0.7
		c4.1-1.6,8.2-3.3,12.3-4.9c0.5-0.2,0.8-0.2,1.2,0.3c3.4,4,7.7,5.6,12.7,4.2c5-1.4,8-4.9,8.9-10C158.5,30.4,158.6,30.2,158.6,30.1z
		 M148.1,34.7c-3.3,1-6.6-0.8-7.7-4.1c-0.7-2.2,0.1-5.2,1.6-6.5c0,0,0.3-0.2,0.7-0.5c0.1,0,0.1-0.1,0.2-0.1l0,0
		c0.4-0.2,0.9-0.5,1.3-0.6c4.6-1.3,7.5,1.6,8.2,4.3C153.2,30.4,151.3,33.8,148.1,34.7z"/>
	<path class="st0" d="M102.5,3.2c-0.8-0.2-1.6-0.4-2.4-0.6c-0.8,0-1.7,0-2.5,0c-0.4,0.1-0.8,0.2-1.2,0.3c-5,1-8.9,5-9.7,10.3
		c-0.8,4.9,1.8,10.1,6.3,12.5c0.9,0.5,1.9,0.8,2.9,1.2c0,0.4,0,0.9,0,1.4c0,5.2,0,10.4,0,15.7c0,1.5,0.8,2.5,2,2.9
		c2.2,0.6,4-0.7,4-3c0-5.4,0-10.7,0-16.1c0-0.3,0-0.6,0-0.9c0.2-0.1,0.4-0.2,0.6-0.2c5.1-1.6,8.6-6.3,8.6-11.6
		C111.1,9.5,107.7,4.8,102.5,3.2z M101.2,20.5c-2,1-3.9,0.5-4.8,0.1c-1.3-0.6-2.3-1.5-3-2.8s-0.9-2.8-0.6-4.3c0.7-3.1,3.4-5,6.6-4.8
		c2.8,0.2,5.3,2.6,5.6,5.4C105.3,17,104.1,19.1,101.2,20.5z"/>
	<path class="st0" d="M95.1,196.8c0.8,0.2,1.6,0.4,2.4,0.6c0.8,0,1.7,0,2.5,0c0.4-0.1,0.8-0.2,1.2-0.3c5-1,8.9-5,9.7-10.3
		c0.8-4.9-1.8-10.1-6.3-12.5c-0.9-0.5-1.9-0.8-2.9-1.2c0-0.4,0-0.9,0-1.4c0-5.2,0-10.4,0-15.7c0-1.5-0.8-2.5-2-2.9
		c-2.2-0.6-4,0.7-4,3c0,5.4,0,10.7,0,16.1c0,0.3,0,0.6,0,0.9c-0.2,0.1-0.4,0.2-0.6,0.2c-5.1,1.6-8.6,6.3-8.6,11.6
		C86.5,190.5,89.9,195.2,95.1,196.8z M96.4,179.5c2-1,3.9-0.5,4.8-0.1c1.3,0.6,2.3,1.5,3,2.8s0.9,2.8,0.6,4.3
		c-0.7,3.1-3.4,5-6.6,4.8c-2.8-0.2-5.3-2.6-5.6-5.4C92.3,183,93.5,180.9,96.4,179.5z"/>
</g>
</svg>
