<?xml version="1.0" encoding="utf-8"?>
<!-- Generator: Adobe Illustrator 27.1.0, SVG Export Plug-In . SVG Version: 6.00 Build 0)  -->
<svg version="1.1" id="Layer_1" xmlns="http://www.w3.org/2000/svg" xmlns:xlink="http://www.w3.org/1999/xlink" x="0px" y="0px"
	 viewBox="0 0 200 200" style="enable-background:new 0 0 200 200;" xml:space="preserve">
<style type="text/css">
	.st0{fill:#96C43D;stroke:#96C43D;stroke-width:2;stroke-miterlimit:10;}
</style>
<g>
	<path class="st0" d="M198.2,126.1c-1.8,5.2-5.7,8.9-9.5,12.5c-16.3,15.5-33.8,29.5-52.8,41.5c-6.3,4-13.3,6.1-20.9,5.8
		c-5.4-0.2-10.4-1.6-15.3-4c-11.3-5.5-23.1-9.4-35.4-12.1c-0.4-0.1-0.9-0.2-1.3-0.3c-0.2-0.1-0.3-0.2-0.5-0.2c0.2-2,0.5-3.9,0.8-6.3
		c6.9,2,13.8,3.6,20.5,5.9c6.3,2.2,12.6,4.6,18.6,7.5c10.6,5.1,20.6,4.2,30.5-1.7c11.8-7.1,22.6-15.4,33-24.2
		c7.9-6.7,15.5-13.9,23.1-21c1.2-1.1,2.1-2.6,2.7-4.1c0.9-2.1,0.4-4.3-1.2-5.8c-1.7-1.6-3.8-1.4-5.7-0.3c-3.1,1.9-6.2,3.8-9.2,5.9
		c-5.2,3.6-10.3,7.3-15.5,11.1c-0.3-2.2-0.7-4.3-0.9-6.4c0-0.4,0.4-0.9,0.8-1.2c7.2-4.9,14.3-9.8,21.5-14.7c2.4-1.6,5.1-2,7.9-1.7
		c3.9,0.5,6.5,2.8,8,6.3c0.3,0.7,0.6,1.4,0.9,2C198.2,122.6,198.2,124.4,198.2,126.1z"/>
	<path class="st0" d="M29.3,170.7c0-17.5,0-34.7,0-52.2c-0.8,0-1.4,0-2.1,0c-7.2,0-14.3,0-21.5,0c-2.6,0-4-1.1-3.9-3.1
		c0-2,1.3-3,3.8-3c13.1,0,26.2,0,39.3,0c6.7,0,12.1,5.4,12.1,12.1c0,13.4,0,26.9,0,40.3c0,6.6-5.4,12-11.9,12
		c-13.2,0.1-26.5,0-39.7,0c-2.3,0-3.6-1.2-3.6-3.1c0-1.9,1.3-3,3.6-3c7.2,0,14.3,0,21.5,0C27.6,170.7,28.4,170.7,29.3,170.7z
		 M35.7,118.5c0,17.5,0,34.8,0,52.2c3.2,0,6.3,0.1,9.3,0c3.4-0.2,5.9-2.7,5.9-6.1c0.1-13.3,0.1-26.6,0-39.9c0-3.3-2.5-5.9-5.7-6.1
		C42,118.4,38.9,118.5,35.7,118.5z"/>
	<path class="st0" d="M105.4,73.3c-4,0.8-7.8,1.5-11.6,2.2c-2.1,0.4-4.1,0.8-6.2,1.1c-1.4,0.2-2.2,1-2.4,2.3c-1,6.9-2,13.9-3.1,21
		c23.2,0,46.2,0,69.5,0c-0.5-3.5-1-6.9-1.4-10.4c-0.5-3.2-1-6.4-1.4-9.7c-0.2-2-1-3.1-3.1-3.4c-5.2-0.8-10.4-1.9-15.6-2.9
		c-0.5-0.1-1-0.2-1.5-0.4c2.2-1.6,4.3-3.1,6.5-4.5c0.4-0.2,1-0.2,1.4-0.2c3.7,0.6,7.4,1.3,11.1,2c4.1,0.8,6.7,3.5,7.3,7.6
		c1.2,8,2.3,15.9,3.5,23.9c0.4,2.8-0.9,4.2-3.8,4.2c-25.1,0-50.1,0-75.2,0c-3,0-4.2-1.4-3.8-4.3c1.1-7.9,2.3-15.8,3.5-23.7
		c0.6-4,3.2-6.8,7.1-7.6c3.7-0.7,7.4-1.4,11.1-2c0.6-0.1,1.3-0.1,1.8,0.2C101,70.1,103,71.6,105.4,73.3z"/>
	<path class="st0" d="M63.2,123.5c-0.5-2-0.9-3.9-1.4-6.2c4.6-1.1,9.2-2.3,13.9-3.4c12.4-3,24.3-1.7,35.7,4.1
		c5,2.5,10.4,2.9,15.8,3.2c5.5,0.3,11.1,0.6,16.5,1.7c5.4,1,8.9,4.6,9.8,10.3c0.8,5.1-1,9.4-5.4,12.3c-2.3,1.5-5,2.6-7.7,3.2
		c-11.9,2.7-24,3.8-36.1,3.5c-1.1,0-2.3-0.2-3.4-0.3c-1.9-0.3-3-1.6-2.9-3.4c0.2-1.7,1.4-2.7,3.3-2.7c5,0,10,0.4,14.9-0.1
		c8.1-0.8,16.2-2.1,24.2-3.5c1.7-0.3,3.5-1.3,4.9-2.5c3.6-3.1,2.6-8.7-1.8-10.3c-2.7-1-5.7-1.4-8.6-1.7c-4.6-0.4-9.3-0.5-14-0.7
		s-9-1.8-13.1-3.8c-6.9-3.2-14.1-5.5-21.7-4.5c-7.1,0.9-14,2.8-21,4.2C64.7,123.1,64,123.3,63.2,123.5z"/>
	<path class="st0" d="M116.9,26.4c12,0,21.5,9.7,21.4,21.8c-0.1,11.7-9.7,21.2-21.5,21.1c-12,0-21.5-9.6-21.4-21.8
		C95.4,35.9,105.1,26.3,116.9,26.4z M116.8,63.2c8.4,0.1,15.4-6.9,15.4-15.3c0-8.3-6.8-15.3-15.1-15.4c-8.4-0.1-15.4,6.8-15.5,15.2
		C101.4,56.1,108.4,63.1,116.8,63.2z"/>
	<path class="st0" d="M179.9,79c-0.2,1.6-0.2,3.2-0.5,4.8c-0.3,1.7-1.4,2.5-3.1,2.6c-1.6,0-3-1.2-3-2.8c0-2.4,0.1-4.9,0.4-7.3
		c0.2-1.6,1.4-2.4,2.9-2.5s2.9,1.1,3.1,2.6c0.1,0.9,0,1.8,0,2.7C179.8,79,179.9,79,179.9,79z"/>
	<path class="st0" d="M98.5,23.3c-1.7-0.2-2.8-0.9-3.2-2.4c-0.4-1.5,0.2-2.8,1.5-3.3c2.4-0.9,4.8-1.6,7.3-2.1
		c1.4-0.3,2.6,0.6,3.1,2.1s0.1,3-1.4,3.6C103.4,22,100.8,22.6,98.5,23.3z"/>
	<path class="st0" d="M58.4,86.5c1.3,0,2.4,0.7,2.8,2.2c0.6,2.1,1.2,4.1,1.7,6.3c0.4,1.6-0.4,2.9-1.9,3.5s-3.3,0-3.8-1.5
		c-0.8-2.3-1.5-4.7-1.9-7.2C54.9,88.1,56.5,86.6,58.4,86.5z"/>
	<path class="st0" d="M140.2,25.3c-1.9-0.8-4.6-1.7-7-3c-1.3-0.7-1.4-2.3-0.7-3.6c0.6-1.4,1.9-2.1,3.3-1.6c2.3,0.7,4.6,1.6,6.8,2.5
		c1.5,0.7,1.9,2.1,1.5,3.6C143.6,24.5,142.5,25.3,140.2,25.3z"/>
	<path class="st0" d="M159.8,32.1c0,2.6-2.5,4.2-4.3,3c-2.1-1.4-4.1-3-6-4.7c-1.1-1-1.1-2.4-0.2-3.7c0.9-1.2,2.2-1.9,3.5-1.1
		c2.3,1.5,4.4,3.4,6.5,5.2C159.8,31.2,159.8,31.9,159.8,32.1z"/>
	<path class="st0" d="M89.9,25.8c-0.3,0.4-0.7,1.4-1.5,2c-1.7,1.3-3.5,2.4-5.2,3.5c-1.5,0.9-3.3,0.5-4.2-0.9
		c-0.9-1.3-0.7-3.1,0.7-4.1c1.8-1.3,3.8-2.6,5.8-3.7C87.5,21.4,89.9,23,89.9,25.8z"/>
	<path class="st0" d="M75.4,36.4c0,2.3-5,8.5-6.6,8.5c-1,0-2.3-0.5-2.8-1.2c-0.5-0.9-0.7-2.5-0.2-3.3c1.2-2,2.8-4,4.5-5.6
		c0.7-0.6,2.3-0.8,3.3-0.4C74.5,34.7,75,36,75.4,36.4z"/>
	<path class="st0" d="M65.2,53.5c-0.8,2-1.7,4.6-3,7.1c-0.7,1.3-2.2,1.4-3.6,0.8c-1.3-0.6-2.1-1.8-1.7-3.3c0.7-2.4,1.6-4.7,2.6-6.9
		c0.6-1.4,2-1.7,3.4-1.4C64.3,50.1,65.2,51.4,65.2,53.5z"/>
	<path class="st0" d="M172.2,47.1c-0.9,1-1.6,2.3-2.6,2.5c-1,0.3-2.7-0.1-3.3-0.9c-1.5-1.7-2.8-3.7-3.7-5.7
		c-0.4-0.9-0.2-2.7,0.5-3.4s2.6-1.2,3.3-0.7C169.2,40.8,170.3,43.9,172.2,47.1z"/>
	<path class="st0" d="M178.5,63.8c-0.1,2-0.9,3.2-2.4,3.6c-1.6,0.4-3-0.3-3.5-1.8c-0.8-2.2-1.4-4.5-1.9-6.8
		c-0.3-1.6,0.6-2.8,2.2-3.3c1.5-0.5,2.9,0.1,3.5,1.5C177.3,59.3,177.9,61.8,178.5,63.8z"/>
	<path class="st0" d="M119.1,14c1.5,0.1,2.9,0.2,4.4,0.4c1.7,0.3,2.5,1.4,2.6,3c0.1,1.5-1.2,3-2.8,3c-2.4,0-4.8-0.1-7.2-0.4
		c-1.5-0.2-2.4-1.5-2.3-3.1s1-2.7,2.8-2.9C117.3,14,118.2,14.1,119.1,14C119.1,14.1,119.1,14.1,119.1,14z"/>
	<path class="st0" d="M53.9,75c0.2-1.5,0.2-3.1,0.5-4.6c0.3-1.7,1.6-2.7,3.2-2.5c1.7,0.2,2.8,1.2,2.8,2.9c0,2.4-0.1,4.7-0.4,7.1
		c-0.2,1.6-1.5,2.5-3.2,2.3C55,80,54.1,79,54,77.3C53.9,76.5,54,75.7,53.9,75L53.9,75z"/>
	<path class="st0" d="M176.9,96.3c-0.8,1.9-1.7,4.5-3,6.9c-0.7,1.4-2.3,1.5-3.7,0.9c-1.3-0.7-2-1.9-1.6-3.3c0.7-2.3,1.6-4.6,2.6-6.8
		c0.6-1.3,1.9-1.9,3.4-1.5C176.1,93,176.9,94,176.9,96.3z"/>
	<path class="st0" d="M168.5,111.7c-0.6,2.8-2.2,4.3-3.8,5.9c-0.6,0.6-1.5,1-2.2,1.6c-1.1,0.9-2.1,1.2-3.2,0.2
		c-1.1-1-1.6-2.4-0.7-3.6c1.4-2.1,3-4.1,4.8-5.9c0.6-0.6,2.3-0.7,3.2-0.3C167.5,109.9,168,111.1,168.5,111.7z"/>
	<path class="st0" d="M69.9,108.9c-2,0.5-3.6,1.1-5.4,1.4c-0.4,0.1-1.1-0.3-1.4-0.6c-1.6-2-1.4-4.1,0.2-5.2c1.7-1.2,3.4-0.6,4.9,1.7
		C68.7,107,69.2,107.8,69.9,108.9z"/>
</g>
</svg>
