<?xml version="1.0" encoding="utf-8"?>
<!-- Generator: Adobe Illustrator 27.1.0, SVG Export Plug-In . SVG Version: 6.00 Build 0)  -->
<svg version="1.1" id="Layer_1" xmlns="http://www.w3.org/2000/svg" xmlns:xlink="http://www.w3.org/1999/xlink" x="0px" y="0px"
	 viewBox="0 0 200 200" style="enable-background:new 0 0 200 200;" xml:space="preserve">
<style type="text/css">
	.st0{fill:#96C43D;stroke:#96C43D;stroke-width:2;stroke-miterlimit:10;}
</style>
<g>
	<path class="st0" d="M36.7,35.3c0-4.5,0-8.7,0-12.9c0-3.1,1.2-4.3,4.4-4.3c3.8,0,7.5,0,11.5,0c0-3.9,0-7.5,0-11.2
		c0-3.6,1.1-4.7,4.7-4.7c9.6,0,19.2,0,28.8,0c4.4,0,5.2,0.9,5.2,5.3c0,3.4,0,6.7,0.1,10.1c0,0.1,0.1,0.2,0.3,0.5c3.6,0,7.3,0,11,0
		c3.4,0,4.6,1.1,4.6,4.5c0,4.1,0,8.3,0,12.7c0.8,0,1.5,0,2.1,0c8,0,16.1,0,24.1,0c3.4,0,4.6,1.2,4.6,4.5c0,8.4,0,16.8,0,25.2
		c0,0.8,0,1.5,0,2.8c2.6-3,5.1-5.5,7.2-8.3c1.8-2.3,3.8-3.1,6.6-1.9c4.3,1.9,8.7,3.7,13,5.5c1.9,0.8,2.7,2.4,2.5,4.5
		c-0.3,3.4-0.4,6.8-0.7,10.2c-0.1,1.1,0.3,1.9,1,2.8c2.5,3.5,5.7,4.4,9.8,3.6c2.1-0.4,4.3-0.3,6.5-0.5c1.7-0.1,3.1,0.5,3.8,2.1
		c2.1,4.9,4.2,9.8,6.1,14.7c0.7,1.8,0.1,3.2-1.4,4.5c-2.7,2.3-5.4,4.6-7.9,7c-0.6,0.6-0.9,1.6-1.1,2.4c-0.9,4.3,0.9,7.4,4.5,9.7
		c1.7,1.1,3.2,2.7,4.8,4.1c1.3,1.1,1.7,2.4,1.3,4c-1.4,5.4-3.5,10.4-6.3,15.2c-0.8,1.4-2,1.9-3.6,1.8c-3.5-0.2-7.1-0.4-10.6-0.7
		c-1.2-0.1-2.2,0.1-3,1.1c-0.5,0.7-1.1,1.4-1.9,1.9c-1.9,1.2-2.1,2.9-1.8,5c0.3,3.2,0.4,6.3,0.6,9.5c0.1,1.5-0.5,2.7-1.8,3.5
		c-4.7,2.9-9.7,5.2-15.2,6.4c-1.9,0.4-3.2,0-4.4-1.5c-2.4-3-5-6-7.8-9.4c-0.1,1.1-0.1,1.7-0.1,2.3c0,8.6,0,17.3,0,25.9
		c0,3.4-1.2,4.5-4.5,4.5c-40.9,0-81.9,0-122.8,0c-3.6,0-4.7-1.1-4.7-4.7c0-51,0-102,0-153.1c0-3.6,1.1-4.7,4.8-4.7
		c8,0,15.9,0,23.9,0C35.2,35.3,35.9,35.3,36.7,35.3z M13,42.4c0,49.6,0,99,0,148.3c39.4,0,78.6,0,117.9,0c0-8.5,0-16.8,0-25.6
		c-0.9,0.5-1.7,0.7-2.1,1.2c-2.3,2.6-4.4,5.4-6.6,8c-1.5,1.8-2.7,2.3-4.7,1.4c-4.6-1.9-9.1-4-13.6-6c-1.6-0.7-2.3-2-2.1-3.8
		c0.1-1.8,0.2-3.7,0.3-5.7c-24.8,0-49.5,0-74.3,0c0-2.4,0-4.6,0-7c24.7,0,49.3,0,73.9,0c0.1-0.1,0.1-0.3,0.2-0.4
		c-1.1-1.1-2.3-2-3.3-3.2c-0.8-0.9-1.6-1.1-2.7-1c-3,0.3-6.1,0.2-9.1,0.7c-3.3,0.5-5.2-0.8-6.4-3.8c-1.7-4-3.5-8-5.3-12.2
		c-15.6,0-31.4,0-47.2,0c0-2.3,0-4.5,0-6.8c0.9,0,1.6,0,2.3,0c13.4,0,26.7,0,40.1,0c2.7,0,5.8,0.6,8.2-0.3c2.5-1,4.3-3.5,6.5-5.3
		l0.1-0.1c0.2-0.5,0.6-1,0.7-1.5c0.2-6.1,0.2-6.1-4.4-10.1c-0.6-0.5-1.2-1.2-1.9-1.6c-0.7-0.4-1.5-0.8-2.2-0.8
		c-15.7,0-31.4,0-47.1,0c-0.7,0-1.4,0-2.2,0c0-2.4,0-4.6,0-6.8c0.7,0,1.3-0.1,1.8-0.1c14.7,0,29.4,0,44,0c1.2,0,1.8-0.3,2.3-1.6
		c1.6-4.1,3.4-8,5.2-12c0.8-1.8,2.2-2.6,4.2-2.4c3.6,0.3,7.2,0.5,10.8,0.7c0.6,0,1.4,0,1.8-0.4c1.3-1.2,2.6-2.6,4.1-4.2
		c-24.9,0-49.5,0-74.2,0c0-2.4,0-4.6,0-6.9c24.8,0,49.5,0,74.3,0c-0.1-1.9-0.1-3.7-0.3-5.4c-0.2-2,0.5-3.6,2.4-4.4
		c4.7-2,9.5-4,14.2-5.9c1.8-0.7,3.4-0.1,4.6,1.4c2.2,2.6,4.5,5.1,6.8,7.7c0.3,0.4,0.7,0.7,1.1,1.1c0-8.5,0-16.7,0-24.9
		c-8,0-15.8,0-23.7,0c0,3.6,0,7.1,0,10.6c0,3.3-1.2,4.5-4.4,4.5c-20.4,0-40.9,0-61.3,0c-3.6,0-4.7-1.1-4.7-4.8c0-3.4,0-6.8,0-10.3
		C28.7,42.4,20.9,42.4,13,42.4z M109.2,157.9C109.1,157.9,109.1,157.9,109.2,157.9c-0.1,1.8-0.2,3.6-0.4,5.4c-0.1,1,0.2,1.5,1.1,1.9
		c2.3,1,4.5,2,6.7,3c0.9,0.4,1.5,0.3,2.1-0.6c2.1-2.7,4.2-5.4,6.5-7.9c0.8-0.8,2.1-1.5,3.2-1.5c3.6-0.2,7.2,0,10.7,0
		c1.6,0,2.7,0.5,3.7,1.7c2.1,2.6,4.3,5.2,6.4,7.8c0.7,0.9,1.4,1.1,2.4,0.7c2.5-1.1,4.9-2.2,7.4-3.2c1-0.4,1.1-1,1-2
		c-0.3-3.5-0.4-6.9-0.7-10.4c-0.1-1.6,0.4-2.8,1.6-3.9c2-1.8,3.9-3.6,5.6-5.6c1.1-1.3,2.4-1.9,4.1-1.7c3.4,0.3,6.8,0.4,10.2,0.7
		c1.1,0.1,1.7-0.2,2.1-1.2c1-2.4,2-4.9,3.1-7.3c0.5-1.1,0.3-1.8-0.7-2.6c-2.6-2.1-5-4.4-7.6-6.6c-1.3-1.1-1.8-2.4-1.7-4.1
		c0.1-2.6,0.2-5.1,0-7.7c-0.1-1.8,0.3-3.2,1.8-4.4c2.6-2.2,5.2-4.5,7.7-6.8c0.4-0.4,0.7-1.4,0.5-1.9c-1-2.6-2-5.2-3.2-7.8
		c-0.2-0.5-1.2-1-1.8-1c-3.5,0.1-7.1,0.3-10.6,0.6c-1.5,0.1-2.6-0.4-3.6-1.5c-1.9-2.1-3.9-4.1-6-6c-1.2-1.1-1.7-2.2-1.5-3.8
		c0.3-3.5,0.4-6.9,0.7-10.4c0.1-1-0.2-1.6-1.1-1.9c-2.6-1-5.1-2.1-7.6-3.2c-1-0.4-1.5-0.1-2.1,0.6c-2.2,2.6-4.5,5.1-6.7,7.7
		c-1.2,1.4-2.5,1.8-4.3,1.7c-2.5-0.1-5-0.2-7.5,0c-1.8,0.1-3.2-0.3-4.4-1.8c-2.2-2.6-4.4-5-6.6-7.6c-0.7-0.8-1.2-1.1-2.3-0.7
		c-2.5,1.1-5,2.1-7.5,3.1c-1,0.4-1.3,1-1.2,2.1c0.3,3.5,0.4,6.9,0.7,10.4c0.1,1.6-0.4,2.7-1.6,3.8c-2,1.9-4,3.8-5.8,5.8
		c-1.1,1.2-2.2,1.7-3.8,1.6c-3.4-0.3-6.8-0.3-10.2-0.7c-1.3-0.1-1.9,0.3-2.3,1.4c-1,2.4-2,4.9-3,7.3c-0.4,0.9-0.3,1.5,0.5,2.1
		c2.6,2.2,5.1,4.5,7.7,6.7c1.4,1.2,1.9,2.6,1.8,4.4c-0.2,2.5-0.2,5,0,7.5c0.1,1.8-0.3,3.1-1.7,4.3c-2.5,2.2-5,4.5-7.6,6.6
		c-1,0.8-1.1,1.5-0.7,2.6c1.1,2.4,2.1,4.8,3.1,7.3c0.4,1,1,1.2,2.1,1.1c3.5-0.3,6.9-0.4,10.4-0.7c1.5-0.1,2.6,0.4,3.7,1.5
		c1.9,2.1,4.1,3.9,5.9,6c0.8,0.9,1.4,2.2,1.5,3.4C109.6,154.3,109.3,156.1,109.2,157.9z M100.1,25c-0.7,0-1.4,0-2,0
		c-3.2,0-6.4,0-9.5,0c-2.9,0-4.2-1.2-4.2-4.1c0-1.1,0-2.3,0-3.4c0-2.7,0-5.5,0-8.3c-8.4,0-16.5,0-24.8,0c0,0.7,0,1.2,0,1.8
		c0,3.4,0,6.8,0,10.2c0,2.4-1.3,3.6-3.7,3.7c-2.2,0.1-4.3,0-6.5,0c-1.8,0-3.7,0-5.5,0c-0.1,0.4-0.2,0.6-0.2,0.8c0,7.8,0,15.7,0,23.5
		c0,1.3,0.8,1.2,1.6,1.2c17.7,0,35.5,0,53.2,0c1.4,0,1.8-0.4,1.8-1.8c-0.1-7.3,0-14.6,0-21.9C100.2,26.3,100.2,25.8,100.1,25z"/>
	<path class="st0" d="M161.7,116.7c0,14.9-12.3,27.1-27.2,27.1s-27.2-12.2-27.2-27.1c0-15.2,12.2-27.4,27.3-27.4
		C149.6,89.4,161.7,101.6,161.7,116.7z M131,96.8c-7.5,0.7-17.3,8.6-16.7,20.9c0.5,9.3,9,18.9,16.7,18.5C131,123.1,131,110,131,96.8
		z M138.1,136.3c9.9-1,17.6-11.2,16.6-21.8c-1-10.7-10.2-17.5-16.6-17.6C138.1,110,138.1,123.1,138.1,136.3z"/>
</g>
</svg>
