<?xml version="1.0" encoding="utf-8"?>
<!-- Generator: Adobe Illustrator 27.1.0, SVG Export Plug-In . SVG Version: 6.00 Build 0)  -->
<svg version="1.1" id="Layer_1" xmlns="http://www.w3.org/2000/svg" xmlns:xlink="http://www.w3.org/1999/xlink" x="0px" y="0px"
	 viewBox="0 0 200 200" style="enable-background:new 0 0 200 200;" xml:space="preserve">
<style type="text/css">
	.st0{fill:#EC3783;stroke:#EC3783;stroke-width:2;stroke-miterlimit:10;}
</style>
<g>
	<path class="st0" d="M103.6,124.6c0,1.8,0,3.3,0,4.9c1.9,0.1,3.6,0.2,5.7,0.3c0,2.6,0,5,0,7.5c0,7.6,0,15.2,0,22.8
		c0,5.8-3.8,9.7-9.3,9.6c-5.3,0-9.1-3.9-9.1-9.5c0-9.8,0-19.5,0-29.3c0-0.3,0.1-0.6,0.3-1.2c1.7,0,3.4,0,5.4,0
		c0.1-1.7,0.2-3.2,0.2-5.1c-17.6-2.1-30.9-10.6-39-26.4c-5.1-10-6.2-20.6-3.7-31.4c4.9-21.3,24.7-38,49.7-36.5
		c21,1.3,40.2,18.9,43,40.4c1.7,13.5-1.5,25.7-10.1,36.3C128.2,117.6,117,123.2,103.6,124.6z M132,101.7c10.6-11.7,13.1-36-2.8-52.4
		C113.3,33,87.4,32.9,71.4,48.9C55.3,65,57.2,89.4,68.1,101.7c1.6-6.5,6.3-9.7,12-11.9c2.6-1,5.2-1.9,7.8-2.9c1.1-0.4,2-1,3.3-1.7
		c-5-6.4-6-13.6-6.6-20.9c-0.7-9.1,6.4-16.6,15.5-16.5c10,0.1,16.4,6.9,15.6,16.5c-0.6,7.4-1.5,14.7-6.7,21c4.8,2,9.2,3.7,13.6,5.6
		C127.4,93,130.6,96.5,132,101.7z M99.9,118c8.6-0.1,16.4-2.5,23.4-7.4c0.9-0.6,1.9-1.7,2-2.7c0.8-5.8-0.7-8.5-6-11.1
		c-2-1-4.1-1.9-6.3-2.5c-0.8-0.2-2.2,0.2-2.7,0.9c-6.2,7.9-14.6,7.8-20.8-0.1c-0.4-0.6-1.6-1.2-2.1-1c-3.3,1.3-6.7,2.6-9.7,4.5
		c-4.5,2.9-4.3,9.8,0.2,12.8C84.6,115.7,92,117.9,99.9,118z M100.3,54.5c-5.1-0.1-9.5,3.3-9.1,8c0.4,5,1.5,9.9,2.8,14.7
		c0.7,2.8,2.9,4.8,6.1,4.8c3.3,0,5.2-2.1,6-4.9c1.2-4.1,2.1-8.3,2.7-12.6C109.8,58.5,106.4,54.6,100.3,54.5z M102.6,136.6
		c-1.8,0-3.3,0-5,0c0,8.1-0.1,16,0.1,23.9c0,0.9,1.5,1.7,2.4,2.5c0.8-0.8,2.4-1.6,2.4-2.5C102.6,152.7,102.6,144.8,102.6,136.6z
		 M99.7,88.6c-0.5,0-1.5-0.5-2-0.1c-1,0.6-2.2,1.7-2.2,2.7c-0.1,1.7,3.1,3.6,5.3,2.9c1.6-0.6,4-2.2,4-3.3c0.1-2.5-2.4-2.4-4.4-2.1
		C100.2,88.6,100.1,88.6,99.7,88.6z"/>
	<path class="st0" d="M8.7,151c-2.2,0-4.1,0-6,0c-2.2-9.1,0.9-16,9.1-19.9c3.4-1.6,7-2.8,10.6-4.1c2.1-0.8,3-1.3,1.4-3.8
		c-4.4-6.8-5.6-14.6-4.9-22.4c0.7-7.8,7.9-12.9,16.4-12.5c8.4,0.4,14.7,5.9,14.7,13.9c-0.1,7.6-0.9,15.2-5.5,21.7
		c-1.2,1.7-0.4,2.3,1.1,2.9c3.3,1.2,6.6,2.3,9.8,3.7c9.6,4.2,12.5,10,10.7,20.6c-2,0-3.9,0-5.4,0c-1-3.9-0.8-8.6-3.1-11
		c-2.8-3.1-7.6-4.4-11.4-6.5c-7.1,11.1-18.2,9.1-23.3,0.1c-3.7,1.8-7.6,3.3-11.1,5.5C7.4,141.8,9.4,146.7,8.7,151z M25.4,106.4
		c0.5,2.2,1.4,6.6,2.7,10.9c0.9,2.7,2.7,4.9,6,4.9c3.5,0.1,5.4-2.2,6.3-5c1.3-4.2,2.2-8.5,2.8-12.9c0.7-5.7-2.7-9.4-8.2-9.5
		C28.8,94.6,25.2,98.1,25.4,106.4z M34.2,128.9c-1.9-0.3-4.1-0.8-4.7,2.1c-0.3,1.5,2.6,3.5,4.7,3.5c2.1,0,5-2,4.8-3.5
		C38.6,128,36.3,128.8,34.2,128.9z"/>
	<path class="st0" d="M154.4,133.4c-3.9,1.9-7.8,3.4-11.3,5.6c-4.2,2.8-2,7.8-2.9,11.9c-2,0-3.9,0-5.8,0c-1.9-9.2,0.2-15.3,7.2-18.9
		c3.7-1.9,7.7-3.3,11.6-4.9c1.2-0.5,2.3-1.1,3.7-1.7c-5.3-6.3-6.1-13.6-6.8-20.9c-0.6-6.4,2.1-11.6,7.8-14.5
		c5.7-3,11.8-2.8,17.3,0.8c5.8,3.8,6.9,9.7,5.9,16c-1,6.5-1.6,13.1-6.6,18.5c1.6,0.7,2.6,1.3,3.7,1.7c3.3,1.3,6.7,2.5,10,3.9
		c6.7,3,10.1,8.1,9.7,15.6c-0.1,1.3,0,2.6,0,4.2c-2.2,0-4.2,0-5.7,0c-1-3.8-1-8.4-3.3-11c-2.7-3.1-7.4-4.4-11.5-6.6
		c-2.8,4.9-6.3,7.9-11.5,7.9C160.8,141.2,157.1,138.5,154.4,133.4z M175.3,104c-0.3-5.8-3.2-9-8.9-9.2c-5.5-0.2-9.9,3.1-9.5,8.1
		c0.4,4.9,1.7,9.9,3,14.7c0.7,2.6,2.8,4.6,5.9,4.6c3.1,0,5.1-1.9,5.9-4.5C173.2,113.2,174.1,108.6,175.3,104z M165.4,128.9
		c-0.2,0-0.7-0.2-1.2,0c-1,0.4-2.6,0.7-2.8,1.4c-0.3,0.8,0.4,2.4,1.1,2.9c1.1,0.8,2.8,1.5,3.9,1.1c1.6-0.6,3.9-2.1,4-3.3
		c0.2-2.3-2.1-2.4-4.1-2.1C166.2,128.9,166,128.9,165.4,128.9z"/>
</g>
</svg>
