<?xml version="1.0" encoding="utf-8"?>
<!-- Generator: Adobe Illustrator 27.1.1, SVG Export Plug-In . SVG Version: 6.00 Build 0)  -->
<svg version="1.1" id="Layer_1" xmlns="http://www.w3.org/2000/svg" xmlns:xlink="http://www.w3.org/1999/xlink" x="0px" y="0px"
	 viewBox="0 0 200 200" style="enable-background:new 0 0 200 200;" xml:space="preserve">
<style type="text/css">
	.st0{fill:#EC3783;stroke:#EC3783;stroke-width:3;stroke-miterlimit:10;}
</style>
<g>
	<path class="st0" d="M11.4,9.8v119.3h177.3c0-2.1,0-4,0-5.9c0-17.3-0.1-34.5,0.1-51.8c0-0.2,0-0.4,0.1-0.6c0.7-3.2,5.5-3.3,6.1-0.1
		c0,0.2,0,0.3,0,0.5c0.2,19.8,0.1,39.5,0.2,59.3c0,4.3-1.8,5.5-5.9,5.4c-18.7-0.2-37.4-0.1-56.1-0.1c-2.5,0-4.9,0-7.6,0v13.8
		c9.1,0,18.1,0.3,27-0.1c6.6-0.3,6.3,2.7,6.3,11.2c0.3,31.4,0,6.4,0,26.6c0,7.4-0.2,9.5-5.6,9.5c-35.8-0.1-71.5-0.1-107.3,0
		c-5.1,0-5.6-2.2-5.4-8.6c0.4-13.2,0-10.2,0-30.4c0-6.2,0.4-8.3,5.2-8.2c9.1,0.2,18.3,0.1,28,0.1v-13.4c-2.1-0.1-4.6-0.4-7-0.4
		c-18.3,0-36.7,0-55,0c-6.8,0-7.1-0.3-7.1-6.8c0-39.5,0-79.1,0-118.6c0-7.2,0.1-7.3,7.1-7.3c58.6,0,117.2,0,175.8,0
		c7.3,0,7.5,0.1,7.5,7.6c0,11.3,0.2,22.6-0.1,34c0,0.2,0,0.3-0.1,0.5c-0.6,3.2-5.4,3.2-6.1,0c0-0.2-0.1-0.4-0.1-0.6
		c-0.3-11.5-0.1-22.9-0.1-34.7H11.4V9.8z M47.1,190.1c35.5,0,70.4,0,105.4,0c0-11.4,0-22.5,0-34c-9.3,0-18.3-0.3-27.2,0.1
		c-5.2,0.2-6.7-1.8-6.4-6.6c0.3-4.4,0.1-8.8,0.1-13.3c-13.1,0-25.4,0-37.7,0c-0.3,0.9-0.5,1.4-0.5,1.9c-0.1,3.4-0.1,6.8-0.1,10.2
		c0,7.6,0,7.6-7.8,7.6c-8.5,0-17.1,0-25.8,0C47.1,167.8,47.1,178.7,47.1,190.1z"/>
	<path class="st0" d="M94.7,92.8C105.8,74.5,116.4,57,127,39.5c1.1-1.8,2.2-3.7,3.4-5.5c1.4-2.1,2.6-5.7,5.8-3.3
		c1,0.8,0.5,5-0.6,6.8c-12,20.2-24.3,40.3-36.5,60.3c-3.2,5.3-4.7,5.3-8.5,0.4c-6-7.8-12.1-15.6-17.9-23.6c-0.1-0.1-0.2-0.3-0.3-0.5
		c-1.4-2.9,2.4-5.8,4.8-3.7c0.1,0.1,0.2,0.2,0.3,0.4C83.3,77.8,88.6,85,94.7,92.8z"/>
	<path class="st0" d="M99.9,187.1c-10.5,0-19.1-8.7-19.2-19.2c0-10.4,8.9-19.3,19.3-19.2c10.5,0.1,19.1,8.8,19.1,19.3
		C119.1,178.5,110.4,187.2,99.9,187.1z M112.7,167.8c-0.1-6.7-6.2-12.7-12.9-12.6c-6.7,0-12.7,6-12.8,12.7
		c-0.1,6.8,6.4,13.2,13.1,12.9C106.9,180.6,112.9,174.4,112.7,167.8z"/>
</g>
</svg>
