<?xml version="1.0" encoding="utf-8"?>
<!-- Generator: Adobe Illustrator 27.1.1, SVG Export Plug-In . SVG Version: 6.00 Build 0)  -->
<svg version="1.1" id="Layer_1" xmlns="http://www.w3.org/2000/svg" xmlns:xlink="http://www.w3.org/1999/xlink" x="0px" y="0px"
	 viewBox="0 0 200 200" style="enable-background:new 0 0 200 200;" xml:space="preserve">
<style type="text/css">
	.st0{fill:#95C33D;stroke:#95C33D;stroke-width:3;stroke-miterlimit:10;}
</style>
<g>
	<polygon class="st0" points="130.2,196.7 130.2,196.7 130.2,196.7 	"/>
	<path class="st0" d="M196.8,195.2c0-21.3,0-42.7,0-64c0-0.9-0.2-1.1-1.1-1.1c-6.3,0-12.7,0-19,0c-0.9,0-1.1-0.3-1.1-1.1
		c0-6.7,0-13.3,0-20c-11.5,0-23,0-34.5,0c-0.3,0-0.6,0-0.9,0c0-0.4,0.2-0.5,0.5-0.6c-0.1-0.6,0.6-0.5,0.9-0.8c1-1.2,2.1-2.2,3.1-3.3
		c1.5-1.8,3.1-3.5,4.4-5.4c1-1.4,2-2.9,2.9-4.4c0-0.2,0.1-0.4,0.3-0.5c0.1-0.1,0.1-0.2,0.2-0.3c0-0.4,0.2-0.7,0.5-0.9
		c0-0.6,0.4-1.1,0.7-1.6c1.8-3.4,3.2-6.9,4.3-10.6c1-3.3,1.6-6.6,2-9.9c0-0.5,0-1,0.2-1.4c0-0.1,0-0.3,0-0.4c-0.1-0.6,0-1.2,0.1-1.8
		c0.1-1.2,0.1-2.3,0.1-3.5h0c0.2-3-0.3-6.7-1-10.2c-0.1-0.5-0.2-1-0.2-1.5c0,0-0.1-0.1-0.1-0.1c-0.4-1.7-0.8-3.3-1.2-4.7
		c0.1-0.3-0.2-0.5-0.1-0.8c-0.4-1.3-0.8-2.7-1.3-4c0,0,0,0,0,0l0,0c-0.2-0.5-0.4-1.1-0.6-1.6c-1.1-2.7-2.3-5.2-3.8-7.7
		c-2.3-3.8-4.9-7.3-7.9-10.6c-2.7-2.9-5.7-5.6-9-8c-3.7-2.7-7.7-4.9-11.9-6.7c-2.7-1.2-5.5-2.1-8.4-2.8c-4-1-8-1.6-12.1-1.8
		c-3.9-0.2-7.8,0-11.7,0.6C87.7,4.3,84.3,5.1,81,6.2c-3.2,1.1-6.4,2.4-9.4,4c-4.1,2.2-7.9,4.8-11.4,7.9c-3.3,2.9-6.2,6-8.8,9.5
		c-2.7,3.6-4.9,7.4-6.7,11.5c-0.8,1.7-1.3,3.5-2.1,5.1c-0.3,1.2-0.7,2.3-1,3.5c0,0,0.1,0,0.1,0l-0.6,2.3c0,0-0.1,0-0.1,0
		c0,0.4-0.1,0.9-0.3,1.2c0.1,0.3-0.2,0.5-0.2,0.8c-0.1,2-0.5,3.9-0.7,5.8c-0.4,4.6-0.3,9.2,0.3,13.7c0.3,2.4,0.8,4.7,1.4,7.1
		c0.8,3,1.8,5.9,3,8.8c0.6,1.5,1.3,2.9,2.1,4.3l0,0c0,0,0,0,0,0c0.3,0.5,0.6,1.1,0.9,1.6c0.1,0,0.2,0.1,0.1,0.2c0,0,0,0.1,0,0.1
		c0.1,0.1,0.1,0.1,0.2,0.2c0,0,0.1,0,0.1,0c0.1,0.2,0.3,0.5,0.4,0.7c0,0-0.1,0-0.1,0c0.3,0.9,1.1,1.4,1.3,2.3
		c0.1,0.1,0.2,0.1,0.3,0.2c0.7,1,1.4,2,2.2,3c0.1,0.1,0.2,0.3,0.3,0.4c0,0,0,0,0.1,0.1c2.1,2.6,4.3,5.1,6.7,7.3
		c0.2,0.2,0.8,0.3,0.5,0.7c-0.1,0.3-0.6,0.1-0.9,0.1c-9.1,0-18.2,0-27.3,0c-1,0-1.1,0.3-1.1,1.2c0,6.3,0,12.6,0,18.9
		c0,0.8-0.1,1.1-1,1.1c-3.3-0.1-6.6,0-9.8,0c-2.1,0-4.1,0-6.2-0.1c-2.4,0.1-4.9,0.1-7.3,0c-0.9,0.1-1.8,0.1-2.7,0
		c-0.1,0.1-0.2,0.1-0.2,0.2c0,0.4,0,0.7,0,1.1c0,21.7,0,43.4,0,65.1c0.3,0.3,0.7,0.2,1.1,0.2c14.9,0,29.7,0,44.6,0l1.4,0
		c0.1,0,0.1,0,0.2,0.1c0.1,0,0.2,0,0.2,0c0,0,0,0,0,0l2.2,0c0.4,0.1,0.8,0.1,1.2,0l3.6,0.1l0.2-0.1c0.6,0,1.3,0,1.9,0
		c0.8,0.1,1-0.2,1-1c0-21.5,0-43.1,0-64.6c0-0.8-0.2-1-1-1c-7.4,0-14.9,0-22.3,0c-0.6,0-0.9-0.1-0.9-0.8c0-4.5,0-9,0-13.5
		c0-0.6,0.2-0.8,0.8-0.8c10.1,0,20.1,0,30.2,0c0.4,0,0.7,0.1,1,0.3c4.9,2.9,10.1,5.2,15.6,6.7c4.2,1.1,8.4,1.8,12.6,2.1
		c0.1,0,0.2,0,0.1,0.1c0,1.7,0,3.3,0.1,5c0,0.8-0.2,0.9-1,0.9c-8.4,0-16.8,0-25.2,0c-0.8,0-1.1,0.2-1.1,1.1c0,13.8,0,27.6,0,41.3
		l0,0v0c0,0.9,0,1.7,0,2.6c0,0.4,0,0.7-0.1,1.1c0.1,0.4,0,0.8,0.1,1.2v1.8c-0.1,0.4,0,0.9,0,1.3v1.9c-0.1,0.4,0.1,0.8-0.1,1.1
		c0,0.1,0.1,0.2,0.1,0.3v0.6c0,0,0,0,0,0.1c0,0.4,0,0.8,0,1.2v4.9c0,0,0,0,0,0c0,2,0,3.9,0,5.9c0.3,0.2,0.6,0.2,0.8,0.2
		c19.7,0,39.5,0,59.2,0c0.1,0,0.2,0,0.4,0c0-4.5,0-9,0-13.4c0-0.4,0-0.7,0-1.1c0-0.8,0-1.5,0-2.3c-0.1-0.3-0.1-0.6,0-1
		c0-0.4,0-0.9,0-1.3c-0.2-0.3-0.1-0.6-0.1-1c0-15.1,0-30.1,0-45.2c0-0.3-0.1-0.7,0.1-1c-0.1-0.4-0.4-0.3-0.7-0.3
		c-0.6,0-1.2,0-1.8-0.1c-0.1,0-0.1,0-0.2,0.1l-16.3,0c-2.5,0-4.9,0-7.4,0c-0.3,0-0.8,0.2-0.8-0.5c0-1.8-0.1-3.6,0.1-5.3
		c-0.1-0.1-0.1-0.2,0.1-0.2c2.4-0.2,4.8-0.5,7.3-0.9c3.3-0.6,6.6-1.4,9.8-2.5c3.9-1.4,7.6-3.2,11.1-5.3c0.4-0.2,0.8-0.3,1.3-0.3
		c12,0,24,0,36,0c0.8,0,0.9,0.3,0.9,1c0,4.3,0,8.7,0,13c0,0.9-0.3,1.1-1.1,1.1c-9.4,0-18.8,0-28.1,0c-0.3,0-0.8-0.2-1,0.3
		c0.3,0.3,0.1,0.7,0.1,1c0,11.3,0,22.5,0,33.8c0,0.1,0,0.2,0,0.3v4.5c0,0,0,0,0,0c0,0.1,0,0.2,0,0.3v14.1c0,3.7,0,7.4,0,11.1
		c0,0.8,0.2,1.1,1.1,1.1c18.3,0,36.6,0,54.9,0c0.4,0,0.8,0,1.2,0.1c0.1-0.1,0.2-0.2,0.3-0.3C196.8,196.1,196.8,195.7,196.8,195.2z
		 M53.7,136.3l0.9,54.3l-3.8,0c-13.5,0-27,0-40.5,0c-0.8,0-1-0.2-1-1c0.1-1.9,0-3.9,0-5.8c0-0.7,0-1.4,0-2.1v-4.5c0-0.2,0-0.4,0-0.7
		c0-0.3,0-0.6,0-0.9c0-12.8,0-25.6,0-38.3c0-0.8,0.1-1,1-1C24.7,136.3,39.2,136.3,53.7,136.3z M123.2,136.3c0.8,0,1,0.2,1,1
		c0,8.8,0,17.5,0,26.3c0,8.7,0,17.5,0,26.2c0,0.7-0.1,0.9-0.9,0.9c-15.5,0-31,0-46.5,0c-0.8,0-0.9-0.2-0.9-1c0-17.5,0-34.9,0-52.4
		c0-0.9,0.3-1,1-1C92.3,136.3,107.7,136.3,123.2,136.3z M137.9,102.6c-3.6,3.5-7.7,6.5-12.1,8.9c-4,2.2-8.2,3.8-12.7,4.9
		c-4.6,1.1-9.3,1.7-14,1.6c-2.9-0.1-5.9-0.4-8.8-0.9c-4-0.7-7.8-1.8-11.4-3.4c-4.1-1.7-7.9-3.9-11.4-6.6c-3.8-2.8-7.1-6.1-10.1-9.8
		c-2.7-3.5-5-7.1-6.8-11.1c-1.2-2.7-2.3-5.4-3-8.2c-1.6-5.8-2.2-11.7-1.8-17.7c0.2-3,0.6-5.9,1.2-8.8c0.5-2.5,1.3-5,2.3-7.4
		c1.5-3.9,3.4-7.5,5.7-10.9c2.8-4.2,6.1-7.8,10-11.1c2.7-2.3,5.6-4.3,8.7-6c3.6-2,7.4-3.6,11.4-4.8c2.1-0.6,4.3-1.1,6.4-1.5
		c5.1-0.8,10.2-0.9,15.3-0.3c3.5,0.5,7,1.2,10.4,2.3c2.4,0.8,4.6,1.7,6.9,2.8c3.4,1.7,6.6,3.7,9.6,6.1c4.2,3.3,7.8,7.1,10.8,11.4
		c2.1,2.9,3.8,6,5.3,9.3c1.1,2.4,1.9,4.8,2.7,7.3c0.4,1.5,1.5,7.5,1.6,8.1c0.3,2.5,0.4,5,0.4,7.5c-0.1,3.6-0.5,7.2-1.2,10.7
		c-1,4.9-2.7,9.5-5,13.8C145.5,94.1,142.1,98.6,137.9,102.6z M190.7,178.5c0,3.8,0,7.6,0,11.4c0,0.4,0,0.8-0.6,0.8
		c-14.8,0-29.6,0-44.3,0c-0.1,0-0.1,0-0.2,0c-0.2,0-0.2-0.1-0.1-0.3c0-3.2,0-6.4,0-9.6v-17.4c0-0.1,0-0.3,0-0.4c0-0.1,0-0.1,0-0.2
		c0,0,0,0,0-0.1v-0.9c0,0,0,0,0,0c0-2.2,0-4.3,0-6.5c0-5.9,0-11.9,0-17.8c0-0.9,0.2-1.2,1.1-1.2c9.6,0,19.2,0,28.8,0
		c4.8,0,9.5,0,14.3,0c0.9,0,1.1,0.1,1.1,1.1C190.6,151.1,190.7,164.8,190.7,178.5z"/>
	<polygon class="st0" points="47.8,94.2 47.8,94.2 47.8,94.2 	"/>
	<polygon class="st0" points="175.6,109.1 175.6,109.1 175.6,109.1 	"/>
	<path class="st0" d="M118.6,81.8c-0.5,0-0.7-0.2-0.8-0.7c-0.1-1.1-0.2-2.3-0.3-3.4c-0.3-3.3-0.6-6.5-0.9-9.8
		c-0.3-3-0.4-6.1-0.8-9.1c-0.5-3.6-2.3-6.4-5.3-8.4c-1-0.6-2-1.1-3.1-1.4c0,0,0,0,0,0l0,0c-0.4-0.1-0.8-0.2-1.1-0.3c0,0-0.1,0-0.1,0
		l-0.5-0.1c-0.1,0-0.2,0-0.3,0c0,0,0,0,0,0l-0.3,0c0,0,0-0.1-0.1-0.1c-0.3,0-0.7-0.1-1-0.1c-0.5,0-1,0-1.6,0c0,0,0,0.1,0,0.1l-1.3,0
		c0,0,0-0.1,0-0.1c-1.4,0-2.8,0-4.3,0c-0.6,0-1.1,0.1-1.7,0.1c-0.5,0.3-1.1,0.2-1.7,0.4c-1.4,0.2-2.7,0.8-3.9,1.6
		c-2.7,1.8-4.4,4.3-5.1,7.5c-0.4,1.7-0.4,3.5-0.6,5.2c-0.6,5.8-1.1,11.6-1.6,17.4c0,0.3,0.1,0.7-0.3,0.9c-0.1,0.1-0.1,0.1-0.2,0
		c-0.7,0-1.5,0-2.2,0c-0.3,0-0.6,0-0.7,0.3c0,0.7,0.1,1.5,0.1,2.2c0,5.2,0,10.4,0,15.6c0,0,0,0,0,0c5.8,0,11.6,0,17.4,0l0,0l6.2-0.1
		c4.9,0,9.8,0,14.8,0c1.3,0,2.6,0,3.8,0l0,0c0-0.2,0.1-0.5,0.1-0.7c0-5.8,0-11.6,0-17.4C120.3,81.6,119.4,81.8,118.6,81.8z
		 M88.3,80.8c0.4-3.3,0.6-6.6,0.9-9.9c0.4-3.9,0.6-7.8,1.1-11.7c0.4-2.4,2.5-4.5,5.5-4.6c2.7-0.1,5.5-0.1,8.2,0
		c2.9,0.1,5.4,2.3,5.7,5.8c0.5,6.4,1.2,12.8,1.7,19.2c0.1,0.6,0.5,1.5,0.1,1.9c-0.4,0.5-1.3,0.2-2,0.2c-3.2,0-6.4,0-9.7,0
		c-3.7,0-7.3,0-11,0C88.3,81.8,88.2,81.6,88.3,80.8z M115.1,88.8c-0.1,1.5,0,2.9,0,4.4c0,0.6-0.1,0.8-0.7,0.8c-9.6,0-19.1,0-28.7,0
		c-0.6,0-0.7-0.2-0.7-0.8c0-1.5,0-3,0-4.6c0-0.7,0.2-0.8,0.8-0.8c4.8,0,9.5,0,14.3,0c4.7,0,9.4,0,14.1,0
		C114.9,87.9,115.1,88.1,115.1,88.8z"/>
	<path class="st0" d="M80.3,41.1c1.1,1.7,2.2,3.4,3.4,5.1c0.2,0.4,0.4,0.6,0.9,0.2c1.3-1,2.8-1.8,4.2-2.7c0.3-0.2,0.3-0.4,0.1-0.7
		c-0.4-0.5-0.8-1.1-1.1-1.7c-2.5-3.9-5.1-7.7-7.6-11.6c-0.1-0.1-0.2-0.4-0.5-0.4c-0.1,0.1-0.3,0.2-0.4,0.3c-1.3,0.9-2.6,1.8-3.9,2.6
		c-0.7,0.4-0.5,0.7-0.2,1.2C76.8,35.9,78.5,38.5,80.3,41.1z"/>
	<path class="st0" d="M111.5,43.8c1.3,0.7,2.4,1.6,3.6,2.5c0.6,0.4,1,0.3,1.4-0.3c2.6-4,5.3-8,8-12c0.3-0.4,0.5-0.8,0.7-1.1
		c0.1-0.4-0.1-0.5-0.3-0.6c-1.3-0.9-2.7-1.7-3.9-2.7c-0.6-0.4-0.8-0.2-1.1,0.2c-1.5,2.3-3.1,4.6-4.6,6.9c-1.3,2-2.7,3.9-4,5.9
		C111,43.1,110.9,43.4,111.5,43.8z"/>
	<path class="st0" d="M97.7,39.5c1.5,0,3,0,4.5,0c0.7,0,0.9-0.2,0.9-0.8c0-2.3,0-4.5,0-6.8c0-2.3,0-4.6,0-6.9c0-0.5-0.1-0.7-0.7-0.7
		c-1.6,0-3.2,0-4.7,0c-0.6,0-0.7,0.3-0.7,0.7c0,4.6,0,9.2,0,13.8C96.9,39.4,97.2,39.5,97.7,39.5z"/>
	<path class="st0" d="M79.2,52.9c-2.9-1.4-5.8-2.9-8.7-4.4c-0.7-0.3-1.3-0.6-2-1c-0.1,0.2-0.3,0.4-0.4,0.6c-0.7,1.4-1.4,2.9-2.2,4.3
		c-0.2,0.5-0.1,0.6,0.3,0.8c3.5,1.8,7,3.5,10.5,5.3c0.3,0.2,0.5,0.2,0.7-0.2c0.7-1.5,1.4-2.9,2.2-4.4C79.8,53.4,79.8,53.1,79.2,52.9
		z"/>
	<path class="st0" d="M134.3,52.8c0,0,0-0.1,0-0.1c-0.8-1.6-1.6-3.2-2.5-4.8c-0.2-0.3-0.4-0.3-0.7-0.1c-3.4,1.7-6.9,3.4-10.3,5.1
		c-0.6,0.3-0.6,0.6-0.4,1.1c0.7,1.4,1.4,2.8,2.1,4.3c0.2,0.3,0.3,0.5,0.8,0.3c3.5-1.8,7-3.5,10.5-5.3
		C134,53.1,134.3,53.1,134.3,52.8z"/>
	<path class="st0" d="M135.5,66.7c-1.8,0-3.5,0-5.3,0c-1.8,0-3.6,0-5.4,0c-0.5,0-0.7,0.1-0.7,0.7c0,1.5,0,3.1,0,4.6
		c0,0.6,0.2,0.8,0.8,0.8c1.8-0.1,3.5-0.2,5.3-0.1c1.8,0.1,3.6,0,5.4,0.1c0.6,0,0.7-0.2,0.7-0.7c0-1.5,0-3.1,0-4.6
		C136.3,66.8,136.1,66.6,135.5,66.7z"/>
	<path class="st0" d="M75.2,66.7c-3.8,0-7.6,0-11.3,0c-0.1,0.1-0.1,0.1-0.2,0.2c0,1.9-0.1,3.9,0.1,5.8c0.7,0,1.4,0,2.1,0
		c-0.1,0.1-0.1,0.1-0.1,0.1l8-0.1v0c0.7,0,1.4,0,2.1-0.1c0-1.8,0-3.5,0-5.3C75.8,66.8,75.7,66.7,75.2,66.7z"/>
	<path class="st0" d="M82.8,154.3c-0.7,0-1.1,0.1-1,1c0.1,1.4,0.1,2.9,0,4.3c0,0.8,0.2,0.9,1,0.9c5.7,0,11.5,0,17.2,0
		c5.8,0,11.6,0,17.3,0c0.7,0,0.9-0.2,0.9-0.9c-0.1-1.4-0.1-2.9,0-4.3c0-0.9-0.3-1-1-1c-5.8,0-11.6,0-17.4,0
		C94.1,154.4,88.4,154.4,82.8,154.3z"/>
	<path class="st0" d="M186.8,154.3c-5.8,0-11.6,0-17.4,0c-5.7,0-11.3,0-17,0c-0.7,0-1.1,0.1-1,1c0.1,1.4,0.1,2.9,0,4.3
		c0,0.8,0.2,0.9,1,0.9c5.7,0,11.5,0,17.2,0c5.8,0,11.6,0,17.3,0c0.7,0,0.9-0.2,0.9-0.9c-0.1-1.4-0.1-2.9,0-4.3
		C187.9,154.5,187.6,154.3,186.8,154.3z"/>
	<path class="st0" d="M117.2,178.5c-11.5,0-22.9,0-34.4,0c-0.1,0-0.2,0-0.4,0c-0.5,0-0.7,0.2-0.7,0.7c0,1.5,0,3,0,4.6
		c0,0.7,0.2,0.9,0.9,0.9c5.8,0,11.6,0,17.3,0c5.7,0,11.5,0,17.2,0c0.8,0,1-0.2,1-1c-0.1-1.4-0.1-2.8,0-4.2
		C118.2,178.7,117.9,178.5,117.2,178.5z"/>
	<path class="st0" d="M81.8,171.7c0,0.6,0.1,0.9,0.8,0.9c1.7,0,3.4,0,5.1,0c6.8,0,13.6,0,20.5,0c0.7,0,1.1-0.1,1-0.9
		c-0.1-1.5-0.1-2.9,0-4.4c0-0.7-0.2-0.8-0.8-0.8c-4.3,0-8.6,0-12.9,0c-4.3,0-8.5,0-12.8,0c-0.6,0-0.9,0.1-0.9,0.8
		C81.8,168.8,81.8,170.2,81.8,171.7z"/>
	<path class="st0" d="M14.8,154.3c-0.7,0-1.1,0.1-1,1c0.1,1.4,0.1,2.9,0,4.3c0,0.8,0.2,0.9,1,0.9c5.7,0,11.5,0,17.2,0
		c5.8,0,11.6,0,17.3,0c0.7,0,0.9-0.2,0.9-0.9c-0.1-1.4-0.1-2.9,0-4.3c0-0.9-0.3-1-1-1c-5.8,0-11.6,0-17.4,0
		C26.1,154.4,20.5,154.4,14.8,154.3z"/>
	<path class="st0" d="M49.2,178.5c-11.5,0-22.9,0-34.4,0c-0.1,0-0.2,0-0.4,0c-0.5,0-0.7,0.2-0.7,0.7c0,1.5,0,3,0,4.6
		c0,0.7,0.2,0.9,0.9,0.9c5.8,0,11.6,0,17.3,0c5.7,0,11.5,0,17.2,0c0.8,0,1-0.2,1-1c-0.1-1.4-0.1-2.8,0-4.2
		C50.3,178.7,50,178.5,49.2,178.5z"/>
	<path class="st0" d="M13.8,171.7c0,0.6,0.1,0.9,0.8,0.9c1.7,0,3.4,0,5.1,0c6.8,0,13.6,0,20.5,0c0.7,0,1.1-0.1,1-0.9
		c-0.1-1.5-0.1-2.9,0-4.4c0-0.7-0.2-0.8-0.8-0.8c-4.3,0-8.6,0-12.9,0c-4.3,0-8.5,0-12.8,0c-0.6,0-0.9,0.1-0.9,0.8
		C13.9,168.8,13.9,170.2,13.8,171.7z"/>
	<path class="st0" d="M97.6,142.3c-0.5,0-0.7,0.1-0.7,0.7c0,1.6,0,3.2,0,4.7c0,0.5,0.2,0.7,0.7,0.7c1.6,0,3.2,0,4.8,0
		c0.5,0,0.7-0.2,0.7-0.7c0-1.6,0-3.2,0-4.7c0-0.5-0.2-0.7-0.7-0.6c-0.8,0-1.6,0-2.4,0C99.2,142.3,98.4,142.3,97.6,142.3z"/>
	<path class="st0" d="M109.1,145.3c0,0.8,0,1.6,0,2.4c0,0.4,0.1,0.7,0.6,0.6c1.6,0,3.3,0,4.9,0c0.4,0,0.6-0.2,0.6-0.6
		c0-1.6,0-3.3,0-4.9c0-0.4-0.1-0.6-0.6-0.6c-1.7,0-3.3,0-5,0c-0.4,0-0.5,0.1-0.5,0.5C109.1,143.6,109.1,144.5,109.1,145.3z"/>
	<path class="st0" d="M84.9,147.8c0,0.5,0.2,0.5,0.6,0.5c1.6,0,3.2,0,4.8,0c0.5,0,0.6-0.2,0.6-0.6c0-0.8,0-1.6,0-2.4
		c0-0.8,0-1.6,0-2.4c0-0.5-0.1-0.6-0.6-0.6c-1.6,0-3.2,0-4.8,0c-0.4,0-0.6,0.1-0.6,0.5C84.9,144.5,84.9,146.2,84.9,147.8z"/>
	<path class="st0" d="M163.4,147.7c0,0.5,0.2,0.7,0.7,0.7c1.6,0,3.2,0,4.8,0c0.5,0,0.7-0.2,0.7-0.7c0-1.6,0-3.2,0-4.7
		c0-0.5-0.2-0.7-0.7-0.6c-0.8,0-1.6,0-2.4,0c-0.8,0-1.6,0-2.4,0c-0.5,0-0.7,0.1-0.7,0.7C163.5,144.5,163.5,146.1,163.4,147.7z"/>
	<path class="st0" d="M175.6,145.3c0,0.8,0,1.6,0,2.4c0,0.4,0.1,0.7,0.6,0.6c1.6,0,3.3,0,4.9,0c0.4,0,0.6-0.2,0.6-0.6
		c0-1.6,0-3.3,0-4.9c0-0.4-0.1-0.6-0.6-0.6c-1.7,0-3.3,0-5,0c-0.4,0-0.5,0.1-0.5,0.5C175.6,143.6,175.6,144.5,175.6,145.3z"/>
	<path class="st0" d="M151.4,147.8c0,0.5,0.2,0.5,0.6,0.5c1.6,0,3.2,0,4.8,0c0.5,0,0.6-0.2,0.6-0.6c0-0.8,0-1.6,0-2.4
		c0-0.8,0-1.6,0-2.4c0-0.5-0.1-0.6-0.6-0.6c-1.6,0-3.2,0-4.8,0c-0.4,0-0.6,0.1-0.6,0.5C151.4,144.5,151.4,146.2,151.4,147.8z"/>
	<path class="st0" d="M28.3,142.3c-0.5,0-0.7,0.1-0.7,0.7c0,1.6,0,3.2,0,4.7c0,0.5,0.2,0.7,0.7,0.7c1.6,0,3.2,0,4.8,0
		c0.5,0,0.7-0.2,0.7-0.7c0-1.6,0-3.2,0-4.7c0-0.5-0.2-0.7-0.7-0.6c-0.8,0-1.6,0-2.4,0C29.9,142.3,29.1,142.3,28.3,142.3z"/>
	<path class="st0" d="M15.6,147.8c0,0.5,0.2,0.5,0.6,0.5c1.6,0,3.2,0,4.8,0c0.5,0,0.6-0.2,0.6-0.6c0-0.8,0-1.6,0-2.4
		c0-0.8,0-1.6,0-2.4c0-0.5-0.1-0.6-0.6-0.6c-1.6,0-3.2,0-4.8,0c-0.4,0-0.6,0.1-0.6,0.5C15.7,144.5,15.7,146.2,15.6,147.8z"/>
	<path class="st0" d="M178.7,179.3c0-0.5-0.2-0.8-0.7-0.7c-0.7,0-1.3,0-2,0c-7.9,0-15.8,0-23.7,0c-0.7,0-0.9,0.2-0.9,0.9
		c0.1,1.4,0.1,2.9,0,4.3c0,0.7,0.1,1,1,1c4.2-0.1,8.5,0,12.7,0c4.3,0,8.5,0,12.8,0c0.6,0,0.8-0.1,0.8-0.8
		C178.6,182.4,178.6,180.8,178.7,179.3z"/>
	<path class="st0" d="M152.3,172.6c2.2,0,4.5,0,6.7,0c2.3,0,4.5,0,6.8,0c0.6,0,0.8-0.2,0.8-0.7c0-1.6,0-3.2,0-4.7
		c0-0.5-0.1-0.7-0.6-0.7c-4.6,0-9.2,0-13.8,0c-0.6,0-0.6,0.2-0.6,0.7c0,1.5,0,3.1,0,4.6C151.4,172.5,151.7,172.6,152.3,172.6z"/>
	<path class="st0" d="M184,166.5c-1.8,0-3.6,0-5.4,0c-1.8,0-3.6,0-5.4,0c-0.5,0-0.8,0.1-0.8,0.7c0,1.5,0,3.1,0,4.6
		c0,0.6,0.2,0.8,0.8,0.8c3.6,0,7.1,0,10.7,0c0.5,0,0.7-0.1,0.7-0.7c0-1.6,0-3.2,0-4.7C184.7,166.6,184.5,166.4,184,166.5z"/>
</g>
</svg>
