<?xml version="1.0" encoding="utf-8"?>
<!-- Generator: Adobe Illustrator 27.1.1, SVG Export Plug-In . SVG Version: 6.00 Build 0)  -->
<svg version="1.1" id="Layer_1" xmlns="http://www.w3.org/2000/svg" xmlns:xlink="http://www.w3.org/1999/xlink" x="0px" y="0px"
	 viewBox="0 0 200 200" style="enable-background:new 0 0 200 200;" xml:space="preserve">
<style type="text/css">
	.st0{fill:#EC3783;stroke:#EC3783;stroke-width:3;stroke-miterlimit:10;}
</style>
<g>
	<g>
		<path class="st0" d="M74,153.4c-7.8,1.3-11.1-0.3-13.9-6.7c-3.3,1.5-6.7,1.6-9.9-0.3c-3.2-1.9-4.7-4.8-5-8.4
			c-9.5,0.9-14.8-8.3-10.3-15.8c-2.7-2.1-5.4-4.3-8.2-6.4c-0.3-0.2-0.8-0.2-1.2,0c-1.8,0.6-3.5,0.4-5.2-0.4c-4.6-2.3-9.2-4.6-13.8-7
			c-3.8-1.9-4.9-5.2-2.9-8.9c8.6-17.1,17.2-34.2,25.8-51.3c1.8-3.7,5-4.7,8.7-2.9c4.4,2.2,8.8,4.4,13.2,6.6c4,2.1,5,4,4,8.5
			c3.6,2.7,7.5,4.5,12,5.4c0.4,0.1,1.1-0.3,1.3-0.6c2.7-5.3,7.1-8.9,12.3-11.4c8.5-4.1,17.5-5.2,26.8-4.3c6.8,0.7,13.2,2.6,19.5,5.2
			c4.3,1.7,8.7,3.1,13.4,3.4c2.1,0.1,4.2,0.2,6.4-0.7c-0.5-1-0.9-1.9-1.3-2.8c-1.5-3.2-0.5-6.4,2.8-8c4.8-2.4,9.7-4.7,14.6-7.1
			c3.6-1.7,6.6-0.7,8.4,2.9c5.5,11.3,11,22.6,16.5,34c2.8,5.9,5.7,11.7,8.5,17.6c2.1,4.4,1.2,7.2-3.2,9.3c-4.3,2.1-8.7,4.2-13,6.3
			c-4.4,2.2-7.2,1.2-9.4-3.2c-0.2-0.3-0.4-0.7-0.6-1.1c-4.8,2.8-8.5,6.4-9.9,11.9c-0.1,0.5,0.1,1.1,0.4,1.6c2,3.7,2.1,7.4-0.1,11
			c-2.1,3.5-5.4,5.3-9.5,5c-2-0.1-4-1-5.9-1.5c-1.8,6.8-8.8,11.5-16,7.3c0,6.2-6.8,12.9-14.4,10.2c-1.3,3.9-4.2,6-8.1,7.1
			c-3.1,0.8-6.1,0.4-8.9-0.8c-2.7-1.2-4.4-1.2-6.7,1.3c-4.9,5.4-13.8,3.1-16.4-3.6C74.3,154.3,74.2,153.8,74,153.4z M96.2,151.9
			c2.2,0.6,4.2,1.4,6.3,1.7c2.6,0.4,5-0.4,6.8-2.4c1.4-1.5,1.1-3.1-0.6-4.2c-2.7-1.7-5.3-3.5-8-5.2c-0.4-0.3-0.8-0.5-1.1-0.9
			c-0.8-0.9-0.8-1.9,0-2.9s1.9-1.1,3.1-0.4c4.3,2.8,8.6,5.6,12.8,8.4c3,2,6.6,1.4,8.7-1.3c2-2.6,1.6-6.4-1-8.4c-3-2.3-6-4.5-9.1-6.7
			c-1.3-1-1.7-2.2-0.9-3.3c0.8-1.1,2.1-1.2,3.4-0.3c4.7,3.3,9.5,6.5,14,10.1c3.1,2.5,7.2,1.7,9.3-2c1.1-2,1-3.5-0.7-5.1
			c-1.3-1.2-2.8-2.2-4.2-3.3c-2.8-2-5.7-4-8.5-6c-1.2-0.9-1.5-2-0.8-3.1s2-1.4,3.3-0.6c0.3,0.2,0.6,0.4,0.8,0.6
			c6,4.2,12,8.4,18.1,12.5c3.3,2.3,7.7,1,9.2-2.6c1.2-2.8,0.1-6-2.8-7.9c-17.7-11.5-35.4-23-53.1-34.5c-3-2-6-3.9-9.2-5.9
			c-2.1,3-4,5.8-6,8.7C80.9,94.2,73.7,97,65,96c-6-0.7-8.1-4.6-5.4-10c0.2-0.5,0.5-0.9,0.7-1.4c1.2-2.4,2.5-4.7,3.6-7.1
			c1.1-2.2,2-4.6,3.1-7c-5.2-1-9.7-3-13.9-5.9c-0.3,0.6-0.6,1-0.8,1.5C45,80.4,37.8,94.8,30.5,109.2c-1.4,2.8-1.4,2.8,1.1,4.7
			c2,1.5,3.9,3,6.1,4.7c2.3-3.8,5.1-6.8,9.7-6.9s7.8,2.1,9.9,6.2c3.1-3.1,6.7-4.4,11-3c4.2,1.4,6.4,4.5,7.1,8.8
			c6.7-1,12.6,3.6,12.4,11.1C97.2,134.8,101.6,144.4,96.2,151.9z M148.9,61.5c-3.4,1.4-6.9,1.4-10.4,1c-5.2-0.6-10-2.3-14.8-4.2
			c-9.4-3.8-19.2-5.5-29.3-4c-6.2,0.9-11.9,2.9-16.8,6.9c-2.8,2.3-4.9,5.1-5.9,8.7c-1.8,6.5-5.2,12.4-8.3,18.4
			c-1.1,2.1-0.8,2.8,1.5,3.1c6.8,1,12.6-0.8,16.8-6.5c1.7-2.4,3.3-4.9,5.1-7.2c1-1.4,2.2-2.8,3.4-4.1c0.8-0.9,1.8-0.8,2.9-0.1
			c7.9,5.2,15.8,10.4,23.7,15.5c3.1,2,6.4,2,9.5-0.1c1.5-1.1,2.8-2.4,4.1-3.8c1.1-1.1,2.3-1.4,3.3-0.5c1.1,0.8,1.2,2.1,0.2,3.3
			c-1.2,1.4-2.5,2.8-4,3.9c-1.4,1.1-3,1.8-4.6,2.8c10.2,6.6,20.4,13.2,30.8,19.9c2.3-6.1,6.5-10.2,11.9-13.3
			C161.7,87.8,155.3,74.7,148.9,61.5z M34.7,48.8c-0.4,0.6-1,1.1-1.4,1.8c-8.6,17-17.1,33.9-25.7,50.9c-0.8,1.5-0.6,2.1,0.9,2.9
			c4.6,2.3,9.1,4.6,13.7,6.9c1.2,0.6,2,0.4,2.6-0.8c0.6-1.3,1.3-2.6,1.9-3.9c8-15.8,16-31.7,23.9-47.5c0.7-1.4,0.5-2-0.9-2.8
			c-4.5-2.3-9-4.6-13.6-6.8C35.8,49.2,35.4,49.1,34.7,48.8z M166.1,43.1c-0.7,0.3-1.1,0.4-1.4,0.6c-4.6,2.2-9.2,4.4-13.8,6.7
			c-1.6,0.8-1.7,1.1-0.9,2.8c8.4,17.3,16.7,34.5,25.1,51.8c0.6,1.3,1.4,1.4,2.5,0.8c4.5-2.2,9.1-4.4,13.7-6.6c1.9-0.9,2-1.2,1-3.1
			c-4.4-9.2-8.9-18.3-13.3-27.5c-3.9-8-7.7-16-11.6-23.9C167,44.1,166.5,43.6,166.1,43.1z M65.6,118.8c-2.2,0-3.7,1-4.8,2.5
			c-3.1,4.3-6.3,8.6-9.5,13c-1.9,2.6-1.6,5.9,0.8,7.7c2.5,1.9,5.7,1.4,7.7-1.3c1.2-1.6,2.4-3.3,3.6-4.9c2-2.8,4.1-5.6,6.1-8.4
			c1.3-1.8,1.6-3.7,0.5-5.7C69.1,119.9,67.5,118.9,65.6,118.8z M83.2,133.5c-0.3-2.4-1.6-4.3-3.7-5.1c-2.2-0.8-4.6-0.2-6,1.6
			c-2.8,3.7-5.5,7.3-8.1,11.1c-1.7,2.5-1.1,5.7,1.4,7.4c2.3,1.6,5.5,1.1,7.3-1.2c2.7-3.6,5.4-7.2,7.9-10.9
			C82.5,135.7,82.8,134.5,83.2,133.5z M83.6,156.9c1.7,0.1,3.2-0.6,4.2-1.9c1.9-2.5,3.8-5.1,5.6-7.7c1.6-2.3,0.9-5.4-1.4-7.1
			c-2.2-1.6-5.5-1.4-7.2,0.8c-2,2.5-3.9,5.1-5.7,7.7c-1.2,1.7-1.2,3.6-0.2,5.5C80,155.9,81.5,156.8,83.6,156.9z M53.4,121.7
			c-0.1-2.5-1.5-4.5-3.8-5.3c-2.1-0.8-4.6-0.1-6,1.8c-1.8,2.3-3.5,4.7-5.2,7.1c-1.8,2.5-1.3,5.9,1.1,7.6c2.5,1.8,5.6,1.3,7.5-1.3
			c1.7-2.3,3.4-4.5,5-6.9C52.7,123.8,52.9,122.7,53.4,121.7z"/>
		<path class="st0" d="M20.8,93.1c2.3,0,3.9,1.7,3.9,3.9c0,2.1-1.8,3.9-3.9,3.9c-2.2,0-4-1.8-3.9-4C16.9,94.7,18.6,93.1,20.8,93.1z"
			/>
		<path class="st0" d="M179.1,96.9c-2.5,0-4.4-1.9-4.4-4.4s1.9-4.4,4.4-4.4c2.4,0,4.3,1.9,4.3,4.3C183.5,94.9,181.5,96.9,179.1,96.9
			z"/>
	</g>
</g>
</svg>
