<?xml version="1.0" encoding="utf-8"?>
<!-- Generator: Adobe Illustrator 27.1.1, SVG Export Plug-In . SVG Version: 6.00 Build 0)  -->
<svg version="1.1" id="Layer_1" xmlns="http://www.w3.org/2000/svg" xmlns:xlink="http://www.w3.org/1999/xlink" x="0px" y="0px"
	 viewBox="0 0 200 200" style="enable-background:new 0 0 200 200;" xml:space="preserve">
<style type="text/css">
	.st0{fill:#EC3783;stroke:#EC3783;stroke-width:3;stroke-miterlimit:10;}
</style>
<g>
	<path class="st0" d="M196.8,85.2c-0.5,2.2-0.8,4.4-1.5,6.6c-5.2,18.1-17.1,29.1-35.5,33.1c-1.3,0.3-1.8,0.6-1.8,2
		c0.1,2.8,0,5.6,0,8.6c1.4,0.1,2.6,0.1,3.9,0.2c5.5,0.6,9,4.2,9.1,9.7c0.1,15.9,0.1,31.8,0,47.7c0,2.5-1.2,3.6-3.6,3.6
		c-2.9,0-5.8,0-8.7,0c-2.2,0-3.5-1.2-3.5-3.1c0-1.8,1.3-2.9,3.4-2.9c1.9,0,3.9,0,6,0c0-0.8,0.1-1.4,0.1-2.1c0-14,0-28,0-42
		c0-3.8-1-4.8-4.8-4.8c-18.5,0-36.9,0-55.4,0c-3.7,0-4.7,1-4.7,4.7c0,14.1,0,28.1,0,42.2c0,0.6,0.1,1.2,0.1,2c0.9,0,1.6,0,2.3,0
		c13,0,26,0,39,0c2.3,0,3.5,0.9,3.7,2.6c0.2,2-1.1,3.4-3.3,3.4c-3.8,0-7.7,0-11.5,0c-10.8,0-21.6,0-32.3,0c-3.1,0-4.2-1.1-4.2-4.2
		c0-15.3,0-30.6,0-46c0-7,3.8-10.9,10.8-11c0.6,0,1.2,0,2,0c0-3.4,0-6.6,0-10c-0.7,0-1.4,0-2.2,0c-11.7,0-23.5,0-35.2,0
		c-0.6,0-1.3,0-1.9-0.1c-1.6-0.3-2.5-1.4-2.6-3s1.2-2.8,2.9-2.9c0.8-0.1,1.5,0,2.3,0c26.5,0,53.1,0,79.6,0c0.7,0,1.5,0,2.5,0
		c0-3.7,0.1-7.2,0-10.7c-0.1-2.8-0.1-5.6-0.8-8.2c-2.4-9.7-11.1-16.7-21.1-17c-0.3,0-0.5,0-0.8,0c-2-0.2-3.2-1.5-3.1-3.3
		c0.1-1.7,1.4-2.8,3.4-2.8c6,0,11.4,1.8,16.3,5.3c8.3,6,12.3,14.3,12.3,24.5c0,3.2,0,6.4,0,9.6c0,0.6,0.1,1.2,0.1,2
		c4.8-0.7,9.2-2.3,13.2-4.7c26.1-15.6,25.8-52.9-0.8-67.6c-13.8-7.6-27.8-6.7-41.1,2.1c-1.6,1-3,2.6-5.1,1.5c-2-1.1-1.6-3.1-1.6-4.9
		c0.1-19.8-15.8-35.9-35.6-36C68.6,9.1,52.6,24,51.4,42.4c-0.3,5.5,0.4,10.8,2.4,15.9c0.6,1.6,1.2,3.1-0.3,4.5
		c-1.4,1.3-2.9,0.8-4.4,0.2c-17.5-6.6-35.9,3.7-39.5,22.1c-3.2,16.5,9.3,33,26,34.2c5,0.4,10.1,0.1,15.1,0.3
		c1.1,0.1,2.5,0.7,3.2,1.5c1.3,1.6,0,4.4-2.1,4.4c-9.9,0.1-20,1.4-29.2-3.7C9.1,114.4,2.6,103,3.1,87.6c0.5-13,10.1-25.8,22.7-30.4
		c6.4-2.4,13-2.9,19.7-1.6c0.2,0,0.5,0,0.8,0c-0.3-2.6-0.8-5-1-7.5c-1-13,3.4-24.1,12.6-33.3C64.6,8.5,72.6,4.7,81.7,3.5
		c0.3,0,0.6-0.2,0.8-0.4c2.9,0,5.8,0,8.7,0c0.4,0.1,0.8,0.3,1.2,0.4c13.7,2,24,9.1,31,21c3.1,5.2,4.6,10.9,5.3,17
		c0.5-0.2,0.9-0.4,1.3-0.6c8.9-4.8,18.3-6.4,28.3-5c17.9,2.6,32.5,15.7,37,33.3c0.6,2.2,1,4.5,1.5,6.8
		C196.8,79.2,196.8,82.2,196.8,85.2z M112.9,125.8c0,3.4,0,6.6,0,9.8c13,0,25.9,0,38.8,0c0-3.3,0-6.6,0-9.8
		C138.7,125.8,125.9,125.8,112.9,125.8z"/>
	<path class="st0" d="M86.8,67.8c1.3,0,2.3,0,3.6,0c0-2.9,0-5.8,0-8.7c0-3.3,0.9-4.2,4.1-4.2c7.9,0,15.8,0,23.6,0
		c3.2,0,4.2,0.9,4.2,4.2c0,13.2,0,26.5,0,39.7c0,3.4-0.9,4.2-4.3,4.2c-16.5,0-32.9,0-49.4,0c-3.2,0-4.3-1-4.3-4.3
		c0-13.2,0-26.3,0-39.5c0-3.2,1-4.2,4.1-4.2c4.8,0,9.6,0,14.4,0c2.8,0,3.8,1,3.8,3.7C86.9,61.6,86.8,64.6,86.8,67.8z M70.9,61.1
		c0,12,0,23.9,0,35.8c15.2,0,30.2,0,45.2,0c0-7.7,0-15.3,0-22.9c-0.8,0-1.5,0-2.2,0c-9.5,0-19,0-28.5,0c-3.9,0-4.7-0.8-4.7-4.8
		c0-2.7,0-5.4,0-8C77.3,61.1,74.2,61.1,70.9,61.1z M96.6,67.7c6.6,0,13.1,0,19.5,0c0-2.3,0-4.4,0-6.6c-6.6,0-13,0-19.5,0
		C96.6,63.4,96.6,65.5,96.6,67.7z"/>
	<path class="st0" d="M131.9,148.7c6.5,0,11.9,4.4,13,10.4c1.1,5.9-2.3,12-7.9,14.1c-1.3,0.5-1.6,1.1-1.5,2.3c0.1,1.6,0.1,3.1,0,4.7
		c-0.1,2.2-1.3,3.6-3.1,3.6c-1.7,0-3-1.4-3.1-3.6c-0.1-1.7-0.1-3.4,0-5.1c0.1-1.1-0.3-1.5-1.3-1.9c-5.7-2.2-8.7-7.2-8.2-13.4
		c0.4-5.1,4.6-9.7,10-11C130.5,148.8,131.4,148.8,131.9,148.7z M139,161.5c0-3.6-2.9-6.6-6.5-6.7c-3.7,0-6.8,3-6.7,6.7
		c0,3.6,3,6.6,6.6,6.6C135.9,168.1,138.9,165.1,139,161.5z"/>
</g>
</svg>
