<?xml version="1.0" encoding="utf-8"?>
<!-- Generator: Adobe Illustrator 27.1.1, SVG Export Plug-In . SVG Version: 6.00 Build 0)  -->
<svg version="1.1" id="Layer_1" xmlns="http://www.w3.org/2000/svg" xmlns:xlink="http://www.w3.org/1999/xlink" x="0px" y="0px"
	 viewBox="0 0 200 200" style="enable-background:new 0 0 200 200;" xml:space="preserve">
<style type="text/css">
	.st0{fill:#EC3783;stroke:#EC3783;stroke-width:3;stroke-miterlimit:10;}
</style>
<g>
	<path class="st0" d="M143.7,197.6c-2.3-0.5-4.6-0.9-6.8-1.5c-12.4-3.7-21.2-11.5-26.8-23.2c-0.8-1.7-2-3.3-3.3-4.8
		c-1.9-2.2-4.1-4.2-6-6.2c-3,1.2-5.8,2.2-8.6,3.4c-0.4,0.2-0.8,1.1-0.8,1.6c-0.1,3.9,0,7.9,0,11.8c0,4.3-2.1,6.7-6.4,6.9
		c-5.1,0.2-10.3,0.2-15.4,0c-3.9-0.1-6-2.5-6-6.4c0-4.1,0-8.1,0-12.2c0-1.1-0.4-1.6-1.4-2c-2.6-0.9-5.2-2-8-3.2
		c-2.8,2.8-5.7,5.8-8.7,8.7c-3.8,3.8-6.4,4-10.3,0.5c-3.6-3.3-7-6.8-10.3-10.4c-2.9-3.2-2.6-6.2,0.5-9.2c3.1-3.1,6.2-6.2,9.2-9.2
		c-1.2-3-2.2-5.8-3.4-8.6c-0.2-0.5-1.2-0.8-1.8-0.9c-3.9-0.1-7.9,0-11.8,0c-4.3,0-6.7-2.1-6.8-6.4c-0.2-5-0.2-10,0-15
		c0.1-4.1,2.6-6.3,6.8-6.3c3.9,0,7.8,0,11.6,0c1.2,0,1.9-0.3,2.3-1.6c0.9-2.6,2-5,3.1-7.8c-2.9-2.9-6-5.9-9-9
		c-3.4-3.4-3.7-6.1-0.5-9.6c3.4-3.8,7-7.3,10.8-10.7c3.2-2.9,6.1-2.6,9.2,0.5c2.8,2.8,5.6,5.5,8.3,8.4c0.8,0.8,1.3,0.8,2.3,0.4
		c2.2-1,4.4-1.9,6.7-2.7c1-0.4,1.3-0.8,1.3-1.9c-0.1-4.1,0-8.3,0-12.4c0-3.6,1.9-5.7,5.6-6.2c5.6-0.8,11.1-0.7,16.7,0
		c3.4,0.5,5.5,2.7,5.5,6.2c0.1,4.6,0,9.1,0,13.7c2.9,1.2,5.6,2.5,8.4,3.6c0.3,0.1,0.6,0.2,0.9,0.1c0.9-0.2,3.5-3.5,3.5-4.5
		c0-10.9,0-21.9,0-32.8c0-0.3-0.1-0.6-0.2-1.2c-2.5,0-4.9-0.1-7.4,0c-1.9,0.1-3.4-0.5-4.3-2.3c-0.8-1.7-0.4-3.2,0.7-4.6
		c6.4-8.6,12.7-17.3,19.1-25.9c2.4-3.2,5.2-3.2,7.6,0c6.2,8.6,12.4,17.2,18.7,25.8c1.1,1.5,1.6,3,0.8,4.8c-0.9,1.8-2.4,2.3-4.3,2.2
		c-2.3-0.1-4.7,0-7.1,0c0,0.8-0.1,1.4-0.1,2.1c0,11,0,22,0,33c0,1,0.6,2.1,1.1,3c0.4,0.8,1.2,1.5,1.8,2.2c2,2.7,1.9,5.7-0.5,8.1
		c-2.9,3-5.8,5.9-8.8,8.7c-0.9,0.8-1,1.5-0.4,2.6c1,2,1.9,4.2,2.6,6.3c0.4,1.1,0.9,1.5,2,1.5c3.7-0.1,7.5,0,11.2,0
		c4.9,0,6.9,1.7,7.5,6.6c0.1,1,0.2,2,0.2,3.1c1.5,0,3,0,4.5,0c0-13.6,0-27.3,0-41.2c-2.3,0-4.6,0-6.8,0c-2,0-3.8-0.3-4.8-2.3
		c-1-1.9-0.2-3.5,1-5.1c6.3-8.5,12.5-17,18.8-25.5c2.4-3.2,5.2-3.2,7.6,0c6.2,8.6,12.4,17.2,18.7,25.8c1.1,1.5,1.6,3,0.8,4.8
		c-0.9,1.8-2.5,2.4-4.4,2.4c-2.3,0-4.6,0-7.1,0c0,0.9,0,1.5,0,2.2c0,5.1,0,10.2,0,15.2c0,2.1-1.1,3.4-2.8,3.4c-1.7,0.1-3-1.3-3-3.4
		c0-6.3,0-12.6,0-18.9c0-2.7,1.5-4.2,4.2-4.4c0.9-0.1,1.9,0,2.9,0c0.9,0,1.8,0,3.1,0c-5.5-7.6-10.7-14.9-16.2-22.4
		c-5.4,7.4-10.8,14.7-16.5,22.4c2,0,3.6,0,5.2,0c4,0,5.4,1.4,5.4,5.4c0,13.5,0,26.9,0,40.4c0,1.4,0.3,1.9,1.8,2.2
		c3.4,0.8,6.6,2.1,10.1,3.2c0-0.4,0.1-0.9,0.1-1.5c0-4.1,0-8.1,0-12.2c0-2,1.3-3.3,3-3.2c1.6,0.1,2.7,1.3,2.8,3.2
		c0,5.4,0,10.8,0.1,16.2c0,0.8,0.5,1.8,1.1,2.4c10.5,8.8,15.7,20,15.5,33.7c-0.2,18.6-14.9,36-33.3,39.3c-1.2,0.2-2.5,0.5-3.7,0.8
		C149.5,197.6,146.6,197.6,143.7,197.6z M69.3,180.1c5,0,9.7,0,14.5,0c1.4,0,1.8-0.5,1.8-1.9c-0.1-4.1-0.1-8.1,0-12.2
		c0.1-3.2,1.4-5,4.5-6.1c1.8-0.6,3.7-1.1,5.3-2.1c4.1-2.5,7.7-2.5,11,1.4c0,0,0.1,0,0.4,0c-0.6-10,1.9-19.3,8-27.4
		c6.1-8.2,14.2-13.4,24.2-16c-0.2-1.7-0.3-3.2-0.5-4.9c-4.6,0-9,0-13.4,0c-3.6,0-5.4-1.4-6.6-4.6c-0.9-2.5-2-4.9-3.1-7.4
		c-1.3-3-1.1-5.2,1.2-7.5c1.7-1.8,3.5-3.5,5.3-5.3c1.5-1.5,3.1-3,4.9-4.7c-4-4-7.8-7.7-11.6-11.6c-3.5,3.5-6.7,6.8-9.9,9.9
		c-2.4,2.4-4.6,2.7-7.6,1.3c-2.4-1.1-4.9-2.1-7.4-3.1c-3.2-1.2-4.5-2.9-4.5-6.3c0-1.9,0-3.8,0-5.7c0-2.6,0-5.3,0-8.2
		c-5.5,0-10.8,0-16.3,0c0,4.7,0,9.2,0,13.6c0,3.6-1.4,5.4-4.8,6.7c-2.4,1.1-4.7,2-6.8,3c-3.6,1.7-5.6,1.4-8.4-1.4
		c-3.1-3.1-6.2-6.2-9.3-9.3c-4.3,3.4-8.2,7.1-11.4,11.6c3.3,3.3,6.4,6.4,9.6,9.5c2.4,2.4,2.7,4.7,1.3,7.8c-1,2.2-2,4.4-2.8,6.7
		c-1.4,3.9-3.1,5.2-7.4,5.2c-3.8,0-7.6,0-11.4,0c-1.1,0-1.6,0.4-1.7,1.5c0,1.5-0.3,2.9-0.3,4.4c0,3.4,0.2,6.8,0.3,10.3
		c4.8,0,9.3,0,13.7,0c3.5,0,5.3,1.4,6.5,4.7c0.8,2.2,1.7,4.4,2.7,6.5c1.8,3.9,1.6,5.8-1.5,8.9c-3,3-6,6-9.4,9.4
		c3.9,3.9,7.7,7.7,11.5,11.5c3.6-3.6,6.7-6.8,9.9-9.9c2.3-2.3,4.6-2.6,7.6-1.3c2.4,1.1,4.8,2.1,7.2,3c3.3,1.2,4.7,3,4.7,6.5
		C69.3,170.8,69.3,175.3,69.3,180.1z M112.4,156.1c0,19.6,16,35.7,35.5,35.8s35.7-16,35.8-35.5s-16-35.7-35.5-35.7
		C128.6,120.6,112.4,136.6,112.4,156.1z M116,9.4c-5.5,7.5-10.9,14.8-16.5,22.4c2.1,0,3.7,0,5.2,0c3.9,0,5.3,1.4,5.3,5.4
		c0,9,0,18,0,27c0,0.7,0.1,1.3,0.1,2.3c4.7-4.2,8.2-1.1,11.8,2.1c0-1.1,0-1.8,0-2.5c0-9.9,0-19.8,0-29.7c0-3,1.6-4.6,4.6-4.6
		c1.7,0,3.5,0,5.6,0C126.6,24.2,121.4,16.9,116,9.4z"/>
	<path class="st0" d="M77.3,154.3c-18-0.2-33-13.6-35-31.4c-2.2-19.3,11.9-36.8,31.4-39c18.5-2,35.3,10.7,38.5,29
		c0.3,1.8-0.6,3.2-2.2,3.6c-1.7,0.4-3.1-0.7-3.5-2.8c-1.1-5.7-3.5-10.7-7.6-14.9c-8.5-8.7-18.8-11.5-30.3-7.9s-18.5,11.8-20.2,23.9
		c-2.8,18.9,12.6,35,31.7,33.6c11.6-0.9,22.1-9.3,25.6-20.4c0.2-0.6,0.3-1.2,0.6-1.8c0.6-1.6,2-2.3,3.5-1.9c1.7,0.5,2.3,1.7,2,3.4
		c-0.1,0.9-0.5,1.8-0.8,2.7C106.1,144.7,92.3,154.5,77.3,154.3z"/>
	<path class="st0" d="M77.4,96.5c12.4,0,22.5,10,22.6,22.4c0.1,12.3-10.1,22.6-22.4,22.6c-12.5,0-22.7-10.1-22.7-22.5
		C54.9,106.6,65,96.5,77.4,96.5z M94.2,119.2c0-9.3-7.3-16.8-16.5-16.9c-9.4-0.1-17.1,7.5-17,16.8c0.1,9.2,7.6,16.7,16.7,16.8
		C86.6,135.9,94.1,128.4,94.2,119.2z"/>
	<path class="st0" d="M116.3,156.2c-0.1-16.4,12.4-30.2,28.7-31.7c16.3-1.6,31.4,9.8,34.4,25.9c0.4,2-0.4,3.4-2.1,3.9
		c-1.7,0.4-3.1-0.5-3.6-2.7c-2-9.2-7.2-15.8-16-19.4c-15.6-6.4-33.3,3.9-35.5,20.6c-2.1,16,10.6,30.2,26.6,29.6
		c10.8-0.4,20.1-7.2,23.8-17.3c0.2-0.4,0.3-0.8,0.5-1.2c0.7-1.5,2.1-2.2,3.6-1.7s2.3,2,1.8,3.7c-2,6.5-5.8,11.9-11.2,15.9
		c-9.8,7.1-20.5,8.6-31.7,3.8c-11.3-4.9-17.5-13.8-19.2-26C116.2,158.4,116.3,157.3,116.3,156.2z"/>
	<path class="st0" d="M150.9,150.9c2.9-1.9,5.5-3.6,8-5.2c1.9-1.2,3.5-1,4.5,0.6c1,1.5,0.5,3.1-1.4,4.3c-4,2.6-7.9,5.2-12,7.7
		c-0.9,0.5-2.5,0.8-3.3,0.3c-0.8-0.4-1.5-1.9-1.5-2.9c-0.1-6.5-0.1-13-0.1-19.4c0-2,1.2-3.3,2.9-3.3s2.8,1.3,2.8,3.4
		C150.9,141.1,150.9,145.8,150.9,150.9z"/>
	<path class="st0" d="M77.4,130.1c-6.1,0-11.1-5-11.1-11.1s5-11.1,11.1-11.1c6.2,0,11.3,5.1,11.2,11.3
		C88.6,125.3,83.6,130.2,77.4,130.1z M77.5,113.7c-2.9,0-5.4,2.3-5.4,5.3c0,2.9,2.5,5.5,5.5,5.5c2.9-0.1,5.2-2.5,5.2-5.4
		C82.8,116,80.5,113.7,77.5,113.7z"/>
</g>
</svg>
