<?xml version="1.0" encoding="utf-8"?>
<!-- Generator: Adobe Illustrator 27.2.0, SVG Export Plug-In . SVG Version: 6.00 Build 0)  -->
<svg version="1.1" id="Circles" xmlns="http://www.w3.org/2000/svg" xmlns:xlink="http://www.w3.org/1999/xlink" x="0px" y="0px"
	 viewBox="0 0 1294 750" style="enable-background:new 0 0 1294 750;" xml:space="preserve">
<style type="text/css">
	.st0{fill:none;stroke:#EB202C;stroke-width:3;stroke-miterlimit:10;}
	.st1{fill:#1E1E1E;}
	.st2{fill:#E93182;}
	.st3{fill:#F8B716;}
	.st4{fill:#0C6AB0;}
	.st5{fill:#44B549;}
	.st6{fill:#FFFFFF;}
	.st7{fill:#E8222F;}
	.st8{fill:#F07722;}
	.st9{fill:#24356D;}
	.st10{fill:#194784;}
	.st11{fill:#156CB1;}
</style>
<g>
	<path class="st0" d="M1036.3,516"/>
	<g>
		<path class="st1" d="M1118.1,533.1l7-15.5h2.2l7.1,15.5h-2.3l-6.3-14.3h0.9l-6.3,14.3H1118.1z M1121.1,529.2l0.6-1.7h8.7l0.6,1.7
			H1121.1z"/>
		<path class="st1" d="M1136.7,533.1v-15.5h1.8l7,11.8h-1l6.8-11.8h1.8v15.5h-2.1v-12.2h0.5l-6.1,10.2h-1l-6.2-10.2h0.6v12.2H1136.7
			z"/>
		<path class="st1" d="M1164.8,533.3c-1.2,0-2.3-0.2-3.3-0.6c-1-0.4-1.8-1-2.6-1.7c-0.7-0.7-1.3-1.6-1.7-2.5c-0.4-1-0.6-2-0.6-3.2
			s0.2-2.2,0.6-3.2s1-1.8,1.7-2.5s1.6-1.3,2.6-1.7s2.1-0.6,3.3-0.6s2.3,0.2,3.3,0.6c1,0.4,1.9,1,2.5,1.8l-1.4,1.4
			c-0.6-0.6-1.3-1.1-2-1.4c-0.7-0.3-1.5-0.5-2.4-0.5s-1.7,0.2-2.5,0.5c-0.7,0.3-1.4,0.7-1.9,1.3c-0.6,0.6-1,1.2-1.3,1.9
			s-0.5,1.5-0.5,2.4s0.2,1.7,0.5,2.4s0.7,1.4,1.3,1.9c0.6,0.6,1.2,1,1.9,1.3c0.7,0.3,1.6,0.5,2.5,0.5s1.7-0.2,2.4-0.5
			c0.7-0.3,1.4-0.8,2-1.4l1.4,1.4c-0.7,0.8-1.6,1.4-2.5,1.8C1167.2,533.3,1166,533.3,1164.8,533.3z"/>
	</g>
	<g>
		<path class="st1" d="M1127.9,594c-1.2,0-2.3-0.2-3.3-0.6c-1-0.4-1.8-1-2.6-1.7c-0.7-0.7-1.3-1.6-1.7-2.5c-0.4-1-0.6-2-0.6-3.2
			s0.2-2.2,0.6-3.2s1-1.8,1.7-2.5s1.6-1.3,2.6-1.7s2.1-0.6,3.3-0.6s2.3,0.2,3.3,0.6c1,0.4,1.9,1,2.5,1.8l-1.4,1.4
			c-0.6-0.6-1.3-1.1-2-1.4c-0.7-0.3-1.5-0.5-2.4-0.5s-1.7,0.2-2.5,0.5c-0.7,0.3-1.4,0.7-1.9,1.3c-0.6,0.6-1,1.2-1.3,1.9
			s-0.5,1.5-0.5,2.4s0.2,1.7,0.5,2.4s0.7,1.4,1.3,1.9c0.6,0.6,1.2,1,1.9,1.3c0.7,0.3,1.6,0.5,2.5,0.5s1.7-0.2,2.4-0.5
			c0.7-0.3,1.4-0.8,2-1.4l1.4,1.4c-0.7,0.8-1.6,1.4-2.5,1.8C1130.3,594,1129.1,594,1127.9,594z"/>
		<path class="st1" d="M1136.7,593.8v-16.4h2.1v16.4H1136.7z"/>
		<path class="st1" d="M1148,594c-1.2,0-2.2-0.2-3.2-0.8s-1.7-1.2-2.1-2.1c-0.6-0.9-0.8-1.9-0.8-3.1c0-1.2,0.2-2.2,0.8-3.1
			c0.6-0.9,1.3-1.6,2.1-2.1c1-0.5,2-0.8,3.2-0.8s2.2,0.2,3.1,0.8s1.7,1.2,2.1,2.1c0.6,0.9,0.8,1.9,0.8,3.1c0,1.2-0.2,2.2-0.8,3.1
			c-0.6,0.9-1.3,1.6-2.1,2.1C1150.1,593.7,1149.1,594,1148,594z M1148,592.1c0.7,0,1.4-0.2,2.1-0.5c0.6-0.3,1-0.8,1.4-1.4
			c0.3-0.6,0.5-1.4,0.5-2.1c0-0.9-0.2-1.6-0.5-2.1c-0.3-0.6-0.8-1.1-1.4-1.4c-0.6-0.3-1.3-0.5-2.1-0.5c-0.7,0-1.4,0.2-2,0.5
			s-1,0.8-1.4,1.4c-0.4,0.6-0.6,1.4-0.6,2.1s0.2,1.6,0.6,2.1c0.3,0.6,0.8,1.1,1.4,1.4C1146.5,591.9,1147.2,592.1,1148,592.1z"/>
		<path class="st1" d="M1161.9,594c-1,0-1.9-0.2-2.6-0.6c-0.8-0.4-1.4-1-1.7-1.7c-0.4-0.8-0.6-1.7-0.6-2.9V582h2.1v6.5
			c0,1.2,0.2,2,0.8,2.6c0.6,0.6,1.4,0.9,2.3,0.9c0.7,0,1.4-0.2,1.9-0.5c0.6-0.3,1-0.7,1.3-1.4c0.3-0.6,0.5-1.3,0.5-2.1v-6h2.1v11.8
			h-2v-3.2l0.3,0.9c-0.4,0.8-1,1.4-1.7,1.8C1163.8,593.7,1162.9,594,1161.9,594z"/>
		<path class="st1" d="M1176.8,594c-1.1,0-2.1-0.2-3-0.7s-1.6-1.2-2.1-2.1c-0.6-0.9-0.8-2-0.8-3.2s0.2-2.2,0.8-3.1
			c0.6-0.9,1.2-1.6,2.1-2.1s1.9-0.7,3-0.7c1,0,1.9,0.2,2.7,0.6c0.8,0.5,1.4,1.1,1.9,2s0.7,2,0.7,3.3s-0.2,2.5-0.7,3.3
			s-1.1,1.6-1.9,2C1178.8,593.7,1177.8,594,1176.8,594z M1177,592.1c0.7,0,1.4-0.2,2-0.5s1-0.8,1.4-1.4c0.3-0.6,0.6-1.4,0.6-2.1
			c0-0.9-0.2-1.6-0.6-2.1c-0.4-0.6-0.8-1.1-1.4-1.4c-0.6-0.3-1.3-0.5-2-0.5s-1.4,0.2-2,0.5s-1,0.8-1.4,1.4c-0.4,0.6-0.6,1.4-0.6,2.1
			s0.2,1.6,0.6,2.1c0.3,0.6,0.8,1.1,1.4,1.4S1176.3,592.1,1177,592.1z M1181,593.8v-3.2l0.2-2.7l-0.2-2.7v-7.8h2.1v16.4H1181
			L1181,593.8z"/>
	</g>
	<g>
		<path class="st1" d="M1121,657.9v-15.5h1.8l10.2,12.7h-1v-12.7h2.2v15.5h-1.8l-10.2-12.7h1v12.7H1121z"/>
		<path class="st1" d="M1146,658c-1.2,0-2.3-0.2-3.3-0.6c-1-0.4-1.9-1-2.6-1.7s-1.4-1.6-1.7-2.5c-0.4-1-0.6-2-0.6-3.2
			s0.2-2.2,0.6-3.2s1-1.8,1.7-2.5s1.6-1.3,2.6-1.7s2.1-0.6,3.3-0.6c1.2,0,2.3,0.2,3.3,0.6c1,0.4,1.9,1,2.6,1.7s1.4,1.6,1.7,2.5
			c0.4,1,0.6,2,0.6,3.2s-0.2,2.2-0.6,3.2s-1,1.8-1.7,2.5s-1.6,1.3-2.6,1.7C1148.3,657.8,1147.2,658,1146,658z M1146,656
			c0.9,0,1.7-0.2,2.4-0.5c0.7-0.3,1.4-0.7,1.9-1.3c0.6-0.6,1-1.2,1.3-1.9s0.5-1.5,0.5-2.4s-0.2-1.7-0.5-2.4s-0.7-1.4-1.3-1.9
			c-0.6-0.6-1.2-1-1.9-1.3s-1.5-0.5-2.4-0.5s-1.7,0.2-2.4,0.5c-0.7,0.3-1.4,0.7-1.9,1.3c-0.6,0.6-1,1.2-1.3,1.9s-0.5,1.5-0.5,2.4
			s0.2,1.7,0.5,2.4s0.7,1.4,1.3,1.9s1.2,1,1.9,1.3C1144.3,655.9,1145.1,656,1146,656z"/>
		<path class="st1" d="M1164.6,658c-1.2,0-2.3-0.2-3.3-0.6c-1-0.4-1.8-1-2.6-1.7c-0.7-0.7-1.3-1.6-1.7-2.5c-0.4-1-0.6-2-0.6-3.2
			s0.2-2.2,0.6-3.2s1-1.8,1.7-2.5s1.6-1.3,2.6-1.7s2.1-0.6,3.3-0.6s2.3,0.2,3.3,0.6c1,0.4,1.9,1,2.5,1.8l-1.4,1.4
			c-0.6-0.6-1.3-1.1-2-1.4c-0.7-0.3-1.5-0.5-2.4-0.5s-1.7,0.2-2.5,0.5c-0.7,0.3-1.4,0.7-1.9,1.3c-0.6,0.6-1,1.2-1.3,1.9
			s-0.5,1.5-0.5,2.4s0.2,1.7,0.5,2.4s0.7,1.4,1.3,1.9s1.2,1,1.9,1.3c0.7,0.3,1.6,0.5,2.5,0.5s1.7-0.2,2.4-0.5c0.7-0.3,1.4-0.8,2-1.4
			l1.4,1.4c-0.7,0.8-1.6,1.4-2.5,1.8C1167,658,1165.8,658,1164.6,658z"/>
		<path class="st1" d="M1186.5,658c-1.2,0-2.3-0.2-3.3-0.6c-1-0.4-1.8-1-2.6-1.7c-0.7-0.7-1.3-1.6-1.7-2.5c-0.4-1-0.6-2-0.6-3.2
			s0.2-2.2,0.6-3.2s1-1.8,1.7-2.5s1.6-1.3,2.6-1.7s2.1-0.6,3.3-0.6s2.3,0.2,3.3,0.6c1,0.4,1.9,1,2.5,1.8l-1.4,1.4
			c-0.6-0.6-1.3-1.1-2-1.4c-0.7-0.3-1.5-0.5-2.4-0.5s-1.7,0.2-2.5,0.5c-0.7,0.3-1.4,0.7-1.9,1.3c-0.6,0.6-1,1.2-1.3,1.9
			s-0.5,1.5-0.5,2.4s0.2,1.7,0.5,2.4s0.7,1.4,1.3,1.9c0.6,0.6,1.2,1,1.9,1.3c0.7,0.3,1.6,0.5,2.5,0.5s1.7-0.2,2.4-0.5
			c0.7-0.3,1.4-0.8,2-1.4l1.4,1.4c-0.7,0.8-1.6,1.4-2.5,1.8C1188.9,658,1187.8,658,1186.5,658z"/>
		<path class="st1" d="M1200.1,658c-1.3,0-2.4-0.2-3.3-0.8s-1.7-1.2-2.2-2.1c-0.6-1-0.8-1.9-0.8-3.1c0-1.2,0.2-2.2,0.8-3.1
			c0.6-0.9,1.2-1.6,2.1-2.1s1.9-0.8,3-0.8s2.1,0.2,3,0.7s1.6,1.2,2.1,2.1s0.7,2,0.7,3.2c0,0.1,0,0.2,0,0.3s0,0.2,0,0.3h-10V651h8.9
			l-0.9,0.6c0-0.7-0.2-1.4-0.5-2s-0.8-1-1.4-1.4c-0.6-0.3-1.2-0.5-2-0.5c-0.7,0-1.4,0.2-2,0.5s-1,0.8-1.4,1.4
			c-0.3,0.6-0.5,1.3-0.5,2.1v0.3c0,0.8,0.2,1.5,0.6,2.1s0.9,1.1,1.5,1.4c0.6,0.3,1.4,0.5,2.2,0.5c0.7,0,1.4-0.1,1.9-0.3
			c0.6-0.2,1-0.6,1.5-1l1.2,1.4c-0.6,0.6-1.2,1.1-2,1.4C1201.9,657.8,1201,658,1200.1,658z"/>
		<path class="st1" d="M1214.6,646c1,0,1.8,0.2,2.5,0.6c0.7,0.4,1.3,1,1.7,1.7c0.4,0.7,0.6,1.7,0.6,2.9v6.8h-2.1v-6.5
			c0-1.1-0.2-2-0.8-2.5c-0.6-0.6-1.4-0.9-2.3-0.9c-0.7,0-1.4,0.2-2,0.5s-1,0.7-1.3,1.3s-0.5,1.3-0.5,2.1v6h-2.1v-12h2.1v3.2
			l-0.3-0.9c0.4-0.8,1-1.4,1.7-1.8C1212.6,646.2,1213.6,646,1214.6,646z"/>
		<path class="st1" d="M1221.8,647.9v-1.7h7.5v1.7H1221.8z M1227.5,658c-1.2,0-2.1-0.3-2.8-1c-0.6-0.6-1-1.5-1-2.7v-10.8h2.1v10.6
			c0,0.6,0.2,1.1,0.5,1.4c0.3,0.3,0.8,0.5,1.4,0.5s1.2-0.2,1.7-0.6l0.6,1.5c-0.3,0.3-0.7,0.5-1.2,0.6
			C1228.4,657.9,1228,658,1227.5,658z"/>
		<path class="st1" d="M1237.5,658c-1.3,0-2.4-0.2-3.3-0.8s-1.7-1.2-2.2-2.1s-0.8-1.9-0.8-3.1c0-1.2,0.2-2.2,0.8-3.1
			c0.6-0.9,1.2-1.6,2.1-2.1s1.9-0.8,3-0.8s2.1,0.2,3,0.7s1.6,1.2,2.1,2.1s0.7,2,0.7,3.2c0,0.1,0,0.2,0,0.3s0,0.2,0,0.3h-10V651h8.9
			l-0.9,0.6c0-0.7-0.2-1.4-0.5-2s-0.8-1-1.4-1.4c-0.6-0.3-1.2-0.5-2-0.5c-0.7,0-1.4,0.2-2,0.5s-1,0.8-1.4,1.4
			c-0.3,0.6-0.5,1.3-0.5,2.1v0.3c0,0.8,0.2,1.5,0.6,2.1s0.9,1.1,1.5,1.4c0.6,0.3,1.4,0.5,2.2,0.5c0.7,0,1.4-0.1,1.9-0.3
			c0.6-0.2,1-0.6,1.5-1l1.2,1.4c-0.6,0.6-1.2,1.1-2,1.4C1239.3,657.8,1238.5,658,1237.5,658z"/>
		<path class="st1" d="M1245.8,657.9v-11.8h2.1v3.2l-0.2-0.8c0.3-0.8,0.9-1.4,1.7-1.8c0.8-0.4,1.7-0.6,2.9-0.6v2.1
			c-0.1,0-0.2,0-0.2,0h-0.2c-1.1,0-2.1,0.3-2.7,1s-1,1.7-1,2.9v5.9L1245.8,657.9L1245.8,657.9L1245.8,657.9z"/>
		<path class="st1" d="M1258.2,658c-1,0-1.9-0.2-2.8-0.4s-1.6-0.6-2.1-1l0.9-1.7c0.5,0.3,1.1,0.6,1.8,0.9s1.5,0.3,2.2,0.3
			c1,0,1.7-0.2,2.1-0.4c0.4-0.3,0.6-0.6,0.6-1.2c0-0.4-0.2-0.6-0.4-0.9s-0.6-0.4-1-0.5s-1-0.2-1.4-0.2c-0.6-0.1-1-0.2-1.6-0.3
			c-0.6-0.2-1-0.3-1.4-0.6c-0.5-0.2-0.8-0.6-1-1s-0.4-1-0.4-1.6c0-0.7,0.2-1.4,0.6-1.8c0.4-0.6,1-1,1.7-1.2c0.7-0.3,1.6-0.4,2.6-0.4
			c0.8,0,1.5,0.1,2.3,0.2c0.8,0.2,1.4,0.5,1.9,0.8l-0.9,1.7c-0.6-0.3-1.1-0.6-1.7-0.7c-0.6-0.2-1.2-0.2-1.7-0.2
			c-1,0-1.6,0.2-2.1,0.5s-0.7,0.7-0.7,1.2c0,0.4,0.2,0.7,0.4,1c0.2,0.2,0.6,0.4,1,0.5s1,0.2,1.4,0.3c0.6,0.1,1,0.2,1.6,0.3
			c0.6,0.2,1,0.3,1.4,0.6s0.8,0.6,1,1s0.4,1,0.4,1.6c0,0.7-0.2,1.4-0.6,1.8c-0.4,0.6-1,1-1.7,1.2
			C1260.2,657.8,1259.3,658,1258.2,658z"/>
	</g>
	<rect x="1036.3" y="637.2" class="st2" width="58.6" height="22.2"/>
	<g>
		<path class="st1" d="M1124.1,716.2l-5.2-15.5h2.3l4.8,14.3h-1.2l4.9-14.3h2.1l4.8,14.3h-1.1l4.8-14.3h2.1l-5.2,15.5h-2.3
			l-4.5-13.3h0.6l-4.5,13.3H1124.1z"/>
		<path class="st1" d="M1147.3,716.3c-0.9,0-1.7-0.2-2.3-0.5c-0.6-0.3-1.2-0.7-1.5-1.2s-0.6-1.1-0.6-1.7c0-0.6,0.2-1.2,0.5-1.7
			c0.3-0.6,0.8-1,1.5-1.3s1.6-0.5,2.8-0.5h3.7v1.5h-3.7c-1,0-1.7,0.2-2.1,0.6c-0.4,0.4-0.6,0.8-0.6,1.3c0,0.6,0.2,1,0.7,1.4
			s1.1,0.6,1.9,0.6s1.5-0.2,2.1-0.6c0.6-0.4,1-0.9,1.3-1.6l0.4,1.4c-0.3,0.7-0.8,1.3-1.5,1.7
			C1149.2,715.9,1148.4,716.3,1147.3,716.3z M1151.1,716.2v-2.5l-0.1-0.5V709c0-0.9-0.2-1.6-0.8-2.1c-0.6-0.5-1.4-0.7-2.4-0.7
			c-0.7,0-1.4,0.1-2.1,0.3c-0.6,0.2-1.2,0.6-1.7,1l-0.9-1.6c0.6-0.5,1.4-0.9,2.1-1.1c0.9-0.2,1.7-0.4,2.7-0.4c1.6,0,2.9,0.4,3.7,1.2
			c0.9,0.8,1.3,2,1.3,3.6v7.1L1151.1,716.2L1151.1,716.2z"/>
		<path class="st1" d="M1157.2,716.2v-11.8h2.1v3.2l-0.2-0.8c0.3-0.8,0.9-1.4,1.7-1.8c0.8-0.4,1.7-0.6,2.9-0.6v2.1
			c-0.1,0-0.2,0-0.2,0h-0.2c-1.1,0-2.1,0.3-2.7,1s-1,1.7-1,2.9v5.9L1157.2,716.2L1157.2,716.2L1157.2,716.2z"/>
		<path class="st1" d="M1166.1,716.2v-11.8h2.1v3.2l-0.2-0.8c0.3-0.8,0.9-1.4,1.7-1.8c0.8-0.4,1.7-0.6,2.9-0.6v2.1
			c-0.1,0-0.2,0-0.2,0h-0.2c-1.1,0-2.1,0.3-2.7,1s-1,1.7-1,2.9v5.9L1166.1,716.2L1166.1,716.2L1166.1,716.2z"/>
		<path class="st1" d="M1177.6,716.3c-0.9,0-1.7-0.2-2.3-0.5c-0.6-0.3-1.2-0.7-1.5-1.2s-0.6-1.1-0.6-1.7c0-0.6,0.2-1.2,0.5-1.7
			s0.8-1,1.5-1.3s1.6-0.5,2.8-0.5h3.7v1.5h-3.7c-1,0-1.7,0.2-2.1,0.6c-0.4,0.4-0.6,0.8-0.6,1.3c0,0.6,0.2,1,0.7,1.4s1.1,0.6,1.9,0.6
			s1.5-0.2,2.1-0.6c0.6-0.4,1-0.9,1.3-1.6l0.4,1.4c-0.3,0.7-0.8,1.3-1.5,1.7C1179.5,715.9,1178.6,716.3,1177.6,716.3z M1181.4,716.2
			v-2.5l-0.1-0.5V709c0-0.9-0.2-1.6-0.8-2.1s-1.4-0.7-2.4-0.7c-0.7,0-1.4,0.1-2.1,0.3c-0.6,0.2-1.2,0.6-1.7,1l-0.9-1.6
			c0.6-0.5,1.4-0.9,2.1-1.1c0.9-0.2,1.7-0.4,2.7-0.4c1.6,0,2.9,0.4,3.7,1.2s1.3,2,1.3,3.6v7.1L1181.4,716.2L1181.4,716.2z"/>
		<path class="st1" d="M1193.7,704.3c1,0,1.8,0.2,2.5,0.6c0.7,0.4,1.3,1,1.7,1.7c0.4,0.7,0.6,1.7,0.6,2.9v6.8h-2.1v-6.5
			c0-1.1-0.2-2-0.8-2.5c-0.6-0.6-1.4-0.9-2.3-0.9c-0.7,0-1.4,0.2-2,0.5s-1,0.7-1.3,1.3s-0.5,1.3-0.5,2.1v6h-2.1v-11.8h2.1v3.2
			l-0.3-0.9c0.4-0.8,1-1.4,1.7-1.8C1191.7,704.5,1192.6,704.3,1193.7,704.3z"/>
		<path class="st1" d="M1200.8,706.2v-1.7h7.5v1.7H1200.8z M1206.5,716.3c-1.2,0-2.1-0.3-2.8-1c-0.6-0.6-1-1.5-1-2.7v-10.8h2.1v10.7
			c0,0.6,0.2,1.1,0.5,1.4c0.3,0.3,0.8,0.5,1.4,0.5s1.2-0.2,1.7-0.6l0.6,1.5c-0.3,0.3-0.7,0.5-1.2,0.6
			C1207.5,716.2,1207,716.3,1206.5,716.3z"/>
		<path class="st1" d="M1211.9,720.5c-0.6,0-1.1-0.1-1.7-0.2c-0.6-0.2-1-0.5-1.4-0.8l0.9-1.6c0.3,0.3,0.6,0.5,1,0.6
			c0.3,0.2,0.7,0.2,1.1,0.2c0.6,0,1-0.2,1.3-0.4s0.6-0.7,1-1.4l0.7-1.6l0.2-0.2l4.6-10.6h2.1l-5.7,13c-0.3,0.8-0.7,1.5-1.1,2
			s-0.9,0.8-1.4,1S1212.6,720.5,1211.9,720.5z M1214.7,716.5l-5.4-12.2h2.2l4.5,10.5L1214.7,716.5z"/>
	</g>
	<rect x="1036.3" y="696.5" class="st3" width="58.6" height="22.2"/>
	<rect x="1036.3" y="515.2" class="st4" width="58.6" height="22.2"/>
	<rect x="1036.3" y="576.2" class="st5" width="58.6" height="22.2"/>
</g>
<g>
	<path class="st4" d="M377.7,375.9L474.9,22C279.5-31.7,77.6,83.2,23.9,278.7C2.4,356.8,5.7,429.3,34.3,505.2L377.7,375.9z"/>
	<g>
		<path class="st6" d="M167.4,228.7c6.3,0.5,10.7,4.2,10.7,10.1c0,7.1-5.3,12-13.8,12c-4.6,0-9.5-1.6-12.7-4.1l2.7-5.2
			c2.7,2.5,6.2,4,9.6,4c5,0,7.9-2.6,7.9-6.5c0-4.1-3-6.2-8-6.2h-5.2v-3.7l9.8-10.6h-15.1v-5.7h23v4l-10.8,11.7L167.4,228.7z"/>
		<path class="st6" d="M190.5,218.5v8.2l5.2-0.1c8.2,0,13.5,4.8,13.5,11.5c0,7.7-5.5,12.6-14,12.6c-4.5,0-9.7-1.7-13.4-4.3l2.5-5.2
			c3,2.5,6.8,4,10.2,4c4.9,0,7.9-2.5,7.9-6.8c0-3.9-3-6.2-7.8-6.2c-2.2,0-7.4,0.3-9.9,0.5v-20h23l0.1,5.8H190.5L190.5,218.5
			L190.5,218.5z"/>
		<path class="st6" d="M233.6,223.9c0,7.1-3.8,11.4-10,11.4s-10-4.3-10-11.4s3.8-11.3,10-11.3C229.8,212.7,233.6,216.9,233.6,223.9z
			 M217.8,223.9c0,4.8,2.1,7.7,5.8,7.7s5.8-2.8,5.8-7.7c0-4.8-2.2-7.6-5.8-7.6C219.9,216.3,217.8,219.1,217.8,223.9z M248.6,212.8
			h5.9l-27.8,37.8h-6L248.6,212.8z M262,239.4c0,7.1-3.8,11.3-10,11.3c-6.2,0-10-4.2-10-11.3s3.8-11.3,10-11.3
			C258.2,228.2,262,232.4,262,239.4z M246.3,239.4c0,4.8,2.1,7.6,5.8,7.6s5.8-2.8,5.8-7.6s-2.2-7.6-5.8-7.6
			C248.3,231.8,246.3,234.6,246.3,239.4z"/>
	</g>
	<g>
		<path class="st6" d="M149.9,284.2l7.5-16.8h3.9l7.5,16.8h-4l-6.1-14.8h1.5l-6.2,14.8H149.9z M153.7,280.6l1-2.9h8.6l1,2.9H153.7z"
			/>
		<path class="st6" d="M170.5,284.2v-16.8h3.2l7.1,11.9h-1.7l7.1-11.9h3.2l0.1,16.8h-3.6V273h0.7l-5.6,9.5h-1.7l-5.8-9.5h0.8v11.2
			H170.5z"/>
		<path class="st6" d="M201.5,284.5c-1.3,0-2.5-0.2-3.6-0.6s-2.1-1-2.9-1.8c-0.8-0.8-1.5-1.7-1.9-2.8c-0.4-1-0.7-2.2-0.7-3.4
			c0-1.3,0.3-2.4,0.7-3.4s1.1-2,1.9-2.8c0.9-0.8,1.8-1.4,2.9-1.8c1.1-0.4,2.3-0.6,3.6-0.6c1.5,0,2.8,0.3,4,0.8s2.2,1.2,2.9,2.2
			l-2.5,2.3c-0.6-0.7-1.2-1.1-1.9-1.5c-0.7-0.3-1.5-0.5-2.3-0.5s-1.5,0.1-2.2,0.3c-0.7,0.3-1.2,0.6-1.7,1.1s-0.9,1-1.1,1.7
			c-0.3,0.7-0.4,1.4-0.4,2.2s0.2,1.5,0.4,2.2c0.3,0.7,0.6,1.2,1.1,1.7s1,0.9,1.7,1.1c0.7,0.3,1.4,0.3,2.2,0.3c0.9,0,1.6-0.2,2.3-0.5
			s1.4-0.9,1.9-1.5l2.5,2.3c-0.8,0.9-1.8,1.7-2.9,2.2C204.3,284.3,202.9,284.5,201.5,284.5z"/>
	</g>
</g>
<g>
	<path class="st3" d="M377.7,375.9L34.3,505.2C105.7,694.9,317.4,790.7,507,719.3c37.9-14.3,68.1-31.5,99.8-56.8L377.7,375.9z"/>
	<g>
		<g>
			<path class="st6" d="M280,568.7c6.3,0.5,10.7,4.2,10.7,10.1c0,7.1-5.3,12-13.8,12c-4.6,0-9.5-1.6-12.7-4.1l2.7-5.2
				c2.7,2.5,6.2,4,9.6,4c5,0,7.9-2.6,7.9-6.5c0-4.1-3-6.2-8-6.2h-5.2v-3.7l9.8-10.6h-15.1v-5.7H289v4l-11,11.8L280,568.7z"/>
			<path class="st6" d="M327.7,571.8c0,12.2-5.8,19.1-16,19.1c-10.3,0-16.1-6.8-16.1-19.1s5.8-19.1,16.1-19.1
				C321.9,552.7,327.7,559.5,327.7,571.8z M302.2,571.8c0,9.5,3.2,14,9.5,14s9.5-4.5,9.5-14c0-9.6-3.2-14-9.5-14
				C305.3,557.7,302.2,562.1,302.2,571.8z"/>
			<path class="st6" d="M352.3,563.9c0,7.1-3.8,11.4-10,11.4s-10-4.3-10-11.4s3.8-11.3,10-11.3C348.5,552.8,352.3,557,352.3,563.9z
				 M336.5,563.9c0,4.8,2.1,7.7,5.8,7.7c3.7,0,5.8-2.8,5.8-7.7s-2.2-7.6-5.8-7.6S336.5,559.1,336.5,563.9z M367.3,552.8h5.9
				l-27.8,37.8h-6L367.3,552.8z M380.8,579.4c0,7.1-3.8,11.3-10,11.3s-10-4.2-10-11.3s3.8-11.3,10-11.3
				C377,568.2,380.8,572.4,380.8,579.4z M365,579.4c0,4.8,2.1,7.6,5.8,7.6c3.7,0,5.8-2.8,5.8-7.6s-2.2-7.6-5.8-7.6
				C367,571.8,365,574.6,365,579.4z"/>
		</g>
	</g>
	<g>
		<path class="st6" d="M268.8,616.7l-5.5-16.8h4l4.8,14.9h-2l5-14.9h3.6l4.8,14.9h-2l4.9-14.9h3.7l-5.5,16.8h-4.2l-4.2-13.1h1.1
			l-4.4,13.1H268.8z"/>
		<path class="st6" d="M295,616.9c-1,0-1.9-0.2-2.6-0.5s-1.3-0.8-1.6-1.4c-0.3-0.6-0.6-1.3-0.6-2c0-0.8,0.2-1.5,0.6-2
			c0.3-0.6,0.9-1,1.8-1.4c0.8-0.3,1.9-0.5,3.2-0.5h3.4v2.2h-3c-0.9,0-1.5,0.2-1.8,0.4c-0.3,0.3-0.5,0.7-0.5,1.1
			c0,0.5,0.2,0.9,0.6,1.1c0.3,0.3,0.9,0.4,1.5,0.4s1.2-0.2,1.7-0.4c0.5-0.3,0.9-0.8,1.1-1.3l0.6,1.7c-0.3,0.9-0.8,1.5-1.5,1.9
			C297.1,616.7,296.1,616.9,295,616.9z M299,616.7v-2.5l-0.3-0.5v-4.6c0-0.8-0.3-1.5-0.8-1.9s-1.2-0.7-2.2-0.7
			c-0.7,0-1.4,0.1-2.1,0.3s-1.2,0.5-1.7,0.9l-1.4-2.6c0.7-0.5,1.5-0.9,2.6-1.1c1-0.3,2-0.4,3-0.4c2,0,3.5,0.4,4.6,1.4
			c1.1,0.9,1.6,2.4,1.6,4.3v7.4L299,616.7L299,616.7z"/>
		<path class="st6" d="M305.9,616.7v-12.9h3.6v3.6l-0.5-1c0.3-0.9,1-1.6,1.8-2.1c0.9-0.4,1.9-0.7,3.1-0.7v3.4c-0.2,0-0.3,0-0.4,0
			s-0.3,0-0.4,0c-1,0-1.9,0.3-2.5,0.9s-0.9,1.5-0.9,2.8v6.1L305.9,616.7L305.9,616.7z"/>
		<path class="st6" d="M316.1,616.7v-12.9h3.6v3.6l-0.5-1c0.3-0.9,1-1.6,1.8-2.1c0.9-0.4,1.9-0.7,3.1-0.7v3.4c-0.2,0-0.3,0-0.4,0
			s-0.3,0-0.4,0c-1,0-1.9,0.3-2.5,0.9c-0.6,0.6-0.9,1.5-0.9,2.8v6.1L316.1,616.7L316.1,616.7z"/>
		<path class="st6" d="M329.5,616.9c-1,0-1.9-0.2-2.6-0.5s-1.3-0.8-1.6-1.4c-0.3-0.6-0.6-1.3-0.6-2c0-0.8,0.2-1.5,0.6-2
			c0.3-0.6,0.9-1,1.8-1.4c0.8-0.3,1.9-0.5,3.2-0.5h3.4v2.2h-3c-0.9,0-1.5,0.2-1.8,0.4c-0.3,0.3-0.5,0.7-0.5,1.1
			c0,0.5,0.2,0.9,0.6,1.1c0.3,0.3,0.9,0.4,1.5,0.4s1.2-0.2,1.7-0.4c0.5-0.3,0.9-0.8,1.1-1.3l0.6,1.7c-0.3,0.9-0.8,1.5-1.5,1.9
			C331.5,616.7,330.6,616.9,329.5,616.9z M333.4,616.7v-2.5l-0.3-0.5v-4.6c0-0.8-0.3-1.5-0.8-1.9s-1.2-0.7-2.2-0.7
			c-0.7,0-1.4,0.1-2.1,0.3c-0.7,0.3-1.2,0.5-1.7,0.9l-1.4-2.6c0.7-0.5,1.5-0.9,2.6-1.1c1-0.3,2-0.4,3-0.4c2,0,3.5,0.4,4.6,1.4
			c1.1,0.9,1.6,2.4,1.6,4.3v7.4L333.4,616.7L333.4,616.7z"/>
		<path class="st6" d="M348.2,603.7c1,0,2,0.2,2.8,0.6c0.8,0.4,1.5,1,1.9,1.9s0.7,1.9,0.7,3.3v7.4h-3.8V610c0-1-0.3-1.8-0.7-2.3
			c-0.4-0.5-1.1-0.8-1.9-0.8c-0.6,0-1.1,0.1-1.6,0.3c-0.4,0.3-0.9,0.6-1.1,1.1s-0.4,1.2-0.4,2v6.4h-3.8v-12.9h3.6v3.6l-0.7-1.1
			c0.4-0.9,1.1-1.5,2-2C346,603.9,347.1,603.7,348.2,603.7z"/>
		<path class="st6" d="M355.3,607v-2.8h8.9v2.8H355.3z M362.1,616.9c-1.5,0-2.7-0.4-3.5-1.2c-0.9-0.8-1.3-1.9-1.3-3.4v-11.4h3.8
			v11.3c0,0.5,0.2,0.9,0.4,1.3c0.3,0.3,0.7,0.4,1.2,0.4c0.6,0,1.1-0.2,1.5-0.5l1,2.7c-0.3,0.3-0.9,0.5-1.4,0.6
			C363.3,616.9,362.7,616.9,362.1,616.9z"/>
		<path class="st6" d="M368.7,621.6c-0.7,0-1.4-0.1-2-0.3c-0.7-0.2-1.2-0.5-1.6-0.9l1.4-2.7c0.3,0.3,0.6,0.4,1,0.6
			c0.3,0.2,0.8,0.3,1.1,0.3c0.5,0,0.9-0.1,1.3-0.3c0.3-0.3,0.6-0.7,0.9-1.2l0.7-1.5l0.3-0.4l4.6-11.1h3.6l-5.8,13.7
			c-0.4,1-0.9,1.9-1.5,2.4c-0.5,0.6-1.1,1-1.8,1.3C370.2,621.5,369.5,621.6,368.7,621.6z M370.9,617.3l-5.8-13.4h3.9l4.5,10.8
			L370.9,617.3z"/>
	</g>
</g>
<g>
	<path class="st2" d="M377.7,375.9l229.1,286.6c95-75.9,143-182,137.4-303.5L377.7,375.9z"/>
	<g>
		<g>
			<path class="st6" d="M538.2,464.7v-32.1h-7.4v-5.7h13.8v37.8L538.2,464.7L538.2,464.7z"/>
			<path class="st6" d="M561.1,432.6v8.2l5.2-0.1c8.2,0,13.5,4.8,13.5,11.5c0,7.7-5.5,12.6-14,12.6c-4.5,0-9.7-1.7-13.4-4.3l2.5-5.2
				c3,2.6,6.8,4,10.2,4c4.9,0,7.9-2.6,7.9-6.8c0-3.9-3-6.2-7.8-6.2c-2.2,0-7.4,0.3-9.9,0.5v-20h23l0.1,5.8H561.1L561.1,432.6z"/>
			<path class="st6" d="M604.1,438c0,7.1-3.8,11.4-10,11.4s-10-4.3-10-11.4s3.8-11.3,10-11.3S604.1,430.9,604.1,438z M588.3,438
				c0,4.8,2.1,7.7,5.8,7.7s5.8-2.8,5.8-7.7c0-4.8-2.2-7.6-5.8-7.6S588.3,433.2,588.3,438z M619.1,426.8h5.9l-27.8,37.8h-6
				L619.1,426.8z M632.6,453.5c0,7.1-3.8,11.3-10,11.3s-10-4.2-10-11.3s3.8-11.3,10-11.3S632.6,446.4,632.6,453.5z M616.8,453.5
				c0,4.8,2.1,7.6,5.8,7.6s5.8-2.8,5.8-7.6c0-4.8-2.2-7.6-5.8-7.6C618.8,445.8,616.8,448.7,616.8,453.5z"/>
		</g>
	</g>
	<g>
		<path class="st6" d="M530.8,495.3v-16.8h3.2l9.9,12.1h-1.5v-12.1h3.9v16.8h-3.2l-9.9-12.1h1.5v12.1H530.8z"/>
		<path class="st6" d="M558.5,495.5c-1.3,0-2.6-0.3-3.7-0.7c-1.1-0.4-2.1-1-2.9-1.8c-0.9-0.8-1.5-1.7-1.9-2.8
			c-0.4-1-0.7-2.2-0.7-3.4c0-1.3,0.3-2.4,0.7-3.4s1.1-2,1.9-2.8c0.9-0.8,1.8-1.4,2.9-1.8c1.1-0.4,2.3-0.7,3.6-0.7s2.6,0.3,3.7,0.7
			s2.1,1,2.9,1.8c0.9,0.8,1.5,1.7,1.9,2.8c0.4,1,0.7,2.2,0.7,3.4c0,1.3-0.3,2.4-0.7,3.4s-1.1,2-1.9,2.8c-0.9,0.8-1.8,1.4-2.9,1.8
			C560.9,495.4,559.7,495.5,558.5,495.5z M558.4,492.3c0.8,0,1.5-0.1,2.1-0.3c0.6-0.3,1.2-0.6,1.6-1.1c0.5-0.5,0.9-1,1.1-1.7
			c0.3-0.7,0.4-1.4,0.4-2.2c0-0.8-0.2-1.5-0.4-2.2c-0.3-0.7-0.6-1.2-1.1-1.7c-0.4-0.5-1-0.9-1.6-1.1c-0.6-0.3-1.4-0.3-2.1-0.3
			c-0.8,0-1.5,0.1-2.1,0.3c-0.6,0.3-1.2,0.6-1.6,1.1c-0.5,0.5-0.9,1-1.1,1.7c-0.3,0.7-0.4,1.4-0.4,2.2c0,0.8,0.2,1.5,0.4,2.2
			c0.3,0.7,0.6,1.2,1.1,1.7c0.4,0.5,1,0.9,1.6,1.1C557,492.1,557.7,492.3,558.4,492.3z"/>
		<path class="st6" d="M578.6,495.5c-1.3,0-2.5-0.2-3.6-0.6s-2.1-1-2.9-1.8c-0.8-0.8-1.5-1.7-1.9-2.8s-0.7-2.2-0.7-3.4
			s0.3-2.4,0.7-3.4s1.1-2,1.9-2.8c0.9-0.8,1.8-1.4,2.9-1.8c1.1-0.4,2.3-0.6,3.6-0.6c1.5,0,2.8,0.3,4,0.8s2.2,1.2,2.9,2.2l-2.5,2.3
			c-0.6-0.7-1.2-1.1-1.9-1.5c-0.7-0.3-1.5-0.5-2.3-0.5s-1.5,0.1-2.2,0.3c-0.7,0.3-1.2,0.6-1.7,1.1s-0.9,1-1.1,1.7
			c-0.3,0.7-0.4,1.4-0.4,2.2c0,0.8,0.2,1.5,0.4,2.2c0.3,0.7,0.6,1.2,1.1,1.7s1,0.9,1.7,1.1c0.7,0.3,1.4,0.3,2.2,0.3
			c0.9,0,1.6-0.2,2.3-0.5s1.4-0.9,1.9-1.5l2.5,2.3c-0.8,0.9-1.8,1.7-2.9,2.2C581.4,495.5,580,495.5,578.6,495.5z"/>
		<path class="st6" d="M602.9,495.5c-1.3,0-2.5-0.2-3.6-0.6s-2.1-1-2.9-1.8c-0.8-0.8-1.5-1.7-1.9-2.8c-0.4-1-0.7-2.2-0.7-3.4
			s0.3-2.4,0.7-3.4s1.1-2,1.9-2.8c0.9-0.8,1.8-1.4,2.9-1.8s2.3-0.6,3.6-0.6c1.5,0,2.8,0.3,4,0.8s2.2,1.2,2.9,2.2l-2.5,2.3
			c-0.6-0.7-1.2-1.1-1.9-1.5c-0.7-0.3-1.5-0.5-2.3-0.5s-1.5,0.1-2.2,0.3c-0.7,0.3-1.2,0.6-1.7,1.1s-0.9,1-1.1,1.7
			c-0.3,0.7-0.4,1.4-0.4,2.2c0,0.8,0.2,1.5,0.4,2.2c0.3,0.7,0.6,1.2,1.1,1.7s1,0.9,1.7,1.1c0.7,0.3,1.4,0.3,2.2,0.3
			c0.9,0,1.6-0.2,2.3-0.5s1.4-0.9,1.9-1.5l2.5,2.3c-0.8,0.9-1.8,1.7-2.9,2.2C605.8,495.5,604.4,495.5,602.9,495.5z"/>
		<path class="st6" d="M618.1,495.5c-1.5,0-2.8-0.3-3.9-0.9c-1.1-0.6-2-1.4-2.6-2.3c-0.6-1-0.9-2.2-0.9-3.4c0-1.3,0.3-2.4,0.9-3.4
			s1.4-1.8,2.5-2.3c1-0.6,2.2-0.9,3.5-0.9s2.4,0.3,3.4,0.8s1.8,1.3,2.4,2.3c0.6,1,0.9,2.2,0.9,3.6c0,0.2,0,0.3,0,0.5s0,0.3-0.1,0.5
			h-10.5v-2.2h8.5l-1.5,0.7c0-0.7-0.2-1.3-0.4-1.7c-0.3-0.4-0.7-0.9-1.1-1.2c-0.5-0.3-1-0.4-1.7-0.4s-1.2,0.2-1.7,0.4
			s-0.9,0.7-1.1,1.2c-0.3,0.5-0.4,1.1-0.4,1.8v0.6c0,0.7,0.2,1.3,0.4,1.9c0.3,0.5,0.8,0.9,1.3,1.2s1.2,0.4,2,0.4
			c0.7,0,1.3-0.1,1.8-0.3c0.5-0.2,1-0.5,1.5-0.9l2,2.2c-0.6,0.7-1.4,1.2-2.2,1.5C620.4,495.3,619.3,495.5,618.1,495.5z"/>
		<path class="st6" d="M634.7,482.2c1,0,2,0.2,2.8,0.6s1.5,1,1.9,1.9s0.7,1.9,0.7,3.3v7.4h-3.8v-6.8c0-1-0.3-1.8-0.7-2.3
			s-1.1-0.8-1.9-0.8c-0.6,0-1.1,0.1-1.6,0.3c-0.4,0.3-0.9,0.6-1.1,1.1c-0.3,0.5-0.4,1.2-0.4,2v6.4h-3.8v-12.9h3.6v3.6l-0.7-1.1
			c0.4-0.9,1.1-1.5,2-2C632.7,482.4,633.6,482.2,634.7,482.2z"/>
		<path class="st6" d="M642,485.6v-2.8h8.9v2.8H642z M648.8,495.5c-1.5,0-2.7-0.4-3.5-1.2c-0.9-0.8-1.3-1.9-1.3-3.4v-11.3h3.8v11.3
			c0,0.5,0.2,0.9,0.4,1.3c0.3,0.3,0.7,0.4,1.2,0.4c0.6,0,1.1-0.2,1.5-0.5l1,2.7c-0.3,0.3-0.9,0.5-1.4,0.6
			C649.9,495.4,649.4,495.5,648.8,495.5z"/>
		<path class="st6" d="M659.9,495.5c-1.5,0-2.8-0.3-3.9-0.9c-1.1-0.6-2-1.4-2.6-2.3c-0.6-1-0.9-2.2-0.9-3.4c0-1.3,0.3-2.4,0.9-3.4
			s1.4-1.8,2.5-2.3c1-0.6,2.2-0.9,3.5-0.9s2.4,0.3,3.4,0.8s1.8,1.3,2.4,2.3c0.6,1,0.9,2.2,0.9,3.6c0,0.2,0,0.3,0,0.5s0,0.3-0.1,0.5
			h-10.5v-2.2h8.5l-1.5,0.7c0-0.7-0.2-1.3-0.4-1.7c-0.3-0.4-0.7-0.9-1.1-1.2c-0.5-0.3-1-0.4-1.7-0.4s-1.2,0.2-1.7,0.4
			s-0.9,0.7-1.1,1.2c-0.3,0.5-0.4,1.1-0.4,1.8v0.6c0,0.7,0.2,1.3,0.4,1.9c0.3,0.5,0.8,0.9,1.3,1.2s1.2,0.4,2,0.4
			c0.7,0,1.3-0.1,1.8-0.3c0.5-0.2,1-0.5,1.5-0.9l2,2.2c-0.6,0.7-1.4,1.2-2.2,1.5C662.1,495.3,661.1,495.5,659.9,495.5z"/>
		<path class="st6" d="M668.6,495.3v-12.9h3.6v3.6l-0.5-1c0.3-0.9,1-1.6,1.8-2.1c0.9-0.4,1.9-0.7,3.1-0.7v3.4c-0.2,0-0.3,0-0.4,0
			s-0.3,0-0.4,0c-1,0-1.9,0.3-2.5,0.9s-0.9,1.5-0.9,2.8v6.1L668.6,495.3L668.6,495.3z"/>
		<path class="st6" d="M683.3,495.5c-1.1,0-2.2-0.2-3.2-0.4c-1-0.3-1.8-0.6-2.4-1l1.3-2.7c0.6,0.3,1.3,0.7,2.1,0.9
			c0.8,0.3,1.6,0.3,2.4,0.3c0.9,0,1.5-0.1,1.8-0.3c0.3-0.2,0.5-0.5,0.5-0.9c0-0.3-0.2-0.5-0.4-0.7c-0.3-0.2-0.7-0.3-1.1-0.3
			c-0.4-0.1-0.9-0.2-1.5-0.3c-0.5-0.1-1.1-0.2-1.6-0.3c-0.6-0.2-1-0.3-1.5-0.6c-0.4-0.3-0.9-0.6-1.1-1.1c-0.3-0.4-0.4-1-0.4-1.8
			s0.3-1.5,0.7-2.2c0.4-0.6,1.1-1.1,2.1-1.5c0.9-0.3,2-0.5,3.2-0.5c0.9,0,1.8,0.1,2.7,0.3c0.9,0.2,1.6,0.4,2.2,0.9l-1.3,2.7
			c-0.6-0.3-1.3-0.6-1.9-0.8c-0.6-0.2-1.2-0.2-1.8-0.2c-0.9,0-1.5,0.1-1.8,0.3c-0.3,0.3-0.6,0.5-0.6,0.9c0,0.3,0.2,0.6,0.4,0.7
			c0.3,0.1,0.7,0.3,1.1,0.3c0.4,0.1,0.9,0.2,1.5,0.3c0.5,0.1,1.1,0.2,1.6,0.3c0.6,0.2,1,0.3,1.5,0.6c0.4,0.3,0.9,0.6,1.1,1.1
			c0.3,0.4,0.4,1,0.4,1.8s-0.3,1.5-0.7,2.2c-0.5,0.6-1.2,1.1-2.1,1.5C685.8,495.3,684.6,495.5,683.3,495.5z"/>
	</g>
</g>
<g>
	<path class="st5" d="M377.7,375.9L744.3,359C736.8,197,631.3,65,475,22L377.7,375.9z"/>
	<g>
		<g>
			<path class="st6" d="M530.6,211.5c0,3.9-2.9,8.1-6.9,12.4l-9.8,10.4h18.5v5.8h-26.9v-4.6l13.9-15c2.8-2.8,4.6-5.8,4.6-8.1
				c0-3-2.4-4.8-6.3-4.8c-3.3,0-7.1,1.8-10.3,4.7l-2.5-4.9c4.1-3.4,8.9-5.4,13.8-5.4C525.7,202,530.6,205.7,530.6,211.5z"/>
			<path class="st6" d="M569.5,221.1c0,12.2-5.8,19.1-16,19.1c-10.3,0-16.1-6.8-16.1-19.1s5.8-19.1,16.1-19.1
				C563.7,202.1,569.5,208.9,569.5,221.1z M543.9,221.1c0,9.5,3.2,14,9.5,14s9.5-4.5,9.5-14c0-9.6-3.2-14-9.5-14
				C547.1,207.1,543.9,211.5,543.9,221.1z"/>
			<path class="st6" d="M594.1,213.4c0,7.1-3.8,11.4-10,11.4s-10-4.3-10-11.4s3.8-11.3,10-11.3C590.3,202.1,594.1,206.3,594.1,213.4
				z M578.2,213.4c0,4.8,2.1,7.7,5.8,7.7s5.8-2.8,5.8-7.7s-2.2-7.6-5.8-7.6S578.2,208.6,578.2,213.4z M609,202.2h5.9L587.2,240h-6
				L609,202.2z M622.5,228.9c0,7.1-3.8,11.3-10,11.3s-10-4.2-10-11.3s3.8-11.3,10-11.3S622.5,221.8,622.5,228.9z M606.7,228.9
				c0,4.8,2.1,7.6,5.8,7.6s5.8-2.8,5.8-7.6s-2.2-7.6-5.8-7.6C608.8,221.2,606.7,224.1,606.7,228.9z"/>
		</g>
	</g>
	<g>
		<g>
			<path class="st6" d="M514.2,271.7c-1.3,0-2.5-0.2-3.6-0.6s-2.1-1-2.9-1.8s-1.5-1.7-1.9-2.8c-0.4-1-0.7-2.2-0.7-3.4
				c0-1.3,0.3-2.4,0.7-3.4c0.4-1,1.1-2,1.9-2.8c0.9-0.8,1.8-1.4,2.9-1.8c1.1-0.4,2.3-0.6,3.6-0.6c1.5,0,2.8,0.3,4,0.8
				s2.2,1.2,2.9,2.2l-2.5,2.3c-0.6-0.7-1.2-1.1-1.9-1.5c-0.7-0.3-1.5-0.5-2.3-0.5s-1.5,0.1-2.2,0.3c-0.7,0.3-1.2,0.6-1.7,1.1
				s-0.9,1-1.1,1.7s-0.4,1.4-0.4,2.2s0.2,1.5,0.4,2.2c0.3,0.7,0.6,1.2,1.1,1.7s1,0.9,1.7,1.1c0.7,0.3,1.4,0.3,2.2,0.3
				c0.9,0,1.6-0.2,2.3-0.5s1.4-0.9,1.9-1.5l2.5,2.3c-0.8,0.9-1.8,1.7-2.9,2.2C517,271.4,515.7,271.7,514.2,271.7z"/>
			<path class="st6" d="M523.5,271.4v-17.8h3.8v17.8H523.5z"/>
			<path class="st6" d="M536.9,271.6c-1.4,0-2.6-0.3-3.7-0.9c-1-0.6-1.9-1.4-2.5-2.3c-0.6-1-0.9-2.2-0.9-3.4c0-1.3,0.3-2.4,0.9-3.4
				c0.6-1,1.5-1.8,2.5-2.3c1-0.6,2.3-0.9,3.7-0.9s2.6,0.3,3.6,0.9s1.9,1.4,2.5,2.3c0.6,1,0.9,2.2,0.9,3.4c0,1.3-0.3,2.4-0.9,3.4
				c-0.6,1-1.5,1.8-2.5,2.3C539.4,271.4,538.2,271.6,536.9,271.6z M536.9,268.6c0.6,0,1.2-0.2,1.7-0.4s0.9-0.7,1.2-1.2
				s0.4-1.2,0.4-1.9c0-0.8-0.2-1.4-0.4-1.9c-0.3-0.5-0.7-0.9-1.2-1.2c-0.5-0.3-1-0.4-1.7-0.4s-1.2,0.2-1.7,0.4s-0.9,0.7-1.2,1.2
				s-0.4,1.2-0.4,1.9c0,0.8,0.2,1.4,0.4,1.9c0.3,0.5,0.7,0.9,1.2,1.2C535.7,268.4,536.3,268.6,536.9,268.6z"/>
			<path class="st6" d="M551.9,271.6c-1,0-2.1-0.2-2.8-0.6c-0.9-0.4-1.5-1-2-1.9c-0.4-0.9-0.7-2-0.7-3.3v-7.3h3.8v6.7
				c0,1,0.3,1.9,0.7,2.3c0.4,0.5,1.1,0.8,1.9,0.8c0.6,0,1.1-0.1,1.5-0.3s0.8-0.6,1-1.1c0.3-0.5,0.3-1.2,0.3-2v-6.4h3.8v12.9H556
				v-3.5l0.7,1c-0.4,0.9-1,1.5-1.9,2.1S552.9,271.6,551.9,271.6z"/>
			<path class="st6" d="M568.4,271.6c-1.2,0-2.3-0.3-3.3-0.9c-0.9-0.6-1.7-1.3-2.3-2.3s-0.9-2.2-0.9-3.5s0.3-2.5,0.9-3.5
				c0.6-1,1.4-1.7,2.3-2.3c0.9-0.5,2.1-0.8,3.3-0.8c1.1,0,2.1,0.3,2.8,0.7c0.8,0.5,1.5,1.2,1.9,2.2s0.7,2.2,0.7,3.8
				c0,1.5-0.3,2.8-0.7,3.7c-0.4,0.9-1,1.7-1.9,2.2C570.6,271.4,569.6,271.6,568.4,271.6z M569.1,268.6c0.6,0,1.1-0.2,1.6-0.4
				s0.9-0.7,1.2-1.2s0.4-1.2,0.4-1.9c0-0.8-0.2-1.4-0.4-1.9c-0.3-0.5-0.7-0.9-1.2-1.2c-0.5-0.3-1-0.4-1.6-0.4s-1.2,0.2-1.7,0.4
				c-0.5,0.3-0.9,0.7-1.2,1.2s-0.4,1.2-0.4,1.9c0,0.8,0.2,1.4,0.4,1.9c0.3,0.5,0.7,0.9,1.2,1.2C567.9,268.4,568.5,268.6,569.1,268.6
				z M572.5,271.4v-2.7l0.1-3.9l-0.3-3.8v-7.5h3.8v17.8h-3.6V271.4z"/>
		</g>
	</g>
</g>
<rect x="-1441.8" y="302.4" class="st7" width="162" height="157.3"/>
<rect x="-1249.3" y="302.4" class="st2" width="162" height="157.3"/>
<rect x="-1054.4" y="302.4" class="st8" width="162" height="157.3"/>
<rect x="-854.9" y="302.4" class="st3" width="162" height="157.3"/>
<rect x="-1441.8" y="115.7" class="st9" width="162" height="157.3"/>
<rect x="-1249.3" y="115.7" class="st10" width="162" height="157.3"/>
<rect x="-1054.4" y="115.7" class="st11" width="162" height="157.3"/>
<rect x="-854.9" y="115.7" class="st5" width="162" height="157.3"/>
</svg>
