<?xml version="1.0" encoding="utf-8"?>
<!-- Generator: Adobe Illustrator 27.2.0, SVG Export Plug-In . SVG Version: 6.00 Build 0)  -->
<svg version="1.1" id="Circles" xmlns="http://www.w3.org/2000/svg" xmlns:xlink="http://www.w3.org/1999/xlink" x="0px" y="0px"
	 viewBox="0 0 1259 745.3" style="enable-background:new 0 0 1259 745.3;" xml:space="preserve">
<style type="text/css">
	.st0{fill:#1E1E1E;}
	.st1{fill:#E93182;}
	.st2{fill:#FCB817;}
	.st3{fill:#F37721;}
	.st4{fill:#0C6AB0;}
	.st5{fill:#44B549;}
	.st6{fill:#FFFFFF;}
</style>
<g>
	<g>
		<path class="st0" d="M1115.6,599.3v-14.6h5.7c1.3,0,2.3,0.2,3.2,0.6c0.9,0.4,1.6,1,2.1,1.7c0.5,0.8,0.8,1.7,0.8,2.7
			c0,1.1-0.2,2-0.8,2.7c-0.5,0.8-1.2,1.4-2.1,1.7c-0.9,0.4-2,0.6-3.2,0.6h-4.5l0.9-1v5.4L1115.6,599.3L1115.6,599.3z M1117.8,594.1
			l-0.9-1.1h4.4c1.4,0,2.3-0.3,3-0.8c0.7-0.6,1.1-1.4,1.1-2.4c0-1.1-0.4-1.9-1.1-2.4c-0.7-0.6-1.7-0.8-3-0.8h-4.4l0.9-1.1V594.1z"/>
		<path class="st0" d="M1135,599.4c-1.1,0-2.2-0.2-3.2-0.5c-1-0.4-1.8-0.8-2.4-1.4l0.8-1.7c0.5,0.5,1.3,0.9,2.1,1.2
			c0.8,0.3,1.7,0.5,2.7,0.5c0.8,0,1.5-0.1,2-0.3s0.9-0.5,1.1-0.8c0.2-0.4,0.4-0.8,0.4-1.1c0-0.5-0.2-0.9-0.5-1.2s-0.8-0.5-1.3-0.8
			c-0.5-0.2-1.1-0.4-1.7-0.5c-0.6-0.2-1.3-0.3-1.9-0.5s-1.2-0.5-1.7-0.8s-0.9-0.7-1.3-1.2s-0.5-1.1-0.5-1.9c0-0.8,0.2-1.4,0.6-2.1
			c0.4-0.6,1-1.1,1.8-1.5s1.9-0.6,3.2-0.6c0.8,0,1.7,0.1,2.5,0.3s1.6,0.5,2.2,1l-0.7,1.7c-0.6-0.5-1.3-0.8-2-0.9
			c-0.7-0.2-1.4-0.3-2-0.3c-0.8,0-1.5,0.1-2,0.3s-0.9,0.5-1.1,0.8c-0.2,0.4-0.4,0.8-0.4,1.1c0,0.5,0.2,0.9,0.5,1.2s0.8,0.5,1.3,0.8
			c0.5,0.2,1.1,0.4,1.7,0.5c0.6,0.2,1.3,0.3,1.9,0.5s1.2,0.5,1.7,0.7c0.5,0.3,0.9,0.7,1.3,1.1c0.3,0.5,0.5,1.1,0.5,1.9
			c0,0.8-0.2,1.4-0.6,2s-1.1,1.1-1.9,1.5C1137.2,598.8,1136.2,599.4,1135,599.4z"/>
		<path class="st0" d="M1149.7,599.4c-1.9,0-3.4-0.5-4.5-1.7c-1.1-1.1-1.7-2.7-1.7-4.8v-8.3h2.1v8.2c0,1.7,0.4,2.8,1.1,3.5
			c0.7,0.8,1.7,1.1,3,1.1c1.4,0,2.3-0.4,3-1.1c0.7-0.8,1.1-2,1.1-3.5v-8.2h2v8.3c0,2.1-0.5,3.7-1.7,4.8
			C1153.1,598.9,1151.6,599.4,1149.7,599.4z"/>
		<path class="st0" d="M1157.2,601.3l6.9-19.6h1.8l-6.9,19.6H1157.2z"/>
		<path class="st0" d="M1173.5,599.4c-1.1,0-2.2-0.2-3.1-0.5c-1-0.4-1.7-0.9-2.5-1.6c-0.7-0.7-1.2-1.4-1.7-2.3
			c-0.4-0.9-0.6-1.9-0.6-3s0.2-2.1,0.6-3s0.9-1.7,1.7-2.3c0.8-0.7,1.5-1.2,2.5-1.6c1-0.4,2-0.5,3.1-0.5s2.2,0.2,3.2,0.5
			s1.8,0.9,2.4,1.7l-1.3,1.3c-0.6-0.6-1.3-1-2-1.3s-1.4-0.4-2.3-0.4s-1.6,0.2-2.3,0.5c-0.7,0.3-1.4,0.7-1.9,1.1
			c-0.5,0.5-0.9,1.1-1.2,1.8c-0.3,0.7-0.5,1.4-0.5,2.3s0.2,1.5,0.5,2.2s0.7,1.3,1.2,1.8s1.1,0.9,1.8,1.2c0.7,0.3,1.5,0.5,2.3,0.5
			s1.5-0.2,2.3-0.4c0.7-0.2,1.4-0.7,2-1.2l1.2,1.6c-0.8,0.6-1.6,1.1-2.6,1.4C1175.4,599.3,1174.5,599.4,1173.5,599.4z M1177,597.3
			v-5.4h2v5.7L1177,597.3z"/>
		<path class="st0" d="M1187.4,599.3c-1.1,0-2.1-0.2-2.9-0.8c-0.8-0.5-1.5-1.1-2-2c-0.5-0.8-0.8-1.8-0.8-2.9c0-1.1,0.2-2,0.8-2.9
			c0.5-0.8,1.2-1.5,2-2s1.9-0.8,2.9-0.8c1.1,0,2.1,0.2,2.9,0.8c0.9,0.5,1.6,1.1,2,2c0.5,0.8,0.8,1.8,0.8,2.9c0,1.1-0.2,2-0.8,2.9
			c-0.5,0.8-1.2,1.5-2,2C1189.5,599.1,1188.5,599.3,1187.4,599.3z M1187.4,597.6c0.7,0,1.4-0.2,1.9-0.5s1-0.8,1.4-1.4
			c0.3-0.6,0.5-1.3,0.5-2c0-0.8-0.2-1.5-0.5-2c-0.3-0.6-0.8-1.1-1.4-1.4c-0.5-0.3-1.2-0.5-1.9-0.5c-0.7,0-1.4,0.2-1.9,0.5
			s-1,0.8-1.4,1.4c-0.3,0.6-0.5,1.3-0.5,2c0,0.8,0.2,1.4,0.5,2s0.8,1.1,1.4,1.4C1186.2,597.5,1186.7,597.6,1187.4,597.6z"/>
		<path class="st0" d="M1198.5,599.3l-4.8-11.1h2.1l4.3,10h-1l4.4-10h2l-4.8,11.1H1198.5z"/>
		<path class="st0" d="M1206,589.8v-1.7h7v1.7H1206z M1211.3,599.3c-1.1,0-2-0.3-2.6-0.9c-0.6-0.6-0.9-1.4-0.9-2.6v-10.1h2v10
			c0,0.6,0.2,1.1,0.5,1.4c0.3,0.3,0.8,0.5,1.3,0.5c0.6,0,1.1-0.2,1.6-0.5l0.6,1.4c-0.3,0.3-0.7,0.5-1.1,0.6
			C1212.3,599.3,1211.8,599.3,1211.3,599.3z"/>
	</g>
	<rect x="1032" y="578.8" class="st1" width="57.1" height="23.2"/>
	<g>
		<path class="st0" d="M1121.5,710.4c-1.1,0-2.1-0.2-3.1-0.5c-0.9-0.4-1.7-0.9-2.4-1.6c-0.7-0.7-1.2-1.4-1.6-2.3
			c-0.4-0.9-0.6-1.9-0.6-3s0.2-2.1,0.6-3s0.9-1.7,1.7-2.3c0.7-0.7,1.5-1.2,2.4-1.6c0.9-0.4,2-0.5,3.1-0.5s2.2,0.2,3.1,0.6
			c0.9,0.4,1.7,1,2.4,1.7l-1.4,1.3c-0.5-0.6-1.2-1.1-1.9-1.3c-0.7-0.3-1.4-0.5-2.3-0.5s-1.6,0.2-2.3,0.5c-0.7,0.3-1.3,0.7-1.8,1.1
			c-0.5,0.5-0.9,1.1-1.2,1.8c-0.3,0.7-0.5,1.4-0.5,2.3s0.2,1.6,0.5,2.3s0.7,1.3,1.2,1.8s1.1,0.9,1.8,1.1c0.7,0.3,1.4,0.5,2.3,0.5
			s1.5-0.2,2.3-0.5c0.7-0.3,1.4-0.8,1.9-1.4l1.4,1.3c-0.7,0.8-1.5,1.4-2.4,1.7C1123.8,710.2,1122.7,710.4,1121.5,710.4z"/>
		<path class="st0" d="M1134,710.3c-1.1,0-2.1-0.2-2.9-0.8c-0.8-0.5-1.5-1.1-2-2c-0.5-0.8-0.8-1.8-0.8-2.9c0-1.1,0.2-2,0.8-2.9
			c0.5-0.8,1.2-1.5,2-2s1.9-0.8,2.9-0.8c1.1,0,2.1,0.2,2.9,0.8c0.9,0.5,1.6,1.1,2,2s0.8,1.8,0.8,2.9c0,1.1-0.2,2-0.8,2.9
			c-0.5,0.8-1.2,1.5-2,2C1136.1,710.1,1135.1,710.3,1134,710.3z M1134,708.5c0.7,0,1.4-0.2,1.9-0.5s1-0.8,1.4-1.4
			c0.3-0.6,0.5-1.3,0.5-2c0-0.8-0.2-1.5-0.5-2c-0.3-0.6-0.8-1.1-1.4-1.4c-0.5-0.3-1.2-0.5-1.9-0.5c-0.7,0-1.4,0.2-1.9,0.5
			s-1,0.8-1.4,1.4c-0.3,0.6-0.5,1.3-0.5,2c0,0.8,0.2,1.4,0.5,2s0.8,1.1,1.4,1.4S1133.3,708.5,1134,708.5z"/>
		<path class="st0" d="M1142.6,710.2v-11.1h1.9v3l-0.2-0.8c0.3-0.8,0.8-1.4,1.5-1.7c0.8-0.4,1.6-0.6,2.6-0.6v2c-0.1,0-0.2,0-0.2,0
			c-0.1,0-0.2,0-0.2,0c-1.1,0-1.9,0.3-2.6,1s-0.9,1.6-0.9,2.8v5.5L1142.6,710.2L1142.6,710.2z"/>
		<path class="st0" d="M1150.9,714.2v-15.1h1.9v3l-0.2,2.6l0.2,2.6v7L1150.9,714.2L1150.9,714.2L1150.9,714.2z M1156.8,710.3
			c-0.9,0-1.7-0.2-2.5-0.6c-0.8-0.5-1.4-1.1-1.8-1.9s-0.7-1.9-0.7-3.1c0-1.3,0.2-2.3,0.7-3.1s1.1-1.4,1.8-1.9s1.6-0.6,2.6-0.6
			c1.1,0,2,0.2,2.9,0.7c0.8,0.5,1.5,1.1,2,2c0.5,0.8,0.8,1.8,0.8,2.9c0,1.1-0.2,2.1-0.8,2.9c-0.5,0.8-1.1,1.5-2,2
			C1158.9,710.1,1157.9,710.3,1156.8,710.3z M1156.7,708.5c0.7,0,1.4-0.2,1.9-0.5s1-0.8,1.4-1.4c0.3-0.6,0.5-1.3,0.5-2
			c0-0.8-0.2-1.5-0.5-2c-0.3-0.6-0.8-1.1-1.4-1.4c-0.5-0.3-1.2-0.5-1.9-0.5c-0.7,0-1.4,0.2-1.9,0.5s-1,0.8-1.4,1.4
			c-0.3,0.6-0.5,1.3-0.5,2c0,0.8,0.2,1.4,0.5,2s0.8,1.1,1.4,1.4S1155.9,708.5,1156.7,708.5z"/>
		<path class="st0" d="M1169.9,710.3c-1.1,0-2.1-0.2-2.9-0.8c-0.8-0.5-1.5-1.1-2-2c-0.5-0.8-0.8-1.8-0.8-2.9c0-1.1,0.2-2,0.8-2.9
			c0.5-0.8,1.2-1.5,2-2s1.9-0.8,2.9-0.8c1.1,0,2.1,0.2,2.9,0.8c0.9,0.5,1.6,1.1,2,2c0.5,0.8,0.8,1.8,0.8,2.9c0,1.1-0.2,2-0.8,2.9
			c-0.5,0.8-1.2,1.5-2,2C1172,710.1,1171,710.3,1169.9,710.3z M1169.9,708.5c0.7,0,1.4-0.2,1.9-0.5s1-0.8,1.4-1.4
			c0.3-0.6,0.5-1.3,0.5-2c0-0.8-0.2-1.5-0.5-2c-0.3-0.6-0.8-1.1-1.4-1.4c-0.5-0.3-1.2-0.5-1.9-0.5c-0.7,0-1.4,0.2-1.9,0.5
			s-1,0.8-1.4,1.4c-0.3,0.6-0.5,1.3-0.5,2c0,0.8,0.2,1.4,0.5,2s0.8,1.1,1.4,1.4C1168.6,708.4,1169.2,708.5,1169.9,708.5z"/>
		<path class="st0" d="M1178.4,710.2v-11.1h1.9v3l-0.2-0.8c0.3-0.8,0.8-1.4,1.5-1.7c0.8-0.4,1.6-0.6,2.6-0.6v2c-0.1,0-0.2,0-0.2,0
			c-0.1,0-0.2,0-0.2,0c-1.1,0-1.9,0.3-2.6,1s-0.9,1.6-0.9,2.8v5.5L1178.4,710.2L1178.4,710.2z"/>
		<path class="st0" d="M1189.3,710.3c-0.8,0-1.5-0.2-2.2-0.5c-0.6-0.3-1.1-0.7-1.4-1.1c-0.3-0.5-0.5-1.1-0.5-1.7s0.2-1.1,0.5-1.7
			c0.3-0.5,0.8-0.9,1.4-1.1c0.7-0.3,1.5-0.5,2.6-0.5h3.5v1.4h-3.4c-1,0-1.7,0.2-2,0.5c-0.4,0.3-0.5,0.8-0.5,1.2c0,0.5,0.2,1,0.7,1.3
			s1.1,0.5,1.8,0.5s1.4-0.2,2-0.5c0.5-0.3,1-0.8,1.2-1.4l0.4,1.4c-0.3,0.7-0.8,1.2-1.4,1.6C1191.1,710.1,1190.2,710.3,1189.3,710.3z
			 M1192.9,710.2v-2.3l-0.1-0.5v-4c0-0.8-0.2-1.5-0.8-2c-0.5-0.5-1.2-0.7-2.2-0.7c-0.7,0-1.3,0.1-1.9,0.3s-1.1,0.5-1.6,0.8l-0.8-1.5
			c0.6-0.5,1.3-0.8,2-1.1c0.8-0.2,1.7-0.4,2.5-0.4c1.5,0,2.7,0.4,3.5,1.1c0.8,0.8,1.2,1.9,1.2,3.4v6.6L1192.9,710.2L1192.9,710.2z"
			/>
		<path class="st0" d="M1196.9,700.8v-1.7h7v1.7H1196.9z M1202.2,710.3c-1.1,0-2-0.3-2.6-0.9s-0.9-1.4-0.9-2.6v-10.1h2v10
			c0,0.6,0.2,1.1,0.5,1.4c0.3,0.3,0.8,0.5,1.3,0.5c0.6,0,1.1-0.2,1.6-0.5l0.6,1.4c-0.3,0.3-0.7,0.5-1.1,0.6
			C1203.1,710.2,1202.8,710.3,1202.2,710.3z"/>
		<path class="st0" d="M1211.7,710.3c-1.2,0-2.2-0.2-3.1-0.8c-0.9-0.5-1.6-1.1-2.1-2c-0.5-0.8-0.8-1.8-0.8-2.9c0-1.1,0.2-2,0.8-2.9
			c0.5-0.8,1.1-1.5,2-2c0.8-0.5,1.8-0.8,2.9-0.8s2,0.2,2.9,0.7c0.8,0.5,1.4,1.1,2,2c0.5,0.8,0.7,1.9,0.7,3c0,0.1,0,0.2,0,0.3
			s0,0.2,0,0.3h-9.4v-1.4h8.4l-0.8,0.5c0-0.7-0.2-1.4-0.5-1.9s-0.8-1-1.3-1.3s-1.1-0.5-1.9-0.5c-0.7,0-1.3,0.2-1.9,0.5
			s-1,0.8-1.3,1.3s-0.5,1.2-0.5,2v0.3c0,0.8,0.2,1.4,0.5,2c0.4,0.6,0.8,1.1,1.4,1.4c0.6,0.3,1.3,0.5,2.1,0.5c0.7,0,1.3-0.1,1.8-0.3
			s1-0.5,1.4-1l1.1,1.3c-0.5,0.6-1.1,1.1-1.9,1.4C1213.4,710.1,1212.6,710.3,1211.7,710.3z"/>
		<path class="st0" d="M1222.7,710.3c-0.9,0-1.8-0.2-2.6-0.4c-0.8-0.2-1.5-0.5-2-0.9l0.8-1.6c0.5,0.3,1.1,0.6,1.7,0.8
			c0.7,0.2,1.4,0.3,2.1,0.3c0.9,0,1.6-0.2,2-0.4s0.6-0.6,0.6-1.1c0-0.4-0.2-0.6-0.4-0.8s-0.6-0.4-1-0.5s-0.8-0.2-1.4-0.2
			c-0.5-0.1-1-0.2-1.5-0.3c-0.5-0.2-1-0.3-1.4-0.5c-0.5-0.2-0.8-0.5-1-0.9s-0.4-0.9-0.4-1.5c0-0.7,0.2-1.3,0.5-1.7
			c0.4-0.5,0.9-0.9,1.6-1.1c0.7-0.2,1.5-0.4,2.4-0.4c0.8,0,1.4,0.1,2.2,0.2c0.8,0.2,1.4,0.5,1.8,0.8l-0.8,1.6
			c-0.5-0.3-1.1-0.5-1.6-0.7s-1.1-0.2-1.7-0.2c-0.9,0-1.5,0.2-2,0.5s-0.7,0.7-0.7,1.1c0,0.4,0.2,0.7,0.4,0.8c0.2,0.2,0.6,0.4,1,0.5
			s0.8,0.2,1.4,0.3c0.5,0.1,1,0.2,1.5,0.3c0.5,0.2,1,0.3,1.4,0.5s0.8,0.5,1,0.9s0.4,0.9,0.4,1.5c0,0.7-0.2,1.2-0.6,1.7
			s-0.9,0.8-1.7,1.1C1224.5,710.2,1223.6,710.3,1222.7,710.3z"/>
	</g>
	<rect x="1032" y="690.8" class="st2" width="57.1" height="23.2"/>
	<g>
		<path class="st0" d="M1115,655.9v-14.6h6.2c1.6,0,2.9,0.3,4.1,0.9c1.2,0.6,2.1,1.4,2.8,2.6c0.7,1.1,1,2.3,1,3.8
			c0,1.4-0.3,2.7-1,3.8s-1.6,2-2.8,2.6c-1.2,0.6-2.6,0.9-4.1,0.9H1115L1115,655.9z M1117.1,654.1h3.9c1.2,0,2.3-0.2,3.2-0.7
			c0.9-0.5,1.6-1.1,2-2c0.5-0.8,0.8-1.8,0.8-2.9c0-1.1-0.2-2-0.8-2.9c-0.5-0.8-1.2-1.4-2-1.9c-0.9-0.5-2-0.7-3.2-0.7h-3.9V654.1z"/>
		<path class="st0" d="M1136.8,656.1c-1.2,0-2.2-0.2-3.1-0.8c-0.9-0.5-1.6-1.1-2.1-2c-0.5-0.8-0.8-1.8-0.8-2.9c0-1.1,0.2-2,0.8-2.9
			c0.5-0.8,1.1-1.5,2-2s1.8-0.8,2.9-0.8s2,0.2,2.9,0.7s1.4,1.1,2,2c0.5,0.8,0.7,1.9,0.7,3c0,0.1,0,0.2,0,0.3s0,0.2,0,0.3h-9.4v-1.4
			h8.4l-0.8,0.5c0-0.7-0.2-1.4-0.5-1.9s-0.8-1-1.3-1.3s-1.1-0.5-1.9-0.5c-0.7,0-1.3,0.2-1.9,0.5s-1,0.8-1.3,1.3s-0.5,1.2-0.5,2v0.3
			c0,0.8,0.2,1.4,0.5,2c0.4,0.6,0.8,1.1,1.4,1.4s1.3,0.5,2.1,0.5c0.7,0,1.3-0.1,1.8-0.3s1-0.5,1.4-1l1.1,1.3
			c-0.5,0.6-1.1,1.1-1.9,1.4C1138.6,655.9,1137.7,656.1,1136.8,656.1z"/>
		<path class="st0" d="M1143.1,646.6v-1.7h7v1.7H1143.1z M1145,655.9v-12.1c0-1.1,0.3-2,1-2.6c0.6-0.7,1.5-1,2.7-1
			c0.5,0,0.8,0.1,1.2,0.2c0.4,0.1,0.8,0.3,1,0.5l-0.6,1.5c-0.2-0.2-0.5-0.3-0.7-0.4c-0.3-0.1-0.5-0.2-0.8-0.2
			c-0.6,0-1.1,0.2-1.4,0.5s-0.5,0.8-0.5,1.4v1.5l0.1,0.9v9.6L1145,655.9L1145,655.9z"/>
		<path class="st0" d="M1156.7,656.1c-1.2,0-2.2-0.2-3.1-0.8c-0.9-0.5-1.6-1.1-2.1-2c-0.5-0.8-0.8-1.8-0.8-2.9c0-1.1,0.2-2,0.8-2.9
			c0.5-0.8,1.1-1.5,2-2s1.8-0.8,2.9-0.8s2,0.2,2.9,0.7c0.8,0.5,1.4,1.1,2,2c0.5,0.8,0.7,1.9,0.7,3c0,0.1,0,0.2,0,0.3s0,0.2,0,0.3
			h-9.5v-1.4h8.4l-0.8,0.5c0-0.7-0.2-1.4-0.5-1.9s-0.8-1-1.3-1.3s-1.1-0.5-1.9-0.5c-0.7,0-1.3,0.2-1.9,0.5s-1,0.8-1.3,1.3
			s-0.5,1.2-0.5,2v0.3c0,0.8,0.2,1.4,0.5,2c0.4,0.6,0.8,1.1,1.4,1.4s1.3,0.5,2.1,0.5c0.7,0,1.3-0.1,1.8-0.3s1-0.5,1.4-1l1.1,1.3
			c-0.5,0.6-1.1,1.1-1.9,1.4C1158.6,655.9,1157.7,656.1,1156.7,656.1z"/>
		<path class="st0" d="M1170.5,644.8c0.9,0,1.7,0.2,2.4,0.5c0.7,0.4,1.2,0.9,1.6,1.6s0.6,1.6,0.6,2.7v6.3h-2v-6.1
			c0-1.1-0.2-1.9-0.8-2.4c-0.5-0.5-1.3-0.8-2.2-0.8c-0.7,0-1.4,0.2-1.9,0.5s-0.9,0.7-1.2,1.2c-0.3,0.5-0.5,1.2-0.5,2v5.7h-2v-11.1
			h1.9v3l-0.3-0.8c0.4-0.8,0.9-1.3,1.7-1.7C1168.7,645,1169.5,644.8,1170.5,644.8z"/>
		<path class="st0" d="M1182,656.1c-0.9,0-1.8-0.2-2.6-0.4c-0.8-0.2-1.5-0.5-2-0.9l0.8-1.6c0.5,0.3,1.1,0.6,1.7,0.8
			c0.7,0.2,1.4,0.3,2.1,0.3c0.9,0,1.6-0.2,2-0.4s0.6-0.6,0.6-1.1c0-0.4-0.2-0.6-0.4-0.8c-0.2-0.2-0.6-0.4-1-0.5s-0.8-0.2-1.4-0.2
			s-1-0.2-1.5-0.3c-0.5-0.2-1-0.3-1.4-0.5c-0.5-0.2-0.8-0.5-1-0.9s-0.4-0.9-0.4-1.5c0-0.7,0.2-1.3,0.5-1.7c0.4-0.5,0.9-0.9,1.6-1.1
			s1.5-0.4,2.4-0.4c0.8,0,1.4,0.1,2.2,0.2c0.8,0.2,1.4,0.5,1.8,0.8l-0.8,1.6c-0.5-0.3-1.1-0.5-1.6-0.7s-1.1-0.2-1.7-0.2
			c-0.9,0-1.5,0.2-2,0.5s-0.7,0.7-0.7,1.1c0,0.4,0.2,0.7,0.4,0.8c0.2,0.2,0.6,0.4,1,0.5s0.8,0.2,1.4,0.3c0.5,0.1,1,0.2,1.5,0.3
			c0.5,0.2,1,0.3,1.4,0.5s0.8,0.5,1,0.9s0.4,0.9,0.4,1.5c0,0.7-0.2,1.2-0.6,1.7s-0.9,0.8-1.7,1.1
			C1183.8,655.9,1183,656.1,1182,656.1z"/>
		<path class="st0" d="M1194.2,656.1c-1.2,0-2.2-0.2-3.1-0.8c-0.9-0.5-1.6-1.1-2.1-2c-0.5-0.8-0.8-1.8-0.8-2.9c0-1.1,0.2-2,0.8-2.9
			c0.5-0.8,1.1-1.5,2-2s1.8-0.8,2.9-0.8s2,0.2,2.9,0.7s1.4,1.1,2,2c0.5,0.8,0.7,1.9,0.7,3c0,0.1,0,0.2,0,0.3s0,0.2,0,0.3h-9.4v-1.4
			h8.4l-0.8,0.5c0-0.7-0.2-1.4-0.5-1.9s-0.8-1-1.3-1.3s-1.1-0.5-1.9-0.5c-0.7,0-1.3,0.2-1.9,0.5s-1,0.8-1.3,1.3s-0.5,1.2-0.5,2v0.3
			c0,0.8,0.2,1.4,0.5,2c0.4,0.6,0.8,1.1,1.4,1.4s1.3,0.5,2.1,0.5c0.7,0,1.3-0.1,1.8-0.3s1-0.5,1.4-1l1.1,1.3
			c-0.5,0.6-1.1,1.1-1.9,1.4C1196,655.9,1195.1,656.1,1194.2,656.1z"/>
	</g>
	<rect x="1032" y="636.3" class="st3" width="57.1" height="23.2"/>
	<g>
		<path class="st0" d="M1115,484.3v-14.6h6.6c1.7,0,2.9,0.3,3.8,1s1.4,1.6,1.4,2.8c0,0.8-0.2,1.4-0.5,2c-0.4,0.6-0.8,1-1.4,1.3
			s-1.3,0.5-2,0.5l0.4-0.6c0.8,0,1.6,0.2,2.2,0.5s1.1,0.8,1.5,1.3s0.5,1.3,0.5,2.1c0,1.3-0.5,2.2-1.4,2.9s-2.3,1.1-4.1,1.1h-6.9
			L1115,484.3L1115,484.3z M1117.1,482.6h4.8c1.1,0,2-0.2,2.6-0.6s0.9-1,0.9-1.8s-0.3-1.4-0.9-1.9c-0.6-0.4-1.5-0.6-2.6-0.6h-5V476
			h4.4c1.1,0,1.9-0.2,2.5-0.6s0.9-1,0.9-1.7c0-0.8-0.3-1.4-0.9-1.7c-0.6-0.4-1.4-0.6-2.5-0.6h-4.3L1117.1,482.6L1117.1,482.6z"/>
		<path class="st0" d="M1132.8,484.3h-2.1v-14.6h10.3v1.8h-8.2L1132.8,484.3L1132.8,484.3z M1132.6,476.6h7.5v1.8h-7.5V476.6z"/>
		<path class="st0" d="M1148.2,484.5c-1.1,0-2.2-0.2-3.2-0.5c-1-0.4-1.8-0.8-2.4-1.4l0.8-1.7c0.5,0.5,1.3,0.9,2.1,1.2
			c0.8,0.3,1.7,0.5,2.7,0.5c0.8,0,1.5-0.1,2-0.3s0.9-0.5,1.1-0.8c0.2-0.4,0.4-0.8,0.4-1.1c0-0.5-0.2-0.9-0.5-1.2s-0.8-0.5-1.3-0.8
			c-0.5-0.2-1.1-0.4-1.7-0.5c-0.6-0.2-1.3-0.3-1.9-0.5s-1.2-0.5-1.7-0.8s-0.9-0.7-1.3-1.2s-0.5-1.1-0.5-1.9s0.2-1.4,0.6-2.1
			c0.4-0.6,1-1.1,1.8-1.5s1.9-0.6,3.2-0.6c0.8,0,1.7,0.1,2.5,0.3s1.6,0.5,2.2,1l-0.7,1.7c-0.6-0.5-1.3-0.8-2-0.9
			c-0.7-0.2-1.4-0.3-2-0.3c-0.8,0-1.5,0.1-2,0.3s-0.9,0.5-1.1,0.8c-0.2,0.4-0.4,0.8-0.4,1.1c0,0.5,0.2,0.9,0.5,1.2s0.8,0.5,1.3,0.8
			c0.5,0.2,1.1,0.4,1.7,0.5c0.6,0.2,1.3,0.3,1.9,0.5s1.2,0.5,1.7,0.7c0.5,0.3,0.9,0.7,1.3,1.1c0.3,0.5,0.5,1.1,0.5,1.9
			s-0.2,1.4-0.6,2s-1.1,1.1-1.9,1.5S1149.5,484.5,1148.2,484.5z"/>
		<path class="st0" d="M1156.9,484.3v-14.6h2.1v14.6H1156.9z"/>
	</g>
	<rect x="1032" y="464.6" class="st4" width="57.1" height="23.2"/>
	<g>
		<path class="st0" d="M1122.2,541.6c-1.1,0-2.1-0.2-3.1-0.5c-0.9-0.4-1.7-0.9-2.4-1.6c-0.7-0.7-1.2-1.4-1.6-2.3
			c-0.4-0.9-0.6-1.9-0.6-3s0.2-2.1,0.6-3s0.9-1.7,1.7-2.3c0.7-0.7,1.5-1.2,2.4-1.6c0.9-0.4,2-0.5,3.1-0.5s2.2,0.2,3.1,0.6
			c0.9,0.4,1.7,1,2.4,1.7l-1.4,1.3c-0.5-0.6-1.2-1.1-1.9-1.3c-0.7-0.3-1.4-0.5-2.3-0.5s-1.6,0.2-2.3,0.5c-0.7,0.3-1.3,0.7-1.8,1.1
			c-0.5,0.5-0.9,1.1-1.2,1.8c-0.3,0.7-0.5,1.4-0.5,2.3s0.2,1.6,0.5,2.3s0.7,1.3,1.2,1.8s1.1,0.9,1.8,1.1c0.7,0.3,1.4,0.5,2.3,0.5
			s1.5-0.2,2.3-0.5c0.7-0.3,1.4-0.8,1.9-1.4l1.4,1.3c-0.7,0.8-1.5,1.4-2.4,1.7C1124.5,541.5,1123.3,541.6,1122.2,541.6z"/>
		<path class="st0" d="M1134.7,541.5c-1.1,0-2.1-0.2-2.9-0.8c-0.8-0.5-1.5-1.1-2-2c-0.5-0.8-0.8-1.8-0.8-2.9c0-1.1,0.2-2,0.8-2.9
			c0.5-0.8,1.2-1.5,2-2s1.9-0.8,2.9-0.8c1.1,0,2.1,0.2,2.9,0.8c0.9,0.5,1.6,1.1,2,2c0.5,0.8,0.8,1.8,0.8,2.9c0,1.1-0.2,2-0.8,2.9
			c-0.5,0.8-1.2,1.5-2,2C1136.8,541.3,1135.8,541.5,1134.7,541.5z M1134.7,539.8c0.7,0,1.4-0.2,1.9-0.5s1-0.8,1.4-1.4
			c0.3-0.6,0.5-1.3,0.5-2c0-0.8-0.2-1.5-0.5-2c-0.3-0.6-0.8-1.1-1.4-1.4c-0.5-0.3-1.2-0.5-1.9-0.5c-0.7,0-1.4,0.2-1.9,0.5
			s-1,0.8-1.4,1.4c-0.3,0.6-0.5,1.3-0.5,2c0,0.8,0.2,1.4,0.5,2s0.8,1.1,1.4,1.4C1133.4,539.7,1134,539.8,1134.7,539.8z"/>
		<path class="st0" d="M1149.1,530.3c0.9,0,1.7,0.2,2.4,0.5c0.7,0.4,1.2,0.9,1.6,1.6c0.4,0.7,0.6,1.6,0.6,2.7v6.3h-2v-6.1
			c0-1.1-0.2-1.9-0.8-2.4c-0.5-0.5-1.3-0.8-2.2-0.8c-0.7,0-1.4,0.2-1.9,0.5s-0.9,0.7-1.2,1.2c-0.3,0.5-0.5,1.2-0.5,2v5.7h-2v-11.1
			h1.9v3l-0.3-0.8c0.4-0.8,0.9-1.3,1.7-1.7C1147.2,530.5,1148.1,530.3,1149.1,530.3z"/>
		<path class="st0" d="M1160.6,541.5c-0.9,0-1.8-0.2-2.6-0.4c-0.8-0.2-1.5-0.5-2-0.9l0.8-1.6c0.5,0.3,1.1,0.6,1.7,0.8
			s1.4,0.3,2.1,0.3c0.9,0,1.6-0.2,2-0.4s0.6-0.6,0.6-1.1c0-0.4-0.2-0.6-0.4-0.8s-0.6-0.4-1-0.5s-0.8-0.2-1.4-0.2
			c-0.5-0.1-1-0.2-1.5-0.3c-0.5-0.2-1-0.3-1.4-0.5c-0.5-0.2-0.8-0.5-1-0.9s-0.4-0.9-0.4-1.5c0-0.7,0.2-1.3,0.5-1.7
			c0.4-0.5,0.9-0.9,1.6-1.1c0.7-0.2,1.5-0.4,2.4-0.4c0.8,0,1.4,0.1,2.2,0.2c0.8,0.2,1.4,0.5,1.8,0.8l-0.8,1.6
			c-0.5-0.3-1.1-0.5-1.6-0.7s-1.1-0.2-1.7-0.2c-0.9,0-1.5,0.2-2,0.5s-0.7,0.7-0.7,1.1c0,0.4,0.2,0.7,0.4,0.8c0.2,0.2,0.6,0.4,1,0.5
			s0.8,0.2,1.4,0.3c0.5,0.1,1,0.2,1.5,0.3c0.5,0.2,1,0.3,1.4,0.5s0.8,0.5,1,0.9s0.4,0.9,0.4,1.5c0,0.7-0.2,1.2-0.6,1.7
			s-0.9,0.8-1.7,1.1C1162.4,541.4,1161.6,541.5,1160.6,541.5z"/>
		<path class="st0" d="M1172.5,541.5c-1,0-1.8-0.2-2.5-0.5c-0.7-0.4-1.3-0.9-1.7-1.6c-0.4-0.7-0.6-1.6-0.6-2.7v-6.3h2v6.1
			c0,1.1,0.2,1.9,0.8,2.4c0.5,0.5,1.3,0.8,2.2,0.8c0.7,0,1.3-0.2,1.8-0.5s0.9-0.7,1.2-1.3c0.3-0.5,0.5-1.2,0.5-2v-5.7h2v11.1h-1.9
			v-3l0.3,0.8c-0.4,0.8-0.9,1.3-1.7,1.7C1174.2,541.4,1173.4,541.5,1172.5,541.5z"/>
		<path class="st0" d="M1195.8,530.3c0.9,0,1.7,0.2,2.3,0.5c0.7,0.4,1.2,0.9,1.6,1.6c0.4,0.7,0.6,1.6,0.6,2.7v6.3h-2v-6.1
			c0-1.1-0.2-1.9-0.8-2.4s-1.2-0.8-2.1-0.8c-0.7,0-1.3,0.2-1.7,0.5c-0.5,0.3-0.9,0.7-1.1,1.2s-0.4,1.2-0.4,2v5.7h-2v-6.1
			c0-1.1-0.2-1.9-0.8-2.4c-0.5-0.5-1.2-0.8-2.1-0.8c-0.7,0-1.2,0.2-1.7,0.5s-0.9,0.7-1.1,1.2s-0.5,1.2-0.5,2v5.7h-2v-11.1h1.9v2.9
			l-0.3-0.8c0.4-0.8,0.9-1.3,1.6-1.7c0.8-0.4,1.6-0.6,2.5-0.6c1.1,0,2,0.2,2.7,0.8c0.8,0.5,1.3,1.3,1.5,2.3l-0.8-0.3
			c0.3-0.8,0.9-1.5,1.7-2C1193.7,530.5,1194.7,530.3,1195.8,530.3z"/>
		<path class="st0" d="M1208.9,541.5c-1.2,0-2.2-0.2-3.1-0.8c-0.9-0.5-1.6-1.1-2.1-2c-0.5-0.8-0.8-1.8-0.8-2.9c0-1.1,0.2-2,0.8-2.9
			c0.5-0.8,1.1-1.5,2-2c0.8-0.5,1.8-0.8,2.9-0.8s2,0.2,2.9,0.7c0.8,0.5,1.4,1.1,2,2c0.5,0.8,0.7,1.9,0.7,3c0,0.1,0,0.2,0,0.3
			s0,0.2,0,0.3h-9.4V535h8.4l-0.8,0.5c0-0.7-0.2-1.4-0.5-1.9s-0.8-1-1.3-1.3s-1.1-0.5-1.9-0.5c-0.7,0-1.3,0.2-1.9,0.5
			s-1,0.8-1.3,1.3s-0.5,1.2-0.5,2v0.3c0,0.8,0.2,1.4,0.5,2c0.4,0.6,0.8,1.1,1.4,1.4c0.6,0.3,1.3,0.5,2.1,0.5c0.7,0,1.3-0.1,1.8-0.3
			s1-0.5,1.4-1l1.1,1.3c-0.5,0.6-1.1,1.1-1.9,1.4C1210.7,541.4,1209.8,541.5,1208.9,541.5z"/>
		<path class="st0" d="M1216.8,541.5v-11.1h1.9v3l-0.2-0.8c0.3-0.8,0.8-1.4,1.5-1.7c0.8-0.4,1.6-0.6,2.6-0.6v2c-0.1,0-0.2,0-0.2,0
			c-0.1,0-0.2,0-0.2,0c-1.1,0-1.9,0.3-2.6,1s-0.9,1.6-0.9,2.8v5.5L1216.8,541.5L1216.8,541.5z"/>
	</g>
	<rect x="1032" y="522.8" class="st5" width="57.1" height="23.2"/>
</g>
<g>
	<g>
		<g>
			<path class="st4" d="M379.5,372.6V7.2C177.7,7.2,14,170.8,14,372.6l0,0H379.5z"/>
		</g>
	</g>
	<g>
		<path class="st6" d="M192.3,209.4c0,3.5-2.7,7.4-6.3,11.4l-9,9.5h16.9v5.3h-24.6v-4.2l12.7-13.7c2.5-2.5,4.2-5.4,4.2-7.3
			c0-2.8-2.2-4.5-5.8-4.5c-3,0-6.5,1.7-9.4,4.3l-2.3-4.5c3.8-3.1,8.1-4.9,12.6-4.9C187.8,200.7,192.3,204.1,192.3,209.4z"/>
		<path class="st6" d="M205.3,206.2v7.5l4.7-0.1c7.5,0,12.4,4.5,12.4,10.5c0,7-5,11.6-12.8,11.6c-4.1,0-8.9-1.5-12.3-3.9l2.3-4.7
			c2.8,2.3,6.3,3.6,9.3,3.6c4.5,0,7.2-2.3,7.2-6.3c0-3.5-2.7-5.7-7.2-5.7c-2.1,0-6.8,0.2-9.1,0.5v-18.3h21l0.1,5.3L205.3,206.2
			L205.3,206.2z"/>
		<path class="st6" d="M244.7,211.1c0,6.5-3.5,10.3-9.1,10.3s-9.1-3.9-9.1-10.3s3.5-10.3,9.1-10.3
			C241.3,200.8,244.7,204.7,244.7,211.1z M230.3,211.1c0,4.5,1.9,7,5.3,7c3.4,0,5.4-2.5,5.4-7c0-4.4-2-7-5.4-7
			C232.2,204.1,230.3,206.7,230.3,211.1z M258.4,200.9h5.4l-25.4,34.6h-5.5L258.4,200.9z M270.8,225.2c0,6.5-3.5,10.3-9.1,10.3
			s-9.1-3.9-9.1-10.3c0-6.4,3.5-10.3,9.1-10.3S270.8,218.8,270.8,225.2z M256.3,225.2c0,4.5,1.9,7,5.3,7s5.4-2.5,5.4-7
			c0-4.4-2-7-5.4-7S256.3,220.8,256.3,225.2z"/>
	</g>
	<g>
		<path class="st6" d="M169.4,261.1v-15h7.3c1.9,0,3.3,0.4,4.2,1.1c0.9,0.7,1.4,1.6,1.4,2.8c0,0.8-0.2,1.5-0.5,2
			c-0.4,0.5-0.9,1-1.5,1.3c-0.7,0.3-1.5,0.5-2.3,0.5l0.4-0.8c0.9,0,1.8,0.2,2.5,0.5s1.3,0.8,1.7,1.4c0.4,0.6,0.6,1.3,0.6,2.2
			c0,1.3-0.5,2.3-1.5,3s-2.5,1.1-4.5,1.1L169.4,261.1L169.4,261.1z M172.8,258.5h4c0.9,0,1.5-0.2,2-0.5s0.7-0.8,0.7-1.4
			s-0.2-1.1-0.7-1.4c-0.5-0.3-1.2-0.5-2-0.5h-4.3v-2.5h3.7c0.8,0,1.5-0.2,1.9-0.5s0.7-0.8,0.7-1.3c0-0.6-0.2-1-0.7-1.3
			s-1.1-0.5-1.9-0.5h-3.5L172.8,258.5L172.8,258.5z"/>
		<path class="st6" d="M189.2,261.1h-3.5v-15H197v2.8h-7.8V261.1z M189,252.9h7.2v2.8H189V252.9z"/>
		<path class="st6" d="M204.3,261.4c-1.2,0-2.3-0.2-3.5-0.5c-1.1-0.3-2-0.8-2.6-1.2l1.2-2.6c0.6,0.5,1.4,0.8,2.2,1.2
			c0.8,0.3,1.8,0.5,2.6,0.5c0.7,0,1.2-0.1,1.6-0.2c0.4-0.2,0.7-0.3,0.9-0.5s0.3-0.5,0.3-0.8c0-0.4-0.2-0.7-0.5-0.9
			c-0.3-0.2-0.7-0.5-1.2-0.5c-0.5-0.2-1.1-0.3-1.7-0.5c-0.6-0.2-1.2-0.3-1.9-0.5c-0.6-0.2-1.2-0.5-1.7-0.8s-0.9-0.7-1.2-1.2
			s-0.5-1.2-0.5-1.9c0-0.8,0.2-1.6,0.7-2.3s1.2-1.2,2.1-1.7c0.9-0.4,2.1-0.6,3.5-0.6c0.9,0,1.9,0.1,2.8,0.3c0.9,0.2,1.7,0.5,2.4,1
			l-1.1,2.6c-0.7-0.4-1.4-0.7-2.1-0.8c-0.7-0.2-1.4-0.3-2.1-0.3s-1.2,0.1-1.6,0.2c-0.5,0.2-0.7,0.4-0.9,0.6
			c-0.2,0.2-0.3,0.5-0.3,0.8c0,0.4,0.2,0.7,0.5,0.9s0.7,0.4,1.2,0.5c0.5,0.2,1.1,0.3,1.7,0.5c0.6,0.2,1.2,0.3,1.9,0.5
			c0.6,0.2,1.2,0.5,1.7,0.8s0.9,0.7,1.2,1.2s0.5,1.2,0.5,1.9c0,0.8-0.2,1.6-0.7,2.3c-0.5,0.7-1.2,1.2-2.1,1.7
			C206.9,261.1,205.7,261.4,204.3,261.4z"/>
		<path class="st6" d="M213,261.1v-15h3.5v15H213z"/>
	</g>
</g>
<g>
	<g>
		<g>
			<path class="st2" d="M379.5,372.6H14c0,201.9,163.6,365.5,365.5,365.5c80.7,0,149.5-22.3,214.9-69.8L379.5,372.6z"/>
		</g>
	</g>
	<g>
		<g>
			<path class="st6" d="M194.7,519.5c5.8,0.5,9.7,3.9,9.7,9.3c0,6.5-4.9,11-12.6,11c-4.2,0-8.7-1.5-11.7-3.8l2.4-4.7
				c2.5,2.3,5.7,3.6,8.8,3.6c4.6,0,7.3-2.4,7.3-5.9c0-3.8-2.7-5.7-7.3-5.7h-4.8v-3.4l9-9.7h-13.8V505h21v3.6l-9.7,10.7L194.7,519.5z
				"/>
			<path class="st6" d="M215.9,510.1v7.5l4.7-0.1c7.5,0,12.4,4.5,12.4,10.5c0,7-5,11.6-12.8,11.6c-4.1,0-8.9-1.5-12.3-3.9l2.3-4.7
				c2.8,2.3,6.3,3.6,9.3,3.6c4.5,0,7.2-2.3,7.2-6.3c0-3.5-2.7-5.7-7.2-5.7c-2.1,0-6.8,0.2-9.1,0.5v-18.3h21l0.1,5.3L215.9,510.1
				L215.9,510.1z"/>
			<path class="st6" d="M255.3,515.1c0,6.5-3.5,10.3-9.1,10.3s-9.1-3.9-9.1-10.3c0-6.4,3.5-10.3,9.1-10.3S255.3,508.7,255.3,515.1z
				 M240.8,515.1c0,4.5,1.9,7,5.3,7c3.4,0,5.4-2.5,5.4-7c0-4.4-2-7-5.4-7C242.7,508.1,240.8,510.7,240.8,515.1z M268.9,505h5.4
				l-25.4,34.6h-5.5L268.9,505z M281.3,529.3c0,6.5-3.5,10.3-9.1,10.3s-9.1-3.9-9.1-10.3c0-6.4,3.5-10.3,9.1-10.3
				S281.3,522.9,281.3,529.3z M266.8,529.3c0,4.5,1.9,7,5.3,7s5.4-2.5,5.4-7c0-4.4-2-7-5.4-7S266.8,524.9,266.8,529.3z"/>
		</g>
	</g>
	<g>
		<path class="st6" d="M189.5,565.4c-1.2,0-2.2-0.2-3.2-0.5c-1-0.4-1.9-0.9-2.5-1.6c-0.7-0.7-1.3-1.5-1.7-2.5
			c-0.4-0.9-0.6-2-0.6-3.1c0-1.2,0.2-2.2,0.6-3.1c0.4-0.9,1-1.8,1.7-2.5s1.6-1.2,2.5-1.6c1-0.4,2.1-0.5,3.2-0.5
			c1.3,0,2.5,0.2,3.5,0.7c1.1,0.5,1.9,1.1,2.6,2l-2.2,2.1c-0.5-0.6-1.1-1-1.7-1.3c-0.6-0.3-1.3-0.5-2.1-0.5c-0.7,0-1.3,0.1-1.9,0.3
			c-0.6,0.2-1.1,0.5-1.5,1c-0.5,0.5-0.8,0.9-1,1.5s-0.4,1.2-0.4,1.9s0.2,1.4,0.4,1.9s0.5,1.1,1,1.5s0.9,0.8,1.5,1s1.2,0.3,1.9,0.3
			c0.8,0,1.4-0.2,2.1-0.5c0.6-0.3,1.2-0.8,1.7-1.3l2.2,2.1c-0.7,0.8-1.6,1.5-2.6,2C192,565.2,190.8,565.4,189.5,565.4z"/>
		<path class="st6" d="M202.8,565.4c-1.2,0-2.3-0.2-3.2-0.8s-1.7-1.2-2.2-2.1c-0.5-0.9-0.8-1.9-0.8-3c0-1.2,0.3-2.2,0.8-3.1
			c0.5-0.9,1.3-1.6,2.2-2.1s2-0.8,3.2-0.8s2.3,0.2,3.2,0.8c0.9,0.5,1.7,1.2,2.2,2.1c0.5,0.8,0.8,1.9,0.8,3.1s-0.3,2.2-0.8,3
			c-0.5,0.9-1.3,1.6-2.2,2.1C205.1,565.1,204,565.4,202.8,565.4z M202.8,562.6c0.5,0,1.1-0.2,1.5-0.4s0.8-0.6,1.1-1.1
			c0.2-0.5,0.4-1,0.4-1.7s-0.2-1.2-0.4-1.7s-0.6-0.8-1.1-1.1c-0.5-0.2-0.9-0.4-1.5-0.4c-0.5,0-1.1,0.2-1.5,0.4s-0.8,0.6-1.1,1.1
			s-0.4,1-0.4,1.7c0,0.6,0.2,1.2,0.4,1.7s0.6,0.8,1.1,1.1C201.8,562.4,202.3,562.6,202.8,562.6z"/>
		<path class="st6" d="M211.3,565.1v-11.5h3.2v3.2l-0.5-0.9c0.3-0.8,0.9-1.4,1.6-1.9c0.8-0.4,1.7-0.6,2.8-0.6v3.1
			c-0.2,0-0.3,0-0.4,0c-0.1,0-0.2,0-0.4,0c-0.9,0-1.6,0.2-2.2,0.8c-0.5,0.5-0.8,1.3-0.8,2.4v5.4H211.3L211.3,565.1z"/>
		<path class="st6" d="M220.4,569.3v-15.6h3.2v2.3l-0.1,3.4l0.2,3.4v6.5L220.4,569.3L220.4,569.3z M227.2,565.4
			c-1,0-1.9-0.2-2.5-0.6s-1.3-1.1-1.7-1.9c-0.4-0.8-0.6-2-0.6-3.3c0-1.4,0.2-2.5,0.5-3.3c0.4-0.8,0.9-1.5,1.7-1.9s1.6-0.6,2.6-0.6
			c1.1,0,2.1,0.2,2.9,0.8c0.8,0.5,1.5,1.2,2.1,2.1c0.5,0.8,0.8,1.9,0.8,3.1c0,1.2-0.2,2.2-0.8,3.2c-0.5,0.8-1.2,1.5-2.1,2.1
			C229.3,565.1,228.3,565.4,227.2,565.4z M226.7,562.6c0.5,0,1.1-0.2,1.5-0.4s0.8-0.6,1.1-1.1c0.2-0.5,0.4-1,0.4-1.7
			s-0.2-1.2-0.4-1.7s-0.6-0.8-1.1-1.1c-0.5-0.2-0.9-0.4-1.5-0.4s-1.1,0.2-1.5,0.4c-0.5,0.2-0.8,0.6-1.1,1.1c-0.2,0.5-0.4,1-0.4,1.7
			c0,0.6,0.2,1.2,0.4,1.7s0.6,0.8,1.1,1.1C225.6,562.4,226.1,562.6,226.7,562.6z"/>
		<path class="st6" d="M240.7,565.4c-1.2,0-2.3-0.2-3.2-0.8s-1.7-1.2-2.2-2.1c-0.5-0.9-0.8-1.9-0.8-3c0-1.2,0.3-2.2,0.8-3.1
			c0.5-0.9,1.3-1.6,2.2-2.1s2-0.8,3.2-0.8s2.3,0.2,3.2,0.8c0.9,0.5,1.7,1.2,2.2,2.1c0.5,0.8,0.8,1.9,0.8,3.1s-0.3,2.2-0.8,3
			c-0.5,0.9-1.3,1.6-2.2,2.1C243,565.1,241.9,565.4,240.7,565.4z M240.7,562.6c0.5,0,1.1-0.2,1.5-0.4s0.8-0.6,1.1-1.1
			c0.2-0.5,0.4-1,0.4-1.7s-0.2-1.2-0.4-1.7s-0.6-0.8-1.1-1.1c-0.5-0.2-0.9-0.4-1.5-0.4c-0.5,0-1.1,0.2-1.5,0.4s-0.8,0.6-1.1,1.1
			s-0.4,1-0.4,1.7c0,0.6,0.2,1.2,0.4,1.7s0.6,0.8,1.1,1.1C239.7,562.4,240.1,562.6,240.7,562.6z"/>
		<path class="st6" d="M249.2,565.1v-11.5h3.2v3.2l-0.5-0.9c0.3-0.8,0.9-1.4,1.6-1.9c0.8-0.4,1.7-0.6,2.8-0.6v3.1
			c-0.2,0-0.3,0-0.4,0c-0.1,0-0.2,0-0.4,0c-0.9,0-1.6,0.2-2.2,0.8c-0.5,0.5-0.8,1.3-0.8,2.4v5.4H249.2L249.2,565.1z"/>
		<path class="st6" d="M261.1,565.4c-0.9,0-1.7-0.2-2.3-0.5c-0.6-0.3-1.2-0.7-1.5-1.2s-0.5-1.1-0.5-1.8s0.2-1.3,0.5-1.8
			s0.8-0.9,1.6-1.2c0.7-0.3,1.7-0.5,2.9-0.5h3.1v1.9h-2.7c-0.8,0-1.3,0.2-1.6,0.4c-0.3,0.2-0.5,0.5-0.5,0.9c0,0.5,0.2,0.8,0.5,1
			s0.8,0.4,1.4,0.4c0.5,0,1.1-0.2,1.5-0.4c0.5-0.2,0.8-0.6,0.9-1.2l0.5,1.5c-0.2,0.8-0.7,1.3-1.3,1.7
			C262.9,565.1,262.1,565.4,261.1,565.4z M264.6,565.1v-2.2l-0.2-0.5v-4c0-0.7-0.2-1.2-0.6-1.7s-1.1-0.6-2-0.6
			c-0.6,0-1.2,0.1-1.8,0.3c-0.6,0.2-1.1,0.5-1.5,0.8l-1.2-2.3c0.6-0.5,1.4-0.8,2.2-1c0.8-0.2,1.8-0.4,2.7-0.4c1.8,0,3.1,0.4,4.1,1.2
			s1.5,2.1,1.5,3.9v6.6L264.6,565.1L264.6,565.1z"/>
		<path class="st6" d="M269.4,556.5V554h8v2.5H269.4z M275.4,565.4c-1.4,0-2.4-0.3-3.2-1c-0.8-0.7-1.2-1.7-1.2-3.1v-10h3.3v10
			c0,0.5,0.2,0.8,0.4,1.2c0.2,0.2,0.6,0.4,1.1,0.4s1-0.2,1.3-0.5l0.9,2.3c-0.3,0.2-0.8,0.4-1.2,0.5
			C276.4,565.4,275.9,565.4,275.4,565.4z"/>
		<path class="st6" d="M285.4,565.4c-1.3,0-2.5-0.2-3.5-0.8s-1.8-1.2-2.3-2.1c-0.5-0.9-0.8-1.9-0.8-3c0-1.2,0.2-2.2,0.8-3.1
			c0.5-0.9,1.2-1.6,2.2-2.1c0.9-0.5,2-0.8,3.2-0.8s2.2,0.2,3,0.7c0.9,0.5,1.6,1.2,2.2,2.1c0.5,0.9,0.8,1.9,0.8,3.2
			c0,0.2,0,0.3,0,0.5s0,0.3-0.1,0.5h-9.3v-1.9h7.6l-1.3,0.5c0-0.6-0.2-1.1-0.4-1.5c-0.2-0.5-0.5-0.8-1-1s-0.9-0.4-1.5-0.4
			s-1.1,0.2-1.5,0.4c-0.5,0.2-0.8,0.6-1,1.1s-0.4,1-0.4,1.6v0.5c0,0.6,0.2,1.2,0.4,1.6c0.3,0.5,0.7,0.8,1.2,1.1
			c0.5,0.2,1.1,0.4,1.8,0.4c0.6,0,1.2-0.1,1.6-0.3c0.5-0.2,0.8-0.5,1.2-0.8l1.8,1.9c-0.5,0.6-1.2,1.1-2,1.4
			C287.3,565.1,286.4,565.4,285.4,565.4z"/>
		<path class="st6" d="M297,565.4c-1,0-1.9-0.2-2.9-0.4c-0.9-0.2-1.6-0.5-2.2-0.8l1.1-2.4c0.5,0.3,1.2,0.6,1.9,0.8
			c0.7,0.2,1.4,0.3,2.2,0.3c0.8,0,1.3-0.1,1.6-0.3c0.3-0.2,0.5-0.5,0.5-0.8s-0.2-0.5-0.4-0.6c-0.2-0.2-0.6-0.2-1-0.3
			s-0.8-0.2-1.4-0.2c-0.5-0.1-1-0.2-1.5-0.3c-0.5-0.2-0.9-0.3-1.4-0.5s-0.8-0.5-1-1c-0.2-0.4-0.4-0.9-0.4-1.6s0.2-1.4,0.6-1.9
			s1-1,1.9-1.3c0.8-0.3,1.8-0.5,2.9-0.5c0.8,0,1.5,0.1,2.4,0.2c0.8,0.2,1.5,0.4,2,0.8l-1.1,2.4c-0.5-0.3-1.1-0.5-1.7-0.7
			c-0.5-0.2-1.1-0.2-1.6-0.2c-0.8,0-1.3,0.1-1.6,0.3c-0.3,0.2-0.5,0.5-0.5,0.8s0.2,0.5,0.4,0.6c0.2,0.2,0.6,0.2,1,0.3
			s0.8,0.2,1.4,0.2c0.5,0.1,1,0.2,1.5,0.3c0.5,0.2,0.9,0.3,1.4,0.5c0.4,0.2,0.8,0.5,1,0.9s0.4,0.9,0.4,1.6s-0.2,1.3-0.6,1.9
			c-0.5,0.5-1.1,1-1.9,1.3C299,565.1,298.1,565.4,297,565.4z"/>
	</g>
</g>
<g>
	<g>
		<g>
			<path class="st5" d="M379.5,372.6H745C745,170.8,581.4,7.2,379.5,7.2l0,0V372.6L379.5,372.6z"/>
		</g>
	</g>
	<g>
		<g>
			<path class="st6" d="M497.4,169.3c0,3.5-2.7,7.4-6.3,11.4l-9,9.5H499v5.3h-24.6v-4.2l12.7-13.7c2.5-2.5,4.2-5.4,4.2-7.3
				c0-2.8-2.2-4.5-5.8-4.5c-3,0-6.5,1.7-9.4,4.3l-2.3-4.5c3.8-3.1,8.1-4.9,12.6-4.9C492.9,160.7,497.4,164.1,497.4,169.3z"/>
			<path class="st6" d="M510.6,166.2v7.5l4.7-0.1c7.5,0,12.4,4.5,12.4,10.5c0,7-5,11.6-12.8,11.6c-4.1,0-8.9-1.5-12.3-3.9l2.3-4.7
				c2.8,2.3,6.3,3.6,9.3,3.6c4.5,0,7.2-2.3,7.2-6.3c0-3.5-2.7-5.7-7.2-5.7c-2.1,0-6.8,0.2-9.1,0.5v-18.3h21l0.1,5.3L510.6,166.2
				L510.6,166.2L510.6,166.2z"/>
			<path class="st6" d="M549.9,171.1c0,6.5-3.5,10.3-9.1,10.3s-9.1-3.9-9.1-10.3s3.5-10.3,9.1-10.3S549.9,164.7,549.9,171.1z
				 M535.4,171.1c0,4.5,1.9,7,5.3,7s5.4-2.5,5.4-7c0-4.4-2-7-5.4-7S535.4,166.7,535.4,171.1z M563.5,160.9h5.4l-25.4,34.6H538
				L563.5,160.9z M575.9,185.2c0,6.5-3.5,10.3-9.1,10.3s-9.1-3.9-9.1-10.3c0-6.4,3.5-10.3,9.1-10.3
				C572.4,175,575.9,178.8,575.9,185.2z M561.4,185.2c0,4.5,1.9,7,5.3,7s5.4-2.5,5.4-7c0-4.4-2-7-5.4-7S561.4,180.8,561.4,185.2z"/>
		</g>
	</g>
	<g>
		<g>
			<path class="st6" d="M481.7,221.4c-1.2,0-2.2-0.2-3.2-0.5c-1-0.4-1.9-0.9-2.5-1.6c-0.7-0.7-1.3-1.5-1.7-2.5
				c-0.4-0.9-0.6-2-0.6-3.1s0.2-2.2,0.6-3.1c0.4-0.9,1-1.8,1.7-2.5s1.6-1.2,2.5-1.6c1-0.4,2.1-0.5,3.2-0.5c1.3,0,2.5,0.2,3.5,0.7
				c1.1,0.5,1.9,1.1,2.6,2l-2.2,2.1c-0.5-0.6-1.1-1-1.7-1.3s-1.3-0.5-2.1-0.5c-0.7,0-1.3,0.1-1.9,0.3s-1.1,0.5-1.5,1
				c-0.5,0.5-0.8,0.9-1,1.5s-0.4,1.2-0.4,1.9s0.2,1.4,0.4,1.9c0.2,0.6,0.5,1.1,1,1.5s0.9,0.8,1.5,1s1.2,0.3,1.9,0.3
				c0.8,0,1.4-0.2,2.1-0.5c0.6-0.3,1.2-0.8,1.7-1.3l2.2,2.1c-0.7,0.8-1.6,1.5-2.6,2C484.2,221.2,483.1,221.4,481.7,221.4z"/>
			<path class="st6" d="M495,221.3c-1.2,0-2.3-0.2-3.2-0.8c-0.9-0.5-1.7-1.2-2.2-2.1c-0.5-0.9-0.8-1.9-0.8-3c0-1.2,0.3-2.2,0.8-3.1
				c0.5-0.9,1.3-1.6,2.2-2.1c0.9-0.5,2-0.8,3.2-0.8s2.3,0.2,3.2,0.8c0.9,0.5,1.7,1.2,2.2,2.1c0.5,0.8,0.8,1.9,0.8,3.1
				s-0.3,2.2-0.8,3c-0.5,0.9-1.3,1.6-2.2,2.1C497.3,221.1,496.3,221.3,495,221.3z M495,218.5c0.5,0,1.1-0.2,1.5-0.4
				c0.5-0.2,0.8-0.6,1.1-1.1c0.2-0.5,0.4-1,0.4-1.7s-0.2-1.2-0.4-1.7c-0.2-0.5-0.6-0.8-1.1-1.1c-0.5-0.2-0.9-0.4-1.5-0.4
				c-0.5,0-1.1,0.2-1.5,0.4c-0.5,0.2-0.8,0.6-1.1,1.1c-0.2,0.5-0.4,1-0.4,1.7c0,0.6,0.2,1.2,0.4,1.7c0.2,0.5,0.6,0.8,1.1,1.1
				C494,218.5,494.5,218.5,495,218.5z"/>
			<path class="st6" d="M510.6,209.5c0.9,0,1.7,0.2,2.5,0.5c0.7,0.4,1.3,0.9,1.7,1.7s0.6,1.7,0.6,2.9v6.6H512v-6.1
				c0-0.9-0.2-1.6-0.6-2.1s-1-0.7-1.7-0.7c-0.5,0-1,0.1-1.4,0.3s-0.8,0.5-1,1s-0.4,1-0.4,1.8v5.7h-3.4v-11.4h3.2v3.2l-0.6-0.9
				c0.4-0.8,1-1.4,1.8-1.8C508.7,209.6,509.6,209.5,510.6,209.5z"/>
			<path class="st6" d="M522.1,221.3c-1,0-1.9-0.2-2.9-0.4c-0.9-0.2-1.6-0.5-2.2-0.8l1.1-2.4c0.5,0.3,1.2,0.6,1.9,0.8
				s1.4,0.3,2.2,0.3s1.3-0.1,1.6-0.3s0.5-0.5,0.5-0.8c0-0.2-0.2-0.5-0.4-0.6s-0.6-0.2-1-0.3s-0.8-0.2-1.4-0.2
				c-0.5-0.1-1-0.2-1.5-0.3s-0.9-0.3-1.4-0.5c-0.4-0.2-0.8-0.5-1-1c-0.2-0.4-0.4-0.9-0.4-1.6c0-0.7,0.2-1.4,0.6-1.9
				c0.4-0.5,1-1,1.9-1.3c0.8-0.3,1.8-0.5,2.9-0.5c0.8,0,1.5,0.1,2.4,0.2s1.5,0.4,2,0.8l-1.1,2.4c-0.5-0.3-1.1-0.5-1.7-0.7
				c-0.5-0.2-1.1-0.2-1.6-0.2c-0.8,0-1.3,0.1-1.6,0.3s-0.5,0.5-0.5,0.8s0.2,0.5,0.4,0.6c0.2,0.2,0.6,0.2,1,0.3s0.8,0.2,1.4,0.2
				c0.5,0.1,1,0.2,1.5,0.3c0.5,0.2,0.9,0.3,1.4,0.5c0.4,0.2,0.8,0.5,1,0.9s0.4,0.9,0.4,1.6c0,0.7-0.2,1.3-0.6,1.9
				c-0.4,0.5-1.1,1-1.9,1.3C524.2,221,523.3,221.3,522.1,221.3z"/>
			<path class="st6" d="M534.5,221.3c-0.9,0-1.8-0.2-2.5-0.5c-0.8-0.4-1.3-0.9-1.8-1.7c-0.4-0.8-0.6-1.7-0.6-2.9v-6.5h3.3v6
				c0,0.9,0.2,1.6,0.6,2.1c0.4,0.5,1,0.7,1.7,0.7c0.5,0,1-0.1,1.4-0.3s0.7-0.5,0.9-1s0.3-1.1,0.3-1.8v-5.7h3.3v11.5H538V218l0.5,0.9
				c-0.4,0.8-0.9,1.4-1.7,1.8C536.2,221.1,535.3,221.3,534.5,221.3z"/>
			<path class="st6" d="M559.1,209.5c0.9,0,1.7,0.2,2.4,0.5c0.7,0.4,1.2,0.9,1.7,1.7c0.4,0.8,0.6,1.7,0.6,2.9v6.6h-3.3v-6.1
				c0-0.9-0.2-1.6-0.5-2.1c-0.4-0.5-0.9-0.7-1.6-0.7c-0.5,0-0.9,0.1-1.3,0.3c-0.4,0.2-0.7,0.5-0.9,1s-0.3,1-0.3,1.7v5.8h-3.3v-6
				c0-0.9-0.2-1.6-0.5-2.1c-0.4-0.5-0.9-0.7-1.6-0.7c-0.5,0-0.9,0.1-1.3,0.3c-0.4,0.2-0.7,0.5-0.9,1s-0.3,1-0.3,1.7v5.8h-3.3v-11.4
				h3.2v3.2l-0.6-0.9c0.4-0.8,0.9-1.4,1.7-1.8c0.8-0.4,1.5-0.6,2.5-0.6c1.1,0,2,0.2,2.8,0.8c0.8,0.5,1.3,1.3,1.5,2.5l-1.2-0.3
				c0.4-0.9,1-1.6,1.9-2.2C557,209.7,557.9,209.5,559.1,209.5z"/>
			<path class="st6" d="M572.5,221.3c-1.3,0-2.5-0.2-3.5-0.8c-1-0.5-1.8-1.2-2.3-2.1c-0.5-0.9-0.8-1.9-0.8-3c0-1.2,0.2-2.2,0.8-3.1
				c0.5-0.9,1.2-1.6,2.2-2.1c0.9-0.5,2-0.8,3.2-0.8s2.2,0.2,3,0.7c0.9,0.5,1.6,1.2,2.2,2.1c0.5,0.9,0.8,1.9,0.8,3.2
				c0,0.2,0,0.3,0,0.5s0,0.3-0.1,0.5h-9.3v-1.9h7.6L575,215c0-0.6-0.2-1.1-0.4-1.5c-0.2-0.5-0.5-0.8-1-1s-0.9-0.4-1.5-0.4
				s-1.1,0.2-1.5,0.4c-0.5,0.2-0.8,0.6-1,1.1s-0.4,1-0.4,1.6v0.5c0,0.6,0.2,1.2,0.4,1.6c0.3,0.5,0.7,0.8,1.2,1.1
				c0.5,0.2,1.1,0.4,1.8,0.4c0.6,0,1.2-0.1,1.6-0.3c0.5-0.2,0.8-0.5,1.2-0.8l1.8,1.9c-0.5,0.6-1.2,1.1-2,1.4
				S573.6,221.3,572.5,221.3z"/>
			<path class="st6" d="M580.3,221.2v-11.5h3.2v3.2L583,212c0.3-0.8,0.9-1.4,1.6-1.9c0.8-0.4,1.7-0.6,2.8-0.6v3.1
				c-0.2,0-0.3,0-0.4,0s-0.2,0-0.4,0c-0.9,0-1.6,0.2-2.2,0.8c-0.5,0.5-0.8,1.3-0.8,2.4v5.4H580.3L580.3,221.2z"/>
		</g>
	</g>
</g>
<g>
	<g>
		<g>
			<path class="st1" d="M379.5,372.6l295.7,214.9c47.5-65.3,69.8-134,69.8-214.9H379.5L379.5,372.6z"/>
		</g>
	</g>
	<g>
		<g>
			<path class="st6" d="M587.3,451.4v-29.3h-6.8v-5.2h12.6v34.6L587.3,451.4L587.3,451.4z"/>
			<path class="st6" d="M630.8,434.1c0,11.2-5.3,17.5-14.7,17.5c-9.5,0-14.8-6.3-14.8-17.5s5.3-17.5,14.8-17.5
				C625.6,416.7,630.8,422.9,630.8,434.1z M607.4,434.1c0,8.7,2.9,12.8,8.7,12.8s8.7-4.1,8.7-12.8c0-8.8-2.9-12.8-8.7-12.8
				C610.3,421.3,607.4,425.4,607.4,434.1z"/>
			<path class="st6" d="M653.3,427c0,6.5-3.5,10.3-9.1,10.3s-9.1-3.9-9.1-10.3s3.5-10.3,9.1-10.3S653.3,420.6,653.3,427z M638.9,427
				c0,4.5,1.9,7,5.3,7c3.4,0,5.4-2.5,5.4-7c0-4.4-2-7-5.4-7C640.8,420.1,638.9,422.6,638.9,427z M667,416.9h5.4L647,451.5h-5.5
				L667,416.9z M679.3,441.2c0,6.5-3.5,10.3-9.1,10.3s-9.1-3.9-9.1-10.3s3.5-10.3,9.1-10.3C675.8,430.9,679.3,434.8,679.3,441.2z
				 M664.9,441.2c0,4.5,1.9,7,5.3,7s5.4-2.5,5.4-7c0-4.4-2-7-5.4-7S664.9,436.8,664.9,441.2z"/>
		</g>
	</g>
	<g>
		<path class="st6" d="M582.4,477.1v-14.9h6.5c1.3,0,2.5,0.2,3.5,0.7c1,0.4,1.7,1.1,2.2,1.9s0.8,1.8,0.8,2.9s-0.3,2.1-0.8,2.9
			s-1.3,1.4-2.2,1.9c-1,0.4-2.1,0.7-3.5,0.7h-4.5l1.5-1.6v5.7h-3.5V477.1z M585.8,471.8l-1.5-1.6h4.4c1.1,0,1.9-0.2,2.4-0.7
			s0.8-1.1,0.8-1.9s-0.3-1.5-0.8-1.9c-0.5-0.5-1.3-0.7-2.4-0.7h-4.4l1.5-1.6V471.8z"/>
		<path class="st6" d="M602.9,477.4c-1.2,0-2.3-0.2-3.4-0.5c-1.1-0.3-2-0.7-2.6-1.2l1.2-2.6c0.6,0.5,1.4,0.8,2.3,1.1
			c0.9,0.3,1.8,0.4,2.7,0.4c0.7,0,1.2-0.1,1.7-0.2c0.4-0.1,0.7-0.3,0.9-0.6c0.2-0.2,0.3-0.5,0.3-0.8c0-0.4-0.2-0.7-0.5-1
			c-0.3-0.2-0.7-0.4-1.2-0.6s-1.1-0.3-1.7-0.4c-0.6-0.1-1.2-0.3-1.9-0.5c-0.6-0.2-1.2-0.5-1.7-0.8s-0.9-0.7-1.2-1.2s-0.5-1.2-0.5-2
			c0-0.9,0.2-1.6,0.7-2.3c0.5-0.7,1.2-1.3,2.1-1.7c0.9-0.4,2.1-0.6,3.5-0.6c0.9,0,1.9,0.1,2.8,0.3c0.9,0.2,1.7,0.6,2.4,1l-1.1,2.6
			c-0.7-0.4-1.4-0.7-2.1-0.9c-0.7-0.2-1.4-0.3-2-0.3c-0.7,0-1.2,0.1-1.6,0.2c-0.4,0.2-0.7,0.4-0.9,0.6s-0.3,0.5-0.3,0.9
			s0.2,0.7,0.5,0.9c0.3,0.2,0.7,0.4,1.2,0.6s1.1,0.3,1.7,0.4c0.6,0.1,1.2,0.3,1.9,0.5c0.6,0.2,1.2,0.4,1.7,0.7
			c0.5,0.3,0.9,0.7,1.2,1.2s0.5,1.2,0.5,1.9c0,0.8-0.2,1.6-0.7,2.3s-1.2,1.3-2.1,1.7C605.5,477.1,604.3,477.4,602.9,477.4z"/>
		<path class="st6" d="M618.3,477.4c-2.1,0-3.8-0.6-5-1.8c-1.2-1.2-1.8-2.9-1.8-5.1v-8.4h3.5v8.2c0,1.4,0.3,2.4,0.9,3.1
			c0.6,0.6,1.4,0.9,2.5,0.9s1.9-0.3,2.5-0.9s0.9-1.7,0.9-3.1v-8.2h3.4v8.4c0,2.2-0.6,3.9-1.8,5.1
			C622.1,476.8,620.4,477.4,618.3,477.4z"/>
		<path class="st6" d="M625.8,479.2l7-20.1h3l-7,20.1H625.8z"/>
		<path class="st6" d="M643.4,477.4c-1.2,0-2.3-0.2-3.3-0.6s-1.9-0.9-2.6-1.6c-0.7-0.7-1.3-1.5-1.7-2.5c-0.4-0.9-0.6-2-0.6-3.1
			s0.2-2.2,0.6-3.1c0.4-0.9,1-1.8,1.7-2.5s1.6-1.2,2.6-1.6s2.1-0.6,3.3-0.6c1.3,0,2.5,0.2,3.6,0.7s2,1.1,2.7,1.9l-2.2,2
			c-0.5-0.6-1.1-1-1.8-1.3c-0.6-0.3-1.3-0.4-2.1-0.4c-0.7,0-1.4,0.1-2,0.3c-0.6,0.2-1.1,0.6-1.5,1s-0.8,0.9-1,1.5s-0.4,1.2-0.4,1.9
			c0,0.7,0.1,1.3,0.4,1.9c0.2,0.6,0.6,1.1,1,1.5s0.9,0.8,1.5,1s1.2,0.3,2,0.3c0.7,0,1.3-0.1,2-0.3c0.6-0.2,1.3-0.6,1.9-1.1l2,2.5
			c-0.8,0.6-1.8,1.1-2.8,1.4C645.5,477.2,644.5,477.4,643.4,477.4z M646.3,475v-5.6h3.2v6.1L646.3,475z"/>
		<path class="st6" d="M657.9,477.3c-1.2,0-2.3-0.3-3.3-0.8c-0.9-0.5-1.7-1.2-2.2-2.1s-0.8-1.9-0.8-3c0-1.2,0.3-2.2,0.8-3.1
			s1.3-1.6,2.2-2.1s2-0.8,3.3-0.8c1.2,0,2.3,0.3,3.2,0.8c1,0.5,1.7,1.2,2.2,2.1s0.8,1.9,0.8,3.1c0,1.1-0.3,2.2-0.8,3
			c-0.5,0.9-1.3,1.6-2.2,2.1S659.1,477.3,657.9,477.3z M657.9,474.5c0.6,0,1.1-0.1,1.5-0.4s0.8-0.6,1-1.1c0.3-0.5,0.4-1,0.4-1.7
			s-0.1-1.2-0.4-1.7c-0.3-0.5-0.6-0.8-1-1.1c-0.4-0.3-0.9-0.4-1.5-0.4s-1.1,0.1-1.5,0.4s-0.8,0.6-1.1,1.1s-0.4,1-0.4,1.7
			s0.1,1.2,0.4,1.7c0.3,0.5,0.6,0.8,1.1,1.1C656.8,474.4,657.3,474.5,657.9,474.5z"/>
		<path class="st6" d="M669.2,477.1l-4.8-11.5h3.4l4,9.9h-1.7l4.2-9.9h3.2l-4.8,11.5H669.2z"/>
		<path class="st6" d="M677.8,468.4v-2.6h8v2.6H677.8z M683.9,477.3c-1.4,0-2.4-0.3-3.2-1s-1.1-1.7-1.1-3.1v-10.1h3.3v10
			c0,0.5,0.1,0.9,0.4,1.1c0.3,0.3,0.6,0.4,1,0.4c0.5,0,1-0.1,1.3-0.4l0.9,2.3c-0.3,0.2-0.8,0.4-1.2,0.5
			C684.9,477.2,684.4,477.3,683.9,477.3z"/>
		<path class="st6" d="M689.9,477.3c-0.6,0-1.1-0.2-1.5-0.6s-0.6-0.9-0.6-1.5s0.2-1.1,0.6-1.5c0.4-0.4,0.9-0.6,1.5-0.6
			s1.1,0.2,1.5,0.6s0.6,0.9,0.6,1.5s-0.2,1.1-0.6,1.5C691,477.1,690.5,477.3,689.9,477.3z"/>
	</g>
</g>
<g>
	<g>
		<g>
			<path class="st3" d="M380.1,373.4l214.2,294.8c0,0.1,0.1,0.1,0.2,0c32.6-23.7,56.9-48,80.6-80.6c0-0.1,0-0.2,0-0.2L380.3,373.2
				C380.1,373.1,380,373.3,380.1,373.4z"/>
		</g>
	</g>
	<g>
		<g>
			<path class="st6" d="M561.8,555.1v7.4c0,0.1,0.1,0.1,0.1,0.1l4.6-0.1c7.5,0,12.4,4.5,12.4,10.5c0,7-5,11.6-12.8,11.6
				c-4.1,0-8.8-1.5-12.2-3.9c-0.1,0-0.1-0.1,0-0.2l2.2-4.5c0-0.1,0.1-0.1,0.2,0c2.8,2.3,6.2,3.5,9.2,3.5c4.5,0,7.2-2.3,7.2-6.3
				c0-3.5-2.7-5.7-7.2-5.7c-2,0-6.6,0.2-9,0.5c-0.1,0-0.1-0.1-0.1-0.1v-18c0-0.1,0.1-0.1,0.1-0.1h20.8c0.1,0,0.1,0.1,0.1,0.1l0.1,5
				c0,0.1-0.1,0.1-0.1,0.1L561.8,555.1L561.8,555.1z"/>
			<path class="st6" d="M601.2,560c0,6.5-3.5,10.3-9.1,10.3s-9.1-3.9-9.1-10.3s3.5-10.3,9.1-10.3C597.7,549.8,601.2,553.6,601.2,560
				z M586.7,560c0,4.5,1.9,7,5.3,7c3.4,0,5.4-2.5,5.4-7c0-4.4-2-7-5.4-7C588.6,553.1,586.7,555.6,586.7,560z M615,549.8h5.1
				c0.1,0,0.2,0.1,0.1,0.2L595,584.3l-0.1,0.1h-5.2c-0.1,0-0.2-0.1-0.1-0.2L615,549.8C614.9,549.9,614.9,549.8,615,549.8z
				 M627.2,574.2c0,6.5-3.5,10.3-9.1,10.3s-9.1-3.9-9.1-10.3c0-6.4,3.5-10.3,9.1-10.3S627.2,567.8,627.2,574.2z M612.7,574.2
				c0,4.5,1.9,7,5.3,7s5.4-2.5,5.4-7c0-4.4-2-7-5.4-7S612.7,569.8,612.7,574.2z"/>
		</g>
	</g>
	<g>
		<path class="st6" d="M554.9,610v-14.7c0-0.1,0.1-0.1,0.1-0.1h6.7c1.6,0,3.1,0.3,4.3,0.9c1.2,0.6,2.2,1.5,2.9,2.6s1.1,2.4,1.1,3.9
			s-0.4,2.9-1.1,3.9s-1.7,2-2.9,2.6s-2.7,0.9-4.3,0.9L554.9,610C554.9,610.1,554.9,610,554.9,610z M558.4,607.1
			C558.4,607.2,558.5,607.2,558.4,607.1l3.1,0.1c1,0,1.9-0.2,2.6-0.5c0.7-0.4,1.3-0.9,1.7-1.6c0.4-0.7,0.6-1.5,0.6-2.5
			c0-0.9-0.2-1.8-0.6-2.5c-0.4-0.7-1-1.2-1.7-1.6c-0.7-0.4-1.6-0.5-2.6-0.5h-3c-0.1,0-0.1,0.1-0.1,0.1V607.1z"/>
		<path class="st6" d="M578,610.2c-1.3,0-2.5-0.2-3.5-0.8c-1-0.5-1.8-1.2-2.3-2.1c-0.5-0.9-0.8-1.9-0.8-3c0-1.2,0.2-2.2,0.8-3.1
			c0.5-0.9,1.2-1.6,2.2-2.1c0.9-0.5,2-0.8,3.2-0.8s2.2,0.2,3,0.7c0.9,0.5,1.6,1.2,2.2,2.1c0.5,0.9,0.8,1.9,0.8,3.2
			c0,0.2,0,0.3,0,0.5s0,0.3-0.1,0.5h-9.2c-0.1,0-0.1-0.1-0.1-0.1v-1.7c0-0.1,0.1-0.1,0.1-0.1h7.4l-1.3,0.5c0-0.5-0.1-0.9-0.3-1.3
			c-0.3-0.6-0.7-1-1.3-1.3c-0.4-0.2-0.8-0.3-1.3-0.3s-1.1,0.2-1.5,0.4c-0.5,0.2-0.8,0.6-1,1.1s-0.4,1-0.4,1.6v0.5
			c0,0.6,0.2,1.2,0.4,1.6c0.3,0.5,0.7,0.8,1.2,1.1c0.5,0.2,1.1,0.4,1.8,0.4c0.6,0,1.2-0.1,1.6-0.3c0.4-0.1,0.8-0.4,1.1-0.8
			c0.1,0,0.1,0,0.2,0l1.6,1.7c0,0,0,0.1,0,0.2c-0.5,0.6-1.1,1-1.9,1.3C580,610.1,579.1,610.2,578,610.2z"/>
		<path class="st6" d="M584.4,601.2v-2.3c0-0.1,0.1-0.1,0.1-0.1h7.7c0.1,0,0.1,0.1,0.1,0.1v2.3c0,0.1-0.1,0.1-0.1,0.1L584.4,601.2
			C584.4,601.4,584.4,601.3,584.4,601.2z M586.3,610.1C586.2,610.1,586.2,610,586.3,610.1l-0.1-11.7c0-1.3,0.4-2.3,1.2-3.1
			s1.9-1.2,3.3-1.2c0.5,0,0.9,0.1,1.4,0.2c0.5,0.1,0.8,0.2,1.2,0.5l-0.8,2.4c-0.2-0.2-0.4-0.2-0.6-0.3c-0.2-0.1-0.5-0.1-0.7-0.1
			c-0.5,0-0.8,0.1-1.1,0.4l0,0c-0.2,0.3-0.4,0.7-0.4,1.2v1.1l0,0l0.1,1.5l0,0v9.1c0,0.1-0.1,0.1-0.1,0.1h-3.4L586.3,610.1
			L586.3,610.1z"/>
		<path class="st6" d="M599.6,610.2c-1.3,0-2.5-0.2-3.5-0.8c-1-0.5-1.8-1.2-2.3-2.1c-0.5-0.9-0.8-1.9-0.8-3c0-1.2,0.2-2.2,0.8-3.1
			c0.5-0.9,1.2-1.6,2.2-2.1c0.9-0.5,2-0.8,3.2-0.8s2.2,0.2,3,0.7c0.9,0.5,1.6,1.2,2.2,2.1c0.5,0.9,0.8,1.9,0.8,3.2
			c0,0.2,0,0.3,0,0.5s0,0.3-0.1,0.5h-9.2c-0.1,0-0.1-0.1-0.1-0.1v-1.7c0-0.1,0.1-0.1,0.1-0.1h7.4l-1.3,0.5c0-0.5-0.1-0.9-0.3-1.3
			c-0.3-0.6-0.7-1-1.3-1.3c-0.4-0.2-0.8-0.3-1.3-0.3s-1.1,0.2-1.5,0.4c-0.5,0.2-0.8,0.6-1,1.1s-0.4,1-0.4,1.6v0.5
			c0,0.6,0.2,1.2,0.4,1.6c0.3,0.5,0.7,0.8,1.2,1.1c0.5,0.2,1.1,0.4,1.8,0.4c0.6,0,1.2-0.1,1.6-0.3c0.4-0.1,0.8-0.4,1.1-0.8
			c0.1,0,0.1,0,0.2,0l1.6,1.7c0,0,0,0.1,0,0.2c-0.5,0.6-1.1,1-1.9,1.3C601.5,610.1,600.6,610.2,599.6,610.2z"/>
		<path class="st6" d="M614.4,598.4c0.9,0,1.7,0.2,2.5,0.5c0.7,0.4,1.3,0.9,1.7,1.7s0.6,1.7,0.6,2.9v6.4c0,0.1-0.1,0.1-0.1,0.1H616
			c-0.1,0-0.1-0.1-0.1-0.1v-6c0-0.9-0.2-1.6-0.6-2.1c-0.4-0.5-1-0.7-1.7-0.7c-0.5,0-1,0.1-1.4,0.3s-0.8,0.5-1,1s-0.4,1-0.4,1.8v5.6
			c0,0.1-0.1,0.1-0.1,0.1h-3.1c-0.1,0-0.1-0.1-0.1-0.1v-11.3c0-0.1,0.1-0.1,0.1-0.1h2.9c0.1,0,0.1,0.1,0.1,0.1v3l-0.6-0.9v-0.1
			c0.4-0.7,1-1.3,1.7-1.7C612.5,598.6,613.4,598.4,614.4,598.4z"/>
		<path class="st6" d="M626,610.2c-1,0-1.9-0.2-2.9-0.4c-0.9-0.2-1.5-0.5-2.1-0.8c-0.1,0-0.1-0.1-0.1-0.2l1-2.2
			c0-0.1,0.1-0.1,0.2-0.1c0.5,0.3,1.1,0.6,1.7,0.7c0.7,0.2,1.4,0.3,2.2,0.3s1.3-0.1,1.6-0.3s0.5-0.5,0.5-0.8s-0.2-0.5-0.4-0.6
			c-0.2-0.2-0.6-0.2-1-0.3s-0.8-0.2-1.4-0.2c-0.5-0.1-1-0.2-1.5-0.3c-0.5-0.2-0.9-0.3-1.4-0.5s-0.8-0.5-1-1
			c-0.2-0.4-0.4-0.9-0.4-1.6c0-0.7,0.2-1.4,0.6-1.9c0.4-0.5,1-1,1.9-1.3c0.8-0.3,1.8-0.5,2.9-0.5c0.8,0,1.5,0.1,2.4,0.2
			c0.8,0.1,1.4,0.4,1.9,0.7c0.1,0,0.1,0.1,0,0.2l-1,2.2c0,0.1-0.1,0.1-0.2,0.1c-0.5-0.3-1-0.5-1.6-0.6c-0.5-0.2-1.1-0.2-1.6-0.2
			c-0.8,0-1.3,0.1-1.6,0.3s-0.5,0.5-0.5,0.8s0.2,0.5,0.4,0.6c0.2,0.2,0.6,0.2,1,0.3s0.8,0.2,1.4,0.2s1,0.2,1.5,0.3s0.9,0.3,1.4,0.5
			c0.4,0.2,0.8,0.5,1,0.9s0.4,0.9,0.4,1.6c0,0.7-0.2,1.3-0.6,1.9c-0.5,0.5-1.1,1-1.9,1.3C628.1,609.9,627.1,610.2,626,610.2z"/>
		<path class="st6" d="M639.1,610.2c-1.3,0-2.5-0.2-3.5-0.8c-1-0.5-1.8-1.2-2.3-2.1c-0.5-0.9-0.8-1.9-0.8-3c0-1.2,0.2-2.2,0.8-3.1
			c0.5-0.9,1.2-1.6,2.2-2.1c0.9-0.5,2-0.8,3.2-0.8s2.2,0.2,3,0.7c0.9,0.5,1.6,1.2,2.2,2.1c0.5,0.9,0.8,1.9,0.8,3.2
			c0,0.2,0,0.3,0,0.5s0,0.3-0.1,0.5h-9.2c-0.1,0-0.1-0.1-0.1-0.1v-1.7c0-0.1,0.1-0.1,0.1-0.1h7.4l-1.3,0.5c0-0.5-0.1-0.9-0.3-1.3
			c-0.3-0.6-0.7-1-1.3-1.3c-0.4-0.2-0.8-0.3-1.3-0.3s-1.1,0.2-1.5,0.4c-0.5,0.2-0.8,0.6-1,1.1s-0.4,1-0.4,1.6v0.5
			c0,0.6,0.2,1.2,0.4,1.6c0.3,0.5,0.7,0.8,1.2,1.1c0.5,0.2,1.1,0.4,1.8,0.4c0.6,0,1.2-0.1,1.6-0.3c0.4-0.1,0.8-0.4,1.1-0.8
			c0.1,0,0.1,0,0.2,0l1.6,1.7c0,0,0,0.1,0,0.2c-0.5,0.6-1.1,1-1.9,1.3C641.1,610.1,640.2,610.2,639.1,610.2z"/>
	</g>
</g>
</svg>
