<?xml version="1.0" encoding="utf-8"?>
<!-- Generator: Adobe Illustrator 27.0.0, SVG Export Plug-In . SVG Version: 6.00 Build 0)  -->
<svg version="1.1" id="Layer_1" xmlns="http://www.w3.org/2000/svg" xmlns:xlink="http://www.w3.org/1999/xlink" x="0px" y="0px"
	 viewBox="0 0 1920 930" style="enable-background:new 0 0 1920 930;" xml:space="preserve">
<style type="text/css">
	.st0{fill:#FFFFFF;}
</style>
<path class="st0" d="M0,0v930h1920V0H0z M946.9,343c0-6.9,5.6-12.6,12.6-12.6c6.9,0,12.6,5.6,12.6,12.6v64.1
	c0,6.9-5.6,12.6-12.6,12.6c-6.9,0-12.6-5.6-12.6-12.6V343z M1043.9,417.9c-16.1,55-65.1,67.7-65.1,67.7v114.1h-37.6V485.6
	c0,0-49-12.7-65.1-67.7v-65.3h32.9v62c0,0,11.6,40.2,50.9,41.2c39.3-1,50.9-41.2,50.9-41.2v-62h32.9V417.9z"/>
</svg>
